<?xml version='1.0' encoding='utf-8'?>
<svg xmlns="http://www.w3.org/2000/svg" width="559.8mm" height="202.2mm" viewBox="0 0 1000000 361200"><defs><style>.C1 {stroke: #000000; stroke-width: 447; stroke-opacity: 1.000; fill: none; fill-opacity: 1.000;}</style></defs><rect fill="#ffffff" x="0" y="0" width="1000000" height="361200" fill-opacity="1.0" /><g stroke-linecap="round" stroke-linejoin="round" fill-rule="evenodd"><path d="M 595128 107510 l -59399 -0" class="C1" /><path d="M 404872 107510 l 59399 0" class="C1" /><path d="M 595128 143239 l -59399 0" class="C1" /><path d="M 404872 143239 l 59399 0" class="C1" /><path d="M 595128 178968 l -59399 0" class="C1" /><path d="M 404872 178968 l 59399 0" class="C1" /><path d="M 595128 214696 l -59399 0" class="C1" /><path d="M 404872 214696 l 59399 0" class="C1" /><path d="M 595128 250425 l -59399 0" class="C1" /><path d="M 404872 250425 l 59399 0" class="C1" /><path d="M 595128 286154 l -59399 0" class="C1" /><path d="M 404872 286154 l 59399 0" class="C1" /><path d="M 815306 107510 l -59399 -0" class="C1" /><path d="M 184694 107510 l 59399 0" class="C1" /><path d="M 815306 143239 l -59399 0" class="C1" /><path d="M 184694 143239 l 59399 0" class="C1" /><path d="M 815306 178968 l -59399 -0" class="C1" /><path d="M 184694 178968 l 59399 0" class="C1" /><path d="M 815306 214696 l -59399 -0" class="C1" /><path d="M 184694 214696 l 59399 0" class="C1" /><path d="M 815306 250425 l -59399 -0" class="C1" /><path d="M 184694 250425 l 59399 0" class="C1" /><path d="M 815306 286154 l -59399 0" class="C1" /><path d="M 184694 286154 l 59399 0" class="C1" /><path d="M 500000 107510 l 0 0" class="C1" /><path d="M 500000 107510 l 0 0" class="C1" /><path d="M 500000 107510 l 0 0" class="C1" /><path d="M 500000 107510 l 0 0" class="C1" /><path d="M 500000 107510 l 0 0" class="C1" /><path d="M 522866 250425 l 12862 0" class="C1" /><path d="M 517150 220413 l 0 24296" class="C1" /><path d="M 522866 286154 l 12862 0" class="C1" /><path d="M 522866 214696 l 12862 0" class="C1" /><path d="M 522866 143239 l 12862 0" class="C1" /><path d="M 500000 107510 l 35729 0" class="C1" /><path d="M 522866 178968 l 12862 0" class="C1" /><path d="M 517150 244708 c 0 3157 2559 5717 5717 5717" class="C1" /><path d="M 517150 173251 c 0 3157 2559 5717 5717 5717" class="C1" /><path d="M 522866 214696 c -3157 0 -5717 2559 -5717 5717" class="C1" /><path d="M 500000 132967 c 4193 0 7592 -3399 7592 -7592 c 0 -4193 -3399 -7592 -7592 -7592" class="C1" /><path d="M 522866 143239 c -3157 0 -5717 2559 -5717 5717" class="C1" /><path d="M 517150 148955 l 0 24296" class="C1" /><path d="M 522866 286154 l -22866 0" class="C1" /><path d="M 500000 107510 l 0 0" class="C1" /><path d="M 500000 107510 l 0 0" class="C1" /><path d="M 500000 107510 l 0 0" class="C1" /><path d="M 500000 107510 l 0 0" class="C1" /><path d="M 500000 107510 l 0 0" class="C1" /><path d="M 477134 250425 l -12862 0" class="C1" /><path d="M 482850 220413 l 0 24296" class="C1" /><path d="M 477134 286154 l -12862 0" class="C1" /><path d="M 477134 214696 l -12862 -0" class="C1" /><path d="M 477134 143239 l -12862 -0" class="C1" /><path d="M 500000 107510 l -35729 -0" class="C1" /><path d="M 477134 178968 l -12862 0" class="C1" /><path d="M 482850 244708 c 0 3157 -2559 5717 -5717 5717" class="C1" /><path d="M 482850 173251 c 0 3157 -2559 5717 -5717 5717" class="C1" /><path d="M 477134 214696 c 3157 0 5717 2559 5717 5717" class="C1" /><path d="M 500000 132967 c -4193 0 -7592 -3399 -7592 -7592 c 0 -4193 3399 -7592 7592 -7592" class="C1" /><path d="M 477134 143239 c 3157 0 5717 2559 5717 5717" class="C1" /><path d="M 482850 148955 l 0 24296" class="C1" /><path d="M 477134 286154 l 22866 0" class="C1" /><path d="M 595128 107510 l 0 0" class="C1" /><path d="M 612992 107510 l 0 0" class="C1" /><path d="M 680419 254564 c 444 -886 398 -1939 -123 -2782 c -521 -843 -1441 -1357 -2432 -1357" class="C1" /><path d="M 743517 250425 l 12390 0" class="C1" /><path d="M 694808 214696 c 1111 0 2121 -644 2590 -1650" class="C1" /><path d="M 727523 286154 l -29813 0" class="C1" /><path d="M 612992 286154 l -17864 0" class="C1" /><path d="M 743517 250425 l -30716 0" class="C1" /><path d="M 727523 286154 l 28384 0" class="C1" /><path d="M 695119 282087 c -413 885 -345 1920 180 2744 c 525 824 1434 1323 2411 1323" class="C1" /><path d="M 712800 250425 c -1080 0 -2068 609 -2554 1574" class="C1" /><path d="M 662819 286154 c 1111 0 2121 -644 2590 -1650" class="C1" /><path d="M 727108 210630 c -413 885 -345 1920 180 2744 c 525 824 1434 1323 2411 1323" class="C1" /><path d="M 612992 250425 l 64872 -0" class="C1" /><path d="M 612992 143239 l -17864 0" class="C1" /><path d="M 612992 107510 l -17864 0" class="C1" /><path d="M 755907 178968 l -12880 0" class="C1" /><path d="M 612992 178968 l -17864 0" class="C1" /><path d="M 612992 107510 l 142915 0" class="C1" /><path d="M 595128 107510 l 160779 0" class="C1" /><path d="M 612992 214696 l -17864 0" class="C1" /><path d="M 612992 143239 l 142915 0" class="C1" /><path d="M 612992 178968 l 97360 0" class="C1" /><path d="M 612992 214696 l 81816 0" class="C1" /><path d="M 612992 107510 l -17864 0" class="C1" /><path d="M 612992 286154 l 49827 0" class="C1" /><path d="M 612992 250425 l -17864 0" class="C1" /><path d="M 740436 180618 l -13328 30012" class="C1" /><path d="M 712891 183141 c 459 -886 423 -1947 -96 -2800 c -519 -853 -1444 -1373 -2442 -1373" class="C1" /><path d="M 697398 213046 l 15492 -29905" class="C1" /><path d="M 755907 214696 l -26209 -0" class="C1" /><path d="M 710247 251999 l -15127 30088" class="C1" /><path d="M 743027 178968 c -1111 0 -2121 644 -2590 1650" class="C1" /><path d="M 665410 284503 l 15010 -29939" class="C1" /><path d="M 404872 107510 l 0 0" class="C1" /><path d="M 387008 107510 l 0 0" class="C1" /><path d="M 319581 254564 c -444 -886 -398 -1939 123 -2782 c 521 -843 1441 -1357 2432 -1357" class="C1" /><path d="M 256483 250425 l -12390 0" class="C1" /><path d="M 305192 214696 c -1111 0 -2121 -644 -2590 -1650" class="C1" /><path d="M 272477 286154 l 29813 0" class="C1" /><path d="M 387008 286154 l 17864 0" class="C1" /><path d="M 256483 250425 l 30716 0" class="C1" /><path d="M 272477 286154 l -28384 0" class="C1" /><path d="M 304881 282087 c 413 885 345 1920 -180 2744 c -525 824 -1434 1323 -2411 1323" class="C1" /><path d="M 287200 250425 c 1080 0 2068 609 2554 1574" class="C1" /><path d="M 337181 286154 c -1111 0 -2121 -644 -2590 -1650" class="C1" /><path d="M 272892 210630 c 413 885 345 1920 -180 2744 c -525 824 -1434 1323 -2411 1323" class="C1" /><path d="M 387008 250425 l -64872 -0" class="C1" /><path d="M 387008 143239 l 17864 0" class="C1" /><path d="M 387008 107510 l 17864 0" class="C1" /><path d="M 244093 178968 l 12880 0" class="C1" /><path d="M 387008 178968 l 17864 0" class="C1" /><path d="M 387008 107510 l -142915 -0" class="C1" /><path d="M 404872 107510 l -160779 -0" class="C1" /><path d="M 387008 214696 l 17864 0" class="C1" /><path d="M 387008 143239 l -142915 -0" class="C1" /><path d="M 387008 178968 l -97360 -0" class="C1" /><path d="M 387008 214696 l -81816 -0" class="C1" /><path d="M 387008 107510 l 17864 0" class="C1" /><path d="M 387008 286154 l -49827 -0" class="C1" /><path d="M 387008 250425 l 17864 0" class="C1" /><path d="M 259564 180618 l 13328 30012" class="C1" /><path d="M 287109 183141 c -459 -886 -423 -1947 96 -2800 c 519 -853 1444 -1373 2442 -1373" class="C1" /><path d="M 302602 213046 l -15492 -29905" class="C1" /><path d="M 244093 214696 l 26209 0" class="C1" /><path d="M 289753 251999 l 15127 30088" class="C1" /><path d="M 256973 178968 c 1111 0 2121 644 2590 1650" class="C1" /><path d="M 334590 284503 l -15010 -29939" class="C1" /><path d="M 815306 107510 l 0 0" class="C1" /><path d="M 815306 107510 l 0 0" class="C1" /><path d="M 851035 107510 l 0 0" class="C1" /><path d="M 851035 107510 l -35729 0" class="C1" /><path d="M 851035 214696 l -35729 -0" class="C1" /><path d="M 895783 247124 l 13244 -23945" class="C1" /><path d="M 881167 357600 c 2236 -0 4266 -1304 5197 -3337" class="C1" /><path d="M 851035 250425 l -35729 -0" class="C1" /><path d="M 890602 250425 c 2222 0 4242 -1287 5181 -3301" class="C1" /><path d="M 851035 286154 l 20241 0" class="C1" /><path d="M 919071 282817 l 76546 -167210" class="C1" /><path d="M 851035 286154 l -35729 -0" class="C1" /><path d="M 851035 250425 l 39568 -0" class="C1" /><path d="M 965921 124942 c 0 4193 -3399 7592 -7592 7592 c -4193 0 -7592 -3399 -7592 -7592 c 0 -4193 3399 -7592 7592 -7592 c 4193 0 7592 3399 7592 7592" class="C1" /><path d="M 990419 107510 l -22329 0" class="C1" /><path d="M 851035 143239 l -35729 -0" class="C1" /><path d="M 851035 107510 l 139385 -0" class="C1" /><path d="M 851035 214696 l 52990 0" class="C1" /><path d="M 995617 115606 c 810 -1770 664 -3830 -387 -5468 c -1052 -1638 -2864 -2628 -4811 -2628" class="C1" /><path d="M 851035 178968 l -35729 -0" class="C1" /><path d="M 909028 223180 c 979 -1771 950 -3927 -78 -5671 c -1028 -1743 -2901 -2813 -4924 -2813" class="C1" /><path d="M 927772 175667 l 13763 -23855" class="C1" /><path d="M 922591 178968 c 2222 0 4242 -1287 5181 -3301" class="C1" /><path d="M 941534 151812 c 1020 -1769 1020 -3948 -1 -5716 c -1021 -1768 -2908 -2858 -4950 -2858" class="C1" /><path d="M 851035 143239 l 85548 0" class="C1" /><path d="M 851035 178968 l 71556 0" class="C1" /><path d="M 871276 286154 l 42597 0" class="C1" /><path d="M 913873 286154 c 2236 0 4267 -1304 5198 -3337" class="C1" /><path d="M 184694 107510 l 0 0" class="C1" /><path d="M 184694 107510 l 0 0" class="C1" /><path d="M 148965 107510 l 0 0" class="C1" /><path d="M 148965 107510 l 35729 0" class="C1" /><path d="M 148965 214696 l 35729 0" class="C1" /><path d="M 104217 247124 l -13244 -23945" class="C1" /><path d="M 118833 357600 c -2236 -0 -4266 -1304 -5197 -3337" class="C1" /><path d="M 148965 250425 l 35729 0" class="C1" /><path d="M 109398 250425 c -2222 0 -4242 -1287 -5181 -3301" class="C1" /><path d="M 148965 286154 l -20241 0" class="C1" /><path d="M 80929 282817 l -76546 -167210" class="C1" /><path d="M 148965 286154 l 35729 0" class="C1" /><path d="M 148965 250425 l -39568 -0" class="C1" /><path d="M 34079 124942 c 0 4193 3399 7592 7592 7592 c 4193 0 7592 -3399 7592 -7592 c 0 -4193 -3399 -7592 -7592 -7592 c -4193 0 -7592 3399 -7592 7592" class="C1" /><path d="M 9581 107510 l 22329 0" class="C1" /><path d="M 148965 143239 l 35729 0" class="C1" /><path d="M 148965 107510 l -139385 -0" class="C1" /><path d="M 148965 214696 l -52990 0" class="C1" /><path d="M 4383 115606 c -810 -1770 -664 -3830 387 -5468 c 1052 -1638 2864 -2628 4811 -2628" class="C1" /><path d="M 148965 178968 l 35729 0" class="C1" /><path d="M 90972 223180 c -979 -1771 -950 -3927 78 -5671 c 1028 -1743 2901 -2813 4924 -2813" class="C1" /><path d="M 72228 175667 l -13763 -23855" class="C1" /><path d="M 77409 178968 c -2222 0 -4242 -1287 -5181 -3301" class="C1" /><path d="M 58466 151812 c -1020 -1769 -1020 -3948 1 -5716 c 1021 -1768 2908 -2858 4950 -2858" class="C1" /><path d="M 148965 143239 l -85548 -0" class="C1" /><path d="M 148965 178968 l -71556 0" class="C1" /><path d="M 128724 286154 l -42597 0" class="C1" /><path d="M 86127 286154 c -2236 0 -4267 -1304 -5198 -3337" class="C1" /><path d="M 885122 3996 l -3300 -248 l -1965 -148 l -2363 491 l -3207 1122 l -3802 2496 l -5726 5520 l -2555 2463 l -3053 2005 l -2853 999 l -3654 740 l -1408 924 l -1302 1297 l -851 -1297 l -442 -1262 l 0 -1765 l -1176 -1791 l -2464 -1812 l -2938 -748 l -2827 0 l -3764 2472 l -1917 3570 l -1025 3547 l 0 2345 l 0 1252 c 0 552 93 1100 275 1620 l 559 1598 l 397 920 c 196 456 543 830 982 1061 l 151 80 l 1620 853 l 1401 738 l 1314 1320 l 144 353 l 150 367 l 99 487 l 65 321 l 227 228 l 492 0 l 727 -114 l 364 -57 l 170 171 l 65 452 l 0 584 l -222 1051 l -466 1205 l -949 1939 l -544 1406 l -87 638 l -576 408 l -2373 249 l -3820 -0 l -4401 -1088 l -6548 -2814 l -4083 -1010 l -2392 0 l -2447 1295 l -2426 2881 l -216 550 l 108 737 l 337 573 l 973 381 l 1004 -191 l 399 -1018 l 7124 1834 l 4664 793 l 2253 1163 l 5661 2922 l 4236 1534 l 5332 657 l 1315 -657 l 6927 -11877 l 1461 -4565 l 5803 3652 l 3855 1826 l 5062 1601 l 5025 854 l 7282 1238 l -1798 3312 l -1866 1499 l -6382 5128 l -1697 1992 l -6419 12284 l -989 2992 l -259 1524 l 0 4817 l 518 1067 l 4529 2782 l 7580 2886 l 12555 2993 l 5844 977 l 3109 1518 l 2378 2741 l 346 2880 l 516 4290 l -516 1937 l -2190 2017 l -837 2197 l -136 357 l 5586 0 l 388 -357 l 1616 -1489 l 1322 -1762 l 1329 -2723 l 1123 -2830 l 1698 -3477 l 1281 -2174 l 1276 -1412 l 482 -986 l 233 -868 l 187 -697 l 3415 2441 l 4665 2015 l 6702 2552 l 5631 2433 l 3998 2075 l 2323 1628 l 2011 1831 l 1420 1490 l 547 1234 l -133 719 l 0 357 l 8719 0 l 199 -357 l 2246 -4042 l 467 -2320 l -234 -2166 l -1704 -1795 l -2052 -570 l -1966 285 l -1261 183 l -7161 -3661 l -6770 -4175 l -3526 -3437 l -2418 -2869 l -1772 -2103 l -2553 -1575 l -2000 -399 l -2397 0 l -1961 -391 l -1381 -930 l -1078 -1725 l -1423 -4268 l -1274 -7560 l -375 -2225 l -2494 -4766 l -1412 -2011 c -1560 -2222 -2397 -4872 -2397 -7587 l 0 -8838 l -1168 -2231 l -1233 -1757 l -2887 -2042 l -9630 -5410 l -9510 -4908 l -4945 -3025 l 0 -578 l 719 -930 l 1244 -970 l 1597 -1246 l 2998 -1826 l 13636 0 l 3084 340 l 3317 1035 l 7482 3754 l 6409 -618 l 1970 -883 l 1530 -1299 l 1994 -2017 l 742 -1484 l -195 -450 l -1118 -457 l -3282 -397 l -1839 0 l -2584 0 l -2393 -289 l -1190 -734 l -804 -496 l -1833 -222 l -993 96 l -4924 -784 l -7345 -2390 l -6136 -1996" class="C1" /><path d="M 901243 81494 l 1679 2624 l -2495 9 l -2565 -195 l -2143 -438 l -2403 -796 l -3119 -1386 l -2498 -1390 l -3176 -1967 l -4780 -2661 l -3082 -1398 l -2352 -812 l 2352 -1525 l 1443 -674 l 1386 -647 l 5211 -2434 l 2184 -1401 l 1451 -1260 l 970 -1148 l 947 -1122 l 276 -109 l 184 217 l 217 480 l 275 1075 l 260 1514 l 855 1750 l 1631 3337 l 3592 5613 l 3698 4744" class="C1" /><path d="M 114878 3996 l 3300 -248 l 1965 -148 l 2363 491 l 3207 1122 l 3802 2496 l 5726 5520 l 2555 2463 l 3053 2005 l 2853 999 l 3654 740 l 1408 924 l 1302 1297 l 851 -1297 l 442 -1262 l 0 -1765 l 1176 -1791 l 2464 -1812 l 2938 -748 l 2827 0 l 3764 2472 l 1917 3570 l 1025 3547 l 0 2345 l 0 1252 c -0 552 -93 1100 -275 1620 l -559 1598 l -397 920 c -196 456 -543 830 -982 1061 l -151 80 l -1620 853 l -1401 738 l -1314 1320 l -144 353 l -150 367 l -99 487 l -65 321 l -227 228 l -492 0 l -727 -114 l -364 -57 l -170 171 l -65 452 l 0 584 l 222 1051 l 466 1205 l 949 1939 l 544 1406 l 87 638 l 576 408 l 2373 249 l 3820 0 l 4401 -1088 l 6548 -2814 l 4083 -1010 l 2392 0 l 2447 1295 l 2426 2881 l 216 550 l -108 737 l -337 573 l -973 381 l -1004 -191 l -399 -1018 l -7124 1834 l -4664 793 l -2253 1163 l -5661 2922 l -4236 1534 l -5332 657 l -1315 -657 l -6927 -11877 l -1461 -4565 l -5803 3652 l -3855 1826 l -5062 1601 l -5025 854 l -7282 1238 l 1798 3312 l 1866 1499 l 6382 5128 l 1697 1992 l 6419 12284 l 989 2992 l 259 1524 l 0 4817 l -518 1067 l -4529 2782 l -7580 2886 l -12555 2993 l -5844 977 l -3109 1518 l -2378 2741 l -346 2880 l -516 4290 l 516 1937 l 2190 2017 l 837 2197 l 136 357 l -5586 0 l -388 -357 l -1616 -1489 l -1322 -1762 l -1329 -2723 l -1123 -2830 l -1698 -3477 l -1281 -2174 l -1276 -1412 l -482 -986 l -233 -868 l -187 -697 l -3415 2441 l -4665 2015 l -6702 2552 l -5631 2433 l -3998 2075 l -2323 1628 l -2011 1831 l -1420 1490 l -547 1234 l 133 719 l 0 357 l -8719 0 l -199 -357 l -2246 -4042 l -467 -2320 l 234 -2166 l 1704 -1795 l 2052 -570 l 1966 285 l 1261 183 l 7161 -3661 l 6770 -4175 l 3526 -3437 l 2418 -2869 l 1772 -2103 l 2553 -1575 l 2000 -399 l 2397 0 l 1961 -391 l 1381 -930 l 1078 -1725 l 1423 -4268 l 1274 -7560 l 375 -2225 l 2494 -4766 l 1412 -2011 c 1560 -2222 2397 -4872 2397 -7587 l 0 -8838 l 1168 -2231 l 1233 -1757 l 2887 -2042 l 9630 -5410 l 9510 -4908 l 4945 -3025 l 0 -578 l -719 -930 l -1244 -970 l -1597 -1246 l -2998 -1826 l -13636 0 l -3084 340 l -3317 1035 l -7482 3754 l -6409 -618 l -1970 -883 l -1530 -1299 l -1994 -2017 l -742 -1484 l 195 -450 l 1118 -457 l 3282 -397 l 1839 0 l 2584 0 l 2393 -289 l 1190 -734 l 804 -496 l 1833 -222 l 993 96 l 4924 -784 l 7345 -2390 l 6136 -1996" class="C1" /><path d="M 98757 81494 l -1679 2624 l 2495 9 l 2565 -195 l 2143 -438 l 2403 -796 l 3119 -1386 l 2498 -1390 l 3176 -1967 l 4780 -2661 l 3082 -1398 l 2352 -812 l -2352 -1525 l -1443 -674 l -1386 -647 l -5211 -2434 l -2184 -1401 l -1451 -1260 l -970 -1148 l -947 -1122 l -276 -109 l -184 217 l -217 480 l -275 1075 l -260 1514 l -855 1750 l -1631 3337 l -3592 5613 l -3698 4744" class="C1" /><path d="M 295453 107510 l -75030 0 l 0 -89322 l 75030 0 l 0 11229 l -61632 0 l 0 27817 l 48234 0 l 0 11229 l -48234 0 l 0 27945 l 61632 0 l 0 11101" class="C1" /><path d="M 390134 107510 l -13398 0 l -58952 -69161 l 0 69161 l -13398 0 l 0 -89322 l 13398 0 l 58952 69288 l 0 -69288 l 13398 0 l 0 89322" class="C1" /><path d="M 492854 62849 l -62 2292 l -185 2250 l -309 2208 l -433 2166 l -556 2124 l -680 2083 l -803 2041 l -927 1999 l -1051 1957 l -1174 1915 l -1298 1873 l -1422 1831 l -1545 1789 l -1669 1748 l -1792 1706 l -1916 1664 l -1987 1576 l -2037 1474 l -2087 1373 l -2136 1271 l -2186 1169 l -2236 1068 l -2286 966 l -2336 864 l -2386 763 l -2435 661 l -2485 559 l -2535 458 l -2585 356 l -2635 254 l -2685 153 l -2734 51 l -40195 0 l 0 -89322 l 40195 0 l 2764 51 l 2711 154 l 2657 257 l 2603 359 l 2549 462 l 2495 565 l 2441 667 l 2388 770 l 2334 873 l 2280 975 l 2226 1078 l 2172 1181 l 2118 1284 l 2065 1386 l 2011 1489 l 1957 1592 l 1916 1663 l 1792 1704 l 1669 1745 l 1545 1786 l 1422 1827 l 1298 1868 l 1174 1909 l 1051 1949 l 927 1990 l 803 2031 l 680 2072 l 556 2113 l 433 2154 l 309 2195 l 185 2236 l 62 2276" class="C1" /><path d="M 492854 62849 l -13398 0 l -46 1708 l -139 1678 l -232 1648 l -324 1618 l -417 1588 l -510 1558 l -603 1528 l -695 1498 l -788 1468 l -881 1439 l -973 1409 l -1066 1379 l -1159 1349 l -1252 1319 l -1344 1289 l -1437 1259 l -1531 1190 l -1563 1113 l -1595 1036 l -1627 960 l -1659 883 l -1691 806 l -1723 729 l -1755 652 l -1786 576 l -1818 499 l -1850 422 l -1882 345 l -1914 269 l -1946 192 l -1978 115 l -2010 38 l -26797 0 l 0 -66991 l 26797 0 l 2055 38 l 2017 115 l 1979 192 l 1941 269 l 1903 345 l 1865 422 l 1827 499 l 1789 576 l 1752 652 l 1714 729 l 1676 806 l 1638 883 l 1600 960 l 1562 1036 l 1524 1113 l 1486 1190 l 1437 1244 l 1344 1275 l 1252 1305 l 1159 1336 l 1066 1367 l 973 1398 l 881 1429 l 788 1460 l 695 1491 l 603 1522 l 510 1553 l 417 1584 l 324 1614 l 232 1645 l 139 1676 l 46 1707 l 13398 0" class="C1" /><path d="M 562525 107510 l -61632 0 l 0 -89322 l 13398 0 l 0 78220 l 48234 0 l 0 11101" class="C1" /><path d="M 583963 107510 l -13398 0 l 0 -89322 l 13398 0 l 0 89322" class="C1" /><path d="M 685176 94385 l -1985 1589 l -2035 1487 l -2085 1384 l -2136 1282 l -2186 1179 l -2236 1077 l -2287 974 l -2337 872 l -2387 769 l -2438 666 l -2488 564 l -2538 461 l -2589 359 l -2639 256 l -2689 154 l -2740 51 l -2726 -51 l -2680 -154 l -2633 -256 l -2587 -359 l -2540 -461 l -2494 -564 l -2447 -666 l -2401 -769 l -2354 -872 l -2308 -974 l -2261 -1077 l -2215 -1179 l -2168 -1282 l -2121 -1384 l -2075 -1487 l -2028 -1589 l -1884 -1690 l -1762 -1728 l -1641 -1766 l -1519 -1804 l -1398 -1842 l -1276 -1880 l -1154 -1918 l -1033 -1956 l -911 -1994 l -790 -2032 l -668 -2070 l -547 -2108 l -425 -2146 l -304 -2184 l -182 -2222 l -61 -2260 l 61 -2288 l 182 -2245 l 304 -2202 l 425 -2159 l 547 -2117 l 668 -2074 l 790 -2031 l 911 -1989 l 1033 -1946 l 1154 -1903 l 1276 -1860 l 1398 -1818 l 1519 -1775 l 1641 -1732 l 1762 -1690 l 1884 -1647 l 2000 -1589 l 2050 -1487 l 2101 -1384 l 2151 -1282 l 2201 -1179 l 2252 -1077 l 2302 -974 l 2352 -872 l 2403 -769 l 2453 -666 l 2503 -564 l 2553 -461 l 2604 -359 l 2654 -256 l 2704 -154 l 2755 -51 l 2754 51 l 2702 152 l 2649 254 l 2597 356 l 2545 457 l 2493 559 l 2440 660 l 2388 762 l 2336 864 l 2284 965 l 2232 1067 l 2179 1168 l 2127 1270 l 2075 1371 l 2023 1473 l 1971 1575 l -9114 7413 l -1522 -1192 l -1558 -1115 l -1594 -1038 l -1630 -961 l -1666 -884 l -1702 -807 l -1738 -731 l -1774 -654 l -1811 -577 l -1847 -500 l -1883 -423 l -1919 -346 l -1955 -269 l -1991 -192 l -2027 -115 l -2063 -38 l -2121 39 l -2079 117 l -2037 195 l -1996 272 l -1954 350 l -1912 428 l -1870 506 l -1829 584 l -1787 662 l -1745 740 l -1703 817 l -1661 895 l -1620 973 l -1578 1051 l -1536 1129 l -1494 1207 l -1442 1276 l -1349 1306 l -1256 1337 l -1163 1367 l -1070 1398 l -977 1428 l -884 1458 l -791 1489 l -698 1519 l -605 1549 l -512 1580 l -419 1610 l -326 1641 l -233 1671 l -140 1701 l -47 1732 l 47 1732 l 140 1701 l 233 1671 l 326 1641 l 419 1610 l 512 1580 l 605 1549 l 698 1519 l 791 1489 l 884 1458 l 977 1428 l 1070 1398 l 1163 1367 l 1256 1337 l 1349 1306 l 1442 1276 l 1494 1207 l 1536 1129 l 1578 1051 l 1620 973 l 1661 895 l 1703 817 l 1745 740 l 1787 662 l 1829 584 l 1870 506 l 1912 428 l 1954 350 l 1996 272 l 2037 195 l 2079 117 l 2121 39 l 2035 -38 l 2002 -114 l 1970 -190 l 1938 -266 l 1905 -342 l 1873 -418 l 1841 -494 l 1809 -570 l 1776 -646 l 1744 -722 l 1712 -798 l 1680 -873 l 1647 -949 l 1615 -1025 l 1583 -1101 l 1550 -1177 l 9114 7292" class="C1" /><path d="M 779577 107510 l -13398 0 l 0 -39046 l -58952 0 l 0 39046 l -13398 0 l 0 -89322 l 13398 0 l 0 39046 l 58952 0 l 0 -39046 l 13398 0 l 0 89322" class="C1" /></g></svg>