  0
SECTION
  2
HEADER
  9
$ACADVER
  1
AC1024
  9
$ACADMAINTVER
 70
6
  9
$DWGCODEPAGE
  3
ANSI_1252
  9
$LASTSAVEDBY
  1
ezdxf
  9
$INSBASE
 10
0.0
 20
0.0
 30
0.0
  9
$EXTMIN
 10
1e+20
 20
1e+20
 30
1e+20
  9
$EXTMAX
 10
-1e+20
 20
-1e+20
 30
-1e+20
  9
$LIMMIN
 10
0.0
 20
0.0
  9
$LIMMAX
 10
420.0
 20
297.0
  9
$ORTHOMODE
 70
0
  9
$REGENMODE
 70
1
  9
$FILLMODE
 70
1
  9
$QTEXTMODE
 70
0
  9
$MIRRTEXT
 70
1
  9
$LTSCALE
 40
1.0
  9
$ATTMODE
 70
1
  9
$TEXTSIZE
 40
2.5
  9
$TRACEWID
 40
1.0
  9
$TEXTSTYLE
  7
Standard
  9
$CLAYER
  8
0
  9
$CELTYPE
  6
ByLayer
  9
$CECOLOR
 62
256
  9
$CELTSCALE
 40
1.0
  9
$DISPSILH
 70
0
  9
$DIMSCALE
 40
1.0
  9
$DIMASZ
 40
2.5
  9
$DIMEXO
 40
0.625
  9
$DIMDLI
 40
3.75
  9
$DIMRND
 40
0.0
  9
$DIMDLE
 40
0.0
  9
$DIMEXE
 40
1.25
  9
$DIMTP
 40
0.0
  9
$DIMTM
 40
0.0
  9
$DIMTXT
 40
2.5
  9
$DIMCEN
 40
2.5
  9
$DIMTSZ
 40
0.0
  9
$DIMTOL
 70
0
  9
$DIMLIM
 70
0
  9
$DIMTIH
 70
0
  9
$DIMTOH
 70
0
  9
$DIMSE1
 70
0
  9
$DIMSE2
 70
0
  9
$DIMTAD
 70
1
  9
$DIMZIN
 70
8
  9
$DIMBLK
  1

  9
$DIMASO
 70
1
  9
$DIMSHO
 70
1
  9
$DIMPOST
  1

  9
$DIMAPOST
  1

  9
$DIMALT
 70
0
  9
$DIMALTD
 70
3
  9
$DIMALTF
 40
0.03937007874
  9
$DIMLFAC
 40
1.0
  9
$DIMTOFL
 70
1
  9
$DIMTVP
 40
0.0
  9
$DIMTIX
 70
0
  9
$DIMSOXD
 70
0
  9
$DIMSAH
 70
0
  9
$DIMBLK1
  1

  9
$DIMBLK2
  1

  9
$DIMSTYLE
  2
ISO-25
  9
$DIMCLRD
 70
0
  9
$DIMCLRE
 70
0
  9
$DIMCLRT
 70
0
  9
$DIMTFAC
 40
1.0
  9
$DIMGAP
 40
0.625
  9
$DIMJUST
 70
0
  9
$DIMSD1
 70
0
  9
$DIMSD2
 70
0
  9
$DIMTOLJ
 70
0
  9
$DIMTZIN
 70
8
  9
$DIMALTZ
 70
0
  9
$DIMALTTZ
 70
0
  9
$DIMUPT
 70
0
  9
$DIMDEC
 70
2
  9
$DIMTDEC
 70
2
  9
$DIMALTU
 70
2
  9
$DIMALTTD
 70
3
  9
$DIMTXSTY
  7
Standard
  9
$DIMAUNIT
 70
0
  9
$DIMADEC
 70
0
  9
$DIMALTRND
 40
0.0
  9
$DIMAZIN
 70
0
  9
$DIMDSEP
 70
44
  9
$DIMATFIT
 70
3
  9
$DIMFRAC
 70
0
  9
$DIMLDRBLK
  1

  9
$DIMLUNIT
 70
2
  9
$DIMLWD
 70
-2
  9
$DIMLWE
 70
-2
  9
$DIMTMOVE
 70
0
  9
$DIMFXL
 40
1.0
  9
$DIMFXLON
 70
0
  9
$DIMJOGANG
 40
0.785398163397
  9
$DIMTFILL
 70
0
  9
$DIMTFILLCLR
 70
0
  9
$DIMARCSYM
 70
0
  9
$DIMLTYPE
  6

  9
$DIMLTEX1
  6

  9
$DIMLTEX2
  6

  9
$DIMTXTDIRECTION
 70
0
  9
$LUNITS
 70
2
  9
$LUPREC
 70
4
  9
$SKETCHINC
 40
1.0
  9
$FILLETRAD
 40
10.0
  9
$AUNITS
 70
0
  9
$AUPREC
 70
2
  9
$MENU
  1
.
  9
$ELEVATION
 40
0.0
  9
$PELEVATION
 40
0.0
  9
$THICKNESS
 40
0.0
  9
$LIMCHECK
 70
0
  9
$CHAMFERA
 40
0.0
  9
$CHAMFERB
 40
0.0
  9
$CHAMFERC
 40
0.0
  9
$CHAMFERD
 40
0.0
  9
$SKPOLY
 70
0
  9
$TDCREATE
 40
2460756.8069212963
  9
$TDUCREATE
 40
2458532.153996898
  9
$TDUPDATE
 40
2460756.8069212963
  9
$TDUUPDATE
 40
2458532.1544311
  9
$TDINDWG
 40
0.0
  9
$TDUSRTIMER
 40
0.0
  9
$USRTIMER
 70
1
  9
$ANGBASE
 50
0.0
  9
$ANGDIR
 70
0
  9
$PDMODE
 70
0
  9
$PDSIZE
 40
0.0
  9
$PLINEWID
 40
0.0
  9
$SPLFRAME
 70
0
  9
$SPLINETYPE
 70
6
  9
$SPLINESEGS
 70
8
  9
$HANDSEED
  5
301
  9
$SURFTAB1
 70
6
  9
$SURFTAB2
 70
6
  9
$SURFTYPE
 70
6
  9
$SURFU
 70
6
  9
$SURFV
 70
6
  9
$UCSBASE
  2

  9
$UCSNAME
  2

  9
$UCSORG
 10
0.0
 20
0.0
 30
0.0
  9
$UCSXDIR
 10
1.0
 20
0.0
 30
0.0
  9
$UCSYDIR
 10
0.0
 20
1.0
 30
0.0
  9
$UCSORTHOREF
  2

  9
$UCSORTHOVIEW
 70
0
  9
$UCSORGTOP
 10
0.0
 20
0.0
 30
0.0
  9
$UCSORGBOTTOM
 10
0.0
 20
0.0
 30
0.0
  9
$UCSORGLEFT
 10
0.0
 20
0.0
 30
0.0
  9
$UCSORGRIGHT
 10
0.0
 20
0.0
 30
0.0
  9
$UCSORGFRONT
 10
0.0
 20
0.0
 30
0.0
  9
$UCSORGBACK
 10
0.0
 20
0.0
 30
0.0
  9
$PUCSBASE
  2

  9
$PUCSNAME
  2

  9
$PUCSORG
 10
0.0
 20
0.0
 30
0.0
  9
$PUCSXDIR
 10
1.0
 20
0.0
 30
0.0
  9
$PUCSYDIR
 10
0.0
 20
1.0
 30
0.0
  9
$PUCSORTHOREF
  2

  9
$PUCSORTHOVIEW
 70
0
  9
$PUCSORGTOP
 10
0.0
 20
0.0
 30
0.0
  9
$PUCSORGBOTTOM
 10
0.0
 20
0.0
 30
0.0
  9
$PUCSORGLEFT
 10
0.0
 20
0.0
 30
0.0
  9
$PUCSORGRIGHT
 10
0.0
 20
0.0
 30
0.0
  9
$PUCSORGFRONT
 10
0.0
 20
0.0
 30
0.0
  9
$PUCSORGBACK
 10
0.0
 20
0.0
 30
0.0
  9
$USERI1
 70
0
  9
$USERI2
 70
0
  9
$USERI3
 70
0
  9
$USERI4
 70
0
  9
$USERI5
 70
0
  9
$USERR1
 40
0.0
  9
$USERR2
 40
0.0
  9
$USERR3
 40
0.0
  9
$USERR4
 40
0.0
  9
$USERR5
 40
0.0
  9
$WORLDVIEW
 70
1
  9
$SHADEDGE
 70
3
  9
$SHADEDIF
 70
70
  9
$TILEMODE
 70
1
  9
$MAXACTVP
 70
64
  9
$PINSBASE
 10
0.0
 20
0.0
 30
0.0
  9
$PLIMCHECK
 70
0
  9
$PEXTMIN
 10
1e+20
 20
1e+20
 30
1e+20
  9
$PEXTMAX
 10
-1e+20
 20
-1e+20
 30
-1e+20
  9
$PLIMMIN
 10
0.0
 20
0.0
  9
$PLIMMAX
 10
420.0
 20
297.0
  9
$UNITMODE
 70
0
  9
$VISRETAIN
 70
1
  9
$PLINEGEN
 70
0
  9
$PSLTSCALE
 70
1
  9
$TREEDEPTH
 70
3020
  9
$CMLSTYLE
  2
Standard
  9
$CMLJUST
 70
0
  9
$CMLSCALE
 40
20.0
  9
$PROXYGRAPHICS
 70
1
  9
$MEASUREMENT
 70
1
  9
$CELWEIGHT
370
-1
  9
$ENDCAPS
280
0
  9
$JOINSTYLE
280
0
  9
$LWDISPLAY
290
0
  9
$INSUNITS
 70
6
  9
$HYPERLINKBASE
  1

  9
$STYLESHEET
  1

  9
$XEDIT
290
1
  9
$CEPSNTYPE
380
0
  9
$PSTYLEMODE
290
1
  9
$FINGERPRINTGUID
  2
{7F508B25-6C08-428E-A697-B3905295371F}
  9
$VERSIONGUID
  2
{67AB57AD-A03D-4D8C-B688-19D0FFCEED69}
  9
$EXTNAMES
290
1
  9
$PSVPSCALE
 40
0.0
  9
$OLESTARTUP
290
0
  9
$SORTENTS
280
127
  9
$INDEXCTL
280
0
  9
$HIDETEXT
280
1
  9
$XCLIPFRAME
280
1
  9
$HALOGAP
280
0
  9
$OBSCOLOR
 70
257
  9
$OBSLTYPE
280
0
  9
$INTERSECTIONDISPLAY
280
0
  9
$INTERSECTIONCOLOR
 70
257
  9
$DIMASSOC
280
2
  9
$PROJECTNAME
  1

  9
$CAMERADISPLAY
290
0
  9
$LENSLENGTH
 40
50.0
  9
$CAMERAHEIGHT
 40
0.0
  9
$STEPSPERSEC
 40
24.0
  9
$STEPSIZE
 40
100.0
  9
$3DDWFPREC
 40
2.0
  9
$PSOLWIDTH
 40
0.005
  9
$PSOLHEIGHT
 40
0.08
  9
$LOFTANG1
 40
1.570796326795
  9
$LOFTANG2
 40
1.570796326795
  9
$LOFTMAG1
 40
0.0
  9
$LOFTMAG2
 40
0.0
  9
$LOFTPARAM
 70
7
  9
$LOFTNORMALS
280
1
  9
$LATITUDE
 40
37.795
  9
$LONGITUDE
 40
-122.394
  9
$NORTHDIRECTION
 40
0.0
  9
$TIMEZONE
 70
-8000
  9
$LIGHTGLYPHDISPLAY
280
1
  9
$TILEMODELIGHTSYNCH
280
1
  9
$CMATERIAL
347
20
  9
$SOLIDHIST
280
0
  9
$SHOWHIST
280
1
  9
$DWFFRAME
280
2
  9
$DGNFRAME
280
2
  9
$REALWORLDSCALE
290
1
  9
$INTERFERECOLOR
 62
256
  9
$CSHADOW
280
0
  9
$SHADOWPLANELOCATION
 40
0.0
  0
ENDSEC
  0
SECTION
  2
CLASSES
  0
CLASS
  1
ACDBDICTIONARYWDFLT
  2
AcDbDictionaryWithDefault
  3
ObjectDBX Classes
 90
0
 91
0
280
0
281
0
  0
CLASS
  1
SUN
  2
AcDbSun
  3
SCENEOE
 90
1153
 91
0
280
0
281
0
  0
CLASS
  1
VISUALSTYLE
  2
AcDbVisualStyle
  3
ObjectDBX Classes
 90
4095
 91
0
280
0
281
0
  0
CLASS
  1
MATERIAL
  2
AcDbMaterial
  3
ObjectDBX Classes
 90
1153
 91
0
280
0
281
0
  0
CLASS
  1
SCALE
  2
AcDbScale
  3
ObjectDBX Classes
 90
1153
 91
0
280
0
281
0
  0
CLASS
  1
TABLESTYLE
  2
AcDbTableStyle
  3
ObjectDBX Classes
 90
4095
 91
0
280
0
281
0
  0
CLASS
  1
MLEADERSTYLE
  2
AcDbMLeaderStyle
  3
ACDB_MLEADERSTYLE_CLASS
 90
4095
 91
0
280
0
281
0
  0
CLASS
  1
DICTIONARYVAR
  2
AcDbDictionaryVar
  3
ObjectDBX Classes
 90
0
 91
0
280
0
281
0
  0
CLASS
  1
CELLSTYLEMAP
  2
AcDbCellStyleMap
  3
ObjectDBX Classes
 90
1152
 91
0
280
0
281
0
  0
CLASS
  1
MENTALRAYRENDERSETTINGS
  2
AcDbMentalRayRenderSettings
  3
SCENEOE
 90
1024
 91
0
280
0
281
0
  0
CLASS
  1
ACDBDETAILVIEWSTYLE
  2
AcDbDetailViewStyle
  3
ObjectDBX Classes
 90
1025
 91
0
280
0
281
0
  0
CLASS
  1
ACDBSECTIONVIEWSTYLE
  2
AcDbSectionViewStyle
  3
ObjectDBX Classes
 90
1025
 91
0
280
0
281
0
  0
CLASS
  1
RASTERVARIABLES
  2
AcDbRasterVariables
  3
ISM
 90
0
 91
0
280
0
281
0
  0
CLASS
  1
ACDBPLACEHOLDER
  2
AcDbPlaceHolder
  3
ObjectDBX Classes
 90
0
 91
0
280
0
281
0
  0
CLASS
  1
LAYOUT
  2
AcDbLayout
  3
ObjectDBX Classes
 90
0
 91
0
280
0
281
0
  0
ENDSEC
  0
SECTION
  2
TABLES
  0
TABLE
  2
VPORT
  5
8
330
0
100
AcDbSymbolTable
 70
1
  0
VPORT
  5
23
330
8
100
AcDbSymbolTableRecord
100
AcDbViewportTableRecord
  2
*Active
 70
0
 10
0.0
 20
0.0
 11
1.0
 21
1.0
 12
0.0
 22
0.0
 13
0.0
 23
0.0
 14
0.5
 24
0.5
 15
0.5
 25
0.5
 16
0.0
 26
0.0
 36
1.0
 17
0.0
 27
0.0
 37
0.0
 40
1000.0
 41
1.34
 42
50.0
 43
0.0
 44
0.0
 50
0.0
 51
0.0
 71
0
 72
1000
 73
1
 74
3
 75
0
 76
0
 77
0
 78
0
281
0
 65
0
146
0.0
  0
ENDTAB
  0
TABLE
  2
LTYPE
  5
2
330
0
100
AcDbSymbolTable
 70
3
  0
LTYPE
  5
24
330
2
100
AcDbSymbolTableRecord
100
AcDbLinetypeTableRecord
  2
ByBlock
 70
0
  3

 72
65
 73
0
 40
0.0
  0
LTYPE
  5
25
330
2
100
AcDbSymbolTableRecord
100
AcDbLinetypeTableRecord
  2
ByLayer
 70
0
  3

 72
65
 73
0
 40
0.0
  0
LTYPE
  5
26
330
2
100
AcDbSymbolTableRecord
100
AcDbLinetypeTableRecord
  2
Continuous
 70
0
  3

 72
65
 73
0
 40
0.0
  0
ENDTAB
  0
TABLE
  2
LAYER
  5
1
330
0
100
AcDbSymbolTable
 70
2
  0
LAYER
  5
27
330
1
100
AcDbSymbolTableRecord
100
AcDbLayerTableRecord
  2
0
 70
0
 62
7
  6
Continuous
370
-3
390
13
347
21
  0
LAYER
  5
28
330
1
100
AcDbSymbolTableRecord
100
AcDbLayerTableRecord
  2
Defpoints
 70
0
 62
7
  6
Continuous
290
0
370
-3
390
13
347
21
  0
ENDTAB
  0
TABLE
  2
STYLE
  5
5
330
0
100
AcDbSymbolTable
 70
1
  0
STYLE
  5
29
330
5
100
AcDbSymbolTableRecord
100
AcDbTextStyleTableRecord
  2
Standard
 70
0
 40
0.0
 41
1.0
 50
0.0
 71
0
 42
2.5
  3
txt
  4

  0
ENDTAB
  0
TABLE
  2
VIEW
  5
7
330
0
100
AcDbSymbolTable
 70
0
  0
ENDTAB
  0
TABLE
  2
UCS
  5
6
330
0
100
AcDbSymbolTable
 70
0
  0
ENDTAB
  0
TABLE
  2
APPID
  5
3
330
0
100
AcDbSymbolTable
 70
3
  0
APPID
  5
2A
330
3
100
AcDbSymbolTableRecord
100
AcDbRegAppTableRecord
  2
ACAD
 70
0
  0
APPID
  5
2FE
330
3
100
AcDbSymbolTableRecord
100
AcDbRegAppTableRecord
  2
HATCHBACKGROUNDCOLOR
 70
0
  0
APPID
  5
2FF
330
3
100
AcDbSymbolTableRecord
100
AcDbRegAppTableRecord
  2
EZDXF
 70
0
  0
ENDTAB
  0
TABLE
  2
DIMSTYLE
  5
4
330
0
100
AcDbSymbolTable
 70
1
100
AcDbDimStyleTable
  0
DIMSTYLE
105
2B
330
4
100
AcDbSymbolTableRecord
100
AcDbDimStyleTableRecord
  2
Standard
 70
0
 40
1.0
 41
2.5
 42
0.625
 43
3.75
 44
1.25
 45
0.0
 46
0.0
 47
0.0
 48
0.0
 49
2.5
140
2.5
141
2.5
142
0.0
143
0.03937007874
144
1.0
145
0.0
146
1.0
147
0.625
148
0.0
 69
0
 70
0
 71
0
 72
0
 73
0
 74
0
 75
0
 76
0
 77
1
 78
8
 79
3
170
0
171
3
172
1
173
0
174
0
175
0
176
0
177
0
178
0
179
2
271
2
272
2
273
2
274
3
275
0
276
0
277
2
278
44
279
0
280
0
281
0
282
0
283
0
284
8
285
0
286
0
288
0
289
3
290
0
371
-2
372
-2
  0
ENDTAB
  0
TABLE
  2
BLOCK_RECORD
  5
9
330
0
100
AcDbSymbolTable
 70
11
  0
BLOCK_RECORD
  5
17
330
9
100
AcDbSymbolTableRecord
100
AcDbBlockTableRecord
  2
*Model_Space
340
1A
 70
0
280
1
281
0
  0
BLOCK_RECORD
  5
1B
330
9
100
AcDbSymbolTableRecord
100
AcDbBlockTableRecord
  2
*Paper_Space
340
1E
 70
0
280
1
281
0
  0
BLOCK_RECORD
  5
47
330
9
100
AcDbSymbolTableRecord
100
AcDbBlockTableRecord
  2
3_1
340
0
 70
0
280
1
281
0
  0
BLOCK_RECORD
  5
61
330
9
100
AcDbSymbolTableRecord
100
AcDbBlockTableRecord
  2
3_2
340
0
 70
0
280
1
281
0
  0
BLOCK_RECORD
  5
8A
330
9
100
AcDbSymbolTableRecord
100
AcDbBlockTableRecord
  2
3_3
340
0
 70
0
280
1
281
0
  0
BLOCK_RECORD
  5
AD
330
9
100
AcDbSymbolTableRecord
100
AcDbBlockTableRecord
  2
Laufen
340
0
 70
0
280
1
281
0
  0
BLOCK_RECORD
  5
B6
330
9
100
AcDbSymbolTableRecord
100
AcDbBlockTableRecord
  2
R
340
0
 70
0
280
1
281
0
  0
BLOCK_RECORD
  5
15E
330
9
100
AcDbSymbolTableRecord
100
AcDbBlockTableRecord
  2
U
340
0
 70
0
280
1
281
0
  0
BLOCK_RECORD
  5
1EC
330
9
100
AcDbSymbolTableRecord
100
AcDbBlockTableRecord
  2
N
340
0
 70
0
280
1
281
0
  0
BLOCK_RECORD
  5
200
330
9
100
AcDbSymbolTableRecord
100
AcDbBlockTableRecord
  2
G
340
0
 70
0
280
1
281
0
  0
BLOCK_RECORD
  5
2EE
330
9
100
AcDbSymbolTableRecord
100
AcDbBlockTableRecord
  2
I
340
0
 70
0
280
1
281
0
  0
ENDTAB
  0
ENDSEC
  0
SECTION
  2
BLOCKS
  0
BLOCK
  5
18
330
17
100
AcDbEntity
  8
0
100
AcDbBlockBegin
  2
*Model_Space
 70
0
 10
0.0
 20
0.0
 30
0.0
  3
*Model_Space
  1

  0
ENDBLK
  5
19
330
17
100
AcDbEntity
  8
0
100
AcDbBlockEnd
  0
BLOCK
  5
1C
330
1B
100
AcDbEntity
  8
0
100
AcDbBlockBegin
  2
*Paper_Space
 70
0
 10
0.0
 20
0.0
 30
0.0
  3
*Paper_Space
  1

  0
ENDBLK
  5
1D
330
1B
100
AcDbEntity
  8
0
100
AcDbBlockEnd
  0
BLOCK
  5
48
330
47
100
AcDbEntity
  8
0
100
AcDbBlockBegin
  2
3_1
 70
0
 10
0.0
 20
0.0
 30
0.0
  3
3_1
  1

  0
POINT
  5
4A
330
47
100
AcDbEntity
  8
0
100
AcDbPoint
 10
0.0
 20
0.0
 30
0.0
  0
POINT
  5
4B
330
47
100
AcDbEntity
  8
0
100
AcDbPoint
 10
0.0
 20
0.0
 30
0.0
  0
POINT
  5
4C
330
47
100
AcDbEntity
  8
0
100
AcDbPoint
 10
0.0
 20
0.0
 30
0.0
  0
POINT
  5
4D
330
47
100
AcDbEntity
  8
0
100
AcDbPoint
 10
0.0
 20
0.0
 30
0.0
  0
POINT
  5
4E
330
47
100
AcDbEntity
  8
0
100
AcDbPoint
 10
0.0
 20
0.0
 30
0.0
  0
LINE
  5
4F
330
47
100
AcDbEntity
  8
0
100
AcDbLine
 10
-12.800000000000011
 20
80.00000000000003
 30
0.0
 11
-19.999999999999996
 21
80.00000000000003
 31
0.0
  0
LINE
  5
50
330
47
100
AcDbEntity
  8
0
100
AcDbLine
 10
-9.600000000000023
 20
63.20000000000002
 30
0.0
 11
-9.600000000000023
 21
76.80000000000001
 31
0.0
  0
LINE
  5
51
330
47
100
AcDbEntity
  8
0
100
AcDbLine
 10
-12.800000000000011
 20
100.00000000000006
 30
0.0
 11
-19.999999999999996
 21
100.00000000000006
 31
0.0
  0
LINE
  5
52
330
47
100
AcDbEntity
  8
0
100
AcDbLine
 10
-12.800000000000011
 20
60.000000000000014
 30
0.0
 11
-19.999999999999996
 21
60.000000000000014
 31
0.0
  0
LINE
  5
53
330
47
100
AcDbEntity
  8
0
100
AcDbLine
 10
-12.800000000000011
 20
20.00000000000002
 30
0.0
 11
-19.999999999999996
 21
20.000000000000018
 31
0.0
  0
LINE
  5
54
330
47
100
AcDbEntity
  8
0
100
AcDbLine
 10
0.0
 20
0.0
 30
0.0
 11
-19.999999999999996
 21
-5.464378949326942e-16
 31
0.0
  0
LINE
  5
55
330
47
100
AcDbEntity
  8
0
100
AcDbLine
 10
-12.800000000000011
 20
40.000000000000014
 30
0.0
 11
-19.999999999999996
 21
40.000000000000036
 31
0.0
  0
ARC
  5
56
330
47
100
AcDbEntity
  8
0
100
AcDbCircle
 10
-12.800000000000011
 20
76.80000000000001
 30
0.0
 40
3.1999999999999886
100
AcDbArc
 50
0.0
 51
90.0
  0
ARC
  5
57
330
47
100
AcDbEntity
  8
0
100
AcDbCircle
 10
-12.800000000000011
 20
36.80000000000004
 30
0.0
 40
3.1999999999999886
100
AcDbArc
 50
0.0
 51
90.0
  0
ARC
  5
58
330
47
100
AcDbEntity
  8
0
100
AcDbCircle
 10
-12.800000000000011
 20
63.20000000000002
 30
0.0
 40
3.200000000000003
100
AcDbArc
 50
-90.0
 51
0.0
  0
ARC
  5
59
330
47
100
AcDbEntity
  8
0
100
AcDbCircle
 10
0.0
 20
10.000000000000039
 30
0.0
 40
4.250000000000003
100
AcDbArc
 50
90.0
 51
270.0
  0
ARC
  5
5A
330
47
100
AcDbEntity
  8
0
100
AcDbCircle
 10
-12.800000000000011
 20
23.200000000000024
 30
0.0
 40
3.200000000000003
100
AcDbArc
 50
-90.0
 51
0.0
  0
LINE
  5
5B
330
47
100
AcDbEntity
  8
0
100
AcDbLine
 10
-9.600000000000023
 20
23.200000000000024
 30
0.0
 11
-9.600000000000023
 21
36.80000000000004
 31
0.0
  0
LINE
  5
5C
330
47
100
AcDbEntity
  8
0
100
AcDbLine
 10
-12.800000000000011
 20
100.00000000000006
 30
0.0
 11
3.469446951953614e-17
 21
100.00000000000006
 31
0.0
  0
ENDBLK
  5
49
330
47
100
AcDbEntity
  8
0
100
AcDbBlockEnd
  0
BLOCK
  5
62
330
61
100
AcDbEntity
  8
0
100
AcDbBlockBegin
  2
3_2
 70
0
 10
0.0
 20
0.0
 30
0.0
  3
3_2
  1

  0
POINT
  5
64
330
61
100
AcDbEntity
  8
0
100
AcDbPoint
 10
0.0
 20
0.0
 30
0.0
  0
POINT
  5
65
330
61
100
AcDbEntity
  8
0
100
AcDbPoint
 10
-10.0
 20
0.0
 30
0.0
  0
ARC
  5
66
330
61
100
AcDbEntity
  8
0
100
AcDbCircle
 10
-46.31374477257396
 20
81.60000000000004
 30
0.0
 40
1.6000000000000145
100
AcDbArc
 50
153.37355672477204
 51
269.9999999999997
  0
LINE
  5
67
330
61
100
AcDbEntity
  8
0
100
AcDbLine
 10
-83.06437185369617
 20
80.00000000000003
 30
0.0
 11
-90.0
 21
80.00000000000006
 31
0.0
  0
ARC
  5
68
330
61
100
AcDbEntity
  8
0
100
AcDbCircle
 10
-55.79816647298031
 20
58.40000000000003
 30
0.0
 40
1.599999999999966
100
AcDbArc
 50
90.0
 51
154.99999999999815
  0
LINE
  5
69
330
61
100
AcDbEntity
  8
0
100
AcDbLine
 10
-74.11126481712017
 20
100.00000000000006
 30
0.0
 11
-57.42276174050815
 21
100.00000000000006
 31
0.0
  0
LINE
  5
6A
330
61
100
AcDbEntity
  8
0
100
AcDbLine
 10
-10.0
 20
100.00000000000001
 30
0.0
 11
0.0
 21
100.00000000000001
 31
0.0
  0
LINE
  5
6B
330
61
100
AcDbEntity
  8
0
100
AcDbLine
 10
-83.06437185369617
 20
80.00000000000003
 30
0.0
 11
-65.87009236288496
 21
80.00000000000007
 31
0.0
  0
LINE
  5
6C
330
61
100
AcDbEntity
  8
0
100
AcDbLine
 10
-74.11126481712017
 20
100.00000000000006
 30
0.0
 11
-90.0
 21
100.00000000000006
 31
0.0
  0
ARC
  5
6D
330
61
100
AcDbEntity
  8
0
100
AcDbCircle
 10
-57.42276174050815
 20
98.40000000000003
 30
0.0
 40
1.5999999999999839
100
AcDbArc
 50
-24.99999999999992
 51
90.0
  0
ARC
  5
6E
330
61
100
AcDbEntity
  8
0
100
AcDbCircle
 10
-65.870092362885
 20
81.60000000000014
 30
0.0
 40
1.6000000000000725
100
AcDbArc
 50
270.00000000000153
 51
333.30808432102634
  0
ARC
  5
6F
330
61
100
AcDbEntity
  8
0
100
AcDbCircle
 10
-37.89195239982831
 20
98.40000000000016
 30
0.0
 40
1.5999999999998593
100
AcDbArc
 50
90.0
 51
155.00000000000313
  0
ARC
  5
70
330
61
100
AcDbEntity
  8
0
100
AcDbCircle
 10
-75.32897581366015
 20
58.40000000000003
 30
0.0
 40
1.5999999999999839
100
AcDbArc
 50
-24.99999999999992
 51
90.0
  0
LINE
  5
71
330
61
100
AcDbEntity
  8
0
100
AcDbLine
 10
-10.0
 20
80.00000000000006
 30
0.0
 11
-46.31374477257397
 21
80.00000000000001
 31
0.0
  0
LINE
  5
72
330
61
100
AcDbEntity
  8
0
100
AcDbLine
 10
-10.0
 20
20.00000000000003
 30
0.0
 11
0.0
 21
20.00000000000003
 31
0.0
  0
LINE
  5
73
330
61
100
AcDbEntity
  8
0
100
AcDbLine
 10
-10.0
 20
0.0
 30
0.0
 11
0.0
 21
0.0
 31
0.0
  0
LINE
  5
74
330
61
100
AcDbEntity
  8
0
100
AcDbLine
 10
-90.0
 20
40.00000000000004
 30
0.0
 11
-82.78989834414013
 21
40.00000000000006
 31
0.0
  0
LINE
  5
75
330
61
100
AcDbEntity
  8
0
100
AcDbLine
 10
-10.0
 20
40.00000000000006
 30
0.0
 11
0.0
 21
40.00000000000006
 31
0.0
  0
LINE
  5
76
330
61
100
AcDbEntity
  8
0
100
AcDbLine
 10
-10.0
 20
0.0
 30
0.0
 11
-90.0
 21
0.0
 31
0.0
  0
LINE
  5
77
330
61
100
AcDbEntity
  8
0
100
AcDbLine
 10
0.0
 20
0.0
 30
0.0
 11
-90.0
 21
0.0
 31
0.0
  0
LINE
  5
78
330
61
100
AcDbEntity
  8
0
100
AcDbLine
 10
-10.0
 20
60.0
 30
0.0
 11
0.0
 21
60.0
 31
0.0
  0
LINE
  5
79
330
61
100
AcDbEntity
  8
0
100
AcDbLine
 10
-10.0
 20
20.00000000000003
 30
0.0
 11
-90.0
 21
20.00000000000003
 31
0.0
  0
LINE
  5
7A
330
61
100
AcDbEntity
  8
0
100
AcDbLine
 10
-10.0
 20
40.00000000000006
 30
0.0
 11
-64.49982862561691
 21
40.00000000000004
 31
0.0
  0
LINE
  5
7B
330
61
100
AcDbEntity
  8
0
100
AcDbLine
 10
-10.0
 20
60.0
 30
0.0
 11
-55.79816647298031
 21
59.99999999999999
 31
0.0
  0
LINE
  5
7C
330
61
100
AcDbEntity
  8
0
100
AcDbLine
 10
-10.0
 20
0.0
 30
0.0
 11
0.0
 21
0.0
 31
0.0
  0
LINE
  5
7D
330
61
100
AcDbEntity
  8
0
100
AcDbLine
 10
-10.0
 20
100.00000000000001
 30
0.0
 11
-37.89195239982831
 21
100.00000000000001
 31
0.0
  0
LINE
  5
7E
330
61
100
AcDbEntity
  8
0
100
AcDbLine
 10
-10.0
 20
80.00000000000006
 30
0.0
 11
0.0
 21
80.00000000000006
 31
0.0
  0
LINE
  5
7F
330
61
100
AcDbEntity
  8
0
100
AcDbLine
 10
-81.33980588488157
 20
40.92381078121491
 30
0.0
 11
-73.87888335440152
 21
57.723810781214915
 31
0.0
  0
ARC
  5
80
330
61
100
AcDbEntity
  8
0
100
AcDbCircle
 10
-64.49982862561691
 20
41.60000000000005
 30
0.0
 40
1.6000000000000032
100
AcDbArc
 50
152.6136253493158
 51
270.0
  0
LINE
  5
81
330
61
100
AcDbEntity
  8
0
100
AcDbLine
 10
-57.2482589322388
 20
59.07618921878513
 30
0.0
 11
-65.92050830378811
 21
42.33598182860139
 31
0.0
  0
LINE
  5
82
330
61
100
AcDbEntity
  8
0
100
AcDbLine
 10
-90.0
 20
60.00000000000003
 30
0.0
 11
-75.32897581366015
 21
60.00000000000003
 31
0.0
  0
LINE
  5
83
330
61
100
AcDbEntity
  8
0
100
AcDbLine
 10
-64.44059671895593
 20
80.88129129406427
 30
0.0
 11
-55.97266928124952
 21
97.72381078121492
 31
0.0
  0
ARC
  5
84
330
61
100
AcDbEntity
  8
0
100
AcDbCircle
 10
-82.78989834414013
 20
41.599999999999994
 30
0.0
 40
1.5999999999999392
100
AcDbArc
 50
270.0
 51
334.99999999999983
  0
LINE
  5
85
330
61
100
AcDbEntity
  8
0
100
AcDbLine
 10
-39.34204485908687
 20
99.07618921878515
 30
0.0
 11
-47.74406075793528
 21
82.31707473949372
 31
0.0
  0
ENDBLK
  5
63
330
61
100
AcDbEntity
  8
0
100
AcDbBlockEnd
  0
BLOCK
  5
8B
330
8A
100
AcDbEntity
  8
0
100
AcDbBlockBegin
  2
3_3
 70
0
 10
0.0
 20
0.0
 30
0.0
  3
3_3
  1

  0
POINT
  5
8D
330
8A
100
AcDbEntity
  8
0
100
AcDbPoint
 10
0.0
 20
0.0
 30
0.0
  0
POINT
  5
8E
330
8A
100
AcDbEntity
  8
0
100
AcDbPoint
 10
0.0
 20
0.0
 30
0.0
  0
POINT
  5
8F
330
8A
100
AcDbEntity
  8
0
100
AcDbPoint
 10
-20.0
 20
0.0
 30
0.0
  0
LINE
  5
90
330
8A
100
AcDbEntity
  8
0
100
AcDbLine
 10
-20.0
 20
0.0
 30
0.0
 11
0.0
 21
0.0
 31
0.0
  0
LINE
  5
91
330
8A
100
AcDbEntity
  8
0
100
AcDbLine
 10
-20.0
 20
60.00000000000003
 30
0.0
 11
3.552713678800501e-14
 21
60.000000000000014
 31
0.0
  0
LINE
  5
92
330
8A
100
AcDbEntity
  8
0
100
AcDbLine
 10
-45.049131937629454
 20
78.1523784375703
 30
0.0
 11
-52.46283535036588
 21
64.74883261800548
 31
0.0
  0
ARC
  5
93
330
8A
100
AcDbEntity
  8
0
100
AcDbCircle
 10
-36.86664143583168
 20
136.79381801215396
 30
0.0
 40
3.20000000000001
100
AcDbArc
 50
90.00960757978065
 51
155.40242977276966
  0
LINE
  5
94
330
8A
100
AcDbEntity
  8
0
100
AcDbLine
 10
-20.0
 20
80.00000000000003
 30
0.0
 11
4.440892098500626e-14
 21
80.00000000000001
 31
0.0
  0
ARC
  5
95
330
8A
100
AcDbEntity
  8
0
100
AcDbCircle
 10
-42.148947019112484
 20
76.80000000000008
 30
0.0
 40
3.199999999999923
100
AcDbArc
 50
90.0
 51
154.99999999999793
  0
LINE
  5
96
330
8A
100
AcDbEntity
  8
0
100
AcDbLine
 10
-20.0
 20
100.00000000000003
 30
0.0
 11
-31.330609349916067
 21
100.00000000000003
 31
0.0
  0
LINE
  5
97
330
8A
100
AcDbEntity
  8
0
100
AcDbLine
 10
-58.0848014652485
 20
98.13197514695702
 30
0.0
 11
-100.93342600858976
 21
4.531975146956988
 31
0.0
  0
LINE
  5
98
330
8A
100
AcDbEntity
  8
0
100
AcDbLine
 10
-20.0
 20
100.00000000000003
 30
0.0
 11
5.773159728050814e-14
 21
100.00000000000001
 31
0.0
  0
LINE
  5
99
330
8A
100
AcDbEntity
  8
0
100
AcDbLine
 10
-20.0
 20
80.00000000000003
 30
0.0
 11
-42.148947019112484
 21
80.0
 31
0.0
  0
CIRCLE
  5
9A
330
8A
100
AcDbEntity
  8
0
100
AcDbCircle
 10
-80.06025668368946
 20
9.757929537773101
 30
0.0
 40
4.25
  0
LINE
  5
9B
330
8A
100
AcDbEntity
  8
0
100
AcDbLine
 10
-98.0238139712403
 20
-1.3877787807814457e-14
 30
0.0
 11
-85.5243817936153
 21
-8.480732650531376e-15
 31
0.0
  0
LINE
  5
9C
330
8A
100
AcDbEntity
  8
0
100
AcDbLine
 10
-20.0
 20
20.00000000000003
 30
0.0
 11
1.3322676295501878e-14
 21
20.000000000000018
 31
0.0
  0
LINE
  5
9D
330
8A
100
AcDbEntity
  8
0
100
AcDbLine
 10
-20.0
 20
0.0
 30
0.0
 11
-98.0238139712403
 21
-1.3877787807814457e-14
 31
0.0
  0
LINE
  5
9E
330
8A
100
AcDbEntity
  8
0
100
AcDbLine
 10
-20.0
 20
60.00000000000003
 30
0.0
 11
-49.662635800083365
 21
60.00000000000003
 31
0.0
  0
ARC
  5
9F
330
8A
100
AcDbEntity
  8
0
100
AcDbCircle
 10
-98.0238139712403
 20
3.1999999999999895
 30
0.0
 40
3.2000000000000033
100
AcDbArc
 50
155.4024297727696
 51
270.0
  0
LINE
  5
A0
330
8A
100
AcDbEntity
  8
0
100
AcDbLine
 10
-20.0
 20
40.0
 30
0.0
 11
2.220446049250313e-14
 21
39.99999999999999
 31
0.0
  0
ARC
  5
A1
330
8A
100
AcDbEntity
  8
0
100
AcDbCircle
 10
-49.66263580008334
 20
63.20000000000004
 30
0.0
 40
3.2000000000000113
100
AcDbArc
 50
151.0523567083079
 51
269.9999999999996
  0
LINE
  5
A2
330
8A
100
AcDbEntity
  8
0
100
AcDbLine
 10
-62.955346010781525
 20
38.15237843757026
 30
0.0
 11
-70.65929099526763
 21
24.7991353513609
 31
0.0
  0
ARC
  5
A3
330
8A
100
AcDbEntity
  8
0
100
AcDbCircle
 10
-60.0551610922642
 20
36.8000000000001
 30
0.0
 40
3.199999999999905
100
AcDbArc
 50
90.0
 51
155.00000000000153
  0
ARC
  5
A4
330
8A
100
AcDbEntity
  8
0
100
AcDbCircle
 10
-67.88751067784926
 20
23.20000000000002
 30
0.0
 40
3.199999999999993
100
AcDbArc
 50
150.01787485720746
 51
270.0000000000002
  0
LINE
  5
A5
330
8A
100
AcDbEntity
  8
0
100
AcDbLine
 10
-20.0
 20
20.00000000000003
 30
0.0
 11
-67.88751067784925
 21
20.00000000000003
 31
0.0
  0
LINE
  5
A6
330
8A
100
AcDbEntity
  8
0
100
AcDbLine
 10
-20.0
 20
40.0
 30
0.0
 11
-60.0551610922642
 21
40.0
 31
0.0
  0
LINE
  5
A7
330
8A
100
AcDbEntity
  8
0
100
AcDbLine
 10
-31.330609349916067
 20
100.00000000000003
 30
0.0
 11
-55.17518942789903
 21
100.00000000000006
 31
0.0
  0
ARC
  5
A8
330
8A
100
AcDbEntity
  8
0
100
AcDbCircle
 10
-55.17518942789904
 20
96.80000000000005
 30
0.0
 40
3.200000000000003
100
AcDbArc
 50
89.99999999999974
 51
155.40242977277018
  0
ENDBLK
  5
8C
330
8A
100
AcDbEntity
  8
0
100
AcDbBlockEnd
  0
BLOCK
  5
AE
330
AD
100
AcDbEntity
  8
0
100
AcDbBlockBegin
  2
Laufen
 70
0
 10
0.0
 20
0.0
 30
0.0
  3
Laufen
  1

  0
LWPOLYLINE
  5
B0
330
AD
100
AcDbEntity
  8
0
100
AcDbPolyline
 90
181
 70
1
 10
0.9187151197074783
 20
-57.944318995825824
 10
2.765908135458055
 20
-58.083244457969045
 10
3.866133991569747
 20
-58.16599129829319
 10
5.189046789648586
 20
-57.8909318663667
 10
6.983964311271045
 20
-57.262710733798826
 10
9.112223658337975
 20
-55.86523923482115
 10
12.317433518378351
 20
-52.775416929742285
 10
13.74788411514082
 20
-51.396462554463405
 10
15.457012100610186
 20
-50.27420381701649
 10
17.054194367609945
 20
-49.71519002356661
 10
19.0996575822237
 20
-49.300969441458484
 10
19.887561998562937
 20
-48.78361051747664
 10
20.61661930478362
 20
-48.0578608493405
 10
21.09316577362005
 20
-48.78361051747664
 10
21.340416984854613
 20
-49.49004254957566
 10
21.340416984854613
 20
-50.477922502065354
 10
21.998724993168643
 20
-51.48048332206636
 10
23.377971703405578
 20
-52.494640546002756
 10
25.022372570000506
 20
-52.91349737051288
 10
26.60472057370537
 20
-52.91349737051288
 10
28.711721072365997
 20
-51.52998499488614
 10
29.784929796837503
 20
-49.531616342986986
 10
30.358918778573454
 20
-47.54592473049488
 10
30.358918778573454
 20
-46.233506680363234
 10
30.358918778573454
 20
-45.53289532192469
 42
0.08436803047815779
 10
30.204776281811903
 20
-44.625885195791035
 10
29.891767827843516
 20
-43.731575327309606
 10
29.669812795869852
 20
-43.216469549353675
 42
0.1714990383465517
 10
29.120231565688677
 20
-42.62243181314734
 10
29.035573494295797
 20
-42.57786620393734
 10
28.128586898947034
 20
-42.10041131390888
 10
27.344235567201558
 20
-41.68751394501393
 10
26.608692584677875
 20
-40.9486186909171
 10
26.52821119155014
 20
-40.751063309425234
 10
26.444407611522855
 20
-40.545353050453556
 10
26.38898034341718
 20
-40.27268039532739
 10
26.352424168736768
 20
-40.092843474763725
 10
26.22526589994351
 20
-39.965105676208175
 10
25.94986766853644
 20
-39.965105676208175
 10
25.542885189378524
 20
-40.02897457548592
 10
25.339219333177354
 20
-40.060936428199966
 10
25.24382335283125
 20
-39.965105676208175
 10
25.20730314516065
 20
-39.71218698104852
 10
25.20730314516065
 20
-39.3852265393497
 10
25.331329270672995
 20
-38.79676200468309
 10
25.592162199552426
 20
-38.12241345684899
 10
26.123497961015616
 20
-37.036775912623575
 10
26.42796889314951
 20
-36.24960716125327
 10
26.476824791187
 20
-35.89240006517026
 10
26.798975724578362
 20
-35.66377682211823
 10
28.127247629771936
 20
-35.524605108566696
 10
30.265740487570127
 20
-35.524605108566696
 10
32.729067703514865
 20
-36.13366953009149
 10
36.39428204460199
 20
-37.709116167102394
 10
38.680020391298555
 20
-38.27427125282401
 10
40.018896200787566
 20
-38.27427125282401
 10
41.388434962302
 20
-37.549216204614815
 10
42.74671692650165
 20
-35.93625637212772
 10
42.86735304237083
 20
-35.62812023196473
 10
42.80703498443623
 20
-35.215558841952955
 10
42.61850648966531
 20
-34.8946777608327
 10
42.07360871411723
 20
-34.68134883695799
 10
41.511794189475026
 20
-34.78801329889534
 10
41.288638987750645
 20
-35.3580099538872
 10
37.30087580237818
 20
-34.33116675651581
 10
34.69010872519487
 20
-33.88733635339435
 10
33.42867052108318
 20
-33.23627147385282
 10
30.25993472620545
 20
-31.600794934561073
 10
27.888493744232328
 20
-30.742169751432872
 10
24.903749060024722
 20
-30.374187530092232
 10
24.1677846173436
 20
-30.742169751432872
 10
20.29034232210595
 20
-37.39083618269265
 10
19.472604052459808
 20
-39.94626827533603
 10
16.22436592581117
 20
-37.90192260122136
 10
14.06644549202312
 20
-36.879749764163996
 10
11.23311012480979
 20
-35.98376202845015
 10
8.420509409026629
 20
-35.505619906767215
 10
4.3444460640111515
 20
-34.81268913811465
 10
5.350687449297347
 20
-32.95899610382298
 10
6.394986725016878
 20
-32.119934836048344
 10
9.967429165641697
 20
-29.24959090976609
 10
10.917327155634311
 20
-28.134493269339828
 10
14.510419552563398
 20
-21.258057820044943
 10
15.0642138352665
 20
-19.583363429854813
 10
15.209275511783673
 20
-18.73005945034278
 10
15.209275511783673
 20
-16.03361887508504
 10
14.919152158749611
 20
-15.436306089426704
 10
12.383704042758588
 20
-13.878879591926662
 10
8.140815637862886
 20
-12.263566747423255
 10
1.112693770246267
 20
-10.58798802401791
 10
-2.1583816759578056
 20
-10.041329198766636
 10
-3.8985277821601727
 20
-9.191672421180176
 10
-5.229458551422077
 20
-7.657190174279349
 10
-5.423247157342033
 20
-6.0448487973784415
 10
-5.711909824422499
 20
-3.6431453541288183
 10
-5.423247157342033
 20
-2.559130138046206
 10
-4.197370090682568
 20
-1.4300143099950313
 10
-3.729090531039816
 20
-0.1999999999999913
 10
-3.6529483990601284
 20
0.0
 10
-6.7796006834432525
 20
0.0
 10
-6.99673997707535
 20
-0.1999999999999913
 10
-7.901393225671036
 20
-1.0332469296215008
 10
-8.641262713717097
 20
-2.0198379600373206
 10
-9.385474712736652
 20
-3.544027075507885
 10
-10.014152854327065
 20
-5.128428746548823
 10
-10.964617424228607
 20
-7.075035028082666
 10
-11.68164630047471
 20
-8.291984435576133
 10
-12.395818487971049
 20
-9.082334989738591
 10
-12.665433681092857
 20
-9.634522462210619
 10
-12.795754912968746
 20
-10.120265235566311
 10
-12.900500167134865
 20
-10.510679364730912
 10
-14.812119622714945
 20
-9.144056473715366
 10
-17.423590687943857
 20
-8.015837856411054
 10
-21.175375246256962
 20
-6.5874934814186625
 10
-24.32725516707343
 20
-5.2258051772593594
 10
-26.564994687894696
 20
-4.06408508559887
 10
-27.865220900766587
 20
-3.152541675376521
 10
-28.990648748745897
 20
-2.1276087883998196
 10
-29.785773061288054
 20
-1.2933800014703811
 10
-30.092091443988735
 20
-0.6025342872944695
 10
-30.017652413443088
 20
-0.1999999999999913
 10
-30.017652413443088
 20
0.0
 10
-34.898354399300956
 20
0.0
 10
-35.00946976442542
 20
-0.1999999999999913
 10
-36.26651436390681
 20
-2.46259365313398
 10
-36.528056292914286
 20
-3.7611885746054474
 10
-36.39728532841055
 20
-4.973446808960182
 10
-35.44340418849167
 20
-5.97834508217534
 10
-34.29494901910303
 20
-6.297360407005503
 10
-33.19434614843878
 20
-6.137852744590346
 10
-32.48861087835856
 20
-6.035572270665743
 10
-28.479937678098395
 20
-8.085122287353887
 10
-24.690035619115775
 20
-10.422228557059853
 10
-22.716292904808384
 20
-12.346213120859616
 10
-21.362879845796314
 20
-13.952336536797198
 10
-20.37098813781199
 20
-15.129435049080499
 10
-18.941618551004886
 20
-16.01087962761151
 10
-17.821838162360457
 20
-16.23421607418887
 10
-16.480108006739442
 20
-16.23421607418887
 10
-15.382347304657316
 20
-16.45316076806054
 10
-14.609476489285456
 20
-16.97381769805814
 10
-14.00609514362909
 20
-17.939227851108285
 10
-13.209631767362744
 20
-20.328617979907268
 10
-12.496435016796923
 20
-24.560734738340905
 10
-12.286573044431535
 20
-25.806057812935826
 10
-10.890233874659891
 20
-28.474024793729487
 10
-10.100075772139302
 20
-29.599729487731402
 42
-0.15420910020937403
 10
-8.758366904186872
 20
-33.8465684554185
 10
-8.758366904186872
 20
-38.79393277430592
 10
-8.104801965198263
 20
-40.04269075143206
 10
-7.414634351054303
 20
-41.025943242815174
 10
-5.798399354545225
 20
-42.16876458981414
 10
-0.407912248404223
 20
-45.19734215121499
 10
4.915652676506106
 20
-47.94451254848422
 10
7.683570698381885
 20
-49.63768662687691
 10
7.683570698381885
 20
-49.961164786296735
 10
7.281195426908589
 20
-50.48188572585053
 10
6.5847617180486395
 20
-51.02505536639317
 10
5.690611013684759
 20
-51.72243045105905
 10
4.012372615330122
 20
-52.7444943982103
 10
-3.6209088740624296
 20
-52.7444943982103
 10
-5.347340021219935
 20
-52.55393089500256
 10
-7.203844747957895
 20
-51.974512222326474
 10
-11.391977513027847
 20
-49.87323266856013
 10
-14.979406837854192
 20
-50.2192283902439
 10
-16.08200415135464
 20
-50.7132811443264
 10
-16.93870412648444
 20
-51.44017809292155
 10
-18.055010154684012
 20
-52.56946442377455
 10
-18.470379839595488
 20
-53.400203793597484
 10
-18.361282991853507
 20
-53.65212550749632
 10
-17.73548702456594
 20
-53.90782708552783
 10
-15.898473056076412
 20
-54.12988371908142
 10
-14.868937755055036
 20
-54.12988371908142
 10
-13.42220514250819
 20
-54.12988371908142
 10
-12.082605569646674
 20
-54.29181333777905
 10
-11.416271347076759
 20
-54.70242794862717
 10
-10.966078601299287
 20
-54.97984986821745
 10
-9.940002505188659
 20
-55.10388104467044
 10
-9.384260599766279
 20
-55.050281571558614
 10
-6.6278820713195685
 20
-55.48916127790971
 10
-2.516277713888506
 20
-56.826802192833235
  0
LWPOLYLINE
  5
B1
330
AD
100
AcDbEntity
  8
0
100
AcDbPolyline
 90
28
 70
1
 10
-8.105268749437364
 20
-14.563094908164004
 10
-9.045222131693897
 20
-13.094417748388082
 10
-7.648760011048772
 20
-13.089147258731288
 10
-6.212864435873904
 20
-13.198202618871115
 10
-5.013255474334883
 20
-13.44357717918593
 10
-3.66823936594308
 20
-13.888886566423789
 10
-1.922090171014652
 20
-14.66463732586504
 10
-0.5238098152430126
 20
-15.442925448417103
 10
1.2538935322221434
 20
-16.544081654273967
 10
3.9297889430620003
 20
-18.03349513766586
 10
5.655079372877907
 20
-18.81606832385485
 10
6.971726650667449
 20
-19.270465657771027
 10
5.655079372877907
 20
-20.12387756916201
 10
4.847453230130476
 20
-20.501177661101856
 10
4.071649631627885
 20
-20.863611160402428
 10
1.1547666524741018
 20
-22.226296390562638
 10
-0.06796712161555973
 20
-23.010761131168373
 10
-0.8803341031899237
 20
-23.715843926247548
 10
-1.4232864856670702
 20
-24.35871462911072
 10
-1.9536288455131512
 20
-24.986654714900766
 10
-2.1083120338016315
 20
-25.04742311029981
 10
-2.211434159327048
 20
-24.925886319501732
 10
-2.3329709501251727
 20
-24.65703220652417
 10
-2.4870733883516394
 20
-24.055543122565556
 10
-2.6325989906794334
 20
-23.20799401132158
 10
-3.111390424846725
 20
-22.228273747458815
 10
-4.024264614362494
 20
-20.36031772735589
 10
-6.0350214250172485
 20
-17.218510210707837
  0
ENDBLK
  5
AF
330
AD
100
AcDbEntity
  8
0
100
AcDbBlockEnd
  0
BLOCK
  5
B7
330
B6
100
AcDbEntity
  8
0
100
AcDbBlockBegin
  2
R
 70
0
 10
0.0
 20
0.0
 30
0.0
  3
R
  1

  0
POLYLINE
  5
B9
330
B6
100
AcDbEntity
  8
0
100
AcDb2dPolyline
 66
1
 10
0.0
 20
0.0
 30
0.0
 70
0
  0
VERTEX
  5
BA
330
B9
100
AcDbEntity
  8
0
100
AcDbVertex
100
AcDb2dVertex
 10
50.214285714285715
 20
0.0
 30
0.0
 70
0
  0
VERTEX
  5
BB
330
B9
100
AcDbEntity
  8
0
100
AcDbVertex
100
AcDb2dVertex
 10
41.285714285714285
 20
0.0
 30
0.0
 70
0
  0
VERTEX
  5
BC
330
B9
100
AcDbEntity
  8
0
100
AcDbVertex
100
AcDb2dVertex
 10
27.642857142857146
 20
17.5
 30
0.0
 70
0
  0
VERTEX
  5
BD
330
B9
100
AcDbEntity
  8
0
100
AcDbVertex
100
AcDb2dVertex
 10
27.214285714285715
 20
18.027622767857142
 30
0.0
 70
0
  0
VERTEX
  5
BE
330
B9
100
AcDbEntity
  8
0
100
AcDbVertex
100
AcDb2dVertex
 10
26.75
 20
18.521205357142858
 30
0.0
 70
0
  0
VERTEX
  5
BF
330
B9
100
AcDbEntity
  8
0
100
AcDbVertex
100
AcDb2dVertex
 10
26.25
 20
18.980747767857142
 30
0.0
 70
0
  0
VERTEX
  5
C0
330
B9
100
AcDbEntity
  8
0
100
AcDbVertex
100
AcDb2dVertex
 10
25.714285714285715
 20
19.40625
 30
0.0
 70
0
  0
VERTEX
  5
C1
330
B9
100
AcDbEntity
  8
0
100
AcDbVertex
100
AcDb2dVertex
 10
25.142857142857142
 20
19.79771205357143
 30
0.0
 70
0
  0
VERTEX
  5
C2
330
B9
100
AcDbEntity
  8
0
100
AcDbVertex
100
AcDb2dVertex
 10
24.535714285714285
 20
20.15513392857143
 30
0.0
 70
0
  0
VERTEX
  5
C3
330
B9
100
AcDbEntity
  8
0
100
AcDbVertex
100
AcDb2dVertex
 10
23.892857142857142
 20
20.478515625
 30
0.0
 70
0
  0
VERTEX
  5
C4
330
B9
100
AcDbEntity
  8
0
100
AcDbVertex
100
AcDb2dVertex
 10
23.214285714285715
 20
20.767857142857142
 30
0.0
 70
0
  0
VERTEX
  5
C5
330
B9
100
AcDbEntity
  8
0
100
AcDbVertex
100
AcDb2dVertex
 10
22.5
 20
21.023158482142858
 30
0.0
 70
0
  0
VERTEX
  5
C6
330
B9
100
AcDbEntity
  8
0
100
AcDbVertex
100
AcDb2dVertex
 10
21.75
 20
21.244419642857142
 30
0.0
 70
0
  0
VERTEX
  5
C7
330
B9
100
AcDbEntity
  8
0
100
AcDbVertex
100
AcDb2dVertex
 10
20.964285714285715
 20
21.431640625
 30
0.0
 70
0
  0
VERTEX
  5
C8
330
B9
100
AcDbEntity
  8
0
100
AcDbVertex
100
AcDb2dVertex
 10
20.142857142857142
 20
21.58482142857143
 30
0.0
 70
0
  0
VERTEX
  5
C9
330
B9
100
AcDbEntity
  8
0
100
AcDbVertex
100
AcDb2dVertex
 10
19.285714285714285
 20
21.70396205357143
 30
0.0
 70
0
  0
VERTEX
  5
CA
330
B9
100
AcDbEntity
  8
0
100
AcDbVertex
100
AcDb2dVertex
 10
18.392857142857142
 20
21.7890625
 30
0.0
 70
0
  0
VERTEX
  5
CB
330
B9
100
AcDbEntity
  8
0
100
AcDbVertex
100
AcDb2dVertex
 10
17.464285714285715
 20
21.840122767857142
 30
0.0
 70
0
  0
VERTEX
  5
CC
330
B9
100
AcDbEntity
  8
0
100
AcDbVertex
100
AcDb2dVertex
 10
16.5
 20
21.857142857142858
 30
0.0
 70
0
  0
VERTEX
  5
CD
330
B9
100
AcDbEntity
  8
0
100
AcDbVertex
100
AcDb2dVertex
 10
7.5
 20
21.857142857142858
 30
0.0
 70
0
  0
VERTEX
  5
CE
330
B9
100
AcDbEntity
  8
0
100
AcDbVertex
100
AcDb2dVertex
 10
7.5
 20
0.0
 30
0.0
 70
0
  0
VERTEX
  5
CF
330
B9
100
AcDbEntity
  8
0
100
AcDbVertex
100
AcDb2dVertex
 10
0.0
 20
0.0
 30
0.0
 70
0
  0
VERTEX
  5
D0
330
B9
100
AcDbEntity
  8
0
100
AcDbVertex
100
AcDb2dVertex
 10
0.0
 20
50.0
 30
0.0
 70
0
  0
VERTEX
  5
D1
330
B9
100
AcDbEntity
  8
0
100
AcDbVertex
100
AcDb2dVertex
 10
25.5
 20
50.0
 30
0.0
 70
0
  0
VERTEX
  5
D2
330
B9
100
AcDbEntity
  8
0
100
AcDbVertex
100
AcDb2dVertex
 10
26.421037946428573
 20
49.984933035714285
 30
0.0
 70
0
  0
VERTEX
  5
D3
330
B9
100
AcDbEntity
  8
0
100
AcDbVertex
100
AcDb2dVertex
 10
27.32700892857143
 20
49.939732142857146
 30
0.0
 70
0
  0
VERTEX
  5
D4
330
B9
100
AcDbEntity
  8
0
100
AcDbVertex
100
AcDb2dVertex
 10
28.217912946428573
 20
49.86439732142857
 30
0.0
 70
0
  0
VERTEX
  5
D5
330
B9
100
AcDbEntity
  8
0
100
AcDbVertex
100
AcDb2dVertex
 10
29.09375
 20
49.75892857142857
 30
0.0
 70
0
  0
VERTEX
  5
D6
330
B9
100
AcDbEntity
  8
0
100
AcDbVertex
100
AcDb2dVertex
 10
29.954520089285715
 20
49.623325892857146
 30
0.0
 70
0
  0
VERTEX
  5
D7
330
B9
100
AcDbEntity
  8
0
100
AcDbVertex
100
AcDb2dVertex
 10
30.800223214285715
 20
49.457589285714285
 30
0.0
 70
0
  0
VERTEX
  5
D8
330
B9
100
AcDbEntity
  8
0
100
AcDbVertex
100
AcDb2dVertex
 10
31.630859375
 20
49.26171875
 30
0.0
 70
0
  0
VERTEX
  5
D9
330
B9
100
AcDbEntity
  8
0
100
AcDbVertex
100
AcDb2dVertex
 10
32.44642857142857
 20
49.035714285714285
 30
0.0
 70
0
  0
VERTEX
  5
DA
330
B9
100
AcDbEntity
  8
0
100
AcDbVertex
100
AcDb2dVertex
 10
33.24693080357143
 20
48.77957589285714
 30
0.0
 70
0
  0
VERTEX
  5
DB
330
B9
100
AcDbEntity
  8
0
100
AcDbVertex
100
AcDb2dVertex
 10
34.03236607142857
 20
48.49330357142857
 30
0.0
 70
0
  0
VERTEX
  5
DC
330
B9
100
AcDbEntity
  8
0
100
AcDbVertex
100
AcDb2dVertex
 10
34.802734375
 20
48.17689732142857
 30
0.0
 70
0
  0
VERTEX
  5
DD
330
B9
100
AcDbEntity
  8
0
100
AcDbVertex
100
AcDb2dVertex
 10
35.558035714285715
 20
47.83035714285714
 30
0.0
 70
0
  0
VERTEX
  5
DE
330
B9
100
AcDbEntity
  8
0
100
AcDbVertex
100
AcDb2dVertex
 10
36.298270089285715
 20
47.453683035714285
 30
0.0
 70
0
  0
VERTEX
  5
DF
330
B9
100
AcDbEntity
  8
0
100
AcDbVertex
100
AcDb2dVertex
 10
37.0234375
 20
47.046875
 30
0.0
 70
0
  0
VERTEX
  5
E0
330
B9
100
AcDbEntity
  8
0
100
AcDbVertex
100
AcDb2dVertex
 10
37.73353794642857
 20
46.609933035714285
 30
0.0
 70
0
  0
VERTEX
  5
E1
330
B9
100
AcDbEntity
  8
0
100
AcDbVertex
100
AcDb2dVertex
 10
38.42857142857143
 20
46.14285714285714
 30
0.0
 70
0
  0
VERTEX
  5
E2
330
B9
100
AcDbEntity
  8
0
100
AcDbVertex
100
AcDb2dVertex
 10
39.129185267857146
 20
45.609095982142854
 30
0.0
 70
0
  0
VERTEX
  5
E3
330
B9
100
AcDbEntity
  8
0
100
AcDbVertex
100
AcDb2dVertex
 10
39.784598214285715
 20
45.06138392857142
 30
0.0
 70
0
  0
VERTEX
  5
E4
330
B9
100
AcDbEntity
  8
0
100
AcDbVertex
100
AcDb2dVertex
 10
40.394810267857146
 20
44.499720982142854
 30
0.0
 70
0
  0
VERTEX
  5
E5
330
B9
100
AcDbEntity
  8
0
100
AcDbVertex
100
AcDb2dVertex
 10
40.95982142857143
 20
43.92410714285714
 30
0.0
 70
0
  0
VERTEX
  5
E6
330
B9
100
AcDbEntity
  8
0
100
AcDbVertex
100
AcDb2dVertex
 10
41.47963169642857
 20
43.33454241071428
 30
0.0
 70
0
  0
VERTEX
  5
E7
330
B9
100
AcDbEntity
  8
0
100
AcDbVertex
100
AcDb2dVertex
 10
41.95424107142857
 20
42.73102678571428
 30
0.0
 70
0
  0
VERTEX
  5
E8
330
B9
100
AcDbEntity
  8
0
100
AcDbVertex
100
AcDb2dVertex
 10
42.38364955357143
 20
42.11356026785714
 30
0.0
 70
0
  0
VERTEX
  5
E9
330
B9
100
AcDbEntity
  8
0
100
AcDbVertex
100
AcDb2dVertex
 10
42.767857142857146
 20
41.482142857142854
 30
0.0
 70
0
  0
VERTEX
  5
EA
330
B9
100
AcDbEntity
  8
0
100
AcDbVertex
100
AcDb2dVertex
 10
43.106863839285715
 20
40.83677455357142
 30
0.0
 70
0
  0
VERTEX
  5
EB
330
B9
100
AcDbEntity
  8
0
100
AcDbVertex
100
AcDb2dVertex
 10
43.400669642857146
 20
40.177455357142854
 30
0.0
 70
0
  0
VERTEX
  5
EC
330
B9
100
AcDbEntity
  8
0
100
AcDbVertex
100
AcDb2dVertex
 10
43.64927455357143
 20
39.50418526785714
 30
0.0
 70
0
  0
VERTEX
  5
ED
330
B9
100
AcDbEntity
  8
0
100
AcDbVertex
100
AcDb2dVertex
 10
43.85267857142857
 20
38.81696428571428
 30
0.0
 70
0
  0
VERTEX
  5
EE
330
B9
100
AcDbEntity
  8
0
100
AcDbVertex
100
AcDb2dVertex
 10
44.01088169642857
 20
38.11579241071428
 30
0.0
 70
0
  0
VERTEX
  5
EF
330
B9
100
AcDbEntity
  8
0
100
AcDbVertex
100
AcDb2dVertex
 10
44.12388392857143
 20
37.40066964285714
 30
0.0
 70
0
  0
VERTEX
  5
F0
330
B9
100
AcDbEntity
  8
0
100
AcDbVertex
100
AcDb2dVertex
 10
44.191685267857146
 20
36.671595982142854
 30
0.0
 70
0
  0
VERTEX
  5
F1
330
B9
100
AcDbEntity
  8
0
100
AcDbVertex
100
AcDb2dVertex
 10
44.214285714285715
 20
35.92857142857142
 30
0.0
 70
0
  0
VERTEX
  5
F2
330
B9
100
AcDbEntity
  8
0
100
AcDbVertex
100
AcDb2dVertex
 10
44.199497767857146
 20
35.31752232142857
 30
0.0
 70
0
  0
VERTEX
  5
F3
330
B9
100
AcDbEntity
  8
0
100
AcDbVertex
100
AcDb2dVertex
 10
44.15513392857143
 20
34.716517857142854
 30
0.0
 70
0
  0
VERTEX
  5
F4
330
B9
100
AcDbEntity
  8
0
100
AcDbVertex
100
AcDb2dVertex
 10
44.08119419642857
 20
34.125558035714285
 30
0.0
 70
0
  0
VERTEX
  5
F5
330
B9
100
AcDbEntity
  8
0
100
AcDbVertex
100
AcDb2dVertex
 10
43.97767857142857
 20
33.544642857142854
 30
0.0
 70
0
  0
VERTEX
  5
F6
330
B9
100
AcDbEntity
  8
0
100
AcDbVertex
100
AcDb2dVertex
 10
43.84458705357143
 20
32.97377232142857
 30
0.0
 70
0
  0
VERTEX
  5
F7
330
B9
100
AcDbEntity
  8
0
100
AcDbVertex
100
AcDb2dVertex
 10
43.681919642857146
 20
32.41294642857142
 30
0.0
 70
0
  0
VERTEX
  5
F8
330
B9
100
AcDbEntity
  8
0
100
AcDbVertex
100
AcDb2dVertex
 10
43.489676339285715
 20
31.862165178571427
 30
0.0
 70
0
  0
VERTEX
  5
F9
330
B9
100
AcDbEntity
  8
0
100
AcDbVertex
100
AcDb2dVertex
 10
43.267857142857146
 20
31.32142857142857
 30
0.0
 70
0
  0
VERTEX
  5
FA
330
B9
100
AcDbEntity
  8
0
100
AcDbVertex
100
AcDb2dVertex
 10
43.01646205357143
 20
30.790736607142854
 30
0.0
 70
0
  0
VERTEX
  5
FB
330
B9
100
AcDbEntity
  8
0
100
AcDbVertex
100
AcDb2dVertex
 10
42.73549107142857
 20
30.270089285714285
 30
0.0
 70
0
  0
VERTEX
  5
FC
330
B9
100
AcDbEntity
  8
0
100
AcDbVertex
100
AcDb2dVertex
 10
42.42494419642857
 20
29.759486607142854
 30
0.0
 70
0
  0
VERTEX
  5
FD
330
B9
100
AcDbEntity
  8
0
100
AcDbVertex
100
AcDb2dVertex
 10
42.08482142857143
 20
29.25892857142857
 30
0.0
 70
0
  0
VERTEX
  5
FE
330
B9
100
AcDbEntity
  8
0
100
AcDbVertex
100
AcDb2dVertex
 10
41.715122767857146
 20
28.768415178571427
 30
0.0
 70
0
  0
VERTEX
  5
FF
330
B9
100
AcDbEntity
  8
0
100
AcDbVertex
100
AcDb2dVertex
 10
41.315848214285715
 20
28.287946428571427
 30
0.0
 70
0
  0
VERTEX
  5
100
330
B9
100
AcDbEntity
  8
0
100
AcDbVertex
100
AcDb2dVertex
 10
40.886997767857146
 20
27.81752232142857
 30
0.0
 70
0
  0
VERTEX
  5
101
330
B9
100
AcDbEntity
  8
0
100
AcDbVertex
100
AcDb2dVertex
 10
40.42857142857143
 20
27.357142857142854
 30
0.0
 70
0
  0
VERTEX
  5
102
330
B9
100
AcDbEntity
  8
0
100
AcDbVertex
100
AcDb2dVertex
 10
39.93861607142857
 20
26.910993303571427
 30
0.0
 70
0
  0
VERTEX
  5
103
330
B9
100
AcDbEntity
  8
0
100
AcDbVertex
100
AcDb2dVertex
 10
39.433035714285715
 20
26.483258928571427
 30
0.0
 70
0
  0
VERTEX
  5
104
330
B9
100
AcDbEntity
  8
0
100
AcDbVertex
100
AcDb2dVertex
 10
38.91183035714286
 20
26.073939732142854
 30
0.0
 70
0
  0
VERTEX
  5
105
330
B9
100
AcDbEntity
  8
0
100
AcDbVertex
100
AcDb2dVertex
 10
38.375
 20
25.68303571428571
 30
0.0
 70
0
  0
VERTEX
  5
106
330
B9
100
AcDbEntity
  8
0
100
AcDbVertex
100
AcDb2dVertex
 10
37.822544642857146
 20
25.310546874999996
 30
0.0
 70
0
  0
VERTEX
  5
107
330
B9
100
AcDbEntity
  8
0
100
AcDbVertex
100
AcDb2dVertex
 10
37.254464285714285
 20
24.95647321428571
 30
0.0
 70
0
  0
VERTEX
  5
108
330
B9
100
AcDbEntity
  8
0
100
AcDbVertex
100
AcDb2dVertex
 10
36.67075892857143
 20
24.620814732142854
 30
0.0
 70
0
  0
VERTEX
  5
109
330
B9
100
AcDbEntity
  8
0
100
AcDbVertex
100
AcDb2dVertex
 10
36.07142857142857
 20
24.303571428571427
 30
0.0
 70
0
  0
VERTEX
  5
10A
330
B9
100
AcDbEntity
  8
0
100
AcDbVertex
100
AcDb2dVertex
 10
35.456473214285715
 20
24.004743303571427
 30
0.0
 70
0
  0
VERTEX
  5
10B
330
B9
100
AcDbEntity
  8
0
100
AcDbVertex
100
AcDb2dVertex
 10
34.825892857142854
 20
23.724330357142854
 30
0.0
 70
0
  0
VERTEX
  5
10C
330
B9
100
AcDbEntity
  8
0
100
AcDbVertex
100
AcDb2dVertex
 10
34.1796875
 20
23.46233258928571
 30
0.0
 70
0
  0
VERTEX
  5
10D
330
B9
100
AcDbEntity
  8
0
100
AcDbVertex
100
AcDb2dVertex
 10
33.51785714285714
 20
23.21875
 30
0.0
 70
0
  0
VERTEX
  5
10E
330
B9
100
AcDbEntity
  8
0
100
AcDbVertex
100
AcDb2dVertex
 10
32.840401785714285
 20
22.99358258928571
 30
0.0
 70
0
  0
VERTEX
  5
10F
330
B9
100
AcDbEntity
  8
0
100
AcDbVertex
100
AcDb2dVertex
 10
32.14732142857143
 20
22.786830357142854
 30
0.0
 70
0
  0
VERTEX
  5
110
330
B9
100
AcDbEntity
  8
0
100
AcDbVertex
100
AcDb2dVertex
 10
31.438616071428573
 20
22.598493303571427
 30
0.0
 70
0
  0
VERTEX
  5
111
330
B9
100
AcDbEntity
  8
0
100
AcDbVertex
100
AcDb2dVertex
 10
30.714285714285715
 20
22.428571428571427
 30
0.0
 70
0
  0
VERTEX
  5
112
330
B9
100
AcDbEntity
  8
0
100
AcDbVertex
100
AcDb2dVertex
 10
30.99665178571429
 20
22.400948660714285
 30
0.0
 70
0
  0
VERTEX
  5
113
330
B9
100
AcDbEntity
  8
0
100
AcDbVertex
100
AcDb2dVertex
 10
31.290178571428573
 20
22.3359375
 30
0.0
 70
0
  0
VERTEX
  5
114
330
B9
100
AcDbEntity
  8
0
100
AcDbVertex
100
AcDb2dVertex
 10
31.594866071428573
 20
22.23353794642857
 30
0.0
 70
0
  0
VERTEX
  5
115
330
B9
100
AcDbEntity
  8
0
100
AcDbVertex
100
AcDb2dVertex
 10
31.91071428571429
 20
22.09375
 30
0.0
 70
0
  0
VERTEX
  5
116
330
B9
100
AcDbEntity
  8
0
100
AcDbVertex
100
AcDb2dVertex
 10
32.237723214285715
 20
21.916573660714285
 30
0.0
 70
0
  0
VERTEX
  5
117
330
B9
100
AcDbEntity
  8
0
100
AcDbVertex
100
AcDb2dVertex
 10
32.57589285714286
 20
21.702008928571427
 30
0.0
 70
0
  0
VERTEX
  5
118
330
B9
100
AcDbEntity
  8
0
100
AcDbVertex
100
AcDb2dVertex
 10
32.925223214285715
 20
21.450055803571427
 30
0.0
 70
0
  0
VERTEX
  5
119
330
B9
100
AcDbEntity
  8
0
100
AcDbVertex
100
AcDb2dVertex
 10
33.285714285714285
 20
21.160714285714285
 30
0.0
 70
0
  0
VERTEX
  5
11A
330
B9
100
AcDbEntity
  8
0
100
AcDbVertex
100
AcDb2dVertex
 10
33.65736607142857
 20
20.833984375
 30
0.0
 70
0
  0
VERTEX
  5
11B
330
B9
100
AcDbEntity
  8
0
100
AcDbVertex
100
AcDb2dVertex
 10
34.04017857142857
 20
20.469866071428573
 30
0.0
 70
0
  0
VERTEX
  5
11C
330
B9
100
AcDbEntity
  8
0
100
AcDbVertex
100
AcDb2dVertex
 10
34.434151785714285
 20
20.068359375
 30
0.0
 70
0
  0
VERTEX
  5
11D
330
B9
100
AcDbEntity
  8
0
100
AcDbVertex
100
AcDb2dVertex
 10
34.839285714285715
 20
19.629464285714285
 30
0.0
 70
0
  0
VERTEX
  5
11E
330
B9
100
AcDbEntity
  8
0
100
AcDbVertex
100
AcDb2dVertex
 10
35.255580357142854
 20
19.15318080357143
 30
0.0
 70
0
  0
VERTEX
  5
11F
330
B9
100
AcDbEntity
  8
0
100
AcDbVertex
100
AcDb2dVertex
 10
35.683035714285715
 20
18.63950892857143
 30
0.0
 70
0
  0
VERTEX
  5
120
330
B9
100
AcDbEntity
  8
0
100
AcDbVertex
100
AcDb2dVertex
 10
36.121651785714285
 20
18.088448660714285
 30
0.0
 70
0
  0
VERTEX
  5
121
330
B9
100
AcDbEntity
  8
0
100
AcDbVertex
100
AcDb2dVertex
 10
36.57142857142857
 20
17.5
 30
0.0
 70
0
  0
VERTEX
  5
122
330
B9
100
AcDbEntity
  8
0
100
AcDbVertex
100
AcDb2dVertex
 10
50.214285714285715
 20
0.0
 30
0.0
 70
0
  0
SEQEND
  5
123
330
B9
100
AcDbEntity
  8
0
  0
POLYLINE
  5
124
330
B6
100
AcDbEntity
  8
InnerContours
100
AcDb2dPolyline
 66
1
 10
0.0
 20
0.0
 30
0.0
 70
0
  0
VERTEX
  5
125
330
124
100
AcDbEntity
  8
InnerContours
100
AcDbVertex
100
AcDb2dVertex
 10
50.214285714285715
 20
0.0
 30
0.0
 70
0
  0
VERTEX
  5
126
330
124
100
AcDbEntity
  8
InnerContours
100
AcDbVertex
100
AcDb2dVertex
 10
36.714285714285715
 20
35.92857142857142
 30
0.0
 70
0
  0
VERTEX
  5
127
330
124
100
AcDbEntity
  8
InnerContours
100
AcDbVertex
100
AcDb2dVertex
 10
36.70033482142857
 20
35.504464285714285
 30
0.0
 70
0
  0
VERTEX
  5
128
330
124
100
AcDbEntity
  8
InnerContours
100
AcDbVertex
100
AcDb2dVertex
 10
36.658482142857146
 20
35.08928571428571
 30
0.0
 70
0
  0
VERTEX
  5
129
330
124
100
AcDbEntity
  8
InnerContours
100
AcDbVertex
100
AcDb2dVertex
 10
36.58872767857143
 20
34.68303571428571
 30
0.0
 70
0
  0
VERTEX
  5
12A
330
124
100
AcDbEntity
  8
InnerContours
100
AcDbVertex
100
AcDb2dVertex
 10
36.49107142857143
 20
34.285714285714285
 30
0.0
 70
0
  0
VERTEX
  5
12B
330
124
100
AcDbEntity
  8
InnerContours
100
AcDbVertex
100
AcDb2dVertex
 10
36.365513392857146
 20
33.89732142857142
 30
0.0
 70
0
  0
VERTEX
  5
12C
330
124
100
AcDbEntity
  8
InnerContours
100
AcDbVertex
100
AcDb2dVertex
 10
36.21205357142857
 20
33.51785714285714
 30
0.0
 70
0
  0
VERTEX
  5
12D
330
124
100
AcDbEntity
  8
InnerContours
100
AcDbVertex
100
AcDb2dVertex
 10
36.030691964285715
 20
33.14732142857142
 30
0.0
 70
0
  0
VERTEX
  5
12E
330
124
100
AcDbEntity
  8
InnerContours
100
AcDbVertex
100
AcDb2dVertex
 10
35.82142857142857
 20
32.785714285714285
 30
0.0
 70
0
  0
VERTEX
  5
12F
330
124
100
AcDbEntity
  8
InnerContours
100
AcDbVertex
100
AcDb2dVertex
 10
35.584263392857146
 20
32.433035714285715
 30
0.0
 70
0
  0
VERTEX
  5
130
330
124
100
AcDbEntity
  8
InnerContours
100
AcDbVertex
100
AcDb2dVertex
 10
35.31919642857143
 20
32.089285714285715
 30
0.0
 70
0
  0
VERTEX
  5
131
330
124
100
AcDbEntity
  8
InnerContours
100
AcDbVertex
100
AcDb2dVertex
 10
35.02622767857143
 20
31.754464285714285
 30
0.0
 70
0
  0
VERTEX
  5
132
330
124
100
AcDbEntity
  8
InnerContours
100
AcDbVertex
100
AcDb2dVertex
 10
34.705357142857146
 20
31.428571428571427
 30
0.0
 70
0
  0
VERTEX
  5
133
330
124
100
AcDbEntity
  8
InnerContours
100
AcDbVertex
100
AcDb2dVertex
 10
34.35658482142858
 20
31.11160714285714
 30
0.0
 70
0
  0
VERTEX
  5
134
330
124
100
AcDbEntity
  8
InnerContours
100
AcDbVertex
100
AcDb2dVertex
 10
33.979910714285715
 20
30.803571428571427
 30
0.0
 70
0
  0
VERTEX
  5
135
330
124
100
AcDbEntity
  8
InnerContours
100
AcDbVertex
100
AcDb2dVertex
 10
33.57533482142858
 20
30.504464285714285
 30
0.0
 70
0
  0
VERTEX
  5
136
330
124
100
AcDbEntity
  8
InnerContours
100
AcDbVertex
100
AcDb2dVertex
 10
33.142857142857146
 20
30.21428571428571
 30
0.0
 70
0
  0
VERTEX
  5
137
330
124
100
AcDbEntity
  8
InnerContours
100
AcDbVertex
100
AcDb2dVertex
 10
32.3046875
 20
29.728794642857142
 30
0.0
 70
0
  0
VERTEX
  5
138
330
124
100
AcDbEntity
  8
InnerContours
100
AcDbVertex
100
AcDb2dVertex
 10
31.433035714285715
 20
29.30803571428571
 30
0.0
 70
0
  0
VERTEX
  5
139
330
124
100
AcDbEntity
  8
InnerContours
100
AcDbVertex
100
AcDb2dVertex
 10
30.527901785714285
 20
28.952008928571427
 30
0.0
 70
0
  0
VERTEX
  5
13A
330
124
100
AcDbEntity
  8
InnerContours
100
AcDbVertex
100
AcDb2dVertex
 10
29.589285714285715
 20
28.660714285714285
 30
0.0
 70
0
  0
VERTEX
  5
13B
330
124
100
AcDbEntity
  8
InnerContours
100
AcDbVertex
100
AcDb2dVertex
 10
28.6171875
 20
28.434151785714285
 30
0.0
 70
0
  0
VERTEX
  5
13C
330
124
100
AcDbEntity
  8
InnerContours
100
AcDbVertex
100
AcDb2dVertex
 10
27.611607142857142
 20
28.272321428571427
 30
0.0
 70
0
  0
VERTEX
  5
13D
330
124
100
AcDbEntity
  8
InnerContours
100
AcDbVertex
100
AcDb2dVertex
 10
26.572544642857142
 20
28.175223214285715
 30
0.0
 70
0
  0
VERTEX
  5
13E
330
124
100
AcDbEntity
  8
InnerContours
100
AcDbVertex
100
AcDb2dVertex
 10
25.5
 20
28.142857142857142
 30
0.0
 70
0
  0
VERTEX
  5
13F
330
124
100
AcDbEntity
  8
InnerContours
100
AcDbVertex
100
AcDb2dVertex
 10
7.5
 20
28.142857142857142
 30
0.0
 70
0
  0
VERTEX
  5
140
330
124
100
AcDbEntity
  8
InnerContours
100
AcDbVertex
100
AcDb2dVertex
 10
7.5
 20
43.714285714285715
 30
0.0
 70
0
  0
VERTEX
  5
141
330
124
100
AcDbEntity
  8
InnerContours
100
AcDbVertex
100
AcDb2dVertex
 10
25.5
 20
43.714285714285715
 30
0.0
 70
0
  0
VERTEX
  5
142
330
124
100
AcDbEntity
  8
InnerContours
100
AcDbVertex
100
AcDb2dVertex
 10
26.572544642857142
 20
43.683035714285715
 30
0.0
 70
0
  0
VERTEX
  5
143
330
124
100
AcDbEntity
  8
InnerContours
100
AcDbVertex
100
AcDb2dVertex
 10
27.611607142857142
 20
43.589285714285715
 30
0.0
 70
0
  0
VERTEX
  5
144
330
124
100
AcDbEntity
  8
InnerContours
100
AcDbVertex
100
AcDb2dVertex
 10
28.6171875
 20
43.433035714285715
 30
0.0
 70
0
  0
VERTEX
  5
145
330
124
100
AcDbEntity
  8
InnerContours
100
AcDbVertex
100
AcDb2dVertex
 10
29.589285714285715
 20
43.214285714285715
 30
0.0
 70
0
  0
VERTEX
  5
146
330
124
100
AcDbEntity
  8
InnerContours
100
AcDbVertex
100
AcDb2dVertex
 10
30.527901785714285
 20
42.933035714285715
 30
0.0
 70
0
  0
VERTEX
  5
147
330
124
100
AcDbEntity
  8
InnerContours
100
AcDbVertex
100
AcDb2dVertex
 10
31.433035714285715
 20
42.589285714285715
 30
0.0
 70
0
  0
VERTEX
  5
148
330
124
100
AcDbEntity
  8
InnerContours
100
AcDbVertex
100
AcDb2dVertex
 10
32.3046875
 20
42.183035714285715
 30
0.0
 70
0
  0
VERTEX
  5
149
330
124
100
AcDbEntity
  8
InnerContours
100
AcDbVertex
100
AcDb2dVertex
 10
33.142857142857146
 20
41.714285714285715
 30
0.0
 70
0
  0
VERTEX
  5
14A
330
124
100
AcDbEntity
  8
InnerContours
100
AcDbVertex
100
AcDb2dVertex
 10
33.57533482142858
 20
41.423828125
 30
0.0
 70
0
  0
VERTEX
  5
14B
330
124
100
AcDbEntity
  8
InnerContours
100
AcDbVertex
100
AcDb2dVertex
 10
33.979910714285715
 20
41.12388392857143
 30
0.0
 70
0
  0
VERTEX
  5
14C
330
124
100
AcDbEntity
  8
InnerContours
100
AcDbVertex
100
AcDb2dVertex
 10
34.35658482142858
 20
40.814453125
 30
0.0
 70
0
  0
VERTEX
  5
14D
330
124
100
AcDbEntity
  8
InnerContours
100
AcDbVertex
100
AcDb2dVertex
 10
34.705357142857146
 20
40.495535714285715
 30
0.0
 70
0
  0
VERTEX
  5
14E
330
124
100
AcDbEntity
  8
InnerContours
100
AcDbVertex
100
AcDb2dVertex
 10
35.02622767857143
 20
40.16713169642857
 30
0.0
 70
0
  0
VERTEX
  5
14F
330
124
100
AcDbEntity
  8
InnerContours
100
AcDbVertex
100
AcDb2dVertex
 10
35.31919642857143
 20
39.82924107142857
 30
0.0
 70
0
  0
VERTEX
  5
150
330
124
100
AcDbEntity
  8
InnerContours
100
AcDbVertex
100
AcDb2dVertex
 10
35.584263392857146
 20
39.48186383928571
 30
0.0
 70
0
  0
VERTEX
  5
151
330
124
100
AcDbEntity
  8
InnerContours
100
AcDbVertex
100
AcDb2dVertex
 10
35.82142857142857
 20
39.125
 30
0.0
 70
0
  0
VERTEX
  5
152
330
124
100
AcDbEntity
  8
InnerContours
100
AcDbVertex
100
AcDb2dVertex
 10
36.030691964285715
 20
38.75864955357142
 30
0.0
 70
0
  0
VERTEX
  5
153
330
124
100
AcDbEntity
  8
InnerContours
100
AcDbVertex
100
AcDb2dVertex
 10
36.21205357142857
 20
38.38281249999999
 30
0.0
 70
0
  0
VERTEX
  5
154
330
124
100
AcDbEntity
  8
InnerContours
100
AcDbVertex
100
AcDb2dVertex
 10
36.365513392857146
 20
37.99748883928571
 30
0.0
 70
0
  0
VERTEX
  5
155
330
124
100
AcDbEntity
  8
InnerContours
100
AcDbVertex
100
AcDb2dVertex
 10
36.49107142857143
 20
37.60267857142857
 30
0.0
 70
0
  0
VERTEX
  5
156
330
124
100
AcDbEntity
  8
InnerContours
100
AcDbVertex
100
AcDb2dVertex
 10
36.58872767857143
 20
37.19838169642857
 30
0.0
 70
0
  0
VERTEX
  5
157
330
124
100
AcDbEntity
  8
InnerContours
100
AcDbVertex
100
AcDb2dVertex
 10
36.658482142857146
 20
36.78459821428571
 30
0.0
 70
0
  0
VERTEX
  5
158
330
124
100
AcDbEntity
  8
InnerContours
100
AcDbVertex
100
AcDb2dVertex
 10
36.70033482142857
 20
36.36132812499999
 30
0.0
 70
0
  0
VERTEX
  5
159
330
124
100
AcDbEntity
  8
InnerContours
100
AcDbVertex
100
AcDb2dVertex
 10
36.714285714285715
 20
35.92857142857142
 30
0.0
 70
0
  0
VERTEX
  5
15A
330
124
100
AcDbEntity
  8
InnerContours
100
AcDbVertex
100
AcDb2dVertex
 10
50.214285714285715
 20
0.0
 30
0.0
 70
0
  0
SEQEND
  5
15B
330
124
100
AcDbEntity
  8
0
  0
ENDBLK
  5
B8
330
B6
100
AcDbEntity
  8
0
100
AcDbBlockEnd
  0
BLOCK
  5
15F
330
15E
100
AcDbEntity
  8
0
100
AcDbBlockBegin
  2
U
 70
0
 10
0.0
 20
0.0
 30
0.0
  3
U
  1

  0
POLYLINE
  5
161
330
15E
100
AcDbEntity
  8
0
100
AcDb2dPolyline
 66
1
 10
0.0
 20
0.0
 30
0.0
 70
0
  0
VERTEX
  5
162
330
161
100
AcDbEntity
  8
0
100
AcDbVertex
100
AcDb2dVertex
 10
46.7966573816156
 20
19.498607242339833
 30
0.0
 70
0
  0
VERTEX
  5
163
330
161
100
AcDbEntity
  8
0
100
AcDbVertex
100
AcDb2dVertex
 10
46.769727106545965
 20
18.498378743036213
 30
0.0
 70
0
  0
VERTEX
  5
164
330
161
100
AcDbEntity
  8
0
100
AcDbVertex
100
AcDb2dVertex
 10
46.68893628133705
 20
17.517191852367688
 30
0.0
 70
0
  0
VERTEX
  5
165
330
161
100
AcDbEntity
  8
0
100
AcDbVertex
100
AcDb2dVertex
 10
46.554284905988865
 20
16.555046570334262
 30
0.0
 70
0
  0
VERTEX
  5
166
330
161
100
AcDbEntity
  8
0
100
AcDbVertex
100
AcDb2dVertex
 10
46.3657729805014
 20
15.611942896935934
 30
0.0
 70
0
  0
VERTEX
  5
167
330
161
100
AcDbEntity
  8
0
100
AcDbVertex
100
AcDb2dVertex
 10
46.12340050487465
 20
14.687880832172702
 30
0.0
 70
0
  0
VERTEX
  5
168
330
161
100
AcDbEntity
  8
0
100
AcDbVertex
100
AcDb2dVertex
 10
45.82716747910864
 20
13.78286037604457
 30
0.0
 70
0
  0
VERTEX
  5
169
330
161
100
AcDbEntity
  8
0
100
AcDbVertex
100
AcDb2dVertex
 10
45.47707390320335
 20
12.896881528551532
 30
0.0
 70
0
  0
VERTEX
  5
16A
330
161
100
AcDbEntity
  8
0
100
AcDbVertex
100
AcDb2dVertex
 10
45.07311977715878
 20
12.029944289693594
 30
0.0
 70
0
  0
VERTEX
  5
16B
330
161
100
AcDbEntity
  8
0
100
AcDbVertex
100
AcDb2dVertex
 10
44.615305100974936
 20
11.182048659470754
 30
0.0
 70
0
  0
VERTEX
  5
16C
330
161
100
AcDbEntity
  8
0
100
AcDbVertex
100
AcDb2dVertex
 10
44.103629874651816
 20
10.353194637883009
 30
0.0
 70
0
  0
VERTEX
  5
16D
330
161
100
AcDbEntity
  8
0
100
AcDbVertex
100
AcDb2dVertex
 10
43.53809409818942
 20
9.543382224930363
 30
0.0
 70
0
  0
VERTEX
  5
16E
330
161
100
AcDbEntity
  8
0
100
AcDbVertex
100
AcDb2dVertex
 10
42.918697771587745
 20
8.752611420612814
 30
0.0
 70
0
  0
VERTEX
  5
16F
330
161
100
AcDbEntity
  8
0
100
AcDbVertex
100
AcDb2dVertex
 10
42.2454408948468
 20
7.9808822249303635
 30
0.0
 70
0
  0
VERTEX
  5
170
330
161
100
AcDbEntity
  8
0
100
AcDbVertex
100
AcDb2dVertex
 10
41.51832346796658
 20
7.228194637883009
 30
0.0
 70
0
  0
VERTEX
  5
171
330
161
100
AcDbEntity
  8
0
100
AcDbVertex
100
AcDb2dVertex
 10
40.73734549094708
 20
6.4945486594707535
 30
0.0
 70
0
  0
VERTEX
  5
172
330
161
100
AcDbEntity
  8
0
100
AcDbVertex
100
AcDb2dVertex
 10
39.902506963788305
 20
5.779944289693594
 30
0.0
 70
0
  0
VERTEX
  5
173
330
161
100
AcDbEntity
  8
0
100
AcDbVertex
100
AcDb2dVertex
 10
39.013807886490255
 20
5.080029160863511
 30
0.0
 70
0
  0
VERTEX
  5
174
330
161
100
AcDbEntity
  8
0
100
AcDbVertex
100
AcDb2dVertex
 10
38.106067200557106
 20
4.425269846796658
 30
0.0
 70
0
  0
VERTEX
  5
175
330
161
100
AcDbEntity
  8
0
100
AcDbVertex
100
AcDb2dVertex
 10
37.17928490598886
 20
3.815666347493037
 30
0.0
 70
0
  0
VERTEX
  5
176
330
161
100
AcDbEntity
  8
0
100
AcDbVertex
100
AcDb2dVertex
 10
36.23346100278552
 20
3.2512186629526467
 30
0.0
 70
0
  0
VERTEX
  5
177
330
161
100
AcDbEntity
  8
0
100
AcDbVertex
100
AcDb2dVertex
 10
35.26859549094708
 20
2.7319267931754876
 30
0.0
 70
0
  0
VERTEX
  5
178
330
161
100
AcDbEntity
  8
0
100
AcDbVertex
100
AcDb2dVertex
 10
34.28468837047354
 20
2.25779073816156
 30
0.0
 70
0
  0
VERTEX
  5
179
330
161
100
AcDbEntity
  8
0
100
AcDbVertex
100
AcDb2dVertex
 10
33.28173964136491
 20
1.828810497910864
 30
0.0
 70
0
  0
VERTEX
  5
17A
330
161
100
AcDbEntity
  8
0
100
AcDbVertex
100
AcDb2dVertex
 10
32.25974930362117
 20
1.444986072423399
 30
0.0
 70
0
  0
VERTEX
  5
17B
330
161
100
AcDbEntity
  8
0
100
AcDbVertex
100
AcDb2dVertex
 10
31.21871735724234
 20
1.106317461699165
 30
0.0
 70
0
  0
VERTEX
  5
17C
330
161
100
AcDbEntity
  8
0
100
AcDbVertex
100
AcDb2dVertex
 10
30.15864380222841
 20
0.8128046657381613
 30
0.0
 70
0
  0
VERTEX
  5
17D
330
161
100
AcDbEntity
  8
0
100
AcDbVertex
100
AcDb2dVertex
 10
29.07952863857939
 20
0.5644476845403901
 30
0.0
 70
0
  0
VERTEX
  5
17E
330
161
100
AcDbEntity
  8
0
100
AcDbVertex
100
AcDb2dVertex
 10
27.981371866295262
 20
0.3612465181058502
 30
0.0
 70
0
  0
VERTEX
  5
17F
330
161
100
AcDbEntity
  8
0
100
AcDbVertex
100
AcDb2dVertex
 10
26.864173485376043
 20
0.20320116643454078
 30
0.0
 70
0
  0
VERTEX
  5
180
330
161
100
AcDbEntity
  8
0
100
AcDbVertex
100
AcDb2dVertex
 10
25.727933495821727
 20
0.09031162952646277
 30
0.0
 70
0
  0
VERTEX
  5
181
330
161
100
AcDbEntity
  8
0
100
AcDbVertex
100
AcDb2dVertex
 10
24.572651897632312
 20
0.022577907381615248
 30
0.0
 70
0
  0
VERTEX
  5
182
330
161
100
AcDbEntity
  8
0
100
AcDbVertex
100
AcDb2dVertex
 10
23.398328690807798
 20
0.0
 30
0.0
 70
0
  0
VERTEX
  5
183
330
161
100
AcDbEntity
  8
0
100
AcDbVertex
100
AcDb2dVertex
 10
22.224005483983284
 20
0.0225779073816156
 30
0.0
 70
0
  0
VERTEX
  5
184
330
161
100
AcDbEntity
  8
0
100
AcDbVertex
100
AcDb2dVertex
 10
21.06872388579387
 20
0.0903116295264624
 30
0.0
 70
0
  0
VERTEX
  5
185
330
161
100
AcDbEntity
  8
0
100
AcDbVertex
100
AcDb2dVertex
 10
19.932483896239553
 20
0.20320116643454042
 30
0.0
 70
0
  0
VERTEX
  5
186
330
161
100
AcDbEntity
  8
0
100
AcDbVertex
100
AcDb2dVertex
 10
18.815285515320333
 20
0.3612465181058496
 30
0.0
 70
0
  0
VERTEX
  5
187
330
161
100
AcDbEntity
  8
0
100
AcDbVertex
100
AcDb2dVertex
 10
17.717128743036213
 20
0.5644476845403901
 30
0.0
 70
0
  0
VERTEX
  5
188
330
161
100
AcDbEntity
  8
0
100
AcDbVertex
100
AcDb2dVertex
 10
16.638013579387184
 20
0.8128046657381617
 30
0.0
 70
0
  0
VERTEX
  5
189
330
161
100
AcDbEntity
  8
0
100
AcDbVertex
100
AcDb2dVertex
 10
15.577940024373259
 20
1.1063174616991645
 30
0.0
 70
0
  0
VERTEX
  5
18A
330
161
100
AcDbEntity
  8
0
100
AcDbVertex
100
AcDb2dVertex
 10
14.536908077994429
 20
1.4449860724233985
 30
0.0
 70
0
  0
VERTEX
  5
18B
330
161
100
AcDbEntity
  8
0
100
AcDbVertex
100
AcDb2dVertex
 10
13.514917740250695
 20
1.8288104979108637
 30
0.0
 70
0
  0
VERTEX
  5
18C
330
161
100
AcDbEntity
  8
0
100
AcDbVertex
100
AcDb2dVertex
 10
12.51196901114206
 20
2.2577907381615603
 30
0.0
 70
0
  0
VERTEX
  5
18D
330
161
100
AcDbEntity
  8
0
100
AcDbVertex
100
AcDb2dVertex
 10
11.528061890668523
 20
2.7319267931754876
 30
0.0
 70
0
  0
VERTEX
  5
18E
330
161
100
AcDbEntity
  8
0
100
AcDbVertex
100
AcDb2dVertex
 10
10.563196378830083
 20
3.2512186629526467
 30
0.0
 70
0
  0
VERTEX
  5
18F
330
161
100
AcDbEntity
  8
0
100
AcDbVertex
100
AcDb2dVertex
 10
9.617372475626741
 20
3.815666347493037
 30
0.0
 70
0
  0
VERTEX
  5
190
330
161
100
AcDbEntity
  8
0
100
AcDbVertex
100
AcDb2dVertex
 10
8.690590181058495
 20
4.425269846796658
 30
0.0
 70
0
  0
VERTEX
  5
191
330
161
100
AcDbEntity
  8
0
100
AcDbVertex
100
AcDb2dVertex
 10
7.7828494951253475
 20
5.080029160863511
 30
0.0
 70
0
  0
VERTEX
  5
192
330
161
100
AcDbEntity
  8
0
100
AcDbVertex
100
AcDb2dVertex
 10
6.894150417827299
 20
5.779944289693594
 30
0.0
 70
0
  0
VERTEX
  5
193
330
161
100
AcDbEntity
  8
0
100
AcDbVertex
100
AcDb2dVertex
 10
6.059311890668525
 20
6.502709348885794
 30
0.0
 70
0
  0
VERTEX
  5
194
330
161
100
AcDbEntity
  8
0
100
AcDbVertex
100
AcDb2dVertex
 10
5.278333913649026
 20
7.243427924791087
 30
0.0
 70
0
  0
VERTEX
  5
195
330
161
100
AcDbEntity
  8
0
100
AcDbVertex
100
AcDb2dVertex
 10
4.551216486768803
 20
8.002100017409472
 30
0.0
 70
0
  0
VERTEX
  5
196
330
161
100
AcDbEntity
  8
0
100
AcDbVertex
100
AcDb2dVertex
 10
3.8779596100278555
 20
8.778725626740949
 30
0.0
 70
0
  0
VERTEX
  5
197
330
161
100
AcDbEntity
  8
0
100
AcDbVertex
100
AcDb2dVertex
 10
3.258563283426184
 20
9.573304752785516
 30
0.0
 70
0
  0
VERTEX
  5
198
330
161
100
AcDbEntity
  8
0
100
AcDbVertex
100
AcDb2dVertex
 10
2.693027506963789
 20
10.385837395543177
 30
0.0
 70
0
  0
VERTEX
  5
199
330
161
100
AcDbEntity
  8
0
100
AcDbVertex
100
AcDb2dVertex
 10
2.1813522806406684
 20
11.216323555013929
 30
0.0
 70
0
  0
VERTEX
  5
19A
330
161
100
AcDbEntity
  8
0
100
AcDbVertex
100
AcDb2dVertex
 10
1.7235376044568245
 20
12.064763231197773
 30
0.0
 70
0
  0
VERTEX
  5
19B
330
161
100
AcDbEntity
  8
0
100
AcDbVertex
100
AcDb2dVertex
 10
1.3195834784122562
 20
12.93115642409471
 30
0.0
 70
0
  0
VERTEX
  5
19C
330
161
100
AcDbEntity
  8
0
100
AcDbVertex
100
AcDb2dVertex
 10
0.9694899025069637
 20
13.815503133704736
 30
0.0
 70
0
  0
VERTEX
  5
19D
330
161
100
AcDbEntity
  8
0
100
AcDbVertex
100
AcDb2dVertex
 10
0.6732568767409468
 20
14.717803360027856
 30
0.0
 70
0
  0
VERTEX
  5
19E
330
161
100
AcDbEntity
  8
0
100
AcDbVertex
100
AcDb2dVertex
 10
0.4308844011142057
 20
15.638057103064067
 30
0.0
 70
0
  0
VERTEX
  5
19F
330
161
100
AcDbEntity
  8
0
100
AcDbVertex
100
AcDb2dVertex
 10
0.24237247562674114
 20
16.57626436281337
 30
0.0
 70
0
  0
VERTEX
  5
1A0
330
161
100
AcDbEntity
  8
0
100
AcDbVertex
100
AcDb2dVertex
 10
0.10772110027855142
 20
17.532425139275766
 30
0.0
 70
0
  0
VERTEX
  5
1A1
330
161
100
AcDbEntity
  8
0
100
AcDbVertex
100
AcDb2dVertex
 10
0.0269302750696383
 20
18.506539432451255
 30
0.0
 70
0
  0
VERTEX
  5
1A2
330
161
100
AcDbEntity
  8
0
100
AcDbVertex
100
AcDb2dVertex
 10
0.0
 20
19.498607242339833
 30
0.0
 70
0
  0
VERTEX
  5
1A3
330
161
100
AcDbEntity
  8
0
100
AcDbVertex
100
AcDb2dVertex
 10
0.0
 20
50.0
 30
0.0
 70
0
  0
VERTEX
  5
1A4
330
161
100
AcDbEntity
  8
0
100
AcDbVertex
100
AcDb2dVertex
 10
7.311977715877437
 20
50.0
 30
0.0
 70
0
  0
VERTEX
  5
1A5
330
161
100
AcDbEntity
  8
0
100
AcDbVertex
100
AcDb2dVertex
 10
7.311977715877437
 20
19.498607242339833
 30
0.0
 70
0
  0
VERTEX
  5
1A6
330
161
100
AcDbEntity
  8
0
100
AcDbVertex
100
AcDb2dVertex
 10
7.330475278551532
 20
18.8087569637883
 30
0.0
 70
0
  0
VERTEX
  5
1A7
330
161
100
AcDbEntity
  8
0
100
AcDbVertex
100
AcDb2dVertex
 10
7.385967966573816
 20
18.131963788300837
 30
0.0
 70
0
  0
VERTEX
  5
1A8
330
161
100
AcDbEntity
  8
0
100
AcDbVertex
100
AcDb2dVertex
 10
7.478455779944289
 20
17.46822771587744
 30
0.0
 70
0
  0
VERTEX
  5
1A9
330
161
100
AcDbEntity
  8
0
100
AcDbVertex
100
AcDb2dVertex
 10
7.607938718662952
 20
16.817548746518106
 30
0.0
 70
0
  0
VERTEX
  5
1AA
330
161
100
AcDbEntity
  8
0
100
AcDbVertex
100
AcDb2dVertex
 10
7.774416782729805
 20
16.17992688022284
 30
0.0
 70
0
  0
VERTEX
  5
1AB
330
161
100
AcDbEntity
  8
0
100
AcDbVertex
100
AcDb2dVertex
 10
7.977889972144847
 20
15.555362116991645
 30
0.0
 70
0
  0
VERTEX
  5
1AC
330
161
100
AcDbEntity
  8
0
100
AcDbVertex
100
AcDb2dVertex
 10
8.218358286908078
 20
14.943854456824514
 30
0.0
 70
0
  0
VERTEX
  5
1AD
330
161
100
AcDbEntity
  8
0
100
AcDbVertex
100
AcDb2dVertex
 10
8.495821727019498
 20
14.34540389972145
 30
0.0
 70
0
  0
VERTEX
  5
1AE
330
161
100
AcDbEntity
  8
0
100
AcDbVertex
100
AcDb2dVertex
 10
8.810280292479108
 20
13.760010445682452
 30
0.0
 70
0
  0
VERTEX
  5
1AF
330
161
100
AcDbEntity
  8
0
100
AcDbVertex
100
AcDb2dVertex
 10
9.161733983286908
 20
13.187674094707521
 30
0.0
 70
0
  0
VERTEX
  5
1B0
330
161
100
AcDbEntity
  8
0
100
AcDbVertex
100
AcDb2dVertex
 10
9.550182799442895
 20
12.62839484679666
 30
0.0
 70
0
  0
VERTEX
  5
1B1
330
161
100
AcDbEntity
  8
0
100
AcDbVertex
100
AcDb2dVertex
 10
9.975626740947074
 20
12.082172701949862
 30
0.0
 70
0
  0
VERTEX
  5
1B2
330
161
100
AcDbEntity
  8
0
100
AcDbVertex
100
AcDb2dVertex
 10
10.438065807799441
 20
11.549007660167131
 30
0.0
 70
0
  0
VERTEX
  5
1B3
330
161
100
AcDbEntity
  8
0
100
AcDbVertex
100
AcDb2dVertex
 10
10.937499999999998
 20
11.02889972144847
 30
0.0
 70
0
  0
VERTEX
  5
1B4
330
161
100
AcDbEntity
  8
0
100
AcDbVertex
100
AcDb2dVertex
 10
11.473929317548745
 20
10.521848885793872
 30
0.0
 70
0
  0
VERTEX
  5
1B5
330
161
100
AcDbEntity
  8
0
100
AcDbVertex
100
AcDb2dVertex
 10
12.04735376044568
 20
10.027855153203344
 30
0.0
 70
0
  0
VERTEX
  5
1B6
330
161
100
AcDbEntity
  8
0
100
AcDbVertex
100
AcDb2dVertex
 10
12.622138318245124
 20
9.555623259052926
 30
0.0
 70
0
  0
VERTEX
  5
1B7
330
161
100
AcDbEntity
  8
0
100
AcDbVertex
100
AcDb2dVertex
 10
13.21487639275766
 20
9.113857938718663
 30
0.0
 70
0
  0
VERTEX
  5
1B8
330
161
100
AcDbEntity
  8
0
100
AcDbVertex
100
AcDb2dVertex
 10
13.825567983983285
 20
8.702559192200559
 30
0.0
 70
0
  0
VERTEX
  5
1B9
330
161
100
AcDbEntity
  8
0
100
AcDbVertex
100
AcDb2dVertex
 10
14.454213091922004
 20
8.321727019498608
 30
0.0
 70
0
  0
VERTEX
  5
1BA
330
161
100
AcDbEntity
  8
0
100
AcDbVertex
100
AcDb2dVertex
 10
15.100811716573816
 20
7.971361420612814
 30
0.0
 70
0
  0
VERTEX
  5
1BB
330
161
100
AcDbEntity
  8
0
100
AcDbVertex
100
AcDb2dVertex
 10
15.765363857938718
 20
7.6514623955431755
 30
0.0
 70
0
  0
VERTEX
  5
1BC
330
161
100
AcDbEntity
  8
0
100
AcDbVertex
100
AcDb2dVertex
 10
16.447869516016713
 20
7.362029944289694
 30
0.0
 70
0
  0
VERTEX
  5
1BD
330
161
100
AcDbEntity
  8
0
100
AcDbVertex
100
AcDb2dVertex
 10
17.148328690807798
 20
7.103064066852368
 30
0.0
 70
0
  0
VERTEX
  5
1BE
330
161
100
AcDbEntity
  8
0
100
AcDbVertex
100
AcDb2dVertex
 10
17.86674138231198
 20
6.874564763231199
 30
0.0
 70
0
  0
VERTEX
  5
1BF
330
161
100
AcDbEntity
  8
0
100
AcDbVertex
100
AcDb2dVertex
 10
18.60310759052925
 20
6.676532033426184
 30
0.0
 70
0
  0
VERTEX
  5
1C0
330
161
100
AcDbEntity
  8
0
100
AcDbVertex
100
AcDb2dVertex
 10
19.35742731545961
 20
6.508965877437326
 30
0.0
 70
0
  0
VERTEX
  5
1C1
330
161
100
AcDbEntity
  8
0
100
AcDbVertex
100
AcDb2dVertex
 10
20.129700557103064
 20
6.371866295264624
 30
0.0
 70
0
  0
VERTEX
  5
1C2
330
161
100
AcDbEntity
  8
0
100
AcDbVertex
100
AcDb2dVertex
 10
20.91992731545961
 20
6.265233286908078
 30
0.0
 70
0
  0
VERTEX
  5
1C3
330
161
100
AcDbEntity
  8
0
100
AcDbVertex
100
AcDb2dVertex
 10
21.72810759052925
 20
6.189066852367688
 30
0.0
 70
0
  0
VERTEX
  5
1C4
330
161
100
AcDbEntity
  8
0
100
AcDbVertex
100
AcDb2dVertex
 10
22.55424138231198
 20
6.143366991643454
 30
0.0
 70
0
  0
VERTEX
  5
1C5
330
161
100
AcDbEntity
  8
0
100
AcDbVertex
100
AcDb2dVertex
 10
23.398328690807798
 20
6.128133704735376
 30
0.0
 70
0
  0
VERTEX
  5
1C6
330
161
100
AcDbEntity
  8
0
100
AcDbVertex
100
AcDb2dVertex
 10
24.226094620473535
 20
6.143366991643454
 30
0.0
 70
0
  0
VERTEX
  5
1C7
330
161
100
AcDbEntity
  8
0
100
AcDbVertex
100
AcDb2dVertex
 10
25.03808321727019
 20
6.189066852367688
 30
0.0
 70
0
  0
VERTEX
  5
1C8
330
161
100
AcDbEntity
  8
0
100
AcDbVertex
100
AcDb2dVertex
 10
25.83429448119777
 20
6.265233286908078
 30
0.0
 70
0
  0
VERTEX
  5
1C9
330
161
100
AcDbEntity
  8
0
100
AcDbVertex
100
AcDb2dVertex
 10
26.614728412256266
 20
6.371866295264624
 30
0.0
 70
0
  0
VERTEX
  5
1CA
330
161
100
AcDbEntity
  8
0
100
AcDbVertex
100
AcDb2dVertex
 10
27.37938501044568
 20
6.508965877437326
 30
0.0
 70
0
  0
VERTEX
  5
1CB
330
161
100
AcDbEntity
  8
0
100
AcDbVertex
100
AcDb2dVertex
 10
28.128264275766014
 20
6.676532033426184
 30
0.0
 70
0
  0
VERTEX
  5
1CC
330
161
100
AcDbEntity
  8
0
100
AcDbVertex
100
AcDb2dVertex
 10
28.86136620821727
 20
6.874564763231198
 30
0.0
 70
0
  0
VERTEX
  5
1CD
330
161
100
AcDbEntity
  8
0
100
AcDbVertex
100
AcDb2dVertex
 10
29.578690807799443
 20
7.103064066852368
 30
0.0
 70
0
  0
VERTEX
  5
1CE
330
161
100
AcDbEntity
  8
0
100
AcDbVertex
100
AcDb2dVertex
 10
30.280238074512535
 20
7.362029944289694
 30
0.0
 70
0
  0
VERTEX
  5
1CF
330
161
100
AcDbEntity
  8
0
100
AcDbVertex
100
AcDb2dVertex
 10
30.966008008356546
 20
7.6514623955431755
 30
0.0
 70
0
  0
VERTEX
  5
1D0
330
161
100
AcDbEntity
  8
0
100
AcDbVertex
100
AcDb2dVertex
 10
31.636000609331475
 20
7.971361420612814
 30
0.0
 70
0
  0
VERTEX
  5
1D1
330
161
100
AcDbEntity
  8
0
100
AcDbVertex
100
AcDb2dVertex
 10
32.290215877437326
 20
8.321727019498608
 30
0.0
 70
0
  0
VERTEX
  5
1D2
330
161
100
AcDbEntity
  8
0
100
AcDbVertex
100
AcDb2dVertex
 10
32.9286538126741
 20
8.702559192200559
 30
0.0
 70
0
  0
VERTEX
  5
1D3
330
161
100
AcDbEntity
  8
0
100
AcDbVertex
100
AcDb2dVertex
 10
33.55131441504179
 20
9.113857938718663
 30
0.0
 70
0
  0
VERTEX
  5
1D4
330
161
100
AcDbEntity
  8
0
100
AcDbVertex
100
AcDb2dVertex
 10
34.1581976845404
 20
9.555623259052926
 30
0.0
 70
0
  0
VERTEX
  5
1D5
330
161
100
AcDbEntity
  8
0
100
AcDbVertex
100
AcDb2dVertex
 10
34.74930362116992
 20
10.027855153203344
 30
0.0
 70
0
  0
VERTEX
  5
1D6
330
161
100
AcDbEntity
  8
0
100
AcDbVertex
100
AcDb2dVertex
 10
35.32272806406686
 20
10.530009575208915
 30
0.0
 70
0
  0
VERTEX
  5
1D7
330
161
100
AcDbEntity
  8
0
100
AcDbVertex
100
AcDb2dVertex
 10
35.8591573816156
 20
11.044133008356548
 30
0.0
 70
0
  0
VERTEX
  5
1D8
330
161
100
AcDbEntity
  8
0
100
AcDbVertex
100
AcDb2dVertex
 10
36.35859157381616
 20
11.570225452646241
 30
0.0
 70
0
  0
VERTEX
  5
1D9
330
161
100
AcDbEntity
  8
0
100
AcDbVertex
100
AcDb2dVertex
 10
36.821030640668525
 20
12.108286908077996
 30
0.0
 70
0
  0
VERTEX
  5
1DA
330
161
100
AcDbEntity
  8
0
100
AcDbVertex
100
AcDb2dVertex
 10
37.24647458217271
 20
12.658317374651812
 30
0.0
 70
0
  0
VERTEX
  5
1DB
330
161
100
AcDbEntity
  8
0
100
AcDbVertex
100
AcDb2dVertex
 10
37.634923398328695
 20
13.220316852367688
 30
0.0
 70
0
  0
VERTEX
  5
1DC
330
161
100
AcDbEntity
  8
0
100
AcDbVertex
100
AcDb2dVertex
 10
37.9863770891365
 20
13.794285341225628
 30
0.0
 70
0
  0
VERTEX
  5
1DD
330
161
100
AcDbEntity
  8
0
100
AcDbVertex
100
AcDb2dVertex
 10
38.3008356545961
 20
14.380222841225628
 30
0.0
 70
0
  0
VERTEX
  5
1DE
330
161
100
AcDbEntity
  8
0
100
AcDbVertex
100
AcDb2dVertex
 10
38.578299094707525
 20
14.978129352367688
 30
0.0
 70
0
  0
VERTEX
  5
1DF
330
161
100
AcDbEntity
  8
0
100
AcDbVertex
100
AcDb2dVertex
 10
38.81876740947075
 20
15.588004874651812
 30
0.0
 70
0
  0
VERTEX
  5
1E0
330
161
100
AcDbEntity
  8
0
100
AcDbVertex
100
AcDb2dVertex
 10
39.022240598885794
 20
16.209849408077996
 30
0.0
 70
0
  0
VERTEX
  5
1E1
330
161
100
AcDbEntity
  8
0
100
AcDbVertex
100
AcDb2dVertex
 10
39.188718662952645
 20
16.84366295264624
 30
0.0
 70
0
  0
VERTEX
  5
1E2
330
161
100
AcDbEntity
  8
0
100
AcDbVertex
100
AcDb2dVertex
 10
39.31820160167131
 20
17.489445508356546
 30
0.0
 70
0
  0
VERTEX
  5
1E3
330
161
100
AcDbEntity
  8
0
100
AcDbVertex
100
AcDb2dVertex
 10
39.41068941504179
 20
18.147197075208915
 30
0.0
 70
0
  0
VERTEX
  5
1E4
330
161
100
AcDbEntity
  8
0
100
AcDbVertex
100
AcDb2dVertex
 10
39.46618210306407
 20
18.816917653203344
 30
0.0
 70
0
  0
VERTEX
  5
1E5
330
161
100
AcDbEntity
  8
0
100
AcDbVertex
100
AcDb2dVertex
 10
39.48467966573816
 20
19.498607242339833
 30
0.0
 70
0
  0
VERTEX
  5
1E6
330
161
100
AcDbEntity
  8
0
100
AcDbVertex
100
AcDb2dVertex
 10
39.48467966573816
 20
50.0
 30
0.0
 70
0
  0
VERTEX
  5
1E7
330
161
100
AcDbEntity
  8
0
100
AcDbVertex
100
AcDb2dVertex
 10
46.7966573816156
 20
50.0
 30
0.0
 70
0
  0
VERTEX
  5
1E8
330
161
100
AcDbEntity
  8
0
100
AcDbVertex
100
AcDb2dVertex
 10
46.7966573816156
 20
19.498607242339833
 30
0.0
 70
0
  0
SEQEND
  5
1E9
330
161
100
AcDbEntity
  8
0
  0
ENDBLK
  5
160
330
15E
100
AcDbEntity
  8
0
100
AcDbBlockEnd
  0
BLOCK
  5
1ED
330
1EC
100
AcDbEntity
  8
0
100
AcDbBlockBegin
  2
N
 70
0
 10
0.0
 20
0.0
 30
0.0
  3
N
  1

  0
POLYLINE
  5
1EF
330
1EC
100
AcDbEntity
  8
0
100
AcDb2dPolyline
 66
1
 10
0.0
 20
0.0
 30
0.0
 70
0
  0
VERTEX
  5
1F0
330
1EF
100
AcDbEntity
  8
0
100
AcDbVertex
100
AcDb2dVertex
 10
48.0
 20
0.0
 30
0.0
 70
0
  0
VERTEX
  5
1F1
330
1EF
100
AcDbEntity
  8
0
100
AcDbVertex
100
AcDb2dVertex
 10
40.5
 20
0.0
 30
0.0
 70
0
  0
VERTEX
  5
1F2
330
1EF
100
AcDbEntity
  8
0
100
AcDbVertex
100
AcDb2dVertex
 10
7.5
 20
38.714285714285715
 30
0.0
 70
0
  0
VERTEX
  5
1F3
330
1EF
100
AcDbEntity
  8
0
100
AcDbVertex
100
AcDb2dVertex
 10
7.5
 20
0.0
 30
0.0
 70
0
  0
VERTEX
  5
1F4
330
1EF
100
AcDbEntity
  8
0
100
AcDbVertex
100
AcDb2dVertex
 10
0.0
 20
0.0
 30
0.0
 70
0
  0
VERTEX
  5
1F5
330
1EF
100
AcDbEntity
  8
0
100
AcDbVertex
100
AcDb2dVertex
 10
0.0
 20
50.0
 30
0.0
 70
0
  0
VERTEX
  5
1F6
330
1EF
100
AcDbEntity
  8
0
100
AcDbVertex
100
AcDb2dVertex
 10
7.5
 20
50.0
 30
0.0
 70
0
  0
VERTEX
  5
1F7
330
1EF
100
AcDbEntity
  8
0
100
AcDbVertex
100
AcDb2dVertex
 10
40.5
 20
11.214285714285714
 30
0.0
 70
0
  0
VERTEX
  5
1F8
330
1EF
100
AcDbEntity
  8
0
100
AcDbVertex
100
AcDb2dVertex
 10
40.5
 20
50.0
 30
0.0
 70
0
  0
VERTEX
  5
1F9
330
1EF
100
AcDbEntity
  8
0
100
AcDbVertex
100
AcDb2dVertex
 10
48.0
 20
50.0
 30
0.0
 70
0
  0
VERTEX
  5
1FA
330
1EF
100
AcDbEntity
  8
0
100
AcDbVertex
100
AcDb2dVertex
 10
48.0
 20
0.0
 30
0.0
 70
0
  0
SEQEND
  5
1FB
330
1EF
100
AcDbEntity
  8
0
  0
ENDBLK
  5
1EE
330
1EC
100
AcDbEntity
  8
0
100
AcDbBlockEnd
  0
BLOCK
  5
201
330
200
100
AcDbEntity
  8
0
100
AcDbBlockBegin
  2
G
 70
0
 10
0.0
 20
0.0
 30
0.0
  3
G
  1

  0
POLYLINE
  5
203
330
200
100
AcDbEntity
  8
0
100
AcDb2dPolyline
 66
1
 10
0.0
 20
0.0
 30
0.0
 70
0
  0
VERTEX
  5
204
330
203
100
AcDbEntity
  8
0
100
AcDbVertex
100
AcDb2dVertex
 10
55.03401360544218
 20
11.292517006802722
 30
0.0
 70
0
  0
VERTEX
  5
205
330
203
100
AcDbEntity
  8
0
100
AcDbVertex
100
AcDb2dVertex
 10
54.51211734693878
 20
10.63828656462585
 30
0.0
 70
0
  0
VERTEX
  5
206
330
203
100
AcDbEntity
  8
0
100
AcDbVertex
100
AcDb2dVertex
 10
53.966836734693885
 20
10.002125850340137
 30
0.0
 70
0
  0
VERTEX
  5
207
330
203
100
AcDbEntity
  8
0
100
AcDbVertex
100
AcDb2dVertex
 10
53.39817176870749
 20
9.38403486394558
 30
0.0
 70
0
  0
VERTEX
  5
208
330
203
100
AcDbEntity
  8
0
100
AcDbVertex
100
AcDb2dVertex
 10
52.8061224489796
 20
8.784013605442178
 30
0.0
 70
0
  0
VERTEX
  5
209
330
203
100
AcDbEntity
  8
0
100
AcDbVertex
100
AcDb2dVertex
 10
52.19068877551021
 20
8.202062074829932
 30
0.0
 70
0
  0
VERTEX
  5
20A
330
203
100
AcDbEntity
  8
0
100
AcDbVertex
100
AcDb2dVertex
 10
51.55187074829932
 20
7.638180272108844
 30
0.0
 70
0
  0
VERTEX
  5
20B
330
203
100
AcDbEntity
  8
0
100
AcDbVertex
100
AcDb2dVertex
 10
50.88966836734694
 20
7.092368197278913
 30
0.0
 70
0
  0
VERTEX
  5
20C
330
203
100
AcDbEntity
  8
0
100
AcDbVertex
100
AcDb2dVertex
 10
50.204081632653065
 20
6.564625850340137
 30
0.0
 70
0
  0
VERTEX
  5
20D
330
203
100
AcDbEntity
  8
0
100
AcDbVertex
100
AcDb2dVertex
 10
49.499362244897966
 20
6.055484693877553
 30
0.0
 70
0
  0
VERTEX
  5
20E
330
203
100
AcDbEntity
  8
0
100
AcDbVertex
100
AcDb2dVertex
 10
48.77976190476191
 20
5.565476190476192
 30
0.0
 70
0
  0
VERTEX
  5
20F
330
203
100
AcDbEntity
  8
0
100
AcDbVertex
100
AcDb2dVertex
 10
48.0452806122449
 20
5.094600340136055
 30
0.0
 70
0
  0
VERTEX
  5
210
330
203
100
AcDbEntity
  8
0
100
AcDbVertex
100
AcDb2dVertex
 10
47.29591836734694
 20
4.642857142857143
 30
0.0
 70
0
  0
VERTEX
  5
211
330
203
100
AcDbEntity
  8
0
100
AcDbVertex
100
AcDb2dVertex
 10
46.531675170068034
 20
4.210246598639456
 30
0.0
 70
0
  0
VERTEX
  5
212
330
203
100
AcDbEntity
  8
0
100
AcDbVertex
100
AcDb2dVertex
 10
45.75255102040817
 20
3.7967687074829937
 30
0.0
 70
0
  0
VERTEX
  5
213
330
203
100
AcDbEntity
  8
0
100
AcDbVertex
100
AcDb2dVertex
 10
44.958545918367356
 20
3.402423469387755
 30
0.0
 70
0
  0
VERTEX
  5
214
330
203
100
AcDbEntity
  8
0
100
AcDbVertex
100
AcDb2dVertex
 10
44.14965986394559
 20
3.0272108843537415
 30
0.0
 70
0
  0
VERTEX
  5
215
330
203
100
AcDbEntity
  8
0
100
AcDbVertex
100
AcDb2dVertex
 10
43.328018707483004
 20
2.6721938775510203
 30
0.0
 70
0
  0
VERTEX
  5
216
330
203
100
AcDbEntity
  8
0
100
AcDbVertex
100
AcDb2dVertex
 10
42.495748299319736
 20
2.3384353741496597
 30
0.0
 70
0
  0
VERTEX
  5
217
330
203
100
AcDbEntity
  8
0
100
AcDbVertex
100
AcDb2dVertex
 10
41.65284863945579
 20
2.02593537414966
 30
0.0
 70
0
  0
VERTEX
  5
218
330
203
100
AcDbEntity
  8
0
100
AcDbVertex
100
AcDb2dVertex
 10
40.79931972789116
 20
1.7346938775510203
 30
0.0
 70
0
  0
VERTEX
  5
219
330
203
100
AcDbEntity
  8
0
100
AcDbVertex
100
AcDb2dVertex
 10
39.93516156462586
 20
1.4647108843537415
 30
0.0
 70
0
  0
VERTEX
  5
21A
330
203
100
AcDbEntity
  8
0
100
AcDbVertex
100
AcDb2dVertex
 10
39.06037414965987
 20
1.2159863945578229
 30
0.0
 70
0
  0
VERTEX
  5
21B
330
203
100
AcDbEntity
  8
0
100
AcDbVertex
100
AcDb2dVertex
 10
38.17495748299321
 20
0.9885204081632653
 30
0.0
 70
0
  0
VERTEX
  5
21C
330
203
100
AcDbEntity
  8
0
100
AcDbVertex
100
AcDb2dVertex
 10
37.27891156462586
 20
0.782312925170068
 30
0.0
 70
0
  0
VERTEX
  5
21D
330
203
100
AcDbEntity
  8
0
100
AcDbVertex
100
AcDb2dVertex
 10
36.3764880952381
 20
0.5989583333333333
 30
0.0
 70
0
  0
VERTEX
  5
21E
330
203
100
AcDbEntity
  8
0
100
AcDbVertex
100
AcDb2dVertex
 10
35.47193877551021
 20
0.44005102040816324
 30
0.0
 70
0
  0
VERTEX
  5
21F
330
203
100
AcDbEntity
  8
0
100
AcDbVertex
100
AcDb2dVertex
 10
34.56526360544218
 20
0.3055909863945578
 30
0.0
 70
0
  0
VERTEX
  5
220
330
203
100
AcDbEntity
  8
0
100
AcDbVertex
100
AcDb2dVertex
 10
33.65646258503402
 20
0.19557823129251695
 30
0.0
 70
0
  0
VERTEX
  5
221
330
203
100
AcDbEntity
  8
0
100
AcDbVertex
100
AcDb2dVertex
 10
32.74553571428572
 20
0.11001275510204078
 30
0.0
 70
0
  0
VERTEX
  5
222
330
203
100
AcDbEntity
  8
0
100
AcDbVertex
100
AcDb2dVertex
 10
31.832482993197285
 20
0.04889455782312924
 30
0.0
 70
0
  0
VERTEX
  5
223
330
203
100
AcDbEntity
  8
0
100
AcDbVertex
100
AcDb2dVertex
 10
30.917304421768712
 20
0.01222363945578231
 30
0.0
 70
0
  0
VERTEX
  5
224
330
203
100
AcDbEntity
  8
0
100
AcDbVertex
100
AcDb2dVertex
 10
30.000000000000007
 20
0.0
 30
0.0
 70
0
  0
VERTEX
  5
225
330
203
100
AcDbEntity
  8
0
100
AcDbVertex
100
AcDb2dVertex
 10
28.473905187074838
 20
0.02869897959183674
 30
0.0
 70
0
  0
VERTEX
  5
226
330
203
100
AcDbEntity
  8
0
100
AcDbVertex
100
AcDb2dVertex
 10
26.973852040816332
 20
0.11479591836734696
 30
0.0
 70
0
  0
VERTEX
  5
227
330
203
100
AcDbEntity
  8
0
100
AcDbVertex
100
AcDb2dVertex
 10
25.499840561224495
 20
0.25829081632653067
 30
0.0
 70
0
  0
VERTEX
  5
228
330
203
100
AcDbEntity
  8
0
100
AcDbVertex
100
AcDb2dVertex
 10
24.051870748299322
 20
0.4591836734693878
 30
0.0
 70
0
  0
VERTEX
  5
229
330
203
100
AcDbEntity
  8
0
100
AcDbVertex
100
AcDb2dVertex
 10
22.62994260204082
 20
0.7174744897959184
 30
0.0
 70
0
  0
VERTEX
  5
22A
330
203
100
AcDbEntity
  8
0
100
AcDbVertex
100
AcDb2dVertex
 10
21.234056122448983
 20
1.0331632653061227
 30
0.0
 70
0
  0
VERTEX
  5
22B
330
203
100
AcDbEntity
  8
0
100
AcDbVertex
100
AcDb2dVertex
 10
19.86421130952381
 20
1.4062500000000002
 30
0.0
 70
0
  0
VERTEX
  5
22C
330
203
100
AcDbEntity
  8
0
100
AcDbVertex
100
AcDb2dVertex
 10
18.52040816326531
 20
1.8367346938775513
 30
0.0
 70
0
  0
VERTEX
  5
22D
330
203
100
AcDbEntity
  8
0
100
AcDbVertex
100
AcDb2dVertex
 10
17.20264668367347
 20
2.324617346938776
 30
0.0
 70
0
  0
VERTEX
  5
22E
330
203
100
AcDbEntity
  8
0
100
AcDbVertex
100
AcDb2dVertex
 10
15.910926870748302
 20
2.8698979591836737
 30
0.0
 70
0
  0
VERTEX
  5
22F
330
203
100
AcDbEntity
  8
0
100
AcDbVertex
100
AcDb2dVertex
 10
14.645248724489798
 20
3.4725765306122454
 30
0.0
 70
0
  0
VERTEX
  5
230
330
203
100
AcDbEntity
  8
0
100
AcDbVertex
100
AcDb2dVertex
 10
13.40561224489796
 20
4.132653061224491
 30
0.0
 70
0
  0
VERTEX
  5
231
330
203
100
AcDbEntity
  8
0
100
AcDbVertex
100
AcDb2dVertex
 10
12.19201743197279
 20
4.8501275510204085
 30
0.0
 70
0
  0
VERTEX
  5
232
330
203
100
AcDbEntity
  8
0
100
AcDbVertex
100
AcDb2dVertex
 10
11.004464285714288
 20
5.625000000000001
 30
0.0
 70
0
  0
VERTEX
  5
233
330
203
100
AcDbEntity
  8
0
100
AcDbVertex
100
AcDb2dVertex
 10
9.842952806122451
 20
6.457270408163266
 30
0.0
 70
0
  0
VERTEX
  5
234
330
203
100
AcDbEntity
  8
0
100
AcDbVertex
100
AcDb2dVertex
 10
8.70748299319728
 20
7.346938775510205
 30
0.0
 70
0
  0
VERTEX
  5
235
330
203
100
AcDbEntity
  8
0
100
AcDbVertex
100
AcDb2dVertex
 10
7.653061224489797
 20
8.29294217687075
 30
0.0
 70
0
  0
VERTEX
  5
236
330
203
100
AcDbEntity
  8
0
100
AcDbVertex
100
AcDb2dVertex
 10
6.666666666666668
 20
9.260204081632654
 30
0.0
 70
0
  0
VERTEX
  5
237
330
203
100
AcDbEntity
  8
0
100
AcDbVertex
100
AcDb2dVertex
 10
5.7482993197278915
 20
10.248724489795919
 30
0.0
 70
0
  0
VERTEX
  5
238
330
203
100
AcDbEntity
  8
0
100
AcDbVertex
100
AcDb2dVertex
 10
4.8979591836734695
 20
11.258503401360546
 30
0.0
 70
0
  0
VERTEX
  5
239
330
203
100
AcDbEntity
  8
0
100
AcDbVertex
100
AcDb2dVertex
 10
4.115646258503402
 20
12.289540816326532
 30
0.0
 70
0
  0
VERTEX
  5
23A
330
203
100
AcDbEntity
  8
0
100
AcDbVertex
100
AcDb2dVertex
 10
3.4013605442176873
 20
13.341836734693878
 30
0.0
 70
0
  0
VERTEX
  5
23B
330
203
100
AcDbEntity
  8
0
100
AcDbVertex
100
AcDb2dVertex
 10
2.7551020408163263
 20
14.415391156462587
 30
0.0
 70
0
  0
VERTEX
  5
23C
330
203
100
AcDbEntity
  8
0
100
AcDbVertex
100
AcDb2dVertex
 10
2.1768707482993204
 20
15.510204081632654
 30
0.0
 70
0
  0
VERTEX
  5
23D
330
203
100
AcDbEntity
  8
0
100
AcDbVertex
100
AcDb2dVertex
 10
1.666666666666666
 20
16.62627551020408
 30
0.0
 70
0
  0
VERTEX
  5
23E
330
203
100
AcDbEntity
  8
0
100
AcDbVertex
100
AcDb2dVertex
 10
1.2244897959183678
 20
17.76360544217687
 30
0.0
 70
0
  0
VERTEX
  5
23F
330
203
100
AcDbEntity
  8
0
100
AcDbVertex
100
AcDb2dVertex
 10
0.850340136054422
 20
18.922193877551024
 30
0.0
 70
0
  0
VERTEX
  5
240
330
203
100
AcDbEntity
  8
0
100
AcDbVertex
100
AcDb2dVertex
 10
0.5442176870748305
 20
20.102040816326532
 30
0.0
 70
0
  0
VERTEX
  5
241
330
203
100
AcDbEntity
  8
0
100
AcDbVertex
100
AcDb2dVertex
 10
0.3061224489795915
 20
21.303146258503403
 30
0.0
 70
0
  0
VERTEX
  5
242
330
203
100
AcDbEntity
  8
0
100
AcDbVertex
100
AcDb2dVertex
 10
0.13605442176870675
 20
22.525510204081634
 30
0.0
 70
0
  0
VERTEX
  5
243
330
203
100
AcDbEntity
  8
0
100
AcDbVertex
100
AcDb2dVertex
 10
0.03401360544217624
 20
23.769132653061227
 30
0.0
 70
0
  0
VERTEX
  5
244
330
203
100
AcDbEntity
  8
0
100
AcDbVertex
100
AcDb2dVertex
 10
0.0
 20
25.034013605442176
 30
0.0
 70
0
  0
VERTEX
  5
245
330
203
100
AcDbEntity
  8
0
100
AcDbVertex
100
AcDb2dVertex
 10
0.034013605442176874
 20
26.314572704081634
 30
0.0
 70
0
  0
VERTEX
  5
246
330
203
100
AcDbEntity
  8
0
100
AcDbVertex
100
AcDb2dVertex
 10
0.1360544217687075
 20
27.571215986394556
 30
0.0
 70
0
  0
VERTEX
  5
247
330
203
100
AcDbEntity
  8
0
100
AcDbVertex
100
AcDb2dVertex
 10
0.30612244897959184
 20
28.803943452380953
 30
0.0
 70
0
  0
VERTEX
  5
248
330
203
100
AcDbEntity
  8
0
100
AcDbVertex
100
AcDb2dVertex
 10
0.54421768707483
 20
30.012755102040817
 30
0.0
 70
0
  0
VERTEX
  5
249
330
203
100
AcDbEntity
  8
0
100
AcDbVertex
100
AcDb2dVertex
 10
0.8503401360544218
 20
31.19765093537415
 30
0.0
 70
0
  0
VERTEX
  5
24A
330
203
100
AcDbEntity
  8
0
100
AcDbVertex
100
AcDb2dVertex
 10
1.2244897959183674
 20
32.35863095238095
 30
0.0
 70
0
  0
VERTEX
  5
24B
330
203
100
AcDbEntity
  8
0
100
AcDbVertex
100
AcDb2dVertex
 10
1.6666666666666667
 20
33.49569515306122
 30
0.0
 70
0
  0
VERTEX
  5
24C
330
203
100
AcDbEntity
  8
0
100
AcDbVertex
100
AcDb2dVertex
 10
2.17687074829932
 20
34.60884353741497
 30
0.0
 70
0
  0
VERTEX
  5
24D
330
203
100
AcDbEntity
  8
0
100
AcDbVertex
100
AcDb2dVertex
 10
2.7551020408163267
 20
35.698076105442176
 30
0.0
 70
0
  0
VERTEX
  5
24E
330
203
100
AcDbEntity
  8
0
100
AcDbVertex
100
AcDb2dVertex
 10
3.4013605442176873
 20
36.76339285714286
 30
0.0
 70
0
  0
VERTEX
  5
24F
330
203
100
AcDbEntity
  8
0
100
AcDbVertex
100
AcDb2dVertex
 10
4.115646258503402
 20
37.804793792517
 30
0.0
 70
0
  0
VERTEX
  5
250
330
203
100
AcDbEntity
  8
0
100
AcDbVertex
100
AcDb2dVertex
 10
4.8979591836734695
 20
38.822278911564624
 30
0.0
 70
0
  0
VERTEX
  5
251
330
203
100
AcDbEntity
  8
0
100
AcDbVertex
100
AcDb2dVertex
 10
5.7482993197278915
 20
39.815848214285715
 30
0.0
 70
0
  0
VERTEX
  5
252
330
203
100
AcDbEntity
  8
0
100
AcDbVertex
100
AcDb2dVertex
 10
6.666666666666667
 20
40.78550170068027
 30
0.0
 70
0
  0
VERTEX
  5
253
330
203
100
AcDbEntity
  8
0
100
AcDbVertex
100
AcDb2dVertex
 10
7.653061224489797
 20
41.7312393707483
 30
0.0
 70
0
  0
VERTEX
  5
254
330
203
100
AcDbEntity
  8
0
100
AcDbVertex
100
AcDb2dVertex
 10
8.70748299319728
 20
42.6530612244898
 30
0.0
 70
0
  0
VERTEX
  5
255
330
203
100
AcDbEntity
  8
0
100
AcDbVertex
100
AcDb2dVertex
 10
9.827008928571429
 20
43.54272959183673
 30
0.0
 70
0
  0
VERTEX
  5
256
330
203
100
AcDbEntity
  8
0
100
AcDbVertex
100
AcDb2dVertex
 10
10.974702380952383
 20
44.375
 30
0.0
 70
0
  0
VERTEX
  5
257
330
203
100
AcDbEntity
  8
0
100
AcDbVertex
100
AcDb2dVertex
 10
12.150563350340137
 20
45.14987244897959
 30
0.0
 70
0
  0
VERTEX
  5
258
330
203
100
AcDbEntity
  8
0
100
AcDbVertex
100
AcDb2dVertex
 10
13.354591836734695
 20
45.86734693877551
 30
0.0
 70
0
  0
VERTEX
  5
259
330
203
100
AcDbEntity
  8
0
100
AcDbVertex
100
AcDb2dVertex
 10
14.586787840136056
 20
46.527423469387756
 30
0.0
 70
0
  0
VERTEX
  5
25A
330
203
100
AcDbEntity
  8
0
100
AcDbVertex
100
AcDb2dVertex
 10
15.84715136054422
 20
47.130102040816325
 30
0.0
 70
0
  0
VERTEX
  5
25B
330
203
100
AcDbEntity
  8
0
100
AcDbVertex
100
AcDb2dVertex
 10
17.135682397959187
 20
47.67538265306123
 30
0.0
 70
0
  0
VERTEX
  5
25C
330
203
100
AcDbEntity
  8
0
100
AcDbVertex
100
AcDb2dVertex
 10
18.452380952380956
 20
48.16326530612245
 30
0.0
 70
0
  0
VERTEX
  5
25D
330
203
100
AcDbEntity
  8
0
100
AcDbVertex
100
AcDb2dVertex
 10
19.797247023809526
 20
48.59375
 30
0.0
 70
0
  0
VERTEX
  5
25E
330
203
100
AcDbEntity
  8
0
100
AcDbVertex
100
AcDb2dVertex
 10
21.170280612244902
 20
48.96683673469388
 30
0.0
 70
0
  0
VERTEX
  5
25F
330
203
100
AcDbEntity
  8
0
100
AcDbVertex
100
AcDb2dVertex
 10
22.571481717687078
 20
49.28252551020408
 30
0.0
 70
0
  0
VERTEX
  5
260
330
203
100
AcDbEntity
  8
0
100
AcDbVertex
100
AcDb2dVertex
 10
24.00085034013606
 20
49.54081632653061
 30
0.0
 70
0
  0
VERTEX
  5
261
330
203
100
AcDbEntity
  8
0
100
AcDbVertex
100
AcDb2dVertex
 10
25.458386479591844
 20
49.74170918367347
 30
0.0
 70
0
  0
VERTEX
  5
262
330
203
100
AcDbEntity
  8
0
100
AcDbVertex
100
AcDb2dVertex
 10
26.944090136054427
 20
49.88520408163265
 30
0.0
 70
0
  0
VERTEX
  5
263
330
203
100
AcDbEntity
  8
0
100
AcDbVertex
100
AcDb2dVertex
 10
28.457961309523817
 20
49.97130102040816
 30
0.0
 70
0
  0
VERTEX
  5
264
330
203
100
AcDbEntity
  8
0
100
AcDbVertex
100
AcDb2dVertex
 10
30.000000000000007
 20
50.0
 30
0.0
 70
0
  0
VERTEX
  5
265
330
203
100
AcDbEntity
  8
0
100
AcDbVertex
100
AcDb2dVertex
 10
30.897773171768716
 20
49.989769345238095
 30
0.0
 70
0
  0
VERTEX
  5
266
330
203
100
AcDbEntity
  8
0
100
AcDbVertex
100
AcDb2dVertex
 10
31.78837159863946
 20
49.95907738095238
 30
0.0
 70
0
  0
VERTEX
  5
267
330
203
100
AcDbEntity
  8
0
100
AcDbVertex
100
AcDb2dVertex
 10
32.67179528061225
 20
49.907924107142854
 30
0.0
 70
0
  0
VERTEX
  5
268
330
203
100
AcDbEntity
  8
0
100
AcDbVertex
100
AcDb2dVertex
 10
33.54804421768708
 20
49.836309523809526
 30
0.0
 70
0
  0
VERTEX
  5
269
330
203
100
AcDbEntity
  8
0
100
AcDbVertex
100
AcDb2dVertex
 10
34.41711840986395
 20
49.74423363095238
 30
0.0
 70
0
  0
VERTEX
  5
26A
330
203
100
AcDbEntity
  8
0
100
AcDbVertex
100
AcDb2dVertex
 10
35.27901785714286
 20
49.63169642857143
 30
0.0
 70
0
  0
VERTEX
  5
26B
330
203
100
AcDbEntity
  8
0
100
AcDbVertex
100
AcDb2dVertex
 10
36.13374255952381
 20
49.498697916666664
 30
0.0
 70
0
  0
VERTEX
  5
26C
330
203
100
AcDbEntity
  8
0
100
AcDbVertex
100
AcDb2dVertex
 10
36.98129251700681
 20
49.345238095238095
 30
0.0
 70
0
  0
VERTEX
  5
26D
330
203
100
AcDbEntity
  8
0
100
AcDbVertex
100
AcDb2dVertex
 10
37.82166772959184
 20
49.171316964285715
 30
0.0
 70
0
  0
VERTEX
  5
26E
330
203
100
AcDbEntity
  8
0
100
AcDbVertex
100
AcDb2dVertex
 10
38.654868197278915
 20
48.976934523809526
 30
0.0
 70
0
  0
VERTEX
  5
26F
330
203
100
AcDbEntity
  8
0
100
AcDbVertex
100
AcDb2dVertex
 10
39.48089392006803
 20
48.762090773809526
 30
0.0
 70
0
  0
VERTEX
  5
270
330
203
100
AcDbEntity
  8
0
100
AcDbVertex
100
AcDb2dVertex
 10
40.29974489795919
 20
48.526785714285715
 30
0.0
 70
0
  0
VERTEX
  5
271
330
203
100
AcDbEntity
  8
0
100
AcDbVertex
100
AcDb2dVertex
 10
41.11142113095239
 20
48.2710193452381
 30
0.0
 70
0
  0
VERTEX
  5
272
330
203
100
AcDbEntity
  8
0
100
AcDbVertex
100
AcDb2dVertex
 10
41.91592261904762
 20
47.99479166666667
 30
0.0
 70
0
  0
VERTEX
  5
273
330
203
100
AcDbEntity
  8
0
100
AcDbVertex
100
AcDb2dVertex
 10
42.7132493622449
 20
47.69810267857143
 30
0.0
 70
0
  0
VERTEX
  5
274
330
203
100
AcDbEntity
  8
0
100
AcDbVertex
100
AcDb2dVertex
 10
43.503401360544224
 20
47.38095238095239
 30
0.0
 70
0
  0
VERTEX
  5
275
330
203
100
AcDbEntity
  8
0
100
AcDbVertex
100
AcDb2dVertex
 10
44.282126913265316
 20
47.044669430272116
 30
0.0
 70
0
  0
VERTEX
  5
276
330
203
100
AcDbEntity
  8
0
100
AcDbVertex
100
AcDb2dVertex
 10
45.0451743197279
 20
46.6905824829932
 30
0.0
 70
0
  0
VERTEX
  5
277
330
203
100
AcDbEntity
  8
0
100
AcDbVertex
100
AcDb2dVertex
 10
45.79254357993198
 20
46.318691539115655
 30
0.0
 70
0
  0
VERTEX
  5
278
330
203
100
AcDbEntity
  8
0
100
AcDbVertex
100
AcDb2dVertex
 10
46.52423469387756
 20
45.92899659863946
 30
0.0
 70
0
  0
VERTEX
  5
279
330
203
100
AcDbEntity
  8
0
100
AcDbVertex
100
AcDb2dVertex
 10
47.24024766156463
 20
45.52149766156463
 30
0.0
 70
0
  0
VERTEX
  5
27A
330
203
100
AcDbEntity
  8
0
100
AcDbVertex
100
AcDb2dVertex
 10
47.9405824829932
 20
45.09619472789116
 30
0.0
 70
0
  0
VERTEX
  5
27B
330
203
100
AcDbEntity
  8
0
100
AcDbVertex
100
AcDb2dVertex
 10
48.62523915816327
 20
44.65308779761905
 30
0.0
 70
0
  0
VERTEX
  5
27C
330
203
100
AcDbEntity
  8
0
100
AcDbVertex
100
AcDb2dVertex
 10
49.294217687074834
 20
44.192176870748305
 30
0.0
 70
0
  0
VERTEX
  5
27D
330
203
100
AcDbEntity
  8
0
100
AcDbVertex
100
AcDb2dVertex
 10
49.9475180697279
 20
43.713461947278915
 30
0.0
 70
0
  0
VERTEX
  5
27E
330
203
100
AcDbEntity
  8
0
100
AcDbVertex
100
AcDb2dVertex
 10
50.585140306122454
 20
43.21694302721089
 30
0.0
 70
0
  0
VERTEX
  5
27F
330
203
100
AcDbEntity
  8
0
100
AcDbVertex
100
AcDb2dVertex
 10
51.20708439625851
 20
42.702620110544224
 30
0.0
 70
0
  0
VERTEX
  5
280
330
203
100
AcDbEntity
  8
0
100
AcDbVertex
100
AcDb2dVertex
 10
51.81335034013606
 20
42.170493197278915
 30
0.0
 70
0
  0
VERTEX
  5
281
330
203
100
AcDbEntity
  8
0
100
AcDbVertex
100
AcDb2dVertex
 10
52.40393813775511
 20
41.62056228741497
 30
0.0
 70
0
  0
VERTEX
  5
282
330
203
100
AcDbEntity
  8
0
100
AcDbVertex
100
AcDb2dVertex
 10
52.978847789115655
 20
41.05282738095239
 30
0.0
 70
0
  0
VERTEX
  5
283
330
203
100
AcDbEntity
  8
0
100
AcDbVertex
100
AcDb2dVertex
 10
53.538079294217695
 20
40.46728847789116
 30
0.0
 70
0
  0
VERTEX
  5
284
330
203
100
AcDbEntity
  8
0
100
AcDbVertex
100
AcDb2dVertex
 10
54.081632653061234
 20
39.863945578231295
 30
0.0
 70
0
  0
VERTEX
  5
285
330
203
100
AcDbEntity
  8
0
100
AcDbVertex
100
AcDb2dVertex
 10
48.23129251700681
 20
36.46258503401361
 30
0.0
 70
0
  0
VERTEX
  5
286
330
203
100
AcDbEntity
  8
0
100
AcDbVertex
100
AcDb2dVertex
 10
47.391050170068034
 20
37.354379251700685
 30
0.0
 70
0
  0
VERTEX
  5
287
330
203
100
AcDbEntity
  8
0
100
AcDbVertex
100
AcDb2dVertex
 10
46.5029761904762
 20
38.19302721088436
 30
0.0
 70
0
  0
VERTEX
  5
288
330
203
100
AcDbEntity
  8
0
100
AcDbVertex
100
AcDb2dVertex
 10
45.567070578231295
 20
38.97852891156463
 30
0.0
 70
0
  0
VERTEX
  5
289
330
203
100
AcDbEntity
  8
0
100
AcDbVertex
100
AcDb2dVertex
 10
44.58333333333334
 20
39.7108843537415
 30
0.0
 70
0
  0
VERTEX
  5
28A
330
203
100
AcDbEntity
  8
0
100
AcDbVertex
100
AcDb2dVertex
 10
43.55176445578232
 20
40.39009353741497
 30
0.0
 70
0
  0
VERTEX
  5
28B
330
203
100
AcDbEntity
  8
0
100
AcDbVertex
100
AcDb2dVertex
 10
42.47236394557824
 20
41.01615646258504
 30
0.0
 70
0
  0
VERTEX
  5
28C
330
203
100
AcDbEntity
  8
0
100
AcDbVertex
100
AcDb2dVertex
 10
41.34513180272109
 20
41.5890731292517
 30
0.0
 70
0
  0
VERTEX
  5
28D
330
203
100
AcDbEntity
  8
0
100
AcDbVertex
100
AcDb2dVertex
 10
40.17006802721089
 20
42.10884353741497
 30
0.0
 70
0
  0
VERTEX
  5
28E
330
203
100
AcDbEntity
  8
0
100
AcDbVertex
100
AcDb2dVertex
 10
38.96205357142858
 20
42.57121598639456
 30
0.0
 70
0
  0
VERTEX
  5
28F
330
203
100
AcDbEntity
  8
0
100
AcDbVertex
100
AcDb2dVertex
 10
37.735969387755105
 20
42.97193877551021
 30
0.0
 70
0
  0
VERTEX
  5
290
330
203
100
AcDbEntity
  8
0
100
AcDbVertex
100
AcDb2dVertex
 10
36.49181547619048
 20
43.311011904761905
 30
0.0
 70
0
  0
VERTEX
  5
291
330
203
100
AcDbEntity
  8
0
100
AcDbVertex
100
AcDb2dVertex
 10
35.2295918367347
 20
43.58843537414966
 30
0.0
 70
0
  0
VERTEX
  5
292
330
203
100
AcDbEntity
  8
0
100
AcDbVertex
100
AcDb2dVertex
 10
33.94929846938776
 20
43.80420918367347
 30
0.0
 70
0
  0
VERTEX
  5
293
330
203
100
AcDbEntity
  8
0
100
AcDbVertex
100
AcDb2dVertex
 10
32.65093537414967
 20
43.958333333333336
 30
0.0
 70
0
  0
VERTEX
  5
294
330
203
100
AcDbEntity
  8
0
100
AcDbVertex
100
AcDb2dVertex
 10
31.334502551020414
 20
44.050807823129254
 30
0.0
 70
0
  0
VERTEX
  5
295
330
203
100
AcDbEntity
  8
0
100
AcDbVertex
100
AcDb2dVertex
 10
30.000000000000007
 20
44.08163265306123
 30
0.0
 70
0
  0
VERTEX
  5
296
330
203
100
AcDbEntity
  8
0
100
AcDbVertex
100
AcDb2dVertex
 10
28.81271258503402
 20
44.059842687074834
 30
0.0
 70
0
  0
VERTEX
  5
297
330
203
100
AcDbEntity
  8
0
100
AcDbVertex
100
AcDb2dVertex
 10
27.64880952380953
 20
43.99447278911565
 30
0.0
 70
0
  0
VERTEX
  5
298
330
203
100
AcDbEntity
  8
0
100
AcDbVertex
100
AcDb2dVertex
 10
26.508290816326536
 20
43.885522959183675
 30
0.0
 70
0
  0
VERTEX
  5
299
330
203
100
AcDbEntity
  8
0
100
AcDbVertex
100
AcDb2dVertex
 10
25.391156462585037
 20
43.732993197278915
 30
0.0
 70
0
  0
VERTEX
  5
29A
330
203
100
AcDbEntity
  8
0
100
AcDbVertex
100
AcDb2dVertex
 10
24.297406462585037
 20
43.53688350340136
 30
0.0
 70
0
  0
VERTEX
  5
29B
330
203
100
AcDbEntity
  8
0
100
AcDbVertex
100
AcDb2dVertex
 10
23.227040816326532
 20
43.297193877551024
 30
0.0
 70
0
  0
VERTEX
  5
29C
330
203
100
AcDbEntity
  8
0
100
AcDbVertex
100
AcDb2dVertex
 10
22.180059523809526
 20
43.01392431972789
 30
0.0
 70
0
  0
VERTEX
  5
29D
330
203
100
AcDbEntity
  8
0
100
AcDbVertex
100
AcDb2dVertex
 10
21.156462585034014
 20
42.68707482993197
 30
0.0
 70
0
  0
VERTEX
  5
29E
330
203
100
AcDbEntity
  8
0
100
AcDbVertex
100
AcDb2dVertex
 10
20.15625
 20
42.31664540816327
 30
0.0
 70
0
  0
VERTEX
  5
29F
330
203
100
AcDbEntity
  8
0
100
AcDbVertex
100
AcDb2dVertex
 10
19.179421768707485
 20
41.90263605442177
 30
0.0
 70
0
  0
VERTEX
  5
2A0
330
203
100
AcDbEntity
  8
0
100
AcDbVertex
100
AcDb2dVertex
 10
18.22597789115646
 20
41.445046768707485
 30
0.0
 70
0
  0
VERTEX
  5
2A1
330
203
100
AcDbEntity
  8
0
100
AcDbVertex
100
AcDb2dVertex
 10
17.29591836734694
 20
40.94387755102041
 30
0.0
 70
0
  0
VERTEX
  5
2A2
330
203
100
AcDbEntity
  8
0
100
AcDbVertex
100
AcDb2dVertex
 10
16.389243197278912
 20
40.39912840136054
 30
0.0
 70
0
  0
VERTEX
  5
2A3
330
203
100
AcDbEntity
  8
0
100
AcDbVertex
100
AcDb2dVertex
 10
15.505952380952381
 20
39.81079931972789
 30
0.0
 70
0
  0
VERTEX
  5
2A4
330
203
100
AcDbEntity
  8
0
100
AcDbVertex
100
AcDb2dVertex
 10
14.646045918367347
 20
39.17889030612245
 30
0.0
 70
0
  0
VERTEX
  5
2A5
330
203
100
AcDbEntity
  8
0
100
AcDbVertex
100
AcDb2dVertex
 10
13.809523809523812
 20
38.50340136054422
 30
0.0
 70
0
  0
VERTEX
  5
2A6
330
203
100
AcDbEntity
  8
0
100
AcDbVertex
100
AcDb2dVertex
 10
13.002232142857146
 20
37.7891156462585
 30
0.0
 70
0
  0
VERTEX
  5
2A7
330
203
100
AcDbEntity
  8
0
100
AcDbVertex
100
AcDb2dVertex
 10
12.247023809523812
 20
37.0578231292517
 30
0.0
 70
0
  0
VERTEX
  5
2A8
330
203
100
AcDbEntity
  8
0
100
AcDbVertex
100
AcDb2dVertex
 10
11.543898809523812
 20
36.30952380952381
 30
0.0
 70
0
  0
VERTEX
  5
2A9
330
203
100
AcDbEntity
  8
0
100
AcDbVertex
100
AcDb2dVertex
 10
10.892857142857146
 20
35.544217687074834
 30
0.0
 70
0
  0
VERTEX
  5
2AA
330
203
100
AcDbEntity
  8
0
100
AcDbVertex
100
AcDb2dVertex
 10
10.29389880952381
 20
34.761904761904766
 30
0.0
 70
0
  0
VERTEX
  5
2AB
330
203
100
AcDbEntity
  8
0
100
AcDbVertex
100
AcDb2dVertex
 10
9.74702380952381
 20
33.96258503401361
 30
0.0
 70
0
  0
VERTEX
  5
2AC
330
203
100
AcDbEntity
  8
0
100
AcDbVertex
100
AcDb2dVertex
 10
9.252232142857146
 20
33.14625850340136
 30
0.0
 70
0
  0
VERTEX
  5
2AD
330
203
100
AcDbEntity
  8
0
100
AcDbVertex
100
AcDb2dVertex
 10
8.80952380952381
 20
32.31292517006803
 30
0.0
 70
0
  0
VERTEX
  5
2AE
330
203
100
AcDbEntity
  8
0
100
AcDbVertex
100
AcDb2dVertex
 10
8.41889880952381
 20
31.462585034013607
 30
0.0
 70
0
  0
VERTEX
  5
2AF
330
203
100
AcDbEntity
  8
0
100
AcDbVertex
100
AcDb2dVertex
 10
8.080357142857144
 20
30.595238095238095
 30
0.0
 70
0
  0
VERTEX
  5
2B0
330
203
100
AcDbEntity
  8
0
100
AcDbVertex
100
AcDb2dVertex
 10
7.793898809523811
 20
29.7108843537415
 30
0.0
 70
0
  0
VERTEX
  5
2B1
330
203
100
AcDbEntity
  8
0
100
AcDbVertex
100
AcDb2dVertex
 10
7.559523809523811
 20
28.80952380952381
 30
0.0
 70
0
  0
VERTEX
  5
2B2
330
203
100
AcDbEntity
  8
0
100
AcDbVertex
100
AcDb2dVertex
 10
7.377232142857144
 20
27.891156462585037
 30
0.0
 70
0
  0
VERTEX
  5
2B3
330
203
100
AcDbEntity
  8
0
100
AcDbVertex
100
AcDb2dVertex
 10
7.247023809523811
 20
26.955782312925173
 30
0.0
 70
0
  0
VERTEX
  5
2B4
330
203
100
AcDbEntity
  8
0
100
AcDbVertex
100
AcDb2dVertex
 10
7.168898809523811
 20
26.003401360544217
 30
0.0
 70
0
  0
VERTEX
  5
2B5
330
203
100
AcDbEntity
  8
0
100
AcDbVertex
100
AcDb2dVertex
 10
7.142857142857144
 20
25.034013605442176
 30
0.0
 70
0
  0
VERTEX
  5
2B6
330
203
100
AcDbEntity
  8
0
100
AcDbVertex
100
AcDb2dVertex
 10
7.168898809523811
 20
24.064625850340136
 30
0.0
 70
0
  0
VERTEX
  5
2B7
330
203
100
AcDbEntity
  8
0
100
AcDbVertex
100
AcDb2dVertex
 10
7.247023809523811
 20
23.112244897959183
 30
0.0
 70
0
  0
VERTEX
  5
2B8
330
203
100
AcDbEntity
  8
0
100
AcDbVertex
100
AcDb2dVertex
 10
7.377232142857144
 20
22.17687074829932
 30
0.0
 70
0
  0
VERTEX
  5
2B9
330
203
100
AcDbEntity
  8
0
100
AcDbVertex
100
AcDb2dVertex
 10
7.559523809523811
 20
21.258503401360546
 30
0.0
 70
0
  0
VERTEX
  5
2BA
330
203
100
AcDbEntity
  8
0
100
AcDbVertex
100
AcDb2dVertex
 10
7.793898809523811
 20
20.357142857142858
 30
0.0
 70
0
  0
VERTEX
  5
2BB
330
203
100
AcDbEntity
  8
0
100
AcDbVertex
100
AcDb2dVertex
 10
8.080357142857144
 20
19.472789115646258
 30
0.0
 70
0
  0
VERTEX
  5
2BC
330
203
100
AcDbEntity
  8
0
100
AcDbVertex
100
AcDb2dVertex
 10
8.41889880952381
 20
18.60544217687075
 30
0.0
 70
0
  0
VERTEX
  5
2BD
330
203
100
AcDbEntity
  8
0
100
AcDbVertex
100
AcDb2dVertex
 10
8.80952380952381
 20
17.755102040816325
 30
0.0
 70
0
  0
VERTEX
  5
2BE
330
203
100
AcDbEntity
  8
0
100
AcDbVertex
100
AcDb2dVertex
 10
9.252232142857144
 20
16.921768707482997
 30
0.0
 70
0
  0
VERTEX
  5
2BF
330
203
100
AcDbEntity
  8
0
100
AcDbVertex
100
AcDb2dVertex
 10
9.74702380952381
 20
16.10544217687075
 30
0.0
 70
0
  0
VERTEX
  5
2C0
330
203
100
AcDbEntity
  8
0
100
AcDbVertex
100
AcDb2dVertex
 10
10.293898809523812
 20
15.306122448979593
 30
0.0
 70
0
  0
VERTEX
  5
2C1
330
203
100
AcDbEntity
  8
0
100
AcDbVertex
100
AcDb2dVertex
 10
10.892857142857146
 20
14.523809523809526
 30
0.0
 70
0
  0
VERTEX
  5
2C2
330
203
100
AcDbEntity
  8
0
100
AcDbVertex
100
AcDb2dVertex
 10
11.543898809523812
 20
13.758503401360546
 30
0.0
 70
0
  0
VERTEX
  5
2C3
330
203
100
AcDbEntity
  8
0
100
AcDbVertex
100
AcDb2dVertex
 10
12.247023809523812
 20
13.010204081632654
 30
0.0
 70
0
  0
VERTEX
  5
2C4
330
203
100
AcDbEntity
  8
0
100
AcDbVertex
100
AcDb2dVertex
 10
13.002232142857146
 20
12.27891156462585
 30
0.0
 70
0
  0
VERTEX
  5
2C5
330
203
100
AcDbEntity
  8
0
100
AcDbVertex
100
AcDb2dVertex
 10
13.809523809523812
 20
11.564625850340137
 30
0.0
 70
0
  0
VERTEX
  5
2C6
330
203
100
AcDbEntity
  8
0
100
AcDbVertex
100
AcDb2dVertex
 10
14.64604591836735
 20
10.889136904761905
 30
0.0
 70
0
  0
VERTEX
  5
2C7
330
203
100
AcDbEntity
  8
0
100
AcDbVertex
100
AcDb2dVertex
 10
15.505952380952383
 20
10.257227891156464
 30
0.0
 70
0
  0
VERTEX
  5
2C8
330
203
100
AcDbEntity
  8
0
100
AcDbVertex
100
AcDb2dVertex
 10
16.389243197278912
 20
9.66889880952381
 30
0.0
 70
0
  0
VERTEX
  5
2C9
330
203
100
AcDbEntity
  8
0
100
AcDbVertex
100
AcDb2dVertex
 10
17.29591836734694
 20
9.124149659863946
 30
0.0
 70
0
  0
VERTEX
  5
2CA
330
203
100
AcDbEntity
  8
0
100
AcDbVertex
100
AcDb2dVertex
 10
18.225977891156464
 20
8.622980442176871
 30
0.0
 70
0
  0
VERTEX
  5
2CB
330
203
100
AcDbEntity
  8
0
100
AcDbVertex
100
AcDb2dVertex
 10
19.179421768707485
 20
8.165391156462587
 30
0.0
 70
0
  0
VERTEX
  5
2CC
330
203
100
AcDbEntity
  8
0
100
AcDbVertex
100
AcDb2dVertex
 10
20.156250000000004
 20
7.75138180272109
 30
0.0
 70
0
  0
VERTEX
  5
2CD
330
203
100
AcDbEntity
  8
0
100
AcDbVertex
100
AcDb2dVertex
 10
21.156462585034017
 20
7.380952380952382
 30
0.0
 70
0
  0
VERTEX
  5
2CE
330
203
100
AcDbEntity
  8
0
100
AcDbVertex
100
AcDb2dVertex
 10
22.180059523809526
 20
7.054102891156464
 30
0.0
 70
0
  0
VERTEX
  5
2CF
330
203
100
AcDbEntity
  8
0
100
AcDbVertex
100
AcDb2dVertex
 10
23.227040816326536
 20
6.770833333333335
 30
0.0
 70
0
  0
VERTEX
  5
2D0
330
203
100
AcDbEntity
  8
0
100
AcDbVertex
100
AcDb2dVertex
 10
24.297406462585037
 20
6.531143707482995
 30
0.0
 70
0
  0
VERTEX
  5
2D1
330
203
100
AcDbEntity
  8
0
100
AcDbVertex
100
AcDb2dVertex
 10
25.391156462585037
 20
6.335034013605443
 30
0.0
 70
0
  0
VERTEX
  5
2D2
330
203
100
AcDbEntity
  8
0
100
AcDbVertex
100
AcDb2dVertex
 10
26.508290816326536
 20
6.182504251700681
 30
0.0
 70
0
  0
VERTEX
  5
2D3
330
203
100
AcDbEntity
  8
0
100
AcDbVertex
100
AcDb2dVertex
 10
27.648809523809533
 20
6.0735544217687085
 30
0.0
 70
0
  0
VERTEX
  5
2D4
330
203
100
AcDbEntity
  8
0
100
AcDbVertex
100
AcDb2dVertex
 10
28.81271258503402
 20
6.0081845238095255
 30
0.0
 70
0
  0
VERTEX
  5
2D5
330
203
100
AcDbEntity
  8
0
100
AcDbVertex
100
AcDb2dVertex
 10
30.000000000000007
 20
5.986394557823131
 30
0.0
 70
0
  0
VERTEX
  5
2D6
330
203
100
AcDbEntity
  8
0
100
AcDbVertex
100
AcDb2dVertex
 10
31.369313350340143
 20
6.014562074829933
 30
0.0
 70
0
  0
VERTEX
  5
2D7
330
203
100
AcDbEntity
  8
0
100
AcDbVertex
100
AcDb2dVertex
 10
32.70514455782314
 20
6.099064625850342
 30
0.0
 70
0
  0
VERTEX
  5
2D8
330
203
100
AcDbEntity
  8
0
100
AcDbVertex
100
AcDb2dVertex
 10
34.00749362244899
 20
6.239902210884355
 30
0.0
 70
0
  0
VERTEX
  5
2D9
330
203
100
AcDbEntity
  8
0
100
AcDbVertex
100
AcDb2dVertex
 10
35.276360544217695
 20
6.437074829931974
 30
0.0
 70
0
  0
VERTEX
  5
2DA
330
203
100
AcDbEntity
  8
0
100
AcDbVertex
100
AcDb2dVertex
 10
36.51174532312926
 20
6.690582482993198
 30
0.0
 70
0
  0
VERTEX
  5
2DB
330
203
100
AcDbEntity
  8
0
100
AcDbVertex
100
AcDb2dVertex
 10
37.71364795918368
 20
7.000425170068029
 30
0.0
 70
0
  0
VERTEX
  5
2DC
330
203
100
AcDbEntity
  8
0
100
AcDbVertex
100
AcDb2dVertex
 10
38.88206845238096
 20
7.366602891156464
 30
0.0
 70
0
  0
VERTEX
  5
2DD
330
203
100
AcDbEntity
  8
0
100
AcDbVertex
100
AcDb2dVertex
 10
40.0170068027211
 20
7.789115646258505
 30
0.0
 70
0
  0
VERTEX
  5
2DE
330
203
100
AcDbEntity
  8
0
100
AcDbVertex
100
AcDb2dVertex
 10
41.11846301020409
 20
8.267963435374151
 30
0.0
 70
0
  0
VERTEX
  5
2DF
330
203
100
AcDbEntity
  8
0
100
AcDbVertex
100
AcDb2dVertex
 10
42.18643707482994
 20
8.803146258503403
 30
0.0
 70
0
  0
VERTEX
  5
2E0
330
203
100
AcDbEntity
  8
0
100
AcDbVertex
100
AcDb2dVertex
 10
43.220928996598644
 20
9.39466411564626
 30
0.0
 70
0
  0
VERTEX
  5
2E1
330
203
100
AcDbEntity
  8
0
100
AcDbVertex
100
AcDb2dVertex
 10
44.22193877551021
 20
10.042517006802722
 30
0.0
 70
0
  0
VERTEX
  5
2E2
330
203
100
AcDbEntity
  8
0
100
AcDbVertex
100
AcDb2dVertex
 10
45.18946641156463
 20
10.74670493197279
 30
0.0
 70
0
  0
VERTEX
  5
2E3
330
203
100
AcDbEntity
  8
0
100
AcDbVertex
100
AcDb2dVertex
 10
46.12351190476191
 20
11.507227891156464
 30
0.0
 70
0
  0
VERTEX
  5
2E4
330
203
100
AcDbEntity
  8
0
100
AcDbVertex
100
AcDb2dVertex
 10
47.02407525510205
 20
12.324085884353742
 30
0.0
 70
0
  0
VERTEX
  5
2E5
330
203
100
AcDbEntity
  8
0
100
AcDbVertex
100
AcDb2dVertex
 10
47.89115646258504
 20
13.197278911564627
 30
0.0
 70
0
  0
VERTEX
  5
2E6
330
203
100
AcDbEntity
  8
0
100
AcDbVertex
100
AcDb2dVertex
 10
47.89115646258504
 20
22.040816326530614
 30
0.0
 70
0
  0
VERTEX
  5
2E7
330
203
100
AcDbEntity
  8
0
100
AcDbVertex
100
AcDb2dVertex
 10
30.000000000000007
 20
22.040816326530614
 30
0.0
 70
0
  0
VERTEX
  5
2E8
330
203
100
AcDbEntity
  8
0
100
AcDbVertex
100
AcDb2dVertex
 10
30.000000000000007
 20
28.027210884353742
 30
0.0
 70
0
  0
VERTEX
  5
2E9
330
203
100
AcDbEntity
  8
0
100
AcDbVertex
100
AcDb2dVertex
 10
55.03401360544218
 20
28.027210884353742
 30
0.0
 70
0
  0
VERTEX
  5
2EA
330
203
100
AcDbEntity
  8
0
100
AcDbVertex
100
AcDb2dVertex
 10
55.03401360544218
 20
11.292517006802722
 30
0.0
 70
0
  0
SEQEND
  5
2EB
330
203
100
AcDbEntity
  8
0
  0
ENDBLK
  5
202
330
200
100
AcDbEntity
  8
0
100
AcDbBlockEnd
  0
BLOCK
  5
2EF
330
2EE
100
AcDbEntity
  8
0
100
AcDbBlockBegin
  2
I
 70
0
 10
0.0
 20
0.0
 30
0.0
  3
I
  1

  0
POLYLINE
  5
2F1
330
2EE
100
AcDbEntity
  8
0
100
AcDb2dPolyline
 66
1
 10
0.0
 20
0.0
 30
0.0
 70
0
  0
VERTEX
  5
2F2
330
2F1
100
AcDbEntity
  8
0
100
AcDbVertex
100
AcDb2dVertex
 10
7.5
 20
0.0
 30
0.0
 70
0
  0
VERTEX
  5
2F3
330
2F1
100
AcDbEntity
  8
0
100
AcDbVertex
100
AcDb2dVertex
 10
0.0
 20
0.0
 30
0.0
 70
0
  0
VERTEX
  5
2F4
330
2F1
100
AcDbEntity
  8
0
100
AcDbVertex
100
AcDb2dVertex
 10
0.0
 20
50.0
 30
0.0
 70
0
  0
VERTEX
  5
2F5
330
2F1
100
AcDbEntity
  8
0
100
AcDbVertex
100
AcDb2dVertex
 10
7.5
 20
50.0
 30
0.0
 70
0
  0
VERTEX
  5
2F6
330
2F1
100
AcDbEntity
  8
0
100
AcDbVertex
100
AcDb2dVertex
 10
7.5
 20
0.0
 30
0.0
 70
0
  0
SEQEND
  5
2F7
330
2F1
100
AcDbEntity
  8
0
  0
ENDBLK
  5
2F0
330
2EE
100
AcDbEntity
  8
0
100
AcDbBlockEnd
  0
ENDSEC
  0
SECTION
  2
ENTITIES
  0
LINE
  5
2F
330
17
100
AcDbEntity
  8
0
100
AcDbLine
 10
73.5
 20
-9.001153973733046e-15
 30
0.0
 11
20.0
 21
-2.4492935982947065e-15
 31
0.0
  0
LINE
  5
30
330
17
100
AcDbEntity
  8
0
100
AcDbLine
 10
-73.5
 20
9.001153973733046e-15
 30
0.0
 11
-20.0
 21
2.4492935982947065e-15
 31
0.0
  0
LINE
  5
31
330
17
100
AcDbEntity
  8
0
100
AcDbLine
 10
73.5
 20
-20.00000000000001
 30
0.0
 11
19.999999999999996
 21
-20.000000000000004
 31
0.0
  0
LINE
  5
32
330
17
100
AcDbEntity
  8
0
100
AcDbLine
 10
-73.5
 20
-19.99999999999999
 30
0.0
 11
-20.000000000000004
 21
-19.999999999999996
 31
0.0
  0
LINE
  5
33
330
17
100
AcDbEntity
  8
0
100
AcDbLine
 10
73.5
 20
-40.00000000000001
 30
0.0
 11
19.999999999999996
 21
-40.0
 31
0.0
  0
LINE
  5
34
330
17
100
AcDbEntity
  8
0
100
AcDbLine
 10
-73.5
 20
-39.99999999999999
 30
0.0
 11
-20.000000000000004
 21
-40.0
 31
0.0
  0
LINE
  5
35
330
17
100
AcDbEntity
  8
0
100
AcDbLine
 10
73.49999999999999
 20
-60.00000000000001
 30
0.0
 11
19.999999999999993
 21
-60.0
 31
0.0
  0
LINE
  5
36
330
17
100
AcDbEntity
  8
0
100
AcDbLine
 10
-73.50000000000001
 20
-59.99999999999999
 30
0.0
 11
-20.000000000000007
 21
-60.0
 31
0.0
  0
LINE
  5
37
330
17
100
AcDbEntity
  8
0
100
AcDbLine
 10
73.49999999999999
 20
-80.00000000000001
 30
0.0
 11
19.99999999999999
 21
-80.0
 31
0.0
  0
LINE
  5
38
330
17
100
AcDbEntity
  8
0
100
AcDbLine
 10
-73.50000000000001
 20
-79.99999999999999
 30
0.0
 11
-20.00000000000001
 21
-80.0
 31
0.0
  0
LINE
  5
39
330
17
100
AcDbEntity
  8
0
100
AcDbLine
 10
73.49999999999999
 20
-100.00000000000001
 30
0.0
 11
19.99999999999999
 21
-100.0
 31
0.0
  0
LINE
  5
3A
330
17
100
AcDbEntity
  8
0
100
AcDbLine
 10
-73.50000000000001
 20
-99.99999999999999
 30
0.0
 11
-20.00000000000001
 21
-100.0
 31
0.0
  0
LINE
  5
3B
330
17
100
AcDbEntity
  8
0
100
AcDbLine
 10
217.0
 20
-2.6574835541497565e-14
 30
0.0
 11
163.5
 21
-2.0022975166059225e-14
 31
0.0
  0
LINE
  5
3C
330
17
100
AcDbEntity
  8
0
100
AcDbLine
 10
-217.0
 20
2.6574835541497565e-14
 30
0.0
 11
-163.5
 21
2.0022975166059225e-14
 31
0.0
  0
LINE
  5
3D
330
17
100
AcDbEntity
  8
0
100
AcDbLine
 10
217.0
 20
-20.000000000000025
 30
0.0
 11
163.5
 21
-20.00000000000002
 31
0.0
  0
LINE
  5
3E
330
17
100
AcDbEntity
  8
0
100
AcDbLine
 10
-217.0
 20
-19.999999999999975
 30
0.0
 11
-163.5
 21
-19.99999999999998
 31
0.0
  0
LINE
  5
3F
330
17
100
AcDbEntity
  8
0
100
AcDbLine
 10
217.0
 20
-40.00000000000003
 30
0.0
 11
163.5
 21
-40.00000000000002
 31
0.0
  0
LINE
  5
40
330
17
100
AcDbEntity
  8
0
100
AcDbLine
 10
-217.0
 20
-39.99999999999997
 30
0.0
 11
-163.5
 21
-39.99999999999998
 31
0.0
  0
LINE
  5
41
330
17
100
AcDbEntity
  8
0
100
AcDbLine
 10
217.0
 20
-60.00000000000003
 30
0.0
 11
163.5
 21
-60.00000000000002
 31
0.0
  0
LINE
  5
42
330
17
100
AcDbEntity
  8
0
100
AcDbLine
 10
-217.0
 20
-59.99999999999997
 30
0.0
 11
-163.5
 21
-59.99999999999998
 31
0.0
  0
LINE
  5
43
330
17
100
AcDbEntity
  8
0
100
AcDbLine
 10
217.0
 20
-80.00000000000003
 30
0.0
 11
163.5
 21
-80.00000000000001
 31
0.0
  0
LINE
  5
44
330
17
100
AcDbEntity
  8
0
100
AcDbLine
 10
-217.0
 20
-79.99999999999997
 30
0.0
 11
-163.5
 21
-79.99999999999999
 31
0.0
  0
LINE
  5
45
330
17
100
AcDbEntity
  8
0
100
AcDbLine
 10
217.0
 20
-100.00000000000003
 30
0.0
 11
163.5
 21
-100.00000000000001
 31
0.0
  0
LINE
  5
46
330
17
100
AcDbEntity
  8
0
100
AcDbLine
 10
-217.0
 20
-99.99999999999997
 30
0.0
 11
-163.5
 21
-99.99999999999999
 31
0.0
  0
INSERT
  5
5D
330
17
100
AcDbEntity
  8
0
100
AcDbBlockReference
  2
3_1
 10
0.0
 20
0.0
 30
0.0
 50
180.0
  0
INSERT
  5
5F
330
17
100
AcDbEntity
  8
0
100
AcDbBlockReference
  2
3_1
 10
0.0
 20
0.0
 30
0.0
 42
-1.0
 50
-1.4033418597069752e-14
  0
INSERT
  5
86
330
17
100
AcDbEntity
  8
0
100
AcDbBlockReference
  2
3_2
 10
73.5
 20
-9.001153973733046e-15
 30
0.0
 50
180.0
  0
INSERT
  5
88
330
17
100
AcDbEntity
  8
0
100
AcDbBlockReference
  2
3_2
 10
-73.5
 20
9.001153973733046e-15
 30
0.0
 42
-1.0
 50
-1.4033418597069752e-14
  0
INSERT
  5
A9
330
17
100
AcDbEntity
  8
0
100
AcDbBlockReference
  2
3_3
 10
217.0
 20
-2.6574835541497565e-14
 30
0.0
 50
180.0
  0
INSERT
  5
AB
330
17
100
AcDbEntity
  8
0
100
AcDbBlockReference
  2
3_3
 10
-217.0
 20
2.6574835541497565e-14
 30
0.0
 42
-1.0
 50
-1.4033418597069752e-14
  0
INSERT
  5
B2
330
17
100
AcDbEntity
  8
0
100
AcDbBlockReference
  2
Laufen
 10
257.0
 20
-3.147342273808698e-14
 30
0.0
 50
180.0
  0
INSERT
  5
B4
330
17
100
AcDbEntity
  8
0
100
AcDbBlockReference
  2
Laufen
 10
-257.0
 20
3.147342273808698e-14
 30
0.0
 42
-1.0
 50
-1.4033418597069752e-14
  0
INSERT
  5
15C
330
17
100
AcDbEntity
  8
0
100
AcDbBlockReference
  2
R
 10
-197.0
 20
0.0
 30
0.0
  0
INSERT
  5
1EA
330
17
100
AcDbEntity
  8
0
100
AcDbBlockReference
  2
U
 10
-142.0
 20
0.0
 30
0.0
  0
INSERT
  5
1FC
330
17
100
AcDbEntity
  8
0
100
AcDbBlockReference
  2
N
 10
-90.0
 20
0.0
 30
0.0
  0
INSERT
  5
1FE
330
17
100
AcDbEntity
  8
0
100
AcDbBlockReference
  2
N
 10
-37.0
 20
0.0
 30
0.0
  0
INSERT
  5
2EC
330
17
100
AcDbEntity
  8
0
100
AcDbBlockReference
  2
G
 10
16.0
 20
0.0
 30
0.0
  0
INSERT
  5
2F8
330
17
100
AcDbEntity
  8
0
100
AcDbBlockReference
  2
I
 10
76.0
 20
0.0
 30
0.0
  0
INSERT
  5
2FA
330
17
100
AcDbEntity
  8
0
100
AcDbBlockReference
  2
N
 10
89.0
 20
0.0
 30
0.0
  0
INSERT
  5
2FC
330
17
100
AcDbEntity
  8
0
100
AcDbBlockReference
  2
G
 10
142.0
 20
0.0
 30
0.0
  0
ENDSEC
  0
SECTION
  2
OBJECTS
  0
DICTIONARY
  5
A
330
0
100
AcDbDictionary
280
0
281
1
  3
ACAD_COLOR
350
B
  3
ACAD_GROUP
350
C
  3
ACAD_LAYOUT
350
D
  3
ACAD_MATERIAL
350
E
  3
ACAD_MLEADERSTYLE
350
F
  3
ACAD_MLINESTYLE
350
10
  3
ACAD_PLOTSETTINGS
350
11
  3
ACAD_PLOTSTYLENAME
350
12
  3
ACAD_SCALELIST
350
14
  3
ACAD_TABLESTYLE
350
15
  3
ACAD_VISUALSTYLE
350
16
  3
EZDXF_META
350
2D
  0
DICTIONARY
  5
B
330
A
100
AcDbDictionary
280
0
281
1
  0
DICTIONARY
  5
C
330
A
100
AcDbDictionary
280
0
281
1
  0
DICTIONARY
  5
D
330
A
100
AcDbDictionary
280
0
281
1
  3
Model
350
1A
  3
Layout1
350
1E
  0
DICTIONARY
  5
E
330
A
100
AcDbDictionary
280
0
281
1
  3
ByBlock
350
1F
  3
ByLayer
350
20
  3
Global
350
21
  0
DICTIONARY
  5
F
330
A
100
AcDbDictionary
280
0
281
1
  3
Standard
350
2C
  0
DICTIONARY
  5
10
330
A
100
AcDbDictionary
280
0
281
1
  3
Standard
350
22
  0
DICTIONARY
  5
11
330
A
100
AcDbDictionary
280
0
281
1
  0
ACDBDICTIONARYWDFLT
  5
12
330
A
100
AcDbDictionary
280
0
281
1
  3
Normal
350
13
100
AcDbDictionaryWithDefault
340
13
  0
ACDBPLACEHOLDER
  5
13
330
12
  0
DICTIONARY
  5
14
330
A
100
AcDbDictionary
280
0
281
1
  0
DICTIONARY
  5
15
330
A
100
AcDbDictionary
280
0
281
1
  0
DICTIONARY
  5
16
330
A
100
AcDbDictionary
280
0
281
1
  0
LAYOUT
  5
1A
330
D
100
AcDbPlotSettings
  1

  4
A3
  6

 40
7.5
 41
20.0
 42
7.5
 43
20.0
 44
420.0
 45
297.0
 46
0.0
 47
0.0
 48
0.0
 49
0.0
140
0.0
141
0.0
142
1.0
143
1.0
 70
1024
 72
1
 73
0
 74
5
  7

 75
16
 76
0
 77
2
 78
300
147
1.0
148
0.0
149
0.0
100
AcDbLayout
  1
Model
 70
1
 71
0
 10
0.0
 20
0.0
 11
420.0
 21
297.0
 12
0.0
 22
0.0
 32
0.0
 14
1e+20
 24
1e+20
 34
1e+20
 15
-1e+20
 25
-1e+20
 35
-1e+20
146
0.0
 13
0.0
 23
0.0
 33
0.0
 16
1.0
 26
0.0
 36
0.0
 17
0.0
 27
1.0
 37
0.0
 76
1
330
17
  0
LAYOUT
  5
1E
330
D
100
AcDbPlotSettings
  1

  4
A3
  6

 40
7.5
 41
20.0
 42
7.5
 43
20.0
 44
420.0
 45
297.0
 46
0.0
 47
0.0
 48
0.0
 49
0.0
140
0.0
141
0.0
142
1.0
143
1.0
 70
0
 72
1
 73
0
 74
5
  7

 75
16
 76
0
 77
2
 78
300
147
1.0
148
0.0
149
0.0
100
AcDbLayout
  1
Layout1
 70
1
 71
1
 10
0.0
 20
0.0
 11
420.0
 21
297.0
 12
0.0
 22
0.0
 32
0.0
 14
1e+20
 24
1e+20
 34
1e+20
 15
-1e+20
 25
-1e+20
 35
-1e+20
146
0.0
 13
0.0
 23
0.0
 33
0.0
 16
1.0
 26
0.0
 36
0.0
 17
0.0
 27
1.0
 37
0.0
 76
1
330
1B
  0
MATERIAL
  5
1F
102
{ACAD_REACTORS
330
E
102
}
330
E
100
AcDbMaterial
  1
ByBlock
  2

 70
0
 40
1.0
 71
1
 41
1.0
 91
-1023410177
 42
1.0
 72
1
  3

 73
1
 74
1
 75
1
 44
0.5
 73
0
 45
1.0
 46
1.0
 77
1
  4

 78
1
 79
1
170
1
 48
1.0
171
1
  6

172
1
173
1
174
1
140
1.0
141
1.0
175
1
  7

176
1
177
1
178
1
143
1.0
179
1
  8

270
1
271
1
272
1
145
1.0
146
1.0
273
1
  9

274
1
275
1
276
1
 42
1.0
 72
1
  3

 73
1
 74
1
 75
1
 94
63
  0
MATERIAL
  5
20
102
{ACAD_REACTORS
330
E
102
}
330
E
100
AcDbMaterial
  1
ByLayer
  2

 70
0
 40
1.0
 71
1
 41
1.0
 91
-1023410177
 42
1.0
 72
1
  3

 73
1
 74
1
 75
1
 44
0.5
 73
0
 45
1.0
 46
1.0
 77
1
  4

 78
1
 79
1
170
1
 48
1.0
171
1
  6

172
1
173
1
174
1
140
1.0
141
1.0
175
1
  7

176
1
177
1
178
1
143
1.0
179
1
  8

270
1
271
1
272
1
145
1.0
146
1.0
273
1
  9

274
1
275
1
276
1
 42
1.0
 72
1
  3

 73
1
 74
1
 75
1
 94
63
  0
MATERIAL
  5
21
102
{ACAD_REACTORS
330
E
102
}
330
E
100
AcDbMaterial
  1
Global
  2

 70
0
 40
1.0
 71
1
 41
1.0
 91
-1023410177
 42
1.0
 72
1
  3

 73
1
 74
1
 75
1
 44
0.5
 73
0
 45
1.0
 46
1.0
 77
1
  4

 78
1
 79
1
170
1
 48
1.0
171
1
  6

172
1
173
1
174
1
140
1.0
141
1.0
175
1
  7

176
1
177
1
178
1
143
1.0
179
1
  8

270
1
271
1
272
1
145
1.0
146
1.0
273
1
  9

274
1
275
1
276
1
 42
1.0
 72
1
  3

 73
1
 74
1
 75
1
 94
63
  0
MLINESTYLE
  5
22
102
{ACAD_REACTORS
330
10
102
}
330
10
100
AcDbMlineStyle
  2
Standard
 70
0
  3

 62
256
 51
90.0
 52
90.0
 71
2
 49
0.5
 62
256
  6
BYLAYER
 49
-0.5
 62
256
  6
BYLAYER
  0
MLEADERSTYLE
  5
2C
102
{ACAD_REACTORS
330
F
102
}
330
F
100
AcDbMLeaderStyle
179
2
170
2
171
1
172
0
 90
2
 40
0.0
 41
0.0
173
1
 91
-1056964608
 92
-2
290
1
 42
2.0
291
1
 43
8.0
  3
Standard
 44
4.0
300

342
29
174
1
175
1
176
0
178
1
 93
-1056964608
 45
4.0
292
0
297
0
 46
4.0
 94
-1056964608
 47
1.0
 49
1.0
140
1.0
294
1
141
0.0
177
0
142
1.0
295
0
296
0
143
3.75
271
0
272
9
273
9
  0
DICTIONARY
  5
2D
330
A
100
AcDbDictionary
280
1
281
1
  3
CREATED_BY_EZDXF
350
2E
  3
WRITTEN_BY_EZDXF
350
300
  0
DICTIONARYVAR
  5
2E
330
2D
100
DictionaryVariables
280
0
  1
1.4.0 @ 2025-03-21T18:21:58.763584+00:00
  0
DICTIONARYVAR
  5
300
330
2D
100
DictionaryVariables
280
0
  1
1.4.0 @ 2025-03-21T18:21:58.809908+00:00
  0
ENDSEC
  0
EOF
