  0
SECTION
  2
HEADER
  9
$ACADVER
  1
AC1024
  9
$ACADMAINTVER
 70
6
  9
$DWGCODEPAGE
  3
ANSI_1252
  9
$LASTSAVEDBY
  1
ezdxf
  9
$INSBASE
 10
0.0
 20
0.0
 30
0.0
  9
$EXTMIN
 10
1e+20
 20
1e+20
 30
1e+20
  9
$EXTMAX
 10
-1e+20
 20
-1e+20
 30
-1e+20
  9
$LIMMIN
 10
0.0
 20
0.0
  9
$LIMMAX
 10
420.0
 20
297.0
  9
$ORTHOMODE
 70
0
  9
$REGENMODE
 70
1
  9
$FILLMODE
 70
1
  9
$QTEXTMODE
 70
0
  9
$MIRRTEXT
 70
1
  9
$LTSCALE
 40
1.0
  9
$ATTMODE
 70
1
  9
$TEXTSIZE
 40
2.5
  9
$TRACEWID
 40
1.0
  9
$TEXTSTYLE
  7
Standard
  9
$CLAYER
  8
0
  9
$CELTYPE
  6
ByLayer
  9
$CECOLOR
 62
256
  9
$CELTSCALE
 40
1.0
  9
$DISPSILH
 70
0
  9
$DIMSCALE
 40
1.0
  9
$DIMASZ
 40
2.5
  9
$DIMEXO
 40
0.625
  9
$DIMDLI
 40
3.75
  9
$DIMRND
 40
0.0
  9
$DIMDLE
 40
0.0
  9
$DIMEXE
 40
1.25
  9
$DIMTP
 40
0.0
  9
$DIMTM
 40
0.0
  9
$DIMTXT
 40
2.5
  9
$DIMCEN
 40
2.5
  9
$DIMTSZ
 40
0.0
  9
$DIMTOL
 70
0
  9
$DIMLIM
 70
0
  9
$DIMTIH
 70
0
  9
$DIMTOH
 70
0
  9
$DIMSE1
 70
0
  9
$DIMSE2
 70
0
  9
$DIMTAD
 70
1
  9
$DIMZIN
 70
8
  9
$DIMBLK
  1

  9
$DIMASO
 70
1
  9
$DIMSHO
 70
1
  9
$DIMPOST
  1

  9
$DIMAPOST
  1

  9
$DIMALT
 70
0
  9
$DIMALTD
 70
3
  9
$DIMALTF
 40
0.03937007874
  9
$DIMLFAC
 40
1.0
  9
$DIMTOFL
 70
1
  9
$DIMTVP
 40
0.0
  9
$DIMTIX
 70
0
  9
$DIMSOXD
 70
0
  9
$DIMSAH
 70
0
  9
$DIMBLK1
  1

  9
$DIMBLK2
  1

  9
$DIMSTYLE
  2
ISO-25
  9
$DIMCLRD
 70
0
  9
$DIMCLRE
 70
0
  9
$DIMCLRT
 70
0
  9
$DIMTFAC
 40
1.0
  9
$DIMGAP
 40
0.625
  9
$DIMJUST
 70
0
  9
$DIMSD1
 70
0
  9
$DIMSD2
 70
0
  9
$DIMTOLJ
 70
0
  9
$DIMTZIN
 70
8
  9
$DIMALTZ
 70
0
  9
$DIMALTTZ
 70
0
  9
$DIMUPT
 70
0
  9
$DIMDEC
 70
2
  9
$DIMTDEC
 70
2
  9
$DIMALTU
 70
2
  9
$DIMALTTD
 70
3
  9
$DIMTXSTY
  7
Standard
  9
$DIMAUNIT
 70
0
  9
$DIMADEC
 70
0
  9
$DIMALTRND
 40
0.0
  9
$DIMAZIN
 70
0
  9
$DIMDSEP
 70
44
  9
$DIMATFIT
 70
3
  9
$DIMFRAC
 70
0
  9
$DIMLDRBLK
  1

  9
$DIMLUNIT
 70
2
  9
$DIMLWD
 70
-2
  9
$DIMLWE
 70
-2
  9
$DIMTMOVE
 70
0
  9
$DIMFXL
 40
1.0
  9
$DIMFXLON
 70
0
  9
$DIMJOGANG
 40
0.785398163397
  9
$DIMTFILL
 70
0
  9
$DIMTFILLCLR
 70
0
  9
$DIMARCSYM
 70
0
  9
$DIMLTYPE
  6

  9
$DIMLTEX1
  6

  9
$DIMLTEX2
  6

  9
$DIMTXTDIRECTION
 70
0
  9
$LUNITS
 70
2
  9
$LUPREC
 70
4
  9
$SKETCHINC
 40
1.0
  9
$FILLETRAD
 40
10.0
  9
$AUNITS
 70
0
  9
$AUPREC
 70
2
  9
$MENU
  1
.
  9
$ELEVATION
 40
0.0
  9
$PELEVATION
 40
0.0
  9
$THICKNESS
 40
0.0
  9
$LIMCHECK
 70
0
  9
$CHAMFERA
 40
0.0
  9
$CHAMFERB
 40
0.0
  9
$CHAMFERC
 40
0.0
  9
$CHAMFERD
 40
0.0
  9
$SKPOLY
 70
0
  9
$TDCREATE
 40
2460756.8143055555
  9
$TDUCREATE
 40
2458532.153996898
  9
$TDUPDATE
 40
2460756.8143055555
  9
$TDUUPDATE
 40
2458532.1544311
  9
$TDINDWG
 40
0.0
  9
$TDUSRTIMER
 40
0.0
  9
$USRTIMER
 70
1
  9
$ANGBASE
 50
0.0
  9
$ANGDIR
 70
0
  9
$PDMODE
 70
0
  9
$PDSIZE
 40
0.0
  9
$PLINEWID
 40
0.0
  9
$SPLFRAME
 70
0
  9
$SPLINETYPE
 70
6
  9
$SPLINESEGS
 70
8
  9
$HANDSEED
  5
3F8
  9
$SURFTAB1
 70
6
  9
$SURFTAB2
 70
6
  9
$SURFTYPE
 70
6
  9
$SURFU
 70
6
  9
$SURFV
 70
6
  9
$UCSBASE
  2

  9
$UCSNAME
  2

  9
$UCSORG
 10
0.0
 20
0.0
 30
0.0
  9
$UCSXDIR
 10
1.0
 20
0.0
 30
0.0
  9
$UCSYDIR
 10
0.0
 20
1.0
 30
0.0
  9
$UCSORTHOREF
  2

  9
$UCSORTHOVIEW
 70
0
  9
$UCSORGTOP
 10
0.0
 20
0.0
 30
0.0
  9
$UCSORGBOTTOM
 10
0.0
 20
0.0
 30
0.0
  9
$UCSORGLEFT
 10
0.0
 20
0.0
 30
0.0
  9
$UCSORGRIGHT
 10
0.0
 20
0.0
 30
0.0
  9
$UCSORGFRONT
 10
0.0
 20
0.0
 30
0.0
  9
$UCSORGBACK
 10
0.0
 20
0.0
 30
0.0
  9
$PUCSBASE
  2

  9
$PUCSNAME
  2

  9
$PUCSORG
 10
0.0
 20
0.0
 30
0.0
  9
$PUCSXDIR
 10
1.0
 20
0.0
 30
0.0
  9
$PUCSYDIR
 10
0.0
 20
1.0
 30
0.0
  9
$PUCSORTHOREF
  2

  9
$PUCSORTHOVIEW
 70
0
  9
$PUCSORGTOP
 10
0.0
 20
0.0
 30
0.0
  9
$PUCSORGBOTTOM
 10
0.0
 20
0.0
 30
0.0
  9
$PUCSORGLEFT
 10
0.0
 20
0.0
 30
0.0
  9
$PUCSORGRIGHT
 10
0.0
 20
0.0
 30
0.0
  9
$PUCSORGFRONT
 10
0.0
 20
0.0
 30
0.0
  9
$PUCSORGBACK
 10
0.0
 20
0.0
 30
0.0
  9
$USERI1
 70
0
  9
$USERI2
 70
0
  9
$USERI3
 70
0
  9
$USERI4
 70
0
  9
$USERI5
 70
0
  9
$USERR1
 40
0.0
  9
$USERR2
 40
0.0
  9
$USERR3
 40
0.0
  9
$USERR4
 40
0.0
  9
$USERR5
 40
0.0
  9
$WORLDVIEW
 70
1
  9
$SHADEDGE
 70
3
  9
$SHADEDIF
 70
70
  9
$TILEMODE
 70
1
  9
$MAXACTVP
 70
64
  9
$PINSBASE
 10
0.0
 20
0.0
 30
0.0
  9
$PLIMCHECK
 70
0
  9
$PEXTMIN
 10
1e+20
 20
1e+20
 30
1e+20
  9
$PEXTMAX
 10
-1e+20
 20
-1e+20
 30
-1e+20
  9
$PLIMMIN
 10
0.0
 20
0.0
  9
$PLIMMAX
 10
420.0
 20
297.0
  9
$UNITMODE
 70
0
  9
$VISRETAIN
 70
1
  9
$PLINEGEN
 70
0
  9
$PSLTSCALE
 70
1
  9
$TREEDEPTH
 70
3020
  9
$CMLSTYLE
  2
Standard
  9
$CMLJUST
 70
0
  9
$CMLSCALE
 40
20.0
  9
$PROXYGRAPHICS
 70
1
  9
$MEASUREMENT
 70
1
  9
$CELWEIGHT
370
-1
  9
$ENDCAPS
280
0
  9
$JOINSTYLE
280
0
  9
$LWDISPLAY
290
0
  9
$INSUNITS
 70
6
  9
$HYPERLINKBASE
  1

  9
$STYLESHEET
  1

  9
$XEDIT
290
1
  9
$CEPSNTYPE
380
0
  9
$PSTYLEMODE
290
1
  9
$FINGERPRINTGUID
  2
{1AFA0C75-1F81-4601-A83B-D01769FBE205}
  9
$VERSIONGUID
  2
{E8EFCBBD-833A-4CF3-88C7-E5C47C5E4FDB}
  9
$EXTNAMES
290
1
  9
$PSVPSCALE
 40
0.0
  9
$OLESTARTUP
290
0
  9
$SORTENTS
280
127
  9
$INDEXCTL
280
0
  9
$HIDETEXT
280
1
  9
$XCLIPFRAME
280
1
  9
$HALOGAP
280
0
  9
$OBSCOLOR
 70
257
  9
$OBSLTYPE
280
0
  9
$INTERSECTIONDISPLAY
280
0
  9
$INTERSECTIONCOLOR
 70
257
  9
$DIMASSOC
280
2
  9
$PROJECTNAME
  1

  9
$CAMERADISPLAY
290
0
  9
$LENSLENGTH
 40
50.0
  9
$CAMERAHEIGHT
 40
0.0
  9
$STEPSPERSEC
 40
24.0
  9
$STEPSIZE
 40
100.0
  9
$3DDWFPREC
 40
2.0
  9
$PSOLWIDTH
 40
0.005
  9
$PSOLHEIGHT
 40
0.08
  9
$LOFTANG1
 40
1.570796326795
  9
$LOFTANG2
 40
1.570796326795
  9
$LOFTMAG1
 40
0.0
  9
$LOFTMAG2
 40
0.0
  9
$LOFTPARAM
 70
7
  9
$LOFTNORMALS
280
1
  9
$LATITUDE
 40
37.795
  9
$LONGITUDE
 40
-122.394
  9
$NORTHDIRECTION
 40
0.0
  9
$TIMEZONE
 70
-8000
  9
$LIGHTGLYPHDISPLAY
280
1
  9
$TILEMODELIGHTSYNCH
280
1
  9
$CMATERIAL
347
20
  9
$SOLIDHIST
280
0
  9
$SHOWHIST
280
1
  9
$DWFFRAME
280
2
  9
$DGNFRAME
280
2
  9
$REALWORLDSCALE
290
1
  9
$INTERFERECOLOR
 62
256
  9
$CSHADOW
280
0
  9
$SHADOWPLANELOCATION
 40
0.0
  0
ENDSEC
  0
SECTION
  2
CLASSES
  0
CLASS
  1
ACDBDICTIONARYWDFLT
  2
AcDbDictionaryWithDefault
  3
ObjectDBX Classes
 90
0
 91
0
280
0
281
0
  0
CLASS
  1
SUN
  2
AcDbSun
  3
SCENEOE
 90
1153
 91
0
280
0
281
0
  0
CLASS
  1
VISUALSTYLE
  2
AcDbVisualStyle
  3
ObjectDBX Classes
 90
4095
 91
0
280
0
281
0
  0
CLASS
  1
MATERIAL
  2
AcDbMaterial
  3
ObjectDBX Classes
 90
1153
 91
0
280
0
281
0
  0
CLASS
  1
SCALE
  2
AcDbScale
  3
ObjectDBX Classes
 90
1153
 91
0
280
0
281
0
  0
CLASS
  1
TABLESTYLE
  2
AcDbTableStyle
  3
ObjectDBX Classes
 90
4095
 91
0
280
0
281
0
  0
CLASS
  1
MLEADERSTYLE
  2
AcDbMLeaderStyle
  3
ACDB_MLEADERSTYLE_CLASS
 90
4095
 91
0
280
0
281
0
  0
CLASS
  1
DICTIONARYVAR
  2
AcDbDictionaryVar
  3
ObjectDBX Classes
 90
0
 91
0
280
0
281
0
  0
CLASS
  1
CELLSTYLEMAP
  2
AcDbCellStyleMap
  3
ObjectDBX Classes
 90
1152
 91
0
280
0
281
0
  0
CLASS
  1
MENTALRAYRENDERSETTINGS
  2
AcDbMentalRayRenderSettings
  3
SCENEOE
 90
1024
 91
0
280
0
281
0
  0
CLASS
  1
ACDBDETAILVIEWSTYLE
  2
AcDbDetailViewStyle
  3
ObjectDBX Classes
 90
1025
 91
0
280
0
281
0
  0
CLASS
  1
ACDBSECTIONVIEWSTYLE
  2
AcDbSectionViewStyle
  3
ObjectDBX Classes
 90
1025
 91
0
280
0
281
0
  0
CLASS
  1
RASTERVARIABLES
  2
AcDbRasterVariables
  3
ISM
 90
0
 91
0
280
0
281
0
  0
CLASS
  1
LAYOUT
  2
AcDbLayout
  3
ObjectDBX Classes
 90
0
 91
0
280
0
281
0
  0
CLASS
  1
ACDBPLACEHOLDER
  2
AcDbPlaceHolder
  3
ObjectDBX Classes
 90
0
 91
0
280
0
281
0
  0
ENDSEC
  0
SECTION
  2
TABLES
  0
TABLE
  2
VPORT
  5
8
330
0
100
AcDbSymbolTable
 70
1
  0
VPORT
  5
23
330
8
100
AcDbSymbolTableRecord
100
AcDbViewportTableRecord
  2
*Active
 70
0
 10
0.0
 20
0.0
 11
1.0
 21
1.0
 12
0.0
 22
0.0
 13
0.0
 23
0.0
 14
0.5
 24
0.5
 15
0.5
 25
0.5
 16
0.0
 26
0.0
 36
1.0
 17
0.0
 27
0.0
 37
0.0
 40
1000.0
 41
1.34
 42
50.0
 43
0.0
 44
0.0
 50
0.0
 51
0.0
 71
0
 72
1000
 73
1
 74
3
 75
0
 76
0
 77
0
 78
0
281
0
 65
0
146
0.0
  0
ENDTAB
  0
TABLE
  2
LTYPE
  5
2
330
0
100
AcDbSymbolTable
 70
3
  0
LTYPE
  5
24
330
2
100
AcDbSymbolTableRecord
100
AcDbLinetypeTableRecord
  2
ByBlock
 70
0
  3

 72
65
 73
0
 40
0.0
  0
LTYPE
  5
25
330
2
100
AcDbSymbolTableRecord
100
AcDbLinetypeTableRecord
  2
ByLayer
 70
0
  3

 72
65
 73
0
 40
0.0
  0
LTYPE
  5
26
330
2
100
AcDbSymbolTableRecord
100
AcDbLinetypeTableRecord
  2
Continuous
 70
0
  3

 72
65
 73
0
 40
0.0
  0
ENDTAB
  0
TABLE
  2
LAYER
  5
1
330
0
100
AcDbSymbolTable
 70
2
  0
LAYER
  5
27
330
1
100
AcDbSymbolTableRecord
100
AcDbLayerTableRecord
  2
0
 70
0
 62
7
  6
Continuous
370
-3
390
13
347
21
  0
LAYER
  5
28
330
1
100
AcDbSymbolTableRecord
100
AcDbLayerTableRecord
  2
Defpoints
 70
0
 62
7
  6
Continuous
290
0
370
-3
390
13
347
21
  0
ENDTAB
  0
TABLE
  2
STYLE
  5
5
330
0
100
AcDbSymbolTable
 70
1
  0
STYLE
  5
29
330
5
100
AcDbSymbolTableRecord
100
AcDbTextStyleTableRecord
  2
Standard
 70
0
 40
0.0
 41
1.0
 50
0.0
 71
0
 42
2.5
  3
txt
  4

  0
ENDTAB
  0
TABLE
  2
VIEW
  5
7
330
0
100
AcDbSymbolTable
 70
0
  0
ENDTAB
  0
TABLE
  2
UCS
  5
6
330
0
100
AcDbSymbolTable
 70
0
  0
ENDTAB
  0
TABLE
  2
APPID
  5
3
330
0
100
AcDbSymbolTable
 70
3
  0
APPID
  5
2A
330
3
100
AcDbSymbolTableRecord
100
AcDbRegAppTableRecord
  2
ACAD
 70
0
  0
APPID
  5
3F5
330
3
100
AcDbSymbolTableRecord
100
AcDbRegAppTableRecord
  2
HATCHBACKGROUNDCOLOR
 70
0
  0
APPID
  5
3F6
330
3
100
AcDbSymbolTableRecord
100
AcDbRegAppTableRecord
  2
EZDXF
 70
0
  0
ENDTAB
  0
TABLE
  2
DIMSTYLE
  5
4
330
0
100
AcDbSymbolTable
 70
1
100
AcDbDimStyleTable
  0
DIMSTYLE
105
2B
330
4
100
AcDbSymbolTableRecord
100
AcDbDimStyleTableRecord
  2
Standard
 70
0
 40
1.0
 41
2.5
 42
0.625
 43
3.75
 44
1.25
 45
0.0
 46
0.0
 47
0.0
 48
0.0
 49
2.5
140
2.5
141
2.5
142
0.0
143
0.03937007874
144
1.0
145
0.0
146
1.0
147
0.625
148
0.0
 69
0
 70
0
 71
0
 72
0
 73
0
 74
0
 75
0
 76
0
 77
1
 78
8
 79
3
170
0
171
3
172
1
173
0
174
0
175
0
176
0
177
0
178
0
179
2
271
2
272
2
273
2
274
3
275
0
276
0
277
2
278
44
279
0
280
0
281
0
282
0
283
0
284
8
285
0
286
0
288
0
289
3
290
0
371
-2
372
-2
  0
ENDTAB
  0
TABLE
  2
BLOCK_RECORD
  5
9
330
0
100
AcDbSymbolTable
 70
12
  0
BLOCK_RECORD
  5
17
330
9
100
AcDbSymbolTableRecord
100
AcDbBlockTableRecord
  2
*Model_Space
340
1A
 70
0
280
1
281
0
  0
BLOCK_RECORD
  5
1B
330
9
100
AcDbSymbolTableRecord
100
AcDbBlockTableRecord
  2
*Paper_Space
340
1E
 70
0
280
1
281
0
  0
BLOCK_RECORD
  5
47
330
9
100
AcDbSymbolTableRecord
100
AcDbBlockTableRecord
  2
3_1
340
0
 70
0
280
1
281
0
  0
BLOCK_RECORD
  5
61
330
9
100
AcDbSymbolTableRecord
100
AcDbBlockTableRecord
  2
3_2
340
0
 70
0
280
1
281
0
  0
BLOCK_RECORD
  5
8A
330
9
100
AcDbSymbolTableRecord
100
AcDbBlockTableRecord
  2
3_3
340
0
 70
0
280
1
281
0
  0
BLOCK_RECORD
  5
AD
330
9
100
AcDbSymbolTableRecord
100
AcDbBlockTableRecord
  2
Radfahren
340
0
 70
0
280
1
281
0
  0
BLOCK_RECORD
  5
1FE
330
9
100
AcDbSymbolTableRecord
100
AcDbBlockTableRecord
  2
C
340
0
 70
0
280
1
281
0
  0
BLOCK_RECORD
  5
2C8
330
9
100
AcDbSymbolTableRecord
100
AcDbBlockTableRecord
  2
Y
340
0
 70
0
280
1
281
0
  0
BLOCK_RECORD
  5
2DB
330
9
100
AcDbSymbolTableRecord
100
AcDbBlockTableRecord
  2
L
340
0
 70
0
280
1
281
0
  0
BLOCK_RECORD
  5
2E9
330
9
100
AcDbSymbolTableRecord
100
AcDbBlockTableRecord
  2
I
340
0
 70
0
280
1
281
0
  0
BLOCK_RECORD
  5
2F5
330
9
100
AcDbSymbolTableRecord
100
AcDbBlockTableRecord
  2
N
340
0
 70
0
280
1
281
0
  0
BLOCK_RECORD
  5
307
330
9
100
AcDbSymbolTableRecord
100
AcDbBlockTableRecord
  2
G
340
0
 70
0
280
1
281
0
  0
ENDTAB
  0
ENDSEC
  0
SECTION
  2
BLOCKS
  0
BLOCK
  5
18
330
17
100
AcDbEntity
  8
0
100
AcDbBlockBegin
  2
*Model_Space
 70
0
 10
0.0
 20
0.0
 30
0.0
  3
*Model_Space
  1

  0
ENDBLK
  5
19
330
17
100
AcDbEntity
  8
0
100
AcDbBlockEnd
  0
BLOCK
  5
1C
330
1B
100
AcDbEntity
  8
0
100
AcDbBlockBegin
  2
*Paper_Space
 70
0
 10
0.0
 20
0.0
 30
0.0
  3
*Paper_Space
  1

  0
ENDBLK
  5
1D
330
1B
100
AcDbEntity
  8
0
100
AcDbBlockEnd
  0
BLOCK
  5
48
330
47
100
AcDbEntity
  8
0
100
AcDbBlockBegin
  2
3_1
 70
0
 10
0.0
 20
0.0
 30
0.0
  3
3_1
  1

  0
POINT
  5
4A
330
47
100
AcDbEntity
  8
0
100
AcDbPoint
 10
0.0
 20
0.0
 30
0.0
  0
POINT
  5
4B
330
47
100
AcDbEntity
  8
0
100
AcDbPoint
 10
0.0
 20
0.0
 30
0.0
  0
POINT
  5
4C
330
47
100
AcDbEntity
  8
0
100
AcDbPoint
 10
0.0
 20
0.0
 30
0.0
  0
POINT
  5
4D
330
47
100
AcDbEntity
  8
0
100
AcDbPoint
 10
0.0
 20
0.0
 30
0.0
  0
POINT
  5
4E
330
47
100
AcDbEntity
  8
0
100
AcDbPoint
 10
0.0
 20
0.0
 30
0.0
  0
LINE
  5
4F
330
47
100
AcDbEntity
  8
0
100
AcDbLine
 10
-12.800000000000011
 20
80.00000000000003
 30
0.0
 11
-19.999999999999996
 21
80.00000000000003
 31
0.0
  0
LINE
  5
50
330
47
100
AcDbEntity
  8
0
100
AcDbLine
 10
-9.600000000000023
 20
63.20000000000002
 30
0.0
 11
-9.600000000000023
 21
76.80000000000001
 31
0.0
  0
LINE
  5
51
330
47
100
AcDbEntity
  8
0
100
AcDbLine
 10
-12.800000000000011
 20
100.00000000000006
 30
0.0
 11
-19.999999999999996
 21
100.00000000000006
 31
0.0
  0
LINE
  5
52
330
47
100
AcDbEntity
  8
0
100
AcDbLine
 10
-12.800000000000011
 20
60.000000000000014
 30
0.0
 11
-19.999999999999996
 21
60.000000000000014
 31
0.0
  0
LINE
  5
53
330
47
100
AcDbEntity
  8
0
100
AcDbLine
 10
-12.800000000000011
 20
20.00000000000002
 30
0.0
 11
-19.999999999999996
 21
20.000000000000018
 31
0.0
  0
LINE
  5
54
330
47
100
AcDbEntity
  8
0
100
AcDbLine
 10
0.0
 20
0.0
 30
0.0
 11
-19.999999999999996
 21
-5.464378949326942e-16
 31
0.0
  0
LINE
  5
55
330
47
100
AcDbEntity
  8
0
100
AcDbLine
 10
-12.800000000000011
 20
40.000000000000014
 30
0.0
 11
-19.999999999999996
 21
40.000000000000036
 31
0.0
  0
ARC
  5
56
330
47
100
AcDbEntity
  8
0
100
AcDbCircle
 10
-12.800000000000011
 20
76.80000000000001
 30
0.0
 40
3.1999999999999886
100
AcDbArc
 50
0.0
 51
90.0
  0
ARC
  5
57
330
47
100
AcDbEntity
  8
0
100
AcDbCircle
 10
-12.800000000000011
 20
36.80000000000004
 30
0.0
 40
3.1999999999999886
100
AcDbArc
 50
0.0
 51
90.0
  0
ARC
  5
58
330
47
100
AcDbEntity
  8
0
100
AcDbCircle
 10
-12.800000000000011
 20
63.20000000000002
 30
0.0
 40
3.200000000000003
100
AcDbArc
 50
-90.0
 51
0.0
  0
ARC
  5
59
330
47
100
AcDbEntity
  8
0
100
AcDbCircle
 10
0.0
 20
10.000000000000039
 30
0.0
 40
4.250000000000003
100
AcDbArc
 50
90.0
 51
270.0
  0
ARC
  5
5A
330
47
100
AcDbEntity
  8
0
100
AcDbCircle
 10
-12.800000000000011
 20
23.200000000000024
 30
0.0
 40
3.200000000000003
100
AcDbArc
 50
-90.0
 51
0.0
  0
LINE
  5
5B
330
47
100
AcDbEntity
  8
0
100
AcDbLine
 10
-9.600000000000023
 20
23.200000000000024
 30
0.0
 11
-9.600000000000023
 21
36.80000000000004
 31
0.0
  0
LINE
  5
5C
330
47
100
AcDbEntity
  8
0
100
AcDbLine
 10
-12.800000000000011
 20
100.00000000000006
 30
0.0
 11
3.469446951953614e-17
 21
100.00000000000006
 31
0.0
  0
ENDBLK
  5
49
330
47
100
AcDbEntity
  8
0
100
AcDbBlockEnd
  0
BLOCK
  5
62
330
61
100
AcDbEntity
  8
0
100
AcDbBlockBegin
  2
3_2
 70
0
 10
0.0
 20
0.0
 30
0.0
  3
3_2
  1

  0
POINT
  5
64
330
61
100
AcDbEntity
  8
0
100
AcDbPoint
 10
0.0
 20
0.0
 30
0.0
  0
POINT
  5
65
330
61
100
AcDbEntity
  8
0
100
AcDbPoint
 10
-10.0
 20
0.0
 30
0.0
  0
ARC
  5
66
330
61
100
AcDbEntity
  8
0
100
AcDbCircle
 10
-46.31374477257396
 20
81.60000000000004
 30
0.0
 40
1.6000000000000145
100
AcDbArc
 50
153.37355672477204
 51
269.9999999999997
  0
LINE
  5
67
330
61
100
AcDbEntity
  8
0
100
AcDbLine
 10
-83.06437185369617
 20
80.00000000000003
 30
0.0
 11
-90.0
 21
80.00000000000006
 31
0.0
  0
ARC
  5
68
330
61
100
AcDbEntity
  8
0
100
AcDbCircle
 10
-55.79816647298031
 20
58.40000000000003
 30
0.0
 40
1.599999999999966
100
AcDbArc
 50
90.0
 51
154.99999999999815
  0
LINE
  5
69
330
61
100
AcDbEntity
  8
0
100
AcDbLine
 10
-74.11126481712017
 20
100.00000000000006
 30
0.0
 11
-57.42276174050815
 21
100.00000000000006
 31
0.0
  0
LINE
  5
6A
330
61
100
AcDbEntity
  8
0
100
AcDbLine
 10
-10.0
 20
100.00000000000001
 30
0.0
 11
0.0
 21
100.00000000000001
 31
0.0
  0
LINE
  5
6B
330
61
100
AcDbEntity
  8
0
100
AcDbLine
 10
-83.06437185369617
 20
80.00000000000003
 30
0.0
 11
-65.87009236288496
 21
80.00000000000007
 31
0.0
  0
LINE
  5
6C
330
61
100
AcDbEntity
  8
0
100
AcDbLine
 10
-74.11126481712017
 20
100.00000000000006
 30
0.0
 11
-90.0
 21
100.00000000000006
 31
0.0
  0
ARC
  5
6D
330
61
100
AcDbEntity
  8
0
100
AcDbCircle
 10
-57.42276174050815
 20
98.40000000000003
 30
0.0
 40
1.5999999999999839
100
AcDbArc
 50
-24.99999999999992
 51
90.0
  0
ARC
  5
6E
330
61
100
AcDbEntity
  8
0
100
AcDbCircle
 10
-65.870092362885
 20
81.60000000000014
 30
0.0
 40
1.6000000000000725
100
AcDbArc
 50
270.00000000000153
 51
333.30808432102634
  0
ARC
  5
6F
330
61
100
AcDbEntity
  8
0
100
AcDbCircle
 10
-37.89195239982831
 20
98.40000000000016
 30
0.0
 40
1.5999999999998593
100
AcDbArc
 50
90.0
 51
155.00000000000313
  0
ARC
  5
70
330
61
100
AcDbEntity
  8
0
100
AcDbCircle
 10
-75.32897581366015
 20
58.40000000000003
 30
0.0
 40
1.5999999999999839
100
AcDbArc
 50
-24.99999999999992
 51
90.0
  0
LINE
  5
71
330
61
100
AcDbEntity
  8
0
100
AcDbLine
 10
-10.0
 20
80.00000000000006
 30
0.0
 11
-46.31374477257397
 21
80.00000000000001
 31
0.0
  0
LINE
  5
72
330
61
100
AcDbEntity
  8
0
100
AcDbLine
 10
-10.0
 20
20.00000000000003
 30
0.0
 11
0.0
 21
20.00000000000003
 31
0.0
  0
LINE
  5
73
330
61
100
AcDbEntity
  8
0
100
AcDbLine
 10
-10.0
 20
0.0
 30
0.0
 11
0.0
 21
0.0
 31
0.0
  0
LINE
  5
74
330
61
100
AcDbEntity
  8
0
100
AcDbLine
 10
-90.0
 20
40.00000000000004
 30
0.0
 11
-82.78989834414013
 21
40.00000000000006
 31
0.0
  0
LINE
  5
75
330
61
100
AcDbEntity
  8
0
100
AcDbLine
 10
-10.0
 20
40.00000000000006
 30
0.0
 11
0.0
 21
40.00000000000006
 31
0.0
  0
LINE
  5
76
330
61
100
AcDbEntity
  8
0
100
AcDbLine
 10
-10.0
 20
0.0
 30
0.0
 11
-90.0
 21
0.0
 31
0.0
  0
LINE
  5
77
330
61
100
AcDbEntity
  8
0
100
AcDbLine
 10
0.0
 20
0.0
 30
0.0
 11
-90.0
 21
0.0
 31
0.0
  0
LINE
  5
78
330
61
100
AcDbEntity
  8
0
100
AcDbLine
 10
-10.0
 20
60.0
 30
0.0
 11
0.0
 21
60.0
 31
0.0
  0
LINE
  5
79
330
61
100
AcDbEntity
  8
0
100
AcDbLine
 10
-10.0
 20
20.00000000000003
 30
0.0
 11
-90.0
 21
20.00000000000003
 31
0.0
  0
LINE
  5
7A
330
61
100
AcDbEntity
  8
0
100
AcDbLine
 10
-10.0
 20
40.00000000000006
 30
0.0
 11
-64.49982862561691
 21
40.00000000000004
 31
0.0
  0
LINE
  5
7B
330
61
100
AcDbEntity
  8
0
100
AcDbLine
 10
-10.0
 20
60.0
 30
0.0
 11
-55.79816647298031
 21
59.99999999999999
 31
0.0
  0
LINE
  5
7C
330
61
100
AcDbEntity
  8
0
100
AcDbLine
 10
-10.0
 20
0.0
 30
0.0
 11
0.0
 21
0.0
 31
0.0
  0
LINE
  5
7D
330
61
100
AcDbEntity
  8
0
100
AcDbLine
 10
-10.0
 20
100.00000000000001
 30
0.0
 11
-37.89195239982831
 21
100.00000000000001
 31
0.0
  0
LINE
  5
7E
330
61
100
AcDbEntity
  8
0
100
AcDbLine
 10
-10.0
 20
80.00000000000006
 30
0.0
 11
0.0
 21
80.00000000000006
 31
0.0
  0
LINE
  5
7F
330
61
100
AcDbEntity
  8
0
100
AcDbLine
 10
-81.33980588488157
 20
40.92381078121491
 30
0.0
 11
-73.87888335440152
 21
57.723810781214915
 31
0.0
  0
ARC
  5
80
330
61
100
AcDbEntity
  8
0
100
AcDbCircle
 10
-64.49982862561691
 20
41.60000000000005
 30
0.0
 40
1.6000000000000032
100
AcDbArc
 50
152.6136253493158
 51
270.0
  0
LINE
  5
81
330
61
100
AcDbEntity
  8
0
100
AcDbLine
 10
-57.2482589322388
 20
59.07618921878513
 30
0.0
 11
-65.92050830378811
 21
42.33598182860139
 31
0.0
  0
LINE
  5
82
330
61
100
AcDbEntity
  8
0
100
AcDbLine
 10
-90.0
 20
60.00000000000003
 30
0.0
 11
-75.32897581366015
 21
60.00000000000003
 31
0.0
  0
LINE
  5
83
330
61
100
AcDbEntity
  8
0
100
AcDbLine
 10
-64.44059671895593
 20
80.88129129406427
 30
0.0
 11
-55.97266928124952
 21
97.72381078121492
 31
0.0
  0
ARC
  5
84
330
61
100
AcDbEntity
  8
0
100
AcDbCircle
 10
-82.78989834414013
 20
41.599999999999994
 30
0.0
 40
1.5999999999999392
100
AcDbArc
 50
270.0
 51
334.99999999999983
  0
LINE
  5
85
330
61
100
AcDbEntity
  8
0
100
AcDbLine
 10
-39.34204485908687
 20
99.07618921878515
 30
0.0
 11
-47.74406075793528
 21
82.31707473949372
 31
0.0
  0
ENDBLK
  5
63
330
61
100
AcDbEntity
  8
0
100
AcDbBlockEnd
  0
BLOCK
  5
8B
330
8A
100
AcDbEntity
  8
0
100
AcDbBlockBegin
  2
3_3
 70
0
 10
0.0
 20
0.0
 30
0.0
  3
3_3
  1

  0
POINT
  5
8D
330
8A
100
AcDbEntity
  8
0
100
AcDbPoint
 10
0.0
 20
0.0
 30
0.0
  0
POINT
  5
8E
330
8A
100
AcDbEntity
  8
0
100
AcDbPoint
 10
0.0
 20
0.0
 30
0.0
  0
POINT
  5
8F
330
8A
100
AcDbEntity
  8
0
100
AcDbPoint
 10
-20.0
 20
0.0
 30
0.0
  0
LINE
  5
90
330
8A
100
AcDbEntity
  8
0
100
AcDbLine
 10
-20.0
 20
0.0
 30
0.0
 11
0.0
 21
0.0
 31
0.0
  0
LINE
  5
91
330
8A
100
AcDbEntity
  8
0
100
AcDbLine
 10
-20.0
 20
60.00000000000003
 30
0.0
 11
3.552713678800501e-14
 21
60.000000000000014
 31
0.0
  0
LINE
  5
92
330
8A
100
AcDbEntity
  8
0
100
AcDbLine
 10
-45.049131937629454
 20
78.1523784375703
 30
0.0
 11
-52.46283535036588
 21
64.74883261800548
 31
0.0
  0
ARC
  5
93
330
8A
100
AcDbEntity
  8
0
100
AcDbCircle
 10
-36.86664143583168
 20
136.79381801215396
 30
0.0
 40
3.20000000000001
100
AcDbArc
 50
90.00960757978065
 51
155.40242977276966
  0
LINE
  5
94
330
8A
100
AcDbEntity
  8
0
100
AcDbLine
 10
-20.0
 20
80.00000000000003
 30
0.0
 11
4.440892098500626e-14
 21
80.00000000000001
 31
0.0
  0
ARC
  5
95
330
8A
100
AcDbEntity
  8
0
100
AcDbCircle
 10
-42.148947019112484
 20
76.80000000000008
 30
0.0
 40
3.199999999999923
100
AcDbArc
 50
90.0
 51
154.99999999999793
  0
LINE
  5
96
330
8A
100
AcDbEntity
  8
0
100
AcDbLine
 10
-20.0
 20
100.00000000000003
 30
0.0
 11
-31.330609349916067
 21
100.00000000000003
 31
0.0
  0
LINE
  5
97
330
8A
100
AcDbEntity
  8
0
100
AcDbLine
 10
-58.0848014652485
 20
98.13197514695702
 30
0.0
 11
-100.93342600858976
 21
4.531975146956988
 31
0.0
  0
LINE
  5
98
330
8A
100
AcDbEntity
  8
0
100
AcDbLine
 10
-20.0
 20
100.00000000000003
 30
0.0
 11
5.773159728050814e-14
 21
100.00000000000001
 31
0.0
  0
LINE
  5
99
330
8A
100
AcDbEntity
  8
0
100
AcDbLine
 10
-20.0
 20
80.00000000000003
 30
0.0
 11
-42.148947019112484
 21
80.0
 31
0.0
  0
CIRCLE
  5
9A
330
8A
100
AcDbEntity
  8
0
100
AcDbCircle
 10
-80.06025668368946
 20
9.757929537773101
 30
0.0
 40
4.25
  0
LINE
  5
9B
330
8A
100
AcDbEntity
  8
0
100
AcDbLine
 10
-98.0238139712403
 20
-1.3877787807814457e-14
 30
0.0
 11
-85.5243817936153
 21
-8.480732650531376e-15
 31
0.0
  0
LINE
  5
9C
330
8A
100
AcDbEntity
  8
0
100
AcDbLine
 10
-20.0
 20
20.00000000000003
 30
0.0
 11
1.3322676295501878e-14
 21
20.000000000000018
 31
0.0
  0
LINE
  5
9D
330
8A
100
AcDbEntity
  8
0
100
AcDbLine
 10
-20.0
 20
0.0
 30
0.0
 11
-98.0238139712403
 21
-1.3877787807814457e-14
 31
0.0
  0
LINE
  5
9E
330
8A
100
AcDbEntity
  8
0
100
AcDbLine
 10
-20.0
 20
60.00000000000003
 30
0.0
 11
-49.662635800083365
 21
60.00000000000003
 31
0.0
  0
ARC
  5
9F
330
8A
100
AcDbEntity
  8
0
100
AcDbCircle
 10
-98.0238139712403
 20
3.1999999999999895
 30
0.0
 40
3.2000000000000033
100
AcDbArc
 50
155.4024297727696
 51
270.0
  0
LINE
  5
A0
330
8A
100
AcDbEntity
  8
0
100
AcDbLine
 10
-20.0
 20
40.0
 30
0.0
 11
2.220446049250313e-14
 21
39.99999999999999
 31
0.0
  0
ARC
  5
A1
330
8A
100
AcDbEntity
  8
0
100
AcDbCircle
 10
-49.66263580008334
 20
63.20000000000004
 30
0.0
 40
3.2000000000000113
100
AcDbArc
 50
151.0523567083079
 51
269.9999999999996
  0
LINE
  5
A2
330
8A
100
AcDbEntity
  8
0
100
AcDbLine
 10
-62.955346010781525
 20
38.15237843757026
 30
0.0
 11
-70.65929099526763
 21
24.7991353513609
 31
0.0
  0
ARC
  5
A3
330
8A
100
AcDbEntity
  8
0
100
AcDbCircle
 10
-60.0551610922642
 20
36.8000000000001
 30
0.0
 40
3.199999999999905
100
AcDbArc
 50
90.0
 51
155.00000000000153
  0
ARC
  5
A4
330
8A
100
AcDbEntity
  8
0
100
AcDbCircle
 10
-67.88751067784926
 20
23.20000000000002
 30
0.0
 40
3.199999999999993
100
AcDbArc
 50
150.01787485720746
 51
270.0000000000002
  0
LINE
  5
A5
330
8A
100
AcDbEntity
  8
0
100
AcDbLine
 10
-20.0
 20
20.00000000000003
 30
0.0
 11
-67.88751067784925
 21
20.00000000000003
 31
0.0
  0
LINE
  5
A6
330
8A
100
AcDbEntity
  8
0
100
AcDbLine
 10
-20.0
 20
40.0
 30
0.0
 11
-60.0551610922642
 21
40.0
 31
0.0
  0
LINE
  5
A7
330
8A
100
AcDbEntity
  8
0
100
AcDbLine
 10
-31.330609349916067
 20
100.00000000000003
 30
0.0
 11
-55.17518942789903
 21
100.00000000000006
 31
0.0
  0
ARC
  5
A8
330
8A
100
AcDbEntity
  8
0
100
AcDbCircle
 10
-55.17518942789904
 20
96.80000000000005
 30
0.0
 40
3.200000000000003
100
AcDbArc
 50
89.99999999999974
 51
155.40242977277018
  0
ENDBLK
  5
8C
330
8A
100
AcDbEntity
  8
0
100
AcDbBlockEnd
  0
BLOCK
  5
AE
330
AD
100
AcDbEntity
  8
0
100
AcDbBlockBegin
  2
Radfahren
 70
0
 10
0.0
 20
0.0
 30
0.0
  3
Radfahren
  1

  0
POINT
  5
B0
330
AD
100
AcDbEntity
  8
0
100
AcDbPoint
 10
0.0
 20
0.0
 30
0.0
  0
LINE
  5
B1
330
AD
100
AcDbEntity
  8
0
100
AcDbLine
 10
-6.009820510819495
 20
-35.578244914038805
 30
0.0
 11
-5.272234841985863
 21
-36.646559574431286
 31
0.0
  0
LINE
  5
B2
330
AD
100
AcDbEntity
  8
0
100
AcDbLine
 10
-4.472071203511305
 20
-37.51649322704865
 30
0.0
 11
-4.449543134440503
 21
-37.73426456139892
 31
0.0
  0
LINE
  5
B3
330
AD
100
AcDbEntity
  8
0
100
AcDbLine
 10
-0.582337147514167
 20
-34.45423375431806
 30
0.0
 11
0.2842255027498197
 21
-35.320796404582126
 31
0.0
  0
LINE
  5
B4
330
AD
100
AcDbEntity
  8
0
100
AcDbLine
 10
-20.912348388869617
 20
-38.4537801518256
 30
0.0
 11
-23.080820727636038
 21
-41.164370575283435
 31
0.0
  0
LINE
  5
B5
330
AD
100
AcDbEntity
  8
0
100
AcDbLine
 10
2.426492779989573
 20
-38.99740485629324
 30
0.0
 11
2.536729921266243
 21
-39.7513422856314
 31
0.0
  0
LINE
  5
B6
330
AD
100
AcDbEntity
  8
0
100
AcDbLine
 10
2.006181359880088
 20
-37.86184477753691
 30
0.0
 11
2.426492779989573
 21
-38.99740485629324
 31
0.0
  0
LINE
  5
B7
330
AD
100
AcDbEntity
  8
0
100
AcDbLine
 10
-15.061690555384146
 20
-31.140457859968794
 30
0.0
 11
-16.313576372712717
 21
-32.70531513162977
 31
0.0
  0
LINE
  5
B8
330
AD
100
AcDbEntity
  8
0
100
AcDbLine
 10
-6.946821309575597
 20
-33.87278664809302
 30
0.0
 11
-6.931802596861658
 21
-34.01796753765988
 31
0.0
  0
LINE
  5
B9
330
AD
100
AcDbEntity
  8
0
100
AcDbLine
 10
-13.024842513132597
 20
-29.277961962905913
 30
0.0
 11
-12.418732109240267
 21
-28.753523193455045
 31
0.0
  0
LINE
  5
BA
330
AD
100
AcDbEntity
  8
0
100
AcDbLine
 10
-6.510356243611213
 20
-34.85327195972801
 30
0.0
 11
-6.009820510819495
 21
-35.578244914038805
 31
0.0
  0
LINE
  5
BB
330
AD
100
AcDbEntity
  8
0
100
AcDbLine
 10
-2.8721798093801
 20
-31.528227297094396
 30
0.0
 11
-5.168877450338201
 21
-29.176346385792403
 31
0.0
  0
LINE
  5
BC
330
AD
100
AcDbEntity
  8
0
100
AcDbLine
 10
2.3162556387126187
 20
-40.39527762090237
 30
0.0
 11
1.526497014639503
 21
-41.57051366863002
 31
0.0
  0
LINE
  5
BD
330
AD
100
AcDbEntity
  8
0
100
AcDbLine
 10
1.526497014639503
 20
-41.57051366863002
 30
0.0
 11
0.49815510924453577
 21
-42.36846785413625
 31
0.0
  0
LINE
  5
BE
330
AD
100
AcDbEntity
  8
0
100
AcDbLine
 10
1.51286427648607
 20
-36.77282404627055
 30
0.0
 11
2.006181359880088
 21
-37.86184477753691
 31
0.0
  0
LINE
  5
BF
330
AD
100
AcDbEntity
  8
0
100
AcDbLine
 10
-23.080820727636038
 20
-41.164370575283435
 30
0.0
 11
-23.590162685935994
 21
-42.64607094985588
 31
0.0
  0
LINE
  5
C0
330
AD
100
AcDbEntity
  8
0
100
AcDbLine
 10
-6.931802596861658
 20
-34.01796753765988
 30
0.0
 11
-6.510356243611213
 21
-34.85327195972801
 31
0.0
  0
LINE
  5
C1
330
AD
100
AcDbEntity
  8
0
100
AcDbLine
 10
-16.313576372712717
 20
-32.70531513162977
 30
0.0
 11
-17.214323485180998
 21
-33.83124902221508
 31
0.0
  0
LINE
  5
C2
330
AD
100
AcDbEntity
  8
0
100
AcDbLine
 10
-14.026661725696243
 20
-57.53215617214408
 30
0.0
 11
-11.280683822242281
 21
-58.365519640711405
 31
0.0
  0
LINE
  5
C3
330
AD
100
AcDbEntity
  8
0
100
AcDbLine
 10
-23.080820727636038
 20
-48.71380502072125
 30
0.0
 11
-23.335491706785874
 21
-49.55295973264943
 31
0.0
  0
LINE
  5
C4
330
AD
100
AcDbEntity
  8
0
100
AcDbLine
 10
-5.279364329070475
 20
-46.057659521081334
 30
0.0
 11
-4.769458262211188
 21
-46.56756558794057
 31
0.0
  0
LINE
  5
C5
330
AD
100
AcDbEntity
  8
0
100
AcDbLine
 10
-23.335491706785874
 20
-49.55295973264943
 30
0.0
 11
-22.776055232167067
 21
-52.298501815778565
 31
0.0
  0
LINE
  5
C6
330
AD
100
AcDbEntity
  8
0
100
AcDbLine
 10
-19.058530694602
 20
-54.56805383026555
 30
0.0
 11
-18.174600083880463
 21
-54.83631362900504
 31
0.0
  0
LINE
  5
C7
330
AD
100
AcDbEntity
  8
0
100
AcDbLine
 10
-0.8142127969561841
 20
-58.365519640711405
 30
0.0
 11
2.1277775559142498
 21
-58.60180933845448
 31
0.0
  0
LINE
  5
C8
330
AD
100
AcDbEntity
  8
0
100
AcDbLine
 10
-3.756203149826547
 20
-58.83809903619741
 30
0.0
 11
-0.8142127969561841
 21
-58.365519640711405
 31
0.0
  0
LINE
  5
C9
330
AD
100
AcDbEntity
  8
0
100
AcDbLine
 10
-7.5313235141289425
 20
-58.83809903619741
 30
0.0
 11
-3.756203149826547
 21
-58.83809903619741
 31
0.0
  0
ARC
  5
CA
330
AD
100
AcDbEntity
  8
0
100
AcDbCircle
 10
15.574645103356062
 20
-29.45447366511289
 30
0.0
 40
0.4223999999999712
100
AcDbArc
 50
260.28963371918815
 51
313.3549142936001
  0
LINE
  5
CB
330
AD
100
AcDbEntity
  8
0
100
AcDbLine
 10
22.572910448239583
 20
-32.882235031834625
 30
0.0
 11
22.541517564822016
 21
-32.596339027591036
 31
0.0
  0
LINE
  5
CC
330
AD
100
AcDbEntity
  8
0
100
AcDbLine
 10
22.18100853540612
 20
-32.517432884695246
 30
0.0
 11
21.803322984077695
 21
-32.596339027591036
 31
0.0
  0
LINE
  5
CD
330
AD
100
AcDbEntity
  8
0
100
AcDbLine
 10
16.45640136897555
 20
-29.202877467379928
 30
0.0
 11
16.09436594022462
 21
-29.544698111262054
 31
0.0
  0
LINE
  5
CE
330
AD
100
AcDbEntity
  8
0
100
AcDbLine
 10
16.09436594022462
 20
-29.544698111262054
 30
0.0
 11
15.86462927626961
 21
-29.761607088008454
 31
0.0
  0
LINE
  5
CF
330
AD
100
AcDbEntity
  8
0
100
AcDbLine
 10
6.264624733911646
 20
-38.124615241335015
 30
0.0
 11
7.2174341029441536
 21
-36.93867166498609
 31
0.0
  0
LINE
  5
D0
330
AD
100
AcDbEntity
  8
0
100
AcDbLine
 10
4.401679692055183
 20
-40.82876932080842
 30
0.0
 11
6.264624733911646
 21
-38.124615241335015
 31
0.0
  0
LINE
  5
D1
330
AD
100
AcDbEntity
  8
0
100
AcDbLine
 10
14.208043115049378
 20
-29.72554614852831
 30
0.0
 11
14.208043115049378
 21
-29.095160744242538
 31
0.0
  0
LINE
  5
D2
330
AD
100
AcDbEntity
  8
0
100
AcDbLine
 10
14.208043115049378
 20
-29.095160744242538
 30
0.0
 11
14.431234776383448
 21
-28.214793635647858
 31
0.0
  0
LINE
  5
D3
330
AD
100
AcDbEntity
  8
0
100
AcDbLine
 10
9.863943470632535
 20
-41.46387490217866
 30
0.0
 11
10.621771598456249
 21
-40.55869130505571
 31
0.0
  0
LINE
  5
D4
330
AD
100
AcDbEntity
  8
0
100
AcDbLine
 10
7.2174341029441536
 20
-36.93867166498609
 30
0.0
 11
8.92860291395948
 21
-35.09477418419513
 31
0.0
  0
LINE
  5
D5
330
AD
100
AcDbEntity
  8
0
100
AcDbLine
 10
14.654426437717234
 20
-29.72554614852831
 30
0.0
 11
14.208043115049378
 21
-29.72554614852831
 31
0.0
  0
LINE
  5
D6
330
AD
100
AcDbEntity
  8
0
100
AcDbLine
 10
14.431234776383448
 20
-28.214793635647858
 30
0.0
 11
14.728217180271699
 21
-27.81907015691067
 31
0.0
  0
LINE
  5
D7
330
AD
100
AcDbEntity
  8
0
100
AcDbLine
 10
-16.937498413909182
 20
-27.633153565112515
 30
0.0
 11
-15.061690555384146
 21
-31.140457859968794
 31
0.0
  0
LINE
  5
D8
330
AD
100
AcDbEntity
  8
0
100
AcDbLine
 10
-14.523485619670069
 20
-26.379742621201657
 30
0.0
 11
-13.024842513132597
 21
-29.277961962905913
 31
0.0
  0
LINE
  5
D9
330
AD
100
AcDbEntity
  8
0
100
AcDbLine
 10
21.477678584825313
 20
-39.632763008363604
 30
0.0
 11
21.971408281703617
 21
-39.36699526112146
 31
0.0
  0
LINE
  5
DA
330
AD
100
AcDbEntity
  8
0
100
AcDbLine
 10
22.15401695250364
 20
-38.99399899444509
 30
0.0
 11
21.971408281703617
 21
-38.568156318499504
 31
0.0
  0
ARC
  5
DB
330
AD
100
AcDbEntity
  8
0
100
AcDbCircle
 10
18.127934393967777
 20
-13.279805743971615
 30
0.0
 40
14.931452936752587
100
AcDbArc
 50
-103.1610107149941
 51
61.16237738018068
  0
LINE
  5
DC
330
AD
100
AcDbEntity
  8
0
100
AcDbLine
 10
21.72454343326436
 20
-36.51910156012575
 30
0.0
 11
21.72454343326436
 21
-35.854035498575264
 31
0.0
  0
LINE
  5
DD
330
AD
100
AcDbEntity
  8
0
100
AcDbLine
 10
20.70728138994049
 20
-40.047456976055955
 30
0.0
 11
21.477678584825313
 21
-39.632763008363604
 31
0.0
  0
LINE
  5
DE
330
AD
100
AcDbEntity
  8
0
100
AcDbLine
 10
19.731112622945517
 20
-35.84521877253432
 30
0.0
 11
19.616495595250854
 21
-35.62968225490861
 31
0.0
  0
LINE
  5
DF
330
AD
100
AcDbEntity
  8
0
100
AcDbLine
 10
-12.418732109240267
 20
-28.753523193455045
 30
0.0
 11
-12.138988845905274
 21
-27.8288522920538
 31
0.0
  0
LINE
  5
E0
330
AD
100
AcDbEntity
  8
0
100
AcDbLine
 10
18.366074598613906
 20
-40.55869130505571
 30
0.0
 11
18.740063742381423
 21
-41.48046519296977
 31
0.0
  0
LINE
  5
E1
330
AD
100
AcDbEntity
  8
0
100
AcDbLine
 10
-5.168877450338201
 20
-29.176346385792403
 30
0.0
 11
-4.892106187480607
 21
-27.490999782746602
 31
0.0
  0
LINE
  5
E2
330
AD
100
AcDbEntity
  8
0
100
AcDbLine
 10
-7.210941509424629
 20
-45.36134843145475
 30
0.0
 11
-6.922332440603753
 21
-45.60593354786401
 31
0.0
  0
LINE
  5
E3
330
AD
100
AcDbEntity
  8
0
100
AcDbLine
 10
2.536729921266243
 20
-39.7513422856314
 30
0.0
 11
2.3162556387126187
 21
-40.39527762090237
 31
0.0
  0
LINE
  5
E4
330
AD
100
AcDbEntity
  8
0
100
AcDbLine
 10
-4.449543134440503
 20
-37.73426456139892
 30
0.0
 11
-6.09492654953101
 21
-37.904476638822
 31
0.0
  0
LINE
  5
E5
330
AD
100
AcDbEntity
  8
0
100
AcDbLine
 10
1.8507399392637325
 20
-34.14893563478356
 30
0.0
 11
-0.8569069530509665
 21
-34.03322671916201
 31
0.0
  0
LINE
  5
E6
330
AD
100
AcDbEntity
  8
0
100
AcDbLine
 10
-18.834952651676602
 20
-36.21255149173985
 30
0.0
 11
-20.912348388869617
 21
-38.4537801518256
 31
0.0
  0
LINE
  5
E7
330
AD
100
AcDbEntity
  8
0
100
AcDbLine
 10
0.2842255027498197
 20
-35.320796404582126
 30
0.0
 11
1.0940101490761123
 21
-36.13058105090839
 31
0.0
  0
LINE
  5
E8
330
AD
100
AcDbEntity
  8
0
100
AcDbLine
 10
-21.13088570922379
 20
-53.93912489354105
 30
0.0
 11
-20.022898835647496
 21
-54.27538243695726
 31
0.0
  0
LINE
  5
E9
330
AD
100
AcDbEntity
  8
0
100
AcDbLine
 10
-0.0688714586355843
 20
-48.06505239051419
 30
0.0
 11
1.9413840319124631
 21
-44.85587867287106
 31
0.0
  0
LINE
  5
EA
330
AD
100
AcDbEntity
  8
0
100
AcDbLine
 10
-22.776055232167067
 20
-52.298501815778565
 30
0.0
 11
-21.623528309776248
 21
-53.78961518851246
 31
0.0
  0
LINE
  5
EB
330
AD
100
AcDbEntity
  8
0
100
AcDbLine
 10
-23.590162685935994
 20
-44.21679643628564
 30
0.0
 11
-23.080820727636038
 21
-46.30392482236338
 31
0.0
  0
LINE
  5
EC
330
AD
100
AcDbEntity
  8
0
100
AcDbLine
 10
-5.841021876925723
 20
-45.82597578259091
 30
0.0
 11
-5.279364329070475
 21
-46.057659521081334
 31
0.0
  0
LINE
  5
ED
330
AD
100
AcDbEntity
  8
0
100
AcDbLine
 10
-0.5815437167947124
 20
-48.577724648673
 30
0.0
 11
-0.0688714586355843
 21
-48.06505239051419
 31
0.0
  0
LINE
  5
EE
330
AD
100
AcDbEntity
  8
0
100
AcDbLine
 10
-4.769458262211188
 20
-46.56756558794057
 30
0.0
 11
-3.6575772657474914
 21
-47.02621649898181
 31
0.0
  0
LINE
  5
EF
330
AD
100
AcDbEntity
  8
0
100
AcDbLine
 10
-18.174600083880463
 20
-54.83631362900504
 30
0.0
 11
-16.179781075985673
 21
-56.13279334566589
 31
0.0
  0
ARC
  5
F0
330
AD
100
AcDbEntity
  8
0
100
AcDbCircle
 10
-22.63426863624943
 20
-13.710086537589405
 30
0.0
 40
15.043436655865676
100
AcDbArc
 50
116.09423722088691
 51
309.7008065054082
  0
LINE
  5
F1
330
AD
100
AcDbEntity
  8
0
100
AcDbLine
 10
-6.311139285929599
 20
-45.63205235137695
 30
0.0
 11
-5.841021876925723
 21
-45.82597578259091
 31
0.0
  0
LINE
  5
F2
330
AD
100
AcDbEntity
  8
0
100
AcDbLine
 10
-11.280683822242281
 20
-58.365519640711405
 30
0.0
 11
-7.5313235141289425
 21
-58.83809903619741
 31
0.0
  0
LINE
  5
F3
330
AD
100
AcDbEntity
  8
0
100
AcDbLine
 10
-1.4989572313945843
 20
-47.91664726315243
 30
0.0
 11
-1.0942159749534852
 21
-48.32138851959361
 31
0.0
  0
LINE
  5
F4
330
AD
100
AcDbEntity
  8
0
100
AcDbLine
 10
-3.6575772657474914
 20
-47.02621649898181
 30
0.0
 11
-1.4989572313945843
 21
-47.91664726315243
 31
0.0
  0
LINE
  5
F5
330
AD
100
AcDbEntity
  8
0
100
AcDbLine
 10
-23.080820727636038
 20
-46.30392482236338
 30
0.0
 11
-22.471289736698523
 21
-47.57341528399841
 31
0.0
  0
LINE
  5
F6
330
AD
100
AcDbEntity
  8
0
100
AcDbLine
 10
-6.922332440603753
 20
-45.60593354786401
 30
0.0
 11
-6.311139285929599
 21
-45.63205235137695
 31
0.0
  0
LINE
  5
F7
330
AD
100
AcDbEntity
  8
0
100
AcDbLine
 10
-16.179781075985673
 20
-56.13279334566589
 30
0.0
 11
-14.026661725696243
 21
-57.53215617214408
 31
0.0
  0
LINE
  5
F8
330
AD
100
AcDbEntity
  8
0
100
AcDbLine
 10
1.0940101490761123
 20
-36.13058105090839
 30
0.0
 11
1.51286427648607
 21
-36.77282404627055
 31
0.0
  0
LINE
  5
F9
330
AD
100
AcDbEntity
  8
0
100
AcDbLine
 10
-0.8569069530509665
 20
-34.03322671916201
 30
0.0
 11
-0.582337147514167
 21
-34.45423375431806
 31
0.0
  0
LINE
  5
FA
330
AD
100
AcDbEntity
  8
0
100
AcDbLine
 10
-17.214323485180998
 20
-33.83124902221508
 30
0.0
 11
-18.834952651676602
 21
-36.21255149173985
 31
0.0
  0
LINE
  5
FB
330
AD
100
AcDbEntity
  8
0
100
AcDbLine
 10
-5.272234841985863
 20
-36.646559574431286
 30
0.0
 11
-4.472071203511305
 21
-37.51649322704865
 31
0.0
  0
LINE
  5
FC
330
AD
100
AcDbEntity
  8
0
100
AcDbLine
 10
22.062712617103557
 20
-33.79830183376011
 30
0.0
 11
22.2993044537084
 21
-33.50939582395685
 31
0.0
  0
LINE
  5
FD
330
AD
100
AcDbEntity
  8
0
100
AcDbLine
 10
20.92408310609578
 20
-33.94901576294784
 30
0.0
 11
20.68736467740841
 21
-34.715532579649995
 31
0.0
  0
LINE
  5
FE
330
AD
100
AcDbEntity
  8
0
100
AcDbLine
 10
19.731112622945517
 20
-31.58889783440626
 30
0.0
 11
19.572070697105488
 21
-30.9426917186174
 31
0.0
  0
LINE
  5
FF
330
AD
100
AcDbEntity
  8
0
100
AcDbLine
 10
21.456079648835882
 20
-33.02036332130771
 30
0.0
 11
20.92408310609578
 21
-33.94901576294784
 31
0.0
  0
LINE
  5
100
330
AD
100
AcDbEntity
  8
0
100
AcDbLine
 10
22.541517564822016
 20
-33.21362558751057
 30
0.0
 11
22.572910448239583
 21
-32.882235031834625
 31
0.0
  0
ARC
  5
101
330
AD
100
AcDbEntity
  8
0
100
AcDbCircle
 10
16.746385541889524
 20
-29.510010890275545
 30
0.0
 40
0.4224000000000957
100
AcDbArc
 50
62.33676167219321
 51
133.35491429363714
  0
LINE
  5
102
330
AD
100
AcDbEntity
  8
0
100
AcDbLine
 10
22.541517564822016
 20
-32.596339027591036
 30
0.0
 11
22.18100853540612
 21
-32.517432884695246
 31
0.0
  0
LINE
  5
103
330
AD
100
AcDbEntity
  8
0
100
AcDbLine
 10
18.213093482318214
 20
-29.801934338466566
 30
0.0
 11
16.94249482487976
 21
-29.13589471964784
 31
0.0
  0
LINE
  5
104
330
AD
100
AcDbEntity
  8
0
100
AcDbLine
 10
0.49815510924453577
 20
-42.36846785413625
 30
0.0
 11
-1.4073067058318145
 21
-43.00362179249501
 31
0.0
  0
LINE
  5
105
330
AD
100
AcDbEntity
  8
0
100
AcDbLine
 10
-6.09492654953101
 20
-37.904476638822
 30
0.0
 11
-10.378597164680627
 21
-37.904476638822
 31
0.0
  0
LINE
  5
106
330
AD
100
AcDbEntity
  8
0
100
AcDbLine
 10
-8.421158274314706
 20
-33.87278664809302
 30
0.0
 11
-6.946821309575597
 21
-33.87278664809302
 31
0.0
  0
LINE
  5
107
330
AD
100
AcDbEntity
  8
0
100
AcDbLine
 10
-10.378597164680627
 20
-37.904476638822
 30
0.0
 11
-8.421158274314706
 21
-33.87278664809302
 31
0.0
  0
LINE
  5
108
330
AD
100
AcDbEntity
  8
0
100
AcDbLine
 10
19.413028771265104
 20
-32.61888363984701
 30
0.0
 11
19.731112622945517
 21
-31.58889783440626
 31
0.0
  0
LINE
  5
109
330
AD
100
AcDbEntity
  8
0
100
AcDbLine
 10
11.275703421757939
 20
-28.295809017362817
 30
0.0
 11
11.665000068365643
 21
-26.740071963679583
 31
0.0
  0
LINE
  5
10A
330
AD
100
AcDbEntity
  8
0
100
AcDbLine
 10
19.413028771265104
 20
-33.83629270166817
 30
0.0
 11
19.413028771265104
 21
-32.61888363984701
 31
0.0
  0
LINE
  5
10B
330
AD
100
AcDbEntity
  8
0
100
AcDbLine
 10
11.275703421757939
 20
-28.295809017362817
 30
0.0
 11
11.05704026194303
 21
-28.127906948219255
 31
0.0
  0
LINE
  5
10C
330
AD
100
AcDbEntity
  8
0
100
AcDbLine
 10
22.2993044537084
 20
-33.50939582395685
 30
0.0
 11
22.541517564822016
 21
-33.21362558751057
 31
0.0
  0
LINE
  5
10D
330
AD
100
AcDbEntity
  8
0
100
AcDbLine
 10
19.572070697105488
 20
-30.9426917186174
 30
0.0
 11
19.068661517431238
 21
-30.409511638764265
 31
0.0
  0
LINE
  5
10E
330
AD
100
AcDbEntity
  8
0
100
AcDbLine
 10
3.785129285889326
 20
-23.7528885743639
 30
0.0
 11
10.577092709978828
 21
-31.250883001758073
 31
0.0
  0
LINE
  5
10F
330
AD
100
AcDbEntity
  8
0
100
AcDbLine
 10
21.848412208589494
 20
-34.546447987730375
 30
0.0
 11
22.062712617103557
 21
-33.79830183376011
 31
0.0
  0
LINE
  5
110
330
AD
100
AcDbEntity
  8
0
100
AcDbLine
 10
19.068661517431238
 20
-30.409511638764265
 30
0.0
 11
18.213093482318214
 21
-29.801934338466566
 31
0.0
  0
LINE
  5
111
330
AD
100
AcDbEntity
  8
0
100
AcDbLine
 10
21.803322984077695
 20
-32.596339027591036
 30
0.0
 11
21.456079648835882
 21
-33.02036332130771
 31
0.0
  0
LINE
  5
112
330
AD
100
AcDbEntity
  8
0
100
AcDbLine
 10
-0.6748049783110588
 20
-3.293271494587181
 30
0.0
 11
0.5770449044614878
 21
-3.413449083333356
 31
0.0
  0
LINE
  5
113
330
AD
100
AcDbEntity
  8
0
100
AcDbLine
 10
-24.934803352873658
 20
-12.440945455315763
 30
0.0
 11
-24.35366513957753
 21
-12.440945455315763
 31
0.0
  0
LINE
  5
114
330
AD
100
AcDbEntity
  8
0
100
AcDbLine
 10
-8.507949567366495
 20
-5.930899326955995
 30
0.0
 11
-6.189680239047064
 21
-5.254798444132668
 31
0.0
  0
LINE
  5
115
330
AD
100
AcDbEntity
  8
0
100
AcDbLine
 10
-22.190395100923084
 20
-8.455356151223029
 30
0.0
 11
-21.877387487084548
 21
-8.225575995399398
 31
0.0
  0
LINE
  5
116
330
AD
100
AcDbEntity
  8
0
100
AcDbLine
 10
-4.130352693847499
 20
-3.1387921591569654
 30
0.0
 11
-2.52754280481426
 21
-2.642309555545502
 31
0.0
  0
LINE
  5
117
330
AD
100
AcDbEntity
  8
0
100
AcDbLine
 10
-23.84856614306841
 20
-10.830601435490927
 30
0.0
 11
-23.65417100873387
 21
-10.800007963535808
 31
0.0
  0
LINE
  5
118
330
AD
100
AcDbEntity
  8
0
100
AcDbLine
 10
-1.0253229454872326
 20
-7.108909937278135
 30
0.0
 11
-1.5074383786611634
 21
-7.5444210068898485
 31
0.0
  0
LINE
  5
119
330
AD
100
AcDbEntity
  8
0
100
AcDbLine
 10
-1.0763737352139202
 20
-3.0597186395209395
 30
0.0
 11
-0.6748049783110588
 21
-3.293271494587181
 31
0.0
  0
LINE
  5
11A
330
AD
100
AcDbEntity
  8
0
100
AcDbLine
 10
-24.35366513957753
 20
-12.440945455315763
 30
0.0
 11
-23.96033378789504
 21
-12.391336095644107
 31
0.0
  0
LINE
  5
11B
330
AD
100
AcDbEntity
  8
0
100
AcDbLine
 10
-21.876120982288754
 20
-10.34679059923905
 30
0.0
 11
-22.15793639229709
 21
-10.05542212448438
 31
0.0
  0
LINE
  5
11C
330
AD
100
AcDbEntity
  8
0
100
AcDbLine
 10
-22.546825736334526
 20
-9.043195305767139
 30
0.0
 11
-22.472644741147363
 21
-8.809977494068933
 31
0.0
  0
LINE
  5
11D
330
AD
100
AcDbEntity
  8
0
100
AcDbLine
 10
-23.442322064742385
 20
-10.830601435490927
 30
0.0
 11
-23.18727911868457
 21
-10.867432627898935
 31
0.0
  0
LINE
  5
11E
330
AD
100
AcDbEntity
  8
0
100
AcDbLine
 10
-4.845939419007905
 20
-4.562463864554026
 30
0.0
 11
-4.420044030481094
 21
-4.171604750633172
 31
0.0
  0
LINE
  5
11F
330
AD
100
AcDbEntity
  8
0
100
AcDbLine
 10
2.0592351656645036
 20
-3.9242038355045903
 30
0.0
 11
2.2094571515971495
 21
-4.5050621811111355
 31
0.0
  0
LINE
  5
120
330
AD
100
AcDbEntity
  8
0
100
AcDbLine
 10
-6.189680239047064
 20
-5.254798444132668
 30
0.0
 11
-4.845939419007905
 21
-4.562463864554026
 31
0.0
  0
LINE
  5
121
330
AD
100
AcDbEntity
  8
0
100
AcDbLine
 10
-25.215336386240566
 20
-12.549624711651667
 30
0.0
 11
-24.934803352873658
 21
-12.440945455315763
 31
0.0
  0
LINE
  5
122
330
AD
100
AcDbEntity
  8
0
100
AcDbLine
 10
-2.1870396367005185
 20
-13.177878168959726
 30
0.0
 11
-2.1061760554434983
 21
-13.816928167669719
 31
0.0
  0
LINE
  5
123
330
AD
100
AcDbEntity
  8
0
100
AcDbLine
 10
-0.3663760033489183
 20
-6.513661024172826
 30
0.0
 11
-1.0253229454872326
 21
-7.108909937278135
 31
0.0
  0
LINE
  5
124
330
AD
100
AcDbEntity
  8
0
100
AcDbLine
 10
-1.762509071825633
 20
-12.031358644768023
 30
0.0
 11
-2.1870396367005185
 21
-13.177878168959726
 31
0.0
  0
LINE
  5
125
330
AD
100
AcDbEntity
  8
0
100
AcDbLine
 10
-23.65417100873387
 20
-11.597586340897927
 30
0.0
 11
-23.958852536847886
 21
-11.436281071050288
 31
0.0
  0
LINE
  5
126
330
AD
100
AcDbEntity
  8
0
100
AcDbLine
 10
0.5770449044614878
 20
-3.413449083333356
 30
0.0
 11
1.428150402160142
 21
-3.4951552111124116
 31
0.0
  0
LINE
  5
127
330
AD
100
AcDbEntity
  8
0
100
AcDbLine
 10
-8.968568769909098
 20
-5.930899326955995
 30
0.0
 11
-8.507949567366495
 21
-5.930899326955995
 31
0.0
  0
LINE
  5
128
330
AD
100
AcDbEntity
  8
0
100
AcDbLine
 10
-4.32557946418747
 20
-3.5544362508485836
 30
0.0
 11
-4.130352693847499
 21
-3.1387921591569654
 31
0.0
  0
LINE
  5
129
330
AD
100
AcDbEntity
  8
0
100
AcDbLine
 10
1.743692783912394
 20
-5.135994522028501
 30
0.0
 11
0.7773408857051578
 21
-5.76692686294583
 31
0.0
  0
LINE
  5
12A
330
AD
100
AcDbEntity
  8
0
100
AcDbLine
 10
-23.18727911868457
 20
-10.867432627898935
 30
0.0
 11
-22.92695810435461
 21
-10.867432627898935
 31
0.0
  0
LINE
  5
12B
330
AD
100
AcDbEntity
  8
0
100
AcDbLine
 10
-1.6562552864047575
 20
-10.924548379969025
 30
0.0
 11
-1.762509071825633
 21
-12.031358644768023
 31
0.0
  0
LINE
  5
12C
330
AD
100
AcDbEntity
  8
0
100
AcDbLine
 10
-23.548246536738233
 20
-12.012178846725291
 30
0.0
 11
-23.548246536738233
 21
-11.781849676821231
 31
0.0
  0
LINE
  5
12D
330
AD
100
AcDbEntity
  8
0
100
AcDbLine
 10
-24.23546526528355
 20
-11.011612257578761
 30
0.0
 11
-23.99752230512135
 21
-10.867432627898935
 31
0.0
  0
LINE
  5
12E
330
AD
100
AcDbEntity
  8
0
100
AcDbLine
 10
-1.5074383786611634
 20
-7.5444210068898485
 30
0.0
 11
-2.0969064451405472
 21
-8.260611829428953
 31
0.0
  0
ARC
  5
12F
330
AD
100
AcDbEntity
  8
0
100
AcDbCircle
 10
11.187267944904065
 20
-53.30043065492524
 30
0.0
 40
0.08762961158438416
100
AcDbArc
 50
229.6501848499556
 51
288.19026418865246
  0
LINE
  5
130
330
AD
100
AcDbEntity
  8
0
100
AcDbLine
 10
-23.712196281625282
 20
-12.23775158703447
 30
0.0
 11
-23.548246536738233
 21
-12.012178846725291
 31
0.0
  0
LINE
  5
131
330
AD
100
AcDbEntity
  8
0
100
AcDbLine
 10
-23.96033378789504
 20
-12.391336095644107
 30
0.0
 11
-23.712196281625282
 21
-12.23775158703447
 31
0.0
  0
LINE
  5
132
330
AD
100
AcDbEntity
  8
0
100
AcDbLine
 10
-24.437785714546294
 20
-11.227933690347015
 30
0.0
 11
-24.432313472088225
 21
-11.190040351934552
 31
0.0
  0
LINE
  5
133
330
AD
100
AcDbEntity
  8
0
100
AcDbLine
 10
1.428150402160142
 20
-3.4951552111124116
 30
0.0
 11
2.0592351656645036
 21
-3.9242038355045903
 31
0.0
  0
LINE
  5
134
330
AD
100
AcDbEntity
  8
0
100
AcDbLine
 10
2.2094571515971495
 20
-4.5050621811111355
 30
0.0
 11
1.743692783912394
 21
-5.135994522028501
 31
0.0
  0
LINE
  5
135
330
AD
100
AcDbEntity
  8
0
100
AcDbLine
 10
-22.15793639229709
 20
-10.05542212448438
 30
0.0
 11
-22.389598212389146
 21
-9.783557823586287
 31
0.0
  0
LINE
  5
136
330
AD
100
AcDbEntity
  8
0
100
AcDbLine
 10
-2.0969064451405472
 20
-8.260611829428953
 30
0.0
 11
-2.45199943377564
 21
-8.581379257001235
 31
0.0
  0
LINE
  5
137
330
AD
100
AcDbEntity
  8
0
100
AcDbLine
 10
-22.566727954555716
 20
-9.278041480774265
 30
0.0
 11
-22.546825736334526
 21
-9.043195305767139
 31
0.0
  0
LINE
  5
138
330
AD
100
AcDbEntity
  8
0
100
AcDbLine
 10
-22.389598212389146
 20
-9.783557823586287
 30
0.0
 11
-22.509735238741087
 21
-9.54871164857909
 31
0.0
  0
LINE
  5
139
330
AD
100
AcDbEntity
  8
0
100
AcDbLine
 10
8.92860291395948
 20
-35.09477418419513
 30
0.0
 11
9.545608023385626
 21
-34.477769074768815
 31
0.0
  0
LINE
  5
13A
330
AD
100
AcDbEntity
  8
0
100
AcDbLine
 10
10.577092709978828
 20
-31.250883001758073
 30
0.0
 11
10.44243838115868
 21
-31.528227297094396
 31
0.0
  0
LINE
  5
13B
330
AD
100
AcDbEntity
  8
0
100
AcDbLine
 10
14.021234618844574
 20
-41.01128310361712
 30
0.0
 11
14.613951296556706
 21
-40.30331596079445
 31
0.0
  0
LINE
  5
13C
330
AD
100
AcDbEntity
  8
0
100
AcDbLine
 10
10.621771598456249
 20
-40.55869130505571
 30
0.0
 11
11.773903594825939
 21
-40.55869130505571
 31
0.0
  0
LINE
  5
13D
330
AD
100
AcDbEntity
  8
0
100
AcDbLine
 10
-1.4073067058318145
 20
-43.00362179249501
 30
0.0
 11
-4.335033191572819
 21
-44.402712325503984
 31
0.0
  0
LINE
  5
13E
330
AD
100
AcDbEntity
  8
0
100
AcDbLine
 10
11.773903594825939
 20
-40.55869130505571
 30
0.0
 11
14.021234618844574
 21
-41.01128310361712
 31
0.0
  0
LINE
  5
13F
330
AD
100
AcDbEntity
  8
0
100
AcDbLine
 10
-1.0942159749534852
 20
-48.32138851959361
 30
0.0
 11
-0.5815437167947124
 21
-48.577724648673
 31
0.0
  0
LINE
  5
140
330
AD
100
AcDbEntity
  8
0
100
AcDbLine
 10
-22.471289736698523
 20
-47.57341528399841
 30
0.0
 11
-23.080820727636038
 21
-48.71380502072125
 31
0.0
  0
LINE
  5
141
330
AD
100
AcDbEntity
  8
0
100
AcDbLine
 10
-23.590162685935994
 20
-42.64607094985588
 30
0.0
 11
-23.590162685935994
 21
-44.21679643628564
 31
0.0
  0
LINE
  5
142
330
AD
100
AcDbEntity
  8
0
100
AcDbLine
 10
-21.623528309776248
 20
-53.78961518851246
 30
0.0
 11
-21.13088570922379
 21
-53.93912489354105
 31
0.0
  0
LINE
  5
143
330
AD
100
AcDbEntity
  8
0
100
AcDbLine
 10
-4.335033191572819
 20
-44.402712325503984
 30
0.0
 11
-7.210941509424629
 21
-45.36134843145475
 31
0.0
  0
LINE
  5
144
330
AD
100
AcDbEntity
  8
0
100
AcDbLine
 10
-20.022898835647496
 20
-54.27538243695726
 30
0.0
 11
-19.058530694602
 21
-54.56805383026555
 31
0.0
  0
LINE
  5
145
330
AD
100
AcDbEntity
  8
0
100
AcDbLine
 10
1.9413840319124631
 20
-44.85587867287106
 30
0.0
 11
2.966687964673085
 21
-43.36760083848485
 31
0.0
  0
LINE
  5
146
330
AD
100
AcDbEntity
  8
0
100
AcDbLine
 10
20.333613338336463
 20
-35.33304043613063
 30
0.0
 11
19.993739312391412
 21
-35.926324073686715
 31
0.0
  0
LINE
  5
147
330
AD
100
AcDbEntity
  8
0
100
AcDbLine
 10
18.740063742381423
 20
-41.48046519296977
 30
0.0
 11
19.864295281292925
 21
-41.69593008870241
 31
0.0
  0
LINE
  5
148
330
AD
100
AcDbEntity
  8
0
100
AcDbLine
 10
21.72454343326436
 20
-37.99246849822291
 30
0.0
 11
21.471522600598547
 21
-37.40242494782282
 31
0.0
  0
LINE
  5
149
330
AD
100
AcDbEntity
  8
0
100
AcDbLine
 10
-24.198614307960398
 20
-14.522754513747337
 30
0.0
 11
-24.40565919774862
 21
-13.803501169739171
 31
0.0
  0
LINE
  5
14A
330
AD
100
AcDbEntity
  8
0
100
AcDbLine
 10
11.05704026194303
 20
-28.127906948219255
 30
0.0
 11
-2.1061760554434983
 21
-13.816928167669719
 31
0.0
  0
ARC
  5
14B
330
AD
100
AcDbEntity
  8
0
100
AcDbCircle
 10
20.40490873684746
 20
-42.266200431003085
 30
0.0
 40
0.7316824789720053
100
AcDbArc
 50
67.91624564283579
 51
112.08375435715182
  0
LINE
  5
14C
330
AD
100
AcDbEntity
  8
0
100
AcDbLine
 10
20.9391128475999
 20
-41.1232123741734
 30
0.0
 11
20.809553028064585
 21
-40.522022714014824
 31
0.0
  0
LINE
  5
14D
330
AD
100
AcDbEntity
  8
0
100
AcDbLine
 10
21.471522600598547
 20
-37.40242494782282
 30
0.0
 11
21.72454343326436
 21
-36.51910156012575
 31
0.0
  0
LINE
  5
14E
330
AD
100
AcDbEntity
  8
0
100
AcDbLine
 10
-11.92551745798859
 20
-26.30484785107814
 30
0.0
 11
-13.02484251313274
 21
-25.284364744173246
 31
0.0
  0
LINE
  5
14F
330
AD
100
AcDbEntity
  8
0
100
AcDbLine
 10
-22.628203240842026
 20
-15.798390857113262
 30
0.0
 11
-23.138771155483795
 21
-15.613233991673944
 31
0.0
  0
LINE
  5
150
330
AD
100
AcDbEntity
  8
0
100
AcDbLine
 10
20.809553028064585
 20
-40.522022714014824
 30
0.0
 11
20.70728138994049
 21
-40.047456976055955
 31
0.0
  0
LINE
  5
151
330
AD
100
AcDbEntity
  8
0
100
AcDbLine
 10
20.679993208529268
 20
-41.58819764083614
 30
0.0
 11
20.9391128475999
 21
-41.1232123741734
 31
0.0
  0
ARC
  5
152
330
AD
100
AcDbEntity
  8
0
100
AcDbCircle
 10
22.634268636249786
 20
-13.710086537589156
 30
0.0
 40
10.74539862516251
210
0.0
220
0.0
230
-1.0
100
AcDbArc
 50
193.96015159983756
 51
234.7888854815221
  0
LINE
  5
153
330
AD
100
AcDbEntity
  8
0
100
AcDbLine
 10
-16.40064998927606
 20
-13.033970291732079
 30
0.0
 11
-19.813397001936508
 21
-13.932773299500386
 31
0.0
  0
LINE
  5
154
330
AD
100
AcDbEntity
  8
0
100
AcDbLine
 10
15.735864955688399
 20
-39.848124580065
 30
0.0
 11
16.751325640615278
 21
-39.848124580065
 31
0.0
  0
LINE
  5
155
330
AD
100
AcDbEntity
  8
0
100
AcDbLine
 10
19.864295281292925
 20
-41.69593008870241
 30
0.0
 11
20.129824265165794
 21
-41.58819764083607
 31
0.0
  0
LINE
  5
156
330
AD
100
AcDbEntity
  8
0
100
AcDbLine
 10
-18.618550196180408
 20
-23.676911359152403
 30
0.0
 11
-22.628203240842026
 21
-15.798390857113262
 31
0.0
  0
LINE
  5
157
330
AD
100
AcDbEntity
  8
0
100
AcDbLine
 10
17.800080118490413
 20
-39.848124580065
 30
0.0
 11
18.366074598613906
 21
-40.55869130505571
 31
0.0
  0
LINE
  5
158
330
AD
100
AcDbEntity
  8
0
100
AcDbLine
 10
20.68736467740841
 20
-34.715532579649995
 30
0.0
 11
20.333613338336463
 21
-35.33304043613063
 31
0.0
  0
LINE
  5
159
330
AD
100
AcDbEntity
  8
0
100
AcDbLine
 10
21.72454343326436
 20
-35.854035498575264
 30
0.0
 11
21.848412208589494
 21
-34.546447987730375
 31
0.0
  0
LINE
  5
15A
330
AD
100
AcDbEntity
  8
0
100
AcDbLine
 10
2.966687964673085
 20
-43.36760083848485
 30
0.0
 11
4.401679692055183
 21
-40.82876932080842
 31
0.0
  0
LINE
  5
15B
330
AD
100
AcDbEntity
  8
0
100
AcDbLine
 10
19.413028771265104
 20
-35.247064317798646
 30
0.0
 11
19.413028771265104
 21
-33.83629270166817
 31
0.0
  0
LINE
  5
15C
330
AD
100
AcDbEntity
  8
0
100
AcDbLine
 10
10.44243838115868
 20
-31.528227297094396
 30
0.0
 11
-2.8721798093801
 21
-31.528227297094396
 31
0.0
  0
LINE
  5
15D
330
AD
100
AcDbEntity
  8
0
100
AcDbLine
 10
16.751325640615278
 20
-39.848124580065
 30
0.0
 11
17.800080118490413
 21
-39.848124580065
 31
0.0
  0
LINE
  5
15E
330
AD
100
AcDbEntity
  8
0
100
AcDbLine
 10
-20.588339508465836
 20
-14.361054998517758
 30
0.0
 11
-11.891177730010796
 21
-13.932773299500386
 31
0.0
  0
LINE
  5
15F
330
AD
100
AcDbEntity
  8
0
100
AcDbLine
 10
-19.857921618221894
 20
-16.302381829970457
 30
0.0
 11
-16.438570441099003
 21
-22.489432497753302
 31
0.0
  0
LINE
  5
160
330
AD
100
AcDbEntity
  8
0
100
AcDbLine
 10
19.993739312391412
 20
-35.926324073686715
 30
0.0
 11
19.731112622945517
 21
-35.84521877253432
 31
0.0
  0
LINE
  5
161
330
AD
100
AcDbEntity
  8
0
100
AcDbLine
 10
19.616495595250854
 20
-35.62968225490861
 30
0.0
 11
19.413028771265104
 21
-35.247064317798646
 31
0.0
  0
LINE
  5
162
330
AD
100
AcDbEntity
  8
0
100
AcDbLine
 10
21.971408281703617
 20
-38.568156318499504
 30
0.0
 11
21.72454343326436
 21
-37.99246849822291
 31
0.0
  0
LINE
  5
163
330
AD
100
AcDbEntity
  8
0
100
AcDbLine
 10
21.971408281703617
 20
-39.36699526112146
 30
0.0
 11
22.15401695250364
 21
-38.99399899444509
 31
0.0
  0
ARC
  5
164
330
AD
100
AcDbEntity
  8
0
100
AcDbCircle
 10
-12.212891800951837
 20
-26.61442457340454
 30
0.0
 40
0.4224000000000542
100
AcDbArc
 50
-16.83228694930255
 51
47.130018052426706
  0
LINE
  5
165
330
AD
100
AcDbEntity
  8
0
100
AcDbLine
 10
-12.206248846723966
 20
-16.302381829970457
 30
0.0
 11
-19.857921618221894
 21
-16.302381829970457
 31
0.0
  0
LINE
  5
166
330
AD
100
AcDbEntity
  8
0
100
AcDbLine
 10
2.2322123642813096
 20
-25.040992534181928
 30
0.0
 11
3.7384463984189864
 21
-24.845291648957954
 31
0.0
  0
LINE
  5
167
330
AD
100
AcDbEntity
  8
0
100
AcDbLine
 10
-23.6302214091819
 20
-15.256040371522793
 30
0.0
 11
-24.198614307960398
 21
-14.522754513747337
 31
0.0
  0
LINE
  5
168
330
AD
100
AcDbEntity
  8
0
100
AcDbLine
 10
8.32784266103225
 20
-50.67480694111743
 30
0.0
 11
8.32784266103225
 21
-49.87279516468729
 31
0.0
  0
LINE
  5
169
330
AD
100
AcDbEntity
  8
0
100
AcDbLine
 10
-24.40565919774862
 20
-13.310298272215654
 30
0.0
 11
-24.439630069009084
 21
-13.040957792934474
 31
0.0
  0
LINE
  5
16A
330
AD
100
AcDbEntity
  8
0
100
AcDbLine
 10
16.86264840135337
 20
-12.657512258780507
 30
0.0
 11
16.729661488112484
 21
-13.502977052674257
 31
0.0
  0
LINE
  5
16B
330
AD
100
AcDbEntity
  8
0
100
AcDbLine
 10
-24.817867005076337
 20
-12.873255589597225
 30
0.0
 11
-25.07506986955697
 21
-12.80592860147134
 31
0.0
  0
LINE
  5
16C
330
AD
100
AcDbEntity
  8
0
100
AcDbLine
 10
-12.138988845905274
 20
-27.8288522920538
 30
0.0
 11
-11.808588907093025
 21
-26.736739454009623
 31
0.0
  0
ARC
  5
16D
330
AD
100
AcDbEntity
  8
0
100
AcDbCircle
 10
10.593127619347129
 20
-52.79567427215096
 30
0.0
 40
0.08762961158450383
100
AcDbArc
 50
212.60807469020622
 51
229.65018484994354
  0
LINE
  5
16E
330
AD
100
AcDbEntity
  8
0
100
AcDbLine
 10
-19.813397001936508
 20
-13.932773299500386
 30
0.0
 11
-20.588339508465836
 21
-14.361054998517758
 31
0.0
  0
LINE
  5
16F
330
AD
100
AcDbEntity
  8
0
100
AcDbLine
 10
-24.439630069009084
 20
-13.040957792934474
 30
0.0
 11
-24.57933799715967
 21
-12.935694395308296
 31
0.0
  0
LINE
  5
170
330
AD
100
AcDbEntity
  8
0
100
AcDbLine
 10
8.514548750661888
 20
-43.45111984493749
 30
0.0
 11
9.863943470632535
 21
-41.46387490217866
 31
0.0
  0
LINE
  5
171
330
AD
100
AcDbEntity
  8
0
100
AcDbLine
 10
9.545608023385626
 20
-34.477769074768815
 30
0.0
 11
1.8507399392637325
 21
-34.14893563478356
 31
0.0
  0
ARC
  5
172
330
AD
100
AcDbEntity
  8
0
100
AcDbCircle
 10
18.127934393967777
 20
-13.279805743971579
 30
0.0
 40
11.005691469057183
100
AcDbArc
 50
-109.00647911650697
 51
239.0313370988655
  0
LINE
  5
173
330
AD
100
AcDbEntity
  8
0
100
AcDbLine
 10
-24.40565919774862
 20
-13.803501169739171
 30
0.0
 11
-24.40565919774862
 21
-13.310298272215654
 31
0.0
  0
LINE
  5
174
330
AD
100
AcDbEntity
  8
0
100
AcDbLine
 10
14.987980731398025
 20
-22.037907897132673
 30
0.0
 11
15.556156907162517
 21
-20.503481601676942
 31
0.0
  0
ARC
  5
175
330
AD
100
AcDbEntity
  8
0
100
AcDbCircle
 10
22.63426863624943
 20
-13.710086537589405
 30
0.0
 40
10.745398625162057
210
0.0
220
-0.0
230
-1.0
100
AcDbArc
 50
-111.944924545928
 51
143.64246465381467
  0
LINE
  5
176
330
AD
100
AcDbEntity
  8
0
100
AcDbLine
 10
18.520743360625858
 20
-14.596400225871292
 30
0.0
 11
18.96597698259555
 21
-14.186875023742601
 31
0.0
  0
LINE
  5
177
330
AD
100
AcDbEntity
  8
0
100
AcDbLine
 10
2.1277775559142498
 20
-58.60180933845448
 30
0.0
 11
5.069767908784115
 21
-58.83809903619741
 31
0.0
  0
LINE
  5
178
330
AD
100
AcDbEntity
  8
0
100
AcDbLine
 10
14.613951296556706
 20
-40.30331596079445
 30
0.0
 11
15.735864955688399
 21
-39.848124580065
 31
0.0
  0
LINE
  5
179
330
AD
100
AcDbEntity
  8
0
100
AcDbLine
 10
15.157753408790668
 20
-16.534514062794997
 30
0.0
 11
13.340273313526936
 21
-20.03965424651819
 31
0.0
  0
LINE
  5
17A
330
AD
100
AcDbEntity
  8
0
100
AcDbLine
 10
-23.138771155483795
 20
-15.613233991673944
 30
0.0
 11
-23.6302214091819
 21
-15.256040371522793
 31
0.0
  0
LINE
  5
17B
330
AD
100
AcDbEntity
  8
0
100
AcDbLine
 10
19.29766750937688
 20
-13.717466650338451
 30
0.0
 11
19.383825632701743
 21
-13.081494015403653
 31
0.0
  0
LINE
  5
17C
330
AD
100
AcDbEntity
  8
0
100
AcDbLine
 10
13.906153092537963
 20
-56.2944489700432
 30
0.0
 11
13.906153092537963
 21
-54.49020178903516
 31
0.0
  0
LINE
  5
17D
330
AD
100
AcDbEntity
  8
0
100
AcDbLine
 10
10.222972948837068
 20
-51.103373259867666
 30
0.0
 11
9.941686793604205
 21
-50.96095713081998
 31
0.0
  0
LINE
  5
17E
330
AD
100
AcDbEntity
  8
0
100
AcDbLine
 10
16.327572016053225
 20
-14.278435320217419
 30
0.0
 11
15.157753408790668
 21
-16.534514062794997
 31
0.0
  0
LINE
  5
17F
330
AD
100
AcDbEntity
  8
0
100
AcDbLine
 10
19.29766750937688
 20
-12.514484996988461
 30
0.0
 11
18.634286455814504
 21
-11.793260643300968
 31
0.0
  0
ARC
  5
180
330
AD
100
AcDbEntity
  8
0
100
AcDbCircle
 10
10.358649274958935
 20
-52.42914451925267
 30
0.0
 40
0.08762961158446103
100
AcDbArc
 50
180.0
 51
212.60807469009745
  0
LINE
  5
181
330
AD
100
AcDbEntity
  8
0
100
AcDbLine
 10
16.4602474448359
 20
-18.06187923668505
 30
0.0
 11
18.016829636222482
 21
-15.059899296154121
 31
0.0
  0
LINE
  5
182
330
AD
100
AcDbEntity
  8
0
100
AcDbLine
 10
3.761481784191716
 20
-24.306252022102782
 30
0.0
 11
3.785129285889326
 21
-23.7528885743639
 31
0.0
  0
ARC
  5
183
330
AD
100
AcDbEntity
  8
0
100
AcDbCircle
 10
4.15884098987398
 20
-60.293989598256566
 30
0.0
 40
0.21120000000064712
100
AcDbArc
 50
22.619864948076607
 51
49.650184849869
  0
LINE
  5
184
330
AD
100
AcDbEntity
  8
0
100
AcDbLine
 10
15.503399860148335
 20
-29.870821927172727
 30
0.0
 11
14.654426437717234
 21
-29.72554614852831
 31
0.0
  0
LINE
  5
185
330
AD
100
AcDbEntity
  8
0
100
AcDbLine
 10
-24.57933799715967
 20
-12.935694395308296
 30
0.0
 11
-24.817867005076337
 21
-12.873255589597225
 31
0.0
  0
LINE
  5
186
330
AD
100
AcDbEntity
  8
0
100
AcDbLine
 10
6.69723089480911
 20
-62.86947468321046
 30
0.0
 11
5.5765368792265235
 21
-64.18862493071869
 31
0.0
  0
LINE
  5
187
330
AD
100
AcDbEntity
  8
0
100
AcDbLine
 10
12.820618786989613
 20
-59.85347623763061
 30
0.0
 11
13.452749397123398
 21
-59.10940583195248
 31
0.0
  0
LINE
  5
188
330
AD
100
AcDbEntity
  8
0
100
AcDbLine
 10
3.7384463984189864
 20
-24.845291648957954
 30
0.0
 11
3.761481784191716
 21
-24.306252022102782
 31
0.0
  0
LINE
  5
189
330
AD
100
AcDbEntity
  8
0
100
AcDbLine
 10
5.344131590120114
 20
-62.29154916007963
 30
0.0
 11
6.524155633800461
 21
-62.38632429227501
 31
0.0
  0
LINE
  5
18A
330
AD
100
AcDbEntity
  8
0
100
AcDbLine
 10
4.852697037328468
 20
-49.535681752298764
 30
0.0
 11
5.541819949773341
 21
-47.19024667753952
 31
0.0
  0
LINE
  5
18B
330
AD
100
AcDbEntity
  8
0
100
AcDbLine
 10
8.307241920635207
 20
-49.816349799476704
 30
0.0
 11
7.925369388924679
 21
-49.36287616807017
 31
0.0
  0
LINE
  5
18C
330
AD
100
AcDbEntity
  8
0
100
AcDbLine
 10
6.517331303648035
 20
-48.916699816946945
 30
0.0
 11
6.032794540257456
 21
-48.916699816946945
 31
0.0
  0
LINE
  5
18D
330
AD
100
AcDbEntity
  8
0
100
AcDbLine
 10
7.109944882400541
 20
-63.59722717916511
 30
0.0
 11
9.607531292514082
 21
-62.633969530715284
 31
0.0
  0
LINE
  5
18E
330
AD
100
AcDbEntity
  8
0
100
AcDbLine
 10
11.586406716956432
 20
-61.30624669506566
 30
0.0
 11
12.820618786989613
 21
-59.85347623763061
 31
0.0
  0
LINE
  5
18F
330
AD
100
AcDbEntity
  8
0
100
AcDbLine
 10
18.96597698259555
 20
-14.186875023742601
 30
0.0
 11
19.29766750937688
 21
-13.717466650338451
 31
0.0
  0
LINE
  5
190
330
AD
100
AcDbEntity
  8
0
100
AcDbLine
 10
6.717769368561264
 20
-62.613754724961346
 30
0.0
 11
6.69723089480911
 21
-62.86947468321046
 31
0.0
  0
LINE
  5
191
330
AD
100
AcDbEntity
  8
0
100
AcDbLine
 10
-25.07506986955697
 20
-12.80592860147134
 30
0.0
 11
-25.267894767811754
 21
-12.660644048147262
 31
0.0
  0
LINE
  5
192
330
AD
100
AcDbEntity
  8
0
100
AcDbLine
 10
16.729661488112484
 20
-13.502977052674257
 30
0.0
 11
16.327572016053225
 21
-14.278435320217419
 31
0.0
  0
ARC
  5
193
330
AD
100
AcDbEntity
  8
0
100
AcDbCircle
 10
10.183390051789658
 20
-51.18155345613118
 30
0.0
 40
0.0876296115848163
100
AcDbArc
 50
0.0
 51
63.14675258049956
  0
LINE
  5
194
330
AD
100
AcDbEntity
  8
0
100
AcDbLine
 10
15.556156907162517
 20
-20.503481601676942
 30
0.0
 11
16.4602474448359
 21
-18.06187923668505
 31
0.0
  0
ARC
  5
195
330
AD
100
AcDbEntity
  8
0
100
AcDbCircle
 10
5.361039939082772
 20
-62.081027076356044
 30
0.0
 40
0.211199999999748
100
AcDbArc
 50
202.61986494804427
 51
265.40807337321746
  0
LINE
  5
196
330
AD
100
AcDbEntity
  8
0
100
AcDbLine
 10
9.902103896574772
 20
-50.951507715503304
 30
0.0
 11
9.495771094518233
 21
-50.95150771546472
 31
0.0
  0
LINE
  5
197
330
AD
100
AcDbEntity
  8
0
100
AcDbLine
 10
6.238221990507569
 20
-45.79459778121664
 30
0.0
 11
7.448905370450163
 21
-44.34850374406289
 31
0.0
  0
LINE
  5
198
330
AD
100
AcDbEntity
  8
0
100
AcDbLine
 10
-24.432313472088225
 20
-11.190040351934552
 30
0.0
 11
-24.407635374669283
 21
-11.147026950354121
 31
0.0
  0
LINE
  5
199
330
AD
100
AcDbEntity
  8
0
100
AcDbLine
 10
13.340273313526936
 20
-20.03965424651819
 30
0.0
 11
12.46474473048174
 21
-22.71662340393855
 31
0.0
  0
LINE
  5
19A
330
AD
100
AcDbEntity
  8
0
100
AcDbLine
 10
-12.679624598562569
 20
-12.05397710713672
 30
0.0
 11
-16.40064998927606
 21
-13.033970291732079
 31
0.0
  0
LINE
  5
19B
330
AD
100
AcDbEntity
  8
0
100
AcDbLine
 10
18.016829636222482
 20
-15.059899296154121
 30
0.0
 11
18.520743360625858
 21
-14.596400225871292
 31
0.0
  0
ARC
  5
19C
330
AD
100
AcDbEntity
  8
0
100
AcDbCircle
 10
8.240213049447718
 20
-49.87279516468729
 30
0.0
 40
0.08762961158453209
100
AcDbArc
 50
0.0
 51
40.10090754624646
  0
LINE
  5
19D
330
AD
100
AcDbEntity
  8
0
100
AcDbLine
 10
7.448905370450163
 20
-44.34850374406289
 30
0.0
 11
8.514548750661888
 21
-43.45111984493749
 31
0.0
  0
LINE
  5
19E
330
AD
100
AcDbEntity
  8
0
100
AcDbLine
 10
-3.325036148075995
 20
-18.798945896247435
 30
0.0
 11
-3.4985358651126575
 21
-19.24715349859236
 31
0.0
  0
ARC
  5
19F
330
AD
100
AcDbEntity
  8
0
100
AcDbCircle
 10
9.149671653969591
 20
-50.86387810388019
 30
0.0
 40
0.08762961158417681
100
AcDbArc
 50
180.0
 51
270.0
  0
ARC
  5
1A0
330
AD
100
AcDbEntity
  8
0
100
AcDbCircle
 10
18.127934393967777
 20
-13.279805743971615
 30
0.0
 40
14.931452936752605
100
AcDbArc
 50
118.83762261982004
 51
244.35205280472653
  0
ARC
  5
1A1
330
AD
100
AcDbEntity
  8
0
100
AcDbCircle
 10
7.5089239236107375
 20
-49.00432942853162
 30
0.0
 40
0.08762961158459982
100
AcDbArc
 50
40.07998685197896
 51
90.0
  0
LINE
  5
1A2
330
AD
100
AcDbEntity
  8
0
100
AcDbLine
 10
18.634286455814504
 20
-11.793260643300968
 30
0.0
 11
17.778751839771303
 21
-11.650555586800579
 31
0.0
  0
LINE
  5
1A3
330
AD
100
AcDbEntity
  8
0
100
AcDbLine
 10
5.5765368792265235
 20
-64.18862493071869
 30
0.0
 11
7.109944882400541
 21
-63.59722717916511
 31
0.0
  0
LINE
  5
1A4
330
AD
100
AcDbEntity
  8
0
100
AcDbLine
 10
-23.65417100873387
 20
-10.800007963535808
 30
0.0
 11
-23.442322064742385
 21
-10.830601435490927
 31
0.0
  0
ARC
  5
1A5
330
AD
100
AcDbEntity
  8
0
100
AcDbCircle
 10
-22.63426863624943
 20
-13.710086537589405
 30
0.0
 40
15.043436655865648
100
AcDbArc
 50
29.759044669717508
 51
63.90576277911382
  0
LINE
  5
1A6
330
AD
100
AcDbEntity
  8
0
100
AcDbLine
 10
5.024086119969979
 20
-49.73920628793544
 30
0.0
 11
4.852697037328468
 21
-49.535681752298764
 31
0.0
  0
LINE
  5
1A7
330
AD
100
AcDbEntity
  8
0
100
AcDbLine
 10
3.598772732349218
 20
-59.5410524833435
 30
0.0
 11
4.2955829849265825
 21
-60.133032874913496
 31
0.0
  0
LINE
  5
1A8
330
AD
100
AcDbEntity
  8
0
100
AcDbLine
 10
-5.445648713195368
 20
-25.712853232752458
 30
0.0
 11
-5.861988683290278
 21
-21.58407857077622
 31
0.0
  0
LINE
  5
1A9
330
AD
100
AcDbEntity
  8
0
100
AcDbLine
 10
-0.49120743647677045
 20
-22.60148136130207
 30
0.0
 11
0.6484758531151158
 21
-23.440528372170903
 31
0.0
  0
LINE
  5
1AA
330
AD
100
AcDbEntity
  8
0
100
AcDbLine
 10
13.452749397123398
 20
-59.10940583195248
 30
0.0
 11
13.900343892713067
 21
-57.942146315152804
 31
0.0
  0
LINE
  5
1AB
330
AD
100
AcDbEntity
  8
0
100
AcDbLine
 10
12.580717504129595
 20
-52.81505550527982
 30
0.0
 11
12.19588236860048
 21
-53.0612442654764
 31
0.0
  0
LINE
  5
1AC
330
AD
100
AcDbEntity
  8
0
100
AcDbLine
 10
-4.892106187480607
 20
-27.490999782746602
 30
0.0
 11
-5.445648713195368
 21
-25.712853232752458
 31
0.0
  0
LINE
  5
1AD
330
AD
100
AcDbEntity
  8
0
100
AcDbLine
 10
-22.509735238741087
 20
-9.54871164857909
 30
0.0
 11
-22.566727954555716
 21
-9.278041480774265
 31
0.0
  0
ARC
  5
1AE
330
AD
100
AcDbEntity
  8
0
100
AcDbCircle
 10
9.902103896574772
 20
-51.03913732704922
 30
0.0
 40
0.08762961154589965
100
AcDbArc
 50
63.14675258086471
 51
90.0
  0
LINE
  5
1AF
330
AD
100
AcDbEntity
  8
0
100
AcDbLine
 10
-1.6562552864047575
 20
-10.21349764655421
 30
0.0
 11
-1.6562552864047575
 21
-10.924548379969025
 31
0.0
  0
LINE
  5
1B0
330
AD
100
AcDbEntity
  8
0
100
AcDbLine
 10
10.519310497374619
 20
-52.84289695028495
 30
0.0
 11
10.284832152986283
 21
-52.47636719738655
 31
0.0
  0
ARC
  5
1B1
330
AD
100
AcDbEntity
  8
0
100
AcDbCircle
 10
22.63426863623735
 20
-13.71008653758921
 30
0.0
 40
10.74539862515027
210
0.0
220
0.0
230
-1.0
100
AcDbArc
 50
173.76987395121003
 51
181.1874780568263
  0
LINE
  5
1B2
330
AD
100
AcDbEntity
  8
0
100
AcDbLine
 10
-5.308716246195857
 20
-15.383893132574919
 30
0.0
 11
-4.147713973025091
 21
-14.906768910723919
 31
0.0
  0
LINE
  5
1B3
330
AD
100
AcDbEntity
  8
0
100
AcDbLine
 10
0.6314945050484511
 20
-23.837900468107364
 30
0.0
 11
1.037978737038543
 21
-24.461176290491466
 31
0.0
  0
ARC
  5
1B4
330
AD
100
AcDbEntity
  8
0
100
AcDbCircle
 10
-5.097516246195042
 20
-16.181220804055553
 30
0.0
 40
0.21120000000081518
100
AcDbArc
 50
180.0
 51
227.66988976178854
  0
LINE
  5
1B5
330
AD
100
AcDbEntity
  8
0
100
AcDbLine
 10
4.757344154497005
 20
-61.18127719335074
 30
0.0
 11
5.166086092929163
 21
-62.16225784558673
 31
0.0
  0
LINE
  5
1B6
330
AD
100
AcDbEntity
  8
0
100
AcDbLine
 10
11.130531922585547
 20
-53.36721368119616
 30
0.0
 11
10.536391597028611
 21
-52.86245729842185
 31
0.0
  0
LINE
  5
1B7
330
AD
100
AcDbEntity
  8
0
100
AcDbLine
 10
14.543655016666008
 20
-23.685486214634096
 30
0.0
 11
14.987980731398025
 21
-22.037907897132673
 31
0.0
  0
LINE
  5
1B8
330
AD
100
AcDbEntity
  8
0
100
AcDbLine
 10
17.236783654157577
 20
-11.935965699801475
 30
0.0
 11
16.86264840135337
 21
-12.657512258780507
 31
0.0
  0
LINE
  5
1B9
330
AD
100
AcDbEntity
  8
0
100
AcDbLine
 10
19.383825632701743
 20
-13.081494015403653
 30
0.0
 11
19.29766750937688
 21
-12.514484996988461
 31
0.0
  0
LINE
  5
1BA
330
AD
100
AcDbEntity
  8
0
100
AcDbLine
 10
5.069767908784115
 20
-58.83809903619741
 30
0.0
 11
3.598772732349218
 21
-59.5410524833435
 31
0.0
  0
LINE
  5
1BB
330
AD
100
AcDbEntity
  8
0
100
AcDbLine
 10
4.353794836028371
 20
-60.212758829025425
 30
0.0
 11
4.757344154497005
 21
-61.18127719335074
 31
0.0
  0
ARC
  5
1BC
330
AD
100
AcDbEntity
  8
0
100
AcDbCircle
 10
13.818523480953786
 20
-57.910771659043114
 30
0.0
 40
0.08762961158455337
100
AcDbArc
 50
-20.979699327050305
 51
0.0
  0
LINE
  5
1BD
330
AD
100
AcDbEntity
  8
0
100
AcDbLine
 10
17.778751839771303
 20
-11.650555586800579
 30
0.0
 11
17.236783654157577
 21
-11.935965699801475
 31
0.0
  0
LINE
  5
1BE
330
AD
100
AcDbEntity
  8
0
100
AcDbLine
 10
12.19588236860048
 20
-53.0612442654764
 30
0.0
 11
11.214623586832815
 21
-53.38368098634276
 31
0.0
  0
LINE
  5
1BF
330
AD
100
AcDbEntity
  8
0
100
AcDbLine
 10
13.906153092538247
 20
-57.910771659043114
 30
0.0
 11
13.906153092537963
 21
-56.2944489700432
 31
0.0
  0
LINE
  5
1C0
330
AD
100
AcDbEntity
  8
0
100
AcDbLine
 10
9.607531292514082
 20
-62.633969530715284
 30
0.0
 11
11.586406716956432
 21
-61.30624669506566
 31
0.0
  0
LINE
  5
1C1
330
AD
100
AcDbEntity
  8
0
100
AcDbLine
 10
-24.37815997575001
 20
-11.27127059644183
 30
0.0
 11
-24.437785714546294
 21
-11.227933690347015
 31
0.0
  0
LINE
  5
1C2
330
AD
100
AcDbEntity
  8
0
100
AcDbLine
 10
-21.394306372085126
 20
-8.051883909107517
 30
0.0
 11
-20.80143996891252
 21
-7.956487602417695
 31
0.0
  0
LINE
  5
1C3
330
AD
100
AcDbEntity
  8
0
100
AcDbLine
 10
13.906153092537963
 20
-54.49020178903516
 30
0.0
 11
13.13667141831445
 21
-53.28737033502972
 31
0.0
  0
ARC
  5
1C4
330
AD
100
AcDbEntity
  8
0
100
AcDbCircle
 10
6.507247284837874
 20
-62.59684637599869
 30
0.0
 40
0.21119999999971853
100
AcDbArc
 50
-4.591926626786824
 51
85.40807337323854
  0
LINE
  5
1C5
330
AD
100
AcDbEntity
  8
0
100
AcDbLine
 10
-3.4985358651126575
 20
-19.24715349859236
 30
0.0
 11
-0.49120743647677045
 21
-22.60148136130207
 31
0.0
  0
LINE
  5
1C6
330
AD
100
AcDbEntity
  8
0
100
AcDbLine
 10
-20.271288983402513
 20
-11.538121793196495
 30
0.0
 11
-12.360239502177777
 21
-10.562402156034508
 31
0.0
  0
LINE
  5
1C7
330
AD
100
AcDbEntity
  8
0
100
AcDbLine
 10
0.7773408857051578
 20
-5.76692686294583
 30
0.0
 11
-0.3663760033489183
 21
-6.513661024172826
 31
0.0
  0
LINE
  5
1C8
330
AD
100
AcDbEntity
  8
0
100
AcDbLine
 10
-5.375963635475927
 20
-18.624520360604947
 30
0.0
 11
-4.6165723552281435
 21
-17.952264940694626
 31
0.0
  0
LINE
  5
1C9
330
AD
100
AcDbEntity
  8
0
100
AcDbLine
 10
9.062042042385414
 20
-50.67480694111743
 30
0.0
 11
8.32784266103225
 21
-50.67480694111743
 31
0.0
  0
ARC
  5
1CA
330
AD
100
AcDbEntity
  8
0
100
AcDbCircle
 10
6.032794540257456
 20
-49.00432942853144
 30
0.0
 40
0.08762961158449656
100
AcDbArc
 50
90.0
 51
130.10090754612023
  0
LINE
  5
1CB
330
AD
100
AcDbEntity
  8
0
100
AcDbLine
 10
-4.284757078367889
 20
-17.20724029494931
 30
0.0
 11
-5.239738561378999
 21
-16.337356171810654
 31
0.0
  0
LINE
  5
1CC
330
AD
100
AcDbEntity
  8
0
100
AcDbLine
 10
-22.69109018989205
 20
-10.830601435490927
 30
0.0
 11
-22.389598212389146
 21
-10.676371332977851
 31
0.0
  0
LINE
  5
1CD
330
AD
100
AcDbEntity
  8
0
100
AcDbLine
 10
-5.861988683290278
 20
-21.58407857077622
 30
0.0
 11
-5.375963635475927
 21
-18.624520360604947
 31
0.0
  0
LINE
  5
1CE
330
AD
100
AcDbEntity
  8
0
100
AcDbLine
 10
-22.472644741147363
 20
-8.809977494068933
 30
0.0
 11
-22.190395100923084
 21
-8.455356151223029
 31
0.0
  0
LINE
  5
1CF
330
AD
100
AcDbEntity
  8
0
100
AcDbLine
 10
5.541819949773341
 20
-47.19024667753952
 30
0.0
 11
6.238221990507569
 21
-45.79459778121664
 31
0.0
  0
LINE
  5
1D0
330
AD
100
AcDbEntity
  8
0
100
AcDbLine
 10
-20.80143996891252
 20
-7.956487602417695
 30
0.0
 11
-13.980640361548353
 21
-7.339975918696485
 31
0.0
  0
LINE
  5
1D1
330
AD
100
AcDbEntity
  8
0
100
AcDbLine
 10
-22.92695810435461
 20
-10.867432627898935
 30
0.0
 11
-22.69109018989205
 21
-10.830601435490927
 31
0.0
  0
LINE
  5
1D2
330
AD
100
AcDbEntity
  8
0
100
AcDbLine
 10
-23.548246536738233
 20
-11.781849676821231
 30
0.0
 11
-23.65417100873387
 21
-11.597586340897927
 31
0.0
  0
LINE
  5
1D3
330
AD
100
AcDbEntity
  8
0
100
AcDbLine
 10
1.037978737038543
 20
-24.461176290491466
 30
0.0
 11
2.2322123642813096
 21
-25.040992534181928
 31
0.0
  0
LINE
  5
1D4
330
AD
100
AcDbEntity
  8
0
100
AcDbLine
 10
-1.9948716507946074
 20
-17.338656611188505
 30
0.0
 11
-3.325036148075995
 21
-18.798945896247435
 31
0.0
  0
LINE
  5
1D5
330
AD
100
AcDbEntity
  8
0
100
AcDbLine
 10
-23.99752230512135
 20
-10.867432627898935
 30
0.0
 11
-23.84856614306841
 21
-10.830601435490927
 31
0.0
  0
LINE
  5
1D6
330
AD
100
AcDbEntity
  8
0
100
AcDbLine
 10
-13.174592415423731
 20
-8.613213240088214
 30
0.0
 11
-20.784000374276275
 21
-9.82024540389619
 31
0.0
  0
LINE
  5
1D7
330
AD
100
AcDbEntity
  8
0
100
AcDbLine
 10
10.271019663374474
 20
-52.42914451925267
 30
0.0
 11
10.271019663374474
 21
-51.181553456131084
 31
0.0
  0
LINE
  5
1D8
330
AD
100
AcDbEntity
  8
0
100
AcDbLine
 10
9.062042042385414
 20
-50.86387810388019
 30
0.0
 11
9.062042042385414
 21
-50.67480694111743
 31
0.0
  0
LINE
  5
1D9
330
AD
100
AcDbEntity
  8
0
100
AcDbLine
 10
-20.57395448737971
 20
-10.699594667028109
 30
0.0
 11
-20.454307586343816
 21
-11.414817253221518
 31
0.0
  0
LINE
  5
1DA
330
AD
100
AcDbEntity
  8
0
100
AcDbLine
 10
-24.407635374669283
 20
-11.147026950354121
 30
0.0
 11
-24.23546526528355
 21
-11.011612257578761
 31
0.0
  0
LINE
  5
1DB
330
AD
100
AcDbEntity
  8
0
100
AcDbLine
 10
7.643998378031469
 20
-49.0287480926338
 30
0.0
 11
7.575973400507934
 21
-48.94790854166975
 31
0.0
  0
ARC
  5
1DC
330
AD
100
AcDbEntity
  8
0
100
AcDbCircle
 10
4.426979393550781
 20
-17.363375662704282
 30
0.0
 40
0.21119999999990913
210
0.0
220
0.0
230
-1.0
100
AcDbArc
 50
132.33011023802172
 51
217.80723574825143
  0
LINE
  5
1DD
330
AD
100
AcDbEntity
  8
0
100
AcDbLine
 10
0.6484758531151158
 20
-23.440528372170903
 30
0.0
 11
0.6314945050484511
 21
-23.837900468107364
 31
0.0
  0
LINE
  5
1DE
330
AD
100
AcDbEntity
  8
0
100
AcDbLine
 10
9.495771094518233
 20
-50.95150771546472
 30
0.0
 11
9.149671653969591
 21
-50.95150771546465
 31
0.0
  0
ARC
  5
1DF
330
AD
100
AcDbEntity
  8
0
100
AcDbCircle
 10
22.634268636253267
 20
-13.710086537591216
 30
0.0
 40
10.745398625166352
210
0.0
220
0.0
230
-1.0
100
AcDbArc
 50
151.68421396138552
 51
162.96635360230255
  0
LINE
  5
1E0
330
AD
100
AcDbEntity
  8
0
100
AcDbLine
 10
13.13667141831445
 20
-53.28737033502972
 30
0.0
 11
12.580717504129595
 21
-52.81505550527982
 31
0.0
  0
LINE
  5
1E1
330
AD
100
AcDbEntity
  8
0
100
AcDbLine
 10
-2.45199943377564
 20
-8.581379257001235
 30
0.0
 11
-1.6562552864047575
 21
-10.21349764655421
 31
0.0
  0
LINE
  5
1E2
330
AD
100
AcDbEntity
  8
0
100
AcDbLine
 10
-4.147713973025091
 20
-14.906768910723919
 30
0.0
 11
-1.9948716507946074
 21
-17.338656611188505
 31
0.0
  0
LINE
  5
1E3
330
AD
100
AcDbEntity
  8
0
100
AcDbLine
 10
-4.420044030481094
 20
-4.171604750633172
 30
0.0
 11
-4.32557946418747
 21
-3.5544362508485836
 31
0.0
  0
LINE
  5
1E4
330
AD
100
AcDbEntity
  8
0
100
AcDbLine
 10
7.5089239236107375
 20
-48.916699816947144
 30
0.0
 11
6.517331303648035
 21
-48.916699816946945
 31
0.0
  0
LINE
  5
1E5
330
AD
100
AcDbEntity
  8
0
100
AcDbLine
 10
-23.958852536847886
 20
-11.436281071050288
 30
0.0
 11
-24.17725050433532
 21
-11.350334701095676
 31
0.0
  0
LINE
  5
1E6
330
AD
100
AcDbEntity
  8
0
100
AcDbLine
 10
-25.267894767811754
 20
-12.660644048147262
 30
0.0
 11
-25.215336386240566
 21
-12.549624711651667
 31
0.0
  0
LINE
  5
1E7
330
AD
100
AcDbEntity
  8
0
100
AcDbLine
 10
-20.454307586343816
 20
-11.414817253221518
 30
0.0
 11
-20.271288983402513
 21
-11.538121793196495
 31
0.0
  0
LINE
  5
1E8
330
AD
100
AcDbEntity
  8
0
100
AcDbLine
 10
5.976349175046991
 20
-48.9373005573438
 30
0.0
 11
5.024086119969979
 21
-49.73920628793544
 31
0.0
  0
LINE
  5
1E9
330
AD
100
AcDbEntity
  8
0
100
AcDbLine
 10
-22.389598212389146
 20
-10.676371332977851
 30
0.0
 11
-21.876120982288754
 21
-10.34679059923905
 31
0.0
  0
LINE
  5
1EA
330
AD
100
AcDbEntity
  8
0
100
AcDbLine
 10
-4.6165723552281435
 20
-17.952264940694626
 30
0.0
 11
-4.260115003692562
 21
-17.492842706376624
 31
0.0
  0
LINE
  5
1EB
330
AD
100
AcDbEntity
  8
0
100
AcDbLine
 10
-5.308716246195857
 20
-16.18122080405547
 30
0.0
 11
-5.308716246195857
 21
-15.383893132574919
 31
0.0
  0
LINE
  5
1EC
330
AD
100
AcDbEntity
  8
0
100
AcDbLine
 10
-20.61281373438817
 20
-10.38452729093374
 30
0.0
 11
-20.57395448737971
 21
-10.699594667028109
 31
0.0
  0
LINE
  5
1ED
330
AD
100
AcDbEntity
  8
0
100
AcDbLine
 10
-2.52754280481426
 20
-2.642309555545502
 30
0.0
 11
-1.0763737352139202
 21
-3.0597186395209395
 31
0.0
  0
LINE
  5
1EE
330
AD
100
AcDbEntity
  8
0
100
AcDbLine
 10
-21.877387487084548
 20
-8.225575995399398
 30
0.0
 11
-21.394306372085126
 21
-8.051883909107517
 31
0.0
  0
LINE
  5
1EF
330
AD
100
AcDbEntity
  8
0
100
AcDbLine
 10
-24.17725050433532
 20
-11.350334701095676
 30
0.0
 11
-24.37815997575001
 21
-11.27127059644183
 31
0.0
  0
LINE
  5
1F0
330
AD
100
AcDbEntity
  8
0
100
AcDbLine
 10
-9.574753316607243
 20
-6.243223338422489
 30
0.0
 11
-8.968568769909098
 21
-5.930899326955995
 31
0.0
  0
LINE
  5
1F1
330
AD
100
AcDbEntity
  8
0
100
AcDbLine
 10
7.925369388924679
 20
-49.36287616807017
 30
0.0
 11
7.643998378031469
 21
-49.0287480926338
 31
0.0
  0
LINE
  5
1F2
330
AD
100
AcDbEntity
  8
0
100
AcDbLine
 10
-11.952331898825364
 20
-12.543973699434424
 30
0.0
 11
-12.679624598562569
 21
-12.05397710713672
 31
0.0
  0
LINE
  5
1F3
330
AD
100
AcDbEntity
  8
0
100
AcDbLine
 10
-20.784000374276275
 20
-9.82024540389619
 30
0.0
 11
-20.61281373438817
 21
-10.38452729093374
 31
0.0
  0
LINE
  5
1F4
330
AD
100
AcDbEntity
  8
0
100
AcDbLine
 10
0.0
 20
0.0
 30
0.0
 11
-28.84275211863033
 21
0.0
 31
0.0
  0
LINE
  5
1F5
330
AD
100
AcDbEntity
  8
0
100
AcDbLine
 10
0.0
 20
0.0
 30
0.0
 11
24.966573495210692
 21
0.0
 31
0.0
  0
LINE
  5
1F6
330
AD
100
AcDbEntity
  8
0
100
AcDbLine
 10
25.329806963127908
 20
-0.19999999999996576
 30
0.0
 11
24.966573495210692
 21
0.0
 31
0.0
  0
LINE
  5
1F7
330
AD
100
AcDbEntity
  8
0
100
AcDbLine
 10
10.926061824807434
 20
-0.19999999999996576
 30
0.0
 11
11.289295292724635
 21
0.0
 31
0.0
  0
LINE
  5
1F8
330
AD
100
AcDbEntity
  8
0
100
AcDbLine
 10
-16.017430405955082
 20
-0.19999999999996576
 30
0.0
 11
-16.42578515386876
 21
0.0
 31
0.0
  0
LINE
  5
1F9
330
AD
100
AcDbEntity
  8
0
100
AcDbLine
 10
-29.251106866543992
 20
-0.19999999999996576
 30
0.0
 11
-28.84275211863033
 21
0.0
 31
0.0
  0
ENDBLK
  5
AF
330
AD
100
AcDbEntity
  8
0
100
AcDbBlockEnd
  0
BLOCK
  5
1FF
330
1FE
100
AcDbEntity
  8
0
100
AcDbBlockBegin
  2
C
 70
0
 10
0.0
 20
0.0
 30
0.0
  3
C
  1

  0
POLYLINE
  5
201
330
1FE
100
AcDbEntity
  8
0
100
AcDb2dPolyline
 66
1
 10
0.0
 20
0.0
 30
0.0
 70
0
  0
VERTEX
  5
202
330
201
100
AcDbEntity
  8
0
100
AcDbVertex
100
AcDb2dVertex
 10
51.15646258503402
 20
7.346938775510205
 30
0.0
 70
0
  0
VERTEX
  5
203
330
201
100
AcDbEntity
  8
0
100
AcDbVertex
100
AcDb2dVertex
 10
50.045440051020414
 20
6.457270408163266
 30
0.0
 70
0
  0
VERTEX
  5
204
330
201
100
AcDbEntity
  8
0
100
AcDbVertex
100
AcDb2dVertex
 10
48.90625000000001
 20
5.625000000000001
 30
0.0
 70
0
  0
VERTEX
  5
205
330
201
100
AcDbEntity
  8
0
100
AcDbVertex
100
AcDb2dVertex
 10
47.73889243197279
 20
4.8501275510204085
 30
0.0
 70
0
  0
VERTEX
  5
206
330
201
100
AcDbEntity
  8
0
100
AcDbVertex
100
AcDb2dVertex
 10
46.54336734693878
 20
4.13265306122449
 30
0.0
 70
0
  0
VERTEX
  5
207
330
201
100
AcDbEntity
  8
0
100
AcDbVertex
100
AcDb2dVertex
 10
45.319674744897966
 20
3.4725765306122454
 30
0.0
 70
0
  0
VERTEX
  5
208
330
201
100
AcDbEntity
  8
0
100
AcDbVertex
100
AcDb2dVertex
 10
44.067814625850346
 20
2.8698979591836737
 30
0.0
 70
0
  0
VERTEX
  5
209
330
201
100
AcDbEntity
  8
0
100
AcDbVertex
100
AcDb2dVertex
 10
42.787786989795926
 20
2.3246173469387754
 30
0.0
 70
0
  0
VERTEX
  5
20A
330
201
100
AcDbEntity
  8
0
100
AcDbVertex
100
AcDb2dVertex
 10
41.4795918367347
 20
1.8367346938775508
 30
0.0
 70
0
  0
VERTEX
  5
20B
330
201
100
AcDbEntity
  8
0
100
AcDbVertex
100
AcDb2dVertex
 10
40.14322916666667
 20
1.40625
 30
0.0
 70
0
  0
VERTEX
  5
20C
330
201
100
AcDbEntity
  8
0
100
AcDbVertex
100
AcDb2dVertex
 10
38.778698979591844
 20
1.033163265306123
 30
0.0
 70
0
  0
VERTEX
  5
20D
330
201
100
AcDbEntity
  8
0
100
AcDbVertex
100
AcDb2dVertex
 10
37.38600127551021
 20
0.7174744897959187
 30
0.0
 70
0
  0
VERTEX
  5
20E
330
201
100
AcDbEntity
  8
0
100
AcDbVertex
100
AcDb2dVertex
 10
35.96513605442178
 20
0.45918367346938727
 30
0.0
 70
0
  0
VERTEX
  5
20F
330
201
100
AcDbEntity
  8
0
100
AcDbVertex
100
AcDb2dVertex
 10
34.516103316326536
 20
0.2582908163265305
 30
0.0
 70
0
  0
VERTEX
  5
210
330
201
100
AcDbEntity
  8
0
100
AcDbVertex
100
AcDb2dVertex
 10
33.038903061224495
 20
0.1147959183673466
 30
0.0
 70
0
  0
VERTEX
  5
211
330
201
100
AcDbEntity
  8
0
100
AcDbVertex
100
AcDb2dVertex
 10
31.533535289115655
 20
0.028698979591836427
 30
0.0
 70
0
  0
VERTEX
  5
212
330
201
100
AcDbEntity
  8
0
100
AcDbVertex
100
AcDb2dVertex
 10
30.000000000000007
 20
0.0
 30
0.0
 70
0
  0
VERTEX
  5
213
330
201
100
AcDbEntity
  8
0
100
AcDbVertex
100
AcDb2dVertex
 10
28.473905187074838
 20
0.02869897959183674
 30
0.0
 70
0
  0
VERTEX
  5
214
330
201
100
AcDbEntity
  8
0
100
AcDbVertex
100
AcDb2dVertex
 10
26.973852040816332
 20
0.11479591836734696
 30
0.0
 70
0
  0
VERTEX
  5
215
330
201
100
AcDbEntity
  8
0
100
AcDbVertex
100
AcDb2dVertex
 10
25.499840561224495
 20
0.25829081632653067
 30
0.0
 70
0
  0
VERTEX
  5
216
330
201
100
AcDbEntity
  8
0
100
AcDbVertex
100
AcDb2dVertex
 10
24.051870748299322
 20
0.4591836734693878
 30
0.0
 70
0
  0
VERTEX
  5
217
330
201
100
AcDbEntity
  8
0
100
AcDbVertex
100
AcDb2dVertex
 10
22.62994260204082
 20
0.7174744897959184
 30
0.0
 70
0
  0
VERTEX
  5
218
330
201
100
AcDbEntity
  8
0
100
AcDbVertex
100
AcDb2dVertex
 10
21.234056122448983
 20
1.0331632653061227
 30
0.0
 70
0
  0
VERTEX
  5
219
330
201
100
AcDbEntity
  8
0
100
AcDbVertex
100
AcDb2dVertex
 10
19.86421130952381
 20
1.4062500000000002
 30
0.0
 70
0
  0
VERTEX
  5
21A
330
201
100
AcDbEntity
  8
0
100
AcDbVertex
100
AcDb2dVertex
 10
18.52040816326531
 20
1.8367346938775513
 30
0.0
 70
0
  0
VERTEX
  5
21B
330
201
100
AcDbEntity
  8
0
100
AcDbVertex
100
AcDb2dVertex
 10
17.20264668367347
 20
2.324617346938776
 30
0.0
 70
0
  0
VERTEX
  5
21C
330
201
100
AcDbEntity
  8
0
100
AcDbVertex
100
AcDb2dVertex
 10
15.910926870748302
 20
2.8698979591836737
 30
0.0
 70
0
  0
VERTEX
  5
21D
330
201
100
AcDbEntity
  8
0
100
AcDbVertex
100
AcDb2dVertex
 10
14.645248724489798
 20
3.4725765306122454
 30
0.0
 70
0
  0
VERTEX
  5
21E
330
201
100
AcDbEntity
  8
0
100
AcDbVertex
100
AcDb2dVertex
 10
13.40561224489796
 20
4.132653061224491
 30
0.0
 70
0
  0
VERTEX
  5
21F
330
201
100
AcDbEntity
  8
0
100
AcDbVertex
100
AcDb2dVertex
 10
12.19201743197279
 20
4.8501275510204085
 30
0.0
 70
0
  0
VERTEX
  5
220
330
201
100
AcDbEntity
  8
0
100
AcDbVertex
100
AcDb2dVertex
 10
11.004464285714288
 20
5.625000000000001
 30
0.0
 70
0
  0
VERTEX
  5
221
330
201
100
AcDbEntity
  8
0
100
AcDbVertex
100
AcDb2dVertex
 10
9.842952806122451
 20
6.457270408163266
 30
0.0
 70
0
  0
VERTEX
  5
222
330
201
100
AcDbEntity
  8
0
100
AcDbVertex
100
AcDb2dVertex
 10
8.70748299319728
 20
7.346938775510205
 30
0.0
 70
0
  0
VERTEX
  5
223
330
201
100
AcDbEntity
  8
0
100
AcDbVertex
100
AcDb2dVertex
 10
7.653061224489797
 20
8.29294217687075
 30
0.0
 70
0
  0
VERTEX
  5
224
330
201
100
AcDbEntity
  8
0
100
AcDbVertex
100
AcDb2dVertex
 10
6.666666666666668
 20
9.260204081632654
 30
0.0
 70
0
  0
VERTEX
  5
225
330
201
100
AcDbEntity
  8
0
100
AcDbVertex
100
AcDb2dVertex
 10
5.7482993197278915
 20
10.248724489795919
 30
0.0
 70
0
  0
VERTEX
  5
226
330
201
100
AcDbEntity
  8
0
100
AcDbVertex
100
AcDb2dVertex
 10
4.8979591836734695
 20
11.258503401360546
 30
0.0
 70
0
  0
VERTEX
  5
227
330
201
100
AcDbEntity
  8
0
100
AcDbVertex
100
AcDb2dVertex
 10
4.115646258503402
 20
12.289540816326532
 30
0.0
 70
0
  0
VERTEX
  5
228
330
201
100
AcDbEntity
  8
0
100
AcDbVertex
100
AcDb2dVertex
 10
3.4013605442176873
 20
13.341836734693878
 30
0.0
 70
0
  0
VERTEX
  5
229
330
201
100
AcDbEntity
  8
0
100
AcDbVertex
100
AcDb2dVertex
 10
2.7551020408163263
 20
14.415391156462587
 30
0.0
 70
0
  0
VERTEX
  5
22A
330
201
100
AcDbEntity
  8
0
100
AcDbVertex
100
AcDb2dVertex
 10
2.1768707482993204
 20
15.510204081632654
 30
0.0
 70
0
  0
VERTEX
  5
22B
330
201
100
AcDbEntity
  8
0
100
AcDbVertex
100
AcDb2dVertex
 10
1.666666666666666
 20
16.62627551020408
 30
0.0
 70
0
  0
VERTEX
  5
22C
330
201
100
AcDbEntity
  8
0
100
AcDbVertex
100
AcDb2dVertex
 10
1.2244897959183678
 20
17.76360544217687
 30
0.0
 70
0
  0
VERTEX
  5
22D
330
201
100
AcDbEntity
  8
0
100
AcDbVertex
100
AcDb2dVertex
 10
0.850340136054422
 20
18.922193877551024
 30
0.0
 70
0
  0
VERTEX
  5
22E
330
201
100
AcDbEntity
  8
0
100
AcDbVertex
100
AcDb2dVertex
 10
0.5442176870748305
 20
20.102040816326532
 30
0.0
 70
0
  0
VERTEX
  5
22F
330
201
100
AcDbEntity
  8
0
100
AcDbVertex
100
AcDb2dVertex
 10
0.3061224489795915
 20
21.303146258503403
 30
0.0
 70
0
  0
VERTEX
  5
230
330
201
100
AcDbEntity
  8
0
100
AcDbVertex
100
AcDb2dVertex
 10
0.13605442176870675
 20
22.525510204081634
 30
0.0
 70
0
  0
VERTEX
  5
231
330
201
100
AcDbEntity
  8
0
100
AcDbVertex
100
AcDb2dVertex
 10
0.03401360544217624
 20
23.769132653061227
 30
0.0
 70
0
  0
VERTEX
  5
232
330
201
100
AcDbEntity
  8
0
100
AcDbVertex
100
AcDb2dVertex
 10
0.0
 20
25.034013605442176
 30
0.0
 70
0
  0
VERTEX
  5
233
330
201
100
AcDbEntity
  8
0
100
AcDbVertex
100
AcDb2dVertex
 10
0.034013605442176874
 20
26.314572704081634
 30
0.0
 70
0
  0
VERTEX
  5
234
330
201
100
AcDbEntity
  8
0
100
AcDbVertex
100
AcDb2dVertex
 10
0.1360544217687075
 20
27.571215986394556
 30
0.0
 70
0
  0
VERTEX
  5
235
330
201
100
AcDbEntity
  8
0
100
AcDbVertex
100
AcDb2dVertex
 10
0.30612244897959184
 20
28.803943452380953
 30
0.0
 70
0
  0
VERTEX
  5
236
330
201
100
AcDbEntity
  8
0
100
AcDbVertex
100
AcDb2dVertex
 10
0.54421768707483
 20
30.012755102040817
 30
0.0
 70
0
  0
VERTEX
  5
237
330
201
100
AcDbEntity
  8
0
100
AcDbVertex
100
AcDb2dVertex
 10
0.8503401360544218
 20
31.19765093537415
 30
0.0
 70
0
  0
VERTEX
  5
238
330
201
100
AcDbEntity
  8
0
100
AcDbVertex
100
AcDb2dVertex
 10
1.2244897959183674
 20
32.35863095238095
 30
0.0
 70
0
  0
VERTEX
  5
239
330
201
100
AcDbEntity
  8
0
100
AcDbVertex
100
AcDb2dVertex
 10
1.6666666666666667
 20
33.49569515306122
 30
0.0
 70
0
  0
VERTEX
  5
23A
330
201
100
AcDbEntity
  8
0
100
AcDbVertex
100
AcDb2dVertex
 10
2.17687074829932
 20
34.60884353741497
 30
0.0
 70
0
  0
VERTEX
  5
23B
330
201
100
AcDbEntity
  8
0
100
AcDbVertex
100
AcDb2dVertex
 10
2.7551020408163267
 20
35.698076105442176
 30
0.0
 70
0
  0
VERTEX
  5
23C
330
201
100
AcDbEntity
  8
0
100
AcDbVertex
100
AcDb2dVertex
 10
3.4013605442176873
 20
36.76339285714286
 30
0.0
 70
0
  0
VERTEX
  5
23D
330
201
100
AcDbEntity
  8
0
100
AcDbVertex
100
AcDb2dVertex
 10
4.115646258503402
 20
37.804793792517
 30
0.0
 70
0
  0
VERTEX
  5
23E
330
201
100
AcDbEntity
  8
0
100
AcDbVertex
100
AcDb2dVertex
 10
4.8979591836734695
 20
38.822278911564624
 30
0.0
 70
0
  0
VERTEX
  5
23F
330
201
100
AcDbEntity
  8
0
100
AcDbVertex
100
AcDb2dVertex
 10
5.7482993197278915
 20
39.815848214285715
 30
0.0
 70
0
  0
VERTEX
  5
240
330
201
100
AcDbEntity
  8
0
100
AcDbVertex
100
AcDb2dVertex
 10
6.666666666666667
 20
40.78550170068027
 30
0.0
 70
0
  0
VERTEX
  5
241
330
201
100
AcDbEntity
  8
0
100
AcDbVertex
100
AcDb2dVertex
 10
7.653061224489797
 20
41.7312393707483
 30
0.0
 70
0
  0
VERTEX
  5
242
330
201
100
AcDbEntity
  8
0
100
AcDbVertex
100
AcDb2dVertex
 10
8.70748299319728
 20
42.6530612244898
 30
0.0
 70
0
  0
VERTEX
  5
243
330
201
100
AcDbEntity
  8
0
100
AcDbVertex
100
AcDb2dVertex
 10
9.827008928571429
 20
43.54272959183673
 30
0.0
 70
0
  0
VERTEX
  5
244
330
201
100
AcDbEntity
  8
0
100
AcDbVertex
100
AcDb2dVertex
 10
10.974702380952383
 20
44.375
 30
0.0
 70
0
  0
VERTEX
  5
245
330
201
100
AcDbEntity
  8
0
100
AcDbVertex
100
AcDb2dVertex
 10
12.150563350340137
 20
45.14987244897959
 30
0.0
 70
0
  0
VERTEX
  5
246
330
201
100
AcDbEntity
  8
0
100
AcDbVertex
100
AcDb2dVertex
 10
13.354591836734695
 20
45.86734693877551
 30
0.0
 70
0
  0
VERTEX
  5
247
330
201
100
AcDbEntity
  8
0
100
AcDbVertex
100
AcDb2dVertex
 10
14.586787840136056
 20
46.527423469387756
 30
0.0
 70
0
  0
VERTEX
  5
248
330
201
100
AcDbEntity
  8
0
100
AcDbVertex
100
AcDb2dVertex
 10
15.84715136054422
 20
47.130102040816325
 30
0.0
 70
0
  0
VERTEX
  5
249
330
201
100
AcDbEntity
  8
0
100
AcDbVertex
100
AcDb2dVertex
 10
17.135682397959187
 20
47.67538265306123
 30
0.0
 70
0
  0
VERTEX
  5
24A
330
201
100
AcDbEntity
  8
0
100
AcDbVertex
100
AcDb2dVertex
 10
18.452380952380956
 20
48.16326530612245
 30
0.0
 70
0
  0
VERTEX
  5
24B
330
201
100
AcDbEntity
  8
0
100
AcDbVertex
100
AcDb2dVertex
 10
19.797247023809526
 20
48.59375
 30
0.0
 70
0
  0
VERTEX
  5
24C
330
201
100
AcDbEntity
  8
0
100
AcDbVertex
100
AcDb2dVertex
 10
21.170280612244902
 20
48.96683673469388
 30
0.0
 70
0
  0
VERTEX
  5
24D
330
201
100
AcDbEntity
  8
0
100
AcDbVertex
100
AcDb2dVertex
 10
22.571481717687078
 20
49.28252551020408
 30
0.0
 70
0
  0
VERTEX
  5
24E
330
201
100
AcDbEntity
  8
0
100
AcDbVertex
100
AcDb2dVertex
 10
24.00085034013606
 20
49.54081632653061
 30
0.0
 70
0
  0
VERTEX
  5
24F
330
201
100
AcDbEntity
  8
0
100
AcDbVertex
100
AcDb2dVertex
 10
25.458386479591844
 20
49.74170918367347
 30
0.0
 70
0
  0
VERTEX
  5
250
330
201
100
AcDbEntity
  8
0
100
AcDbVertex
100
AcDb2dVertex
 10
26.944090136054427
 20
49.88520408163265
 30
0.0
 70
0
  0
VERTEX
  5
251
330
201
100
AcDbEntity
  8
0
100
AcDbVertex
100
AcDb2dVertex
 10
28.457961309523817
 20
49.97130102040816
 30
0.0
 70
0
  0
VERTEX
  5
252
330
201
100
AcDbEntity
  8
0
100
AcDbVertex
100
AcDb2dVertex
 10
30.000000000000007
 20
50.0
 30
0.0
 70
0
  0
VERTEX
  5
253
330
201
100
AcDbEntity
  8
0
100
AcDbVertex
100
AcDb2dVertex
 10
31.541507227891163
 20
49.97156675170068
 30
0.0
 70
0
  0
VERTEX
  5
254
330
201
100
AcDbEntity
  8
0
100
AcDbVertex
100
AcDb2dVertex
 10
33.05378401360545
 20
49.88626700680272
 30
0.0
 70
0
  0
VERTEX
  5
255
330
201
100
AcDbEntity
  8
0
100
AcDbVertex
100
AcDb2dVertex
 10
34.53683035714286
 20
49.74410076530612
 30
0.0
 70
0
  0
VERTEX
  5
256
330
201
100
AcDbEntity
  8
0
100
AcDbVertex
100
AcDb2dVertex
 10
35.9906462585034
 20
49.54506802721088
 30
0.0
 70
0
  0
VERTEX
  5
257
330
201
100
AcDbEntity
  8
0
100
AcDbVertex
100
AcDb2dVertex
 10
37.41523171768708
 20
49.289168792517
 30
0.0
 70
0
  0
VERTEX
  5
258
330
201
100
AcDbEntity
  8
0
100
AcDbVertex
100
AcDb2dVertex
 10
38.810586734693885
 20
48.97640306122449
 30
0.0
 70
0
  0
VERTEX
  5
259
330
201
100
AcDbEntity
  8
0
100
AcDbVertex
100
AcDb2dVertex
 10
40.17671130952382
 20
48.606770833333336
 30
0.0
 70
0
  0
VERTEX
  5
25A
330
201
100
AcDbEntity
  8
0
100
AcDbVertex
100
AcDb2dVertex
 10
41.513605442176875
 20
48.18027210884354
 30
0.0
 70
0
  0
VERTEX
  5
25B
330
201
100
AcDbEntity
  8
0
100
AcDbVertex
100
AcDb2dVertex
 10
42.821269132653065
 20
47.696906887755105
 30
0.0
 70
0
  0
VERTEX
  5
25C
330
201
100
AcDbEntity
  8
0
100
AcDbVertex
100
AcDb2dVertex
 10
44.09970238095239
 20
47.15667517006803
 30
0.0
 70
0
  0
VERTEX
  5
25D
330
201
100
AcDbEntity
  8
0
100
AcDbVertex
100
AcDb2dVertex
 10
45.348905187074834
 20
46.55957695578231
 30
0.0
 70
0
  0
VERTEX
  5
25E
330
201
100
AcDbEntity
  8
0
100
AcDbVertex
100
AcDb2dVertex
 10
46.568877551020414
 20
45.90561224489796
 30
0.0
 70
0
  0
VERTEX
  5
25F
330
201
100
AcDbEntity
  8
0
100
AcDbVertex
100
AcDb2dVertex
 10
47.759619472789126
 20
45.19478103741496
 30
0.0
 70
0
  0
VERTEX
  5
260
330
201
100
AcDbEntity
  8
0
100
AcDbVertex
100
AcDb2dVertex
 10
48.92113095238096
 20
44.427083333333336
 30
0.0
 70
0
  0
VERTEX
  5
261
330
201
100
AcDbEntity
  8
0
100
AcDbVertex
100
AcDb2dVertex
 10
50.053411989795926
 20
43.60251913265306
 30
0.0
 70
0
  0
VERTEX
  5
262
330
201
100
AcDbEntity
  8
0
100
AcDbVertex
100
AcDb2dVertex
 10
51.15646258503402
 20
42.72108843537415
 30
0.0
 70
0
  0
VERTEX
  5
263
330
201
100
AcDbEntity
  8
0
100
AcDbVertex
100
AcDb2dVertex
 10
46.05442176870749
 20
38.57142857142858
 30
0.0
 70
0
  0
VERTEX
  5
264
330
201
100
AcDbEntity
  8
0
100
AcDbVertex
100
AcDb2dVertex
 10
45.202487244897966
 20
39.23867984693878
 30
0.0
 70
0
  0
VERTEX
  5
265
330
201
100
AcDbEntity
  8
0
100
AcDbVertex
100
AcDb2dVertex
 10
44.33035714285715
 20
39.86288265306123
 30
0.0
 70
0
  0
VERTEX
  5
266
330
201
100
AcDbEntity
  8
0
100
AcDbVertex
100
AcDb2dVertex
 10
43.438031462585045
 20
40.444036989795926
 30
0.0
 70
0
  0
VERTEX
  5
267
330
201
100
AcDbEntity
  8
0
100
AcDbVertex
100
AcDb2dVertex
 10
42.52551020408164
 20
40.98214285714286
 30
0.0
 70
0
  0
VERTEX
  5
268
330
201
100
AcDbEntity
  8
0
100
AcDbVertex
100
AcDb2dVertex
 10
41.59279336734694
 20
41.47720025510205
 30
0.0
 70
0
  0
VERTEX
  5
269
330
201
100
AcDbEntity
  8
0
100
AcDbVertex
100
AcDb2dVertex
 10
40.63988095238096
 20
41.92920918367347
 30
0.0
 70
0
  0
VERTEX
  5
26A
330
201
100
AcDbEntity
  8
0
100
AcDbVertex
100
AcDb2dVertex
 10
39.66677295918368
 20
42.338169642857146
 30
0.0
 70
0
  0
VERTEX
  5
26B
330
201
100
AcDbEntity
  8
0
100
AcDbVertex
100
AcDb2dVertex
 10
38.673469387755105
 20
42.704081632653065
 30
0.0
 70
0
  0
VERTEX
  5
26C
330
201
100
AcDbEntity
  8
0
100
AcDbVertex
100
AcDb2dVertex
 10
37.65997023809524
 20
43.02694515306123
 30
0.0
 70
0
  0
VERTEX
  5
26D
330
201
100
AcDbEntity
  8
0
100
AcDbVertex
100
AcDb2dVertex
 10
36.62627551020409
 20
43.306760204081634
 30
0.0
 70
0
  0
VERTEX
  5
26E
330
201
100
AcDbEntity
  8
0
100
AcDbVertex
100
AcDb2dVertex
 10
35.57238520408164
 20
43.54352678571429
 30
0.0
 70
0
  0
VERTEX
  5
26F
330
201
100
AcDbEntity
  8
0
100
AcDbVertex
100
AcDb2dVertex
 10
34.4982993197279
 20
43.73724489795919
 30
0.0
 70
0
  0
VERTEX
  5
270
330
201
100
AcDbEntity
  8
0
100
AcDbVertex
100
AcDb2dVertex
 10
33.40401785714286
 20
43.887914540816325
 30
0.0
 70
0
  0
VERTEX
  5
271
330
201
100
AcDbEntity
  8
0
100
AcDbVertex
100
AcDb2dVertex
 10
32.289540816326536
 20
43.995535714285715
 30
0.0
 70
0
  0
VERTEX
  5
272
330
201
100
AcDbEntity
  8
0
100
AcDbVertex
100
AcDb2dVertex
 10
31.15486819727892
 20
44.06010841836735
 30
0.0
 70
0
  0
VERTEX
  5
273
330
201
100
AcDbEntity
  8
0
100
AcDbVertex
100
AcDb2dVertex
 10
30.000000000000007
 20
44.08163265306123
 30
0.0
 70
0
  0
VERTEX
  5
274
330
201
100
AcDbEntity
  8
0
100
AcDbVertex
100
AcDb2dVertex
 10
28.81271258503402
 20
44.059842687074834
 30
0.0
 70
0
  0
VERTEX
  5
275
330
201
100
AcDbEntity
  8
0
100
AcDbVertex
100
AcDb2dVertex
 10
27.64880952380953
 20
43.99447278911565
 30
0.0
 70
0
  0
VERTEX
  5
276
330
201
100
AcDbEntity
  8
0
100
AcDbVertex
100
AcDb2dVertex
 10
26.508290816326536
 20
43.885522959183675
 30
0.0
 70
0
  0
VERTEX
  5
277
330
201
100
AcDbEntity
  8
0
100
AcDbVertex
100
AcDb2dVertex
 10
25.391156462585037
 20
43.732993197278915
 30
0.0
 70
0
  0
VERTEX
  5
278
330
201
100
AcDbEntity
  8
0
100
AcDbVertex
100
AcDb2dVertex
 10
24.297406462585037
 20
43.53688350340136
 30
0.0
 70
0
  0
VERTEX
  5
279
330
201
100
AcDbEntity
  8
0
100
AcDbVertex
100
AcDb2dVertex
 10
23.227040816326532
 20
43.297193877551024
 30
0.0
 70
0
  0
VERTEX
  5
27A
330
201
100
AcDbEntity
  8
0
100
AcDbVertex
100
AcDb2dVertex
 10
22.180059523809526
 20
43.01392431972789
 30
0.0
 70
0
  0
VERTEX
  5
27B
330
201
100
AcDbEntity
  8
0
100
AcDbVertex
100
AcDb2dVertex
 10
21.156462585034014
 20
42.68707482993197
 30
0.0
 70
0
  0
VERTEX
  5
27C
330
201
100
AcDbEntity
  8
0
100
AcDbVertex
100
AcDb2dVertex
 10
20.15625
 20
42.31664540816327
 30
0.0
 70
0
  0
VERTEX
  5
27D
330
201
100
AcDbEntity
  8
0
100
AcDbVertex
100
AcDb2dVertex
 10
19.179421768707485
 20
41.90263605442177
 30
0.0
 70
0
  0
VERTEX
  5
27E
330
201
100
AcDbEntity
  8
0
100
AcDbVertex
100
AcDb2dVertex
 10
18.22597789115646
 20
41.445046768707485
 30
0.0
 70
0
  0
VERTEX
  5
27F
330
201
100
AcDbEntity
  8
0
100
AcDbVertex
100
AcDb2dVertex
 10
17.29591836734694
 20
40.94387755102041
 30
0.0
 70
0
  0
VERTEX
  5
280
330
201
100
AcDbEntity
  8
0
100
AcDbVertex
100
AcDb2dVertex
 10
16.389243197278912
 20
40.39912840136054
 30
0.0
 70
0
  0
VERTEX
  5
281
330
201
100
AcDbEntity
  8
0
100
AcDbVertex
100
AcDb2dVertex
 10
15.505952380952381
 20
39.81079931972789
 30
0.0
 70
0
  0
VERTEX
  5
282
330
201
100
AcDbEntity
  8
0
100
AcDbVertex
100
AcDb2dVertex
 10
14.646045918367347
 20
39.17889030612245
 30
0.0
 70
0
  0
VERTEX
  5
283
330
201
100
AcDbEntity
  8
0
100
AcDbVertex
100
AcDb2dVertex
 10
13.809523809523812
 20
38.50340136054422
 30
0.0
 70
0
  0
VERTEX
  5
284
330
201
100
AcDbEntity
  8
0
100
AcDbVertex
100
AcDb2dVertex
 10
13.002232142857146
 20
37.7891156462585
 30
0.0
 70
0
  0
VERTEX
  5
285
330
201
100
AcDbEntity
  8
0
100
AcDbVertex
100
AcDb2dVertex
 10
12.247023809523812
 20
37.0578231292517
 30
0.0
 70
0
  0
VERTEX
  5
286
330
201
100
AcDbEntity
  8
0
100
AcDbVertex
100
AcDb2dVertex
 10
11.543898809523812
 20
36.30952380952381
 30
0.0
 70
0
  0
VERTEX
  5
287
330
201
100
AcDbEntity
  8
0
100
AcDbVertex
100
AcDb2dVertex
 10
10.892857142857146
 20
35.544217687074834
 30
0.0
 70
0
  0
VERTEX
  5
288
330
201
100
AcDbEntity
  8
0
100
AcDbVertex
100
AcDb2dVertex
 10
10.29389880952381
 20
34.761904761904766
 30
0.0
 70
0
  0
VERTEX
  5
289
330
201
100
AcDbEntity
  8
0
100
AcDbVertex
100
AcDb2dVertex
 10
9.74702380952381
 20
33.96258503401361
 30
0.0
 70
0
  0
VERTEX
  5
28A
330
201
100
AcDbEntity
  8
0
100
AcDbVertex
100
AcDb2dVertex
 10
9.252232142857146
 20
33.14625850340136
 30
0.0
 70
0
  0
VERTEX
  5
28B
330
201
100
AcDbEntity
  8
0
100
AcDbVertex
100
AcDb2dVertex
 10
8.80952380952381
 20
32.31292517006803
 30
0.0
 70
0
  0
VERTEX
  5
28C
330
201
100
AcDbEntity
  8
0
100
AcDbVertex
100
AcDb2dVertex
 10
8.41889880952381
 20
31.462585034013607
 30
0.0
 70
0
  0
VERTEX
  5
28D
330
201
100
AcDbEntity
  8
0
100
AcDbVertex
100
AcDb2dVertex
 10
8.080357142857144
 20
30.595238095238095
 30
0.0
 70
0
  0
VERTEX
  5
28E
330
201
100
AcDbEntity
  8
0
100
AcDbVertex
100
AcDb2dVertex
 10
7.793898809523811
 20
29.7108843537415
 30
0.0
 70
0
  0
VERTEX
  5
28F
330
201
100
AcDbEntity
  8
0
100
AcDbVertex
100
AcDb2dVertex
 10
7.559523809523811
 20
28.80952380952381
 30
0.0
 70
0
  0
VERTEX
  5
290
330
201
100
AcDbEntity
  8
0
100
AcDbVertex
100
AcDb2dVertex
 10
7.377232142857144
 20
27.891156462585037
 30
0.0
 70
0
  0
VERTEX
  5
291
330
201
100
AcDbEntity
  8
0
100
AcDbVertex
100
AcDb2dVertex
 10
7.247023809523811
 20
26.955782312925173
 30
0.0
 70
0
  0
VERTEX
  5
292
330
201
100
AcDbEntity
  8
0
100
AcDbVertex
100
AcDb2dVertex
 10
7.168898809523811
 20
26.003401360544217
 30
0.0
 70
0
  0
VERTEX
  5
293
330
201
100
AcDbEntity
  8
0
100
AcDbVertex
100
AcDb2dVertex
 10
7.142857142857144
 20
25.034013605442176
 30
0.0
 70
0
  0
VERTEX
  5
294
330
201
100
AcDbEntity
  8
0
100
AcDbVertex
100
AcDb2dVertex
 10
7.168898809523811
 20
24.064625850340136
 30
0.0
 70
0
  0
VERTEX
  5
295
330
201
100
AcDbEntity
  8
0
100
AcDbVertex
100
AcDb2dVertex
 10
7.247023809523811
 20
23.112244897959183
 30
0.0
 70
0
  0
VERTEX
  5
296
330
201
100
AcDbEntity
  8
0
100
AcDbVertex
100
AcDb2dVertex
 10
7.377232142857144
 20
22.17687074829932
 30
0.0
 70
0
  0
VERTEX
  5
297
330
201
100
AcDbEntity
  8
0
100
AcDbVertex
100
AcDb2dVertex
 10
7.559523809523811
 20
21.258503401360546
 30
0.0
 70
0
  0
VERTEX
  5
298
330
201
100
AcDbEntity
  8
0
100
AcDbVertex
100
AcDb2dVertex
 10
7.793898809523811
 20
20.357142857142858
 30
0.0
 70
0
  0
VERTEX
  5
299
330
201
100
AcDbEntity
  8
0
100
AcDbVertex
100
AcDb2dVertex
 10
8.080357142857144
 20
19.472789115646258
 30
0.0
 70
0
  0
VERTEX
  5
29A
330
201
100
AcDbEntity
  8
0
100
AcDbVertex
100
AcDb2dVertex
 10
8.41889880952381
 20
18.60544217687075
 30
0.0
 70
0
  0
VERTEX
  5
29B
330
201
100
AcDbEntity
  8
0
100
AcDbVertex
100
AcDb2dVertex
 10
8.80952380952381
 20
17.755102040816325
 30
0.0
 70
0
  0
VERTEX
  5
29C
330
201
100
AcDbEntity
  8
0
100
AcDbVertex
100
AcDb2dVertex
 10
9.252232142857144
 20
16.921768707482997
 30
0.0
 70
0
  0
VERTEX
  5
29D
330
201
100
AcDbEntity
  8
0
100
AcDbVertex
100
AcDb2dVertex
 10
9.74702380952381
 20
16.10544217687075
 30
0.0
 70
0
  0
VERTEX
  5
29E
330
201
100
AcDbEntity
  8
0
100
AcDbVertex
100
AcDb2dVertex
 10
10.293898809523812
 20
15.306122448979593
 30
0.0
 70
0
  0
VERTEX
  5
29F
330
201
100
AcDbEntity
  8
0
100
AcDbVertex
100
AcDb2dVertex
 10
10.892857142857146
 20
14.523809523809526
 30
0.0
 70
0
  0
VERTEX
  5
2A0
330
201
100
AcDbEntity
  8
0
100
AcDbVertex
100
AcDb2dVertex
 10
11.543898809523812
 20
13.758503401360546
 30
0.0
 70
0
  0
VERTEX
  5
2A1
330
201
100
AcDbEntity
  8
0
100
AcDbVertex
100
AcDb2dVertex
 10
12.247023809523812
 20
13.010204081632654
 30
0.0
 70
0
  0
VERTEX
  5
2A2
330
201
100
AcDbEntity
  8
0
100
AcDbVertex
100
AcDb2dVertex
 10
13.002232142857146
 20
12.27891156462585
 30
0.0
 70
0
  0
VERTEX
  5
2A3
330
201
100
AcDbEntity
  8
0
100
AcDbVertex
100
AcDb2dVertex
 10
13.809523809523812
 20
11.564625850340137
 30
0.0
 70
0
  0
VERTEX
  5
2A4
330
201
100
AcDbEntity
  8
0
100
AcDbVertex
100
AcDb2dVertex
 10
14.64604591836735
 20
10.889136904761905
 30
0.0
 70
0
  0
VERTEX
  5
2A5
330
201
100
AcDbEntity
  8
0
100
AcDbVertex
100
AcDb2dVertex
 10
15.505952380952383
 20
10.257227891156464
 30
0.0
 70
0
  0
VERTEX
  5
2A6
330
201
100
AcDbEntity
  8
0
100
AcDbVertex
100
AcDb2dVertex
 10
16.389243197278912
 20
9.66889880952381
 30
0.0
 70
0
  0
VERTEX
  5
2A7
330
201
100
AcDbEntity
  8
0
100
AcDbVertex
100
AcDb2dVertex
 10
17.29591836734694
 20
9.124149659863946
 30
0.0
 70
0
  0
VERTEX
  5
2A8
330
201
100
AcDbEntity
  8
0
100
AcDbVertex
100
AcDb2dVertex
 10
18.225977891156464
 20
8.622980442176871
 30
0.0
 70
0
  0
VERTEX
  5
2A9
330
201
100
AcDbEntity
  8
0
100
AcDbVertex
100
AcDb2dVertex
 10
19.179421768707485
 20
8.165391156462587
 30
0.0
 70
0
  0
VERTEX
  5
2AA
330
201
100
AcDbEntity
  8
0
100
AcDbVertex
100
AcDb2dVertex
 10
20.156250000000004
 20
7.75138180272109
 30
0.0
 70
0
  0
VERTEX
  5
2AB
330
201
100
AcDbEntity
  8
0
100
AcDbVertex
100
AcDb2dVertex
 10
21.156462585034017
 20
7.380952380952382
 30
0.0
 70
0
  0
VERTEX
  5
2AC
330
201
100
AcDbEntity
  8
0
100
AcDbVertex
100
AcDb2dVertex
 10
22.180059523809526
 20
7.054102891156464
 30
0.0
 70
0
  0
VERTEX
  5
2AD
330
201
100
AcDbEntity
  8
0
100
AcDbVertex
100
AcDb2dVertex
 10
23.227040816326536
 20
6.770833333333335
 30
0.0
 70
0
  0
VERTEX
  5
2AE
330
201
100
AcDbEntity
  8
0
100
AcDbVertex
100
AcDb2dVertex
 10
24.297406462585037
 20
6.531143707482995
 30
0.0
 70
0
  0
VERTEX
  5
2AF
330
201
100
AcDbEntity
  8
0
100
AcDbVertex
100
AcDb2dVertex
 10
25.391156462585037
 20
6.335034013605443
 30
0.0
 70
0
  0
VERTEX
  5
2B0
330
201
100
AcDbEntity
  8
0
100
AcDbVertex
100
AcDb2dVertex
 10
26.508290816326536
 20
6.182504251700681
 30
0.0
 70
0
  0
VERTEX
  5
2B1
330
201
100
AcDbEntity
  8
0
100
AcDbVertex
100
AcDb2dVertex
 10
27.648809523809533
 20
6.0735544217687085
 30
0.0
 70
0
  0
VERTEX
  5
2B2
330
201
100
AcDbEntity
  8
0
100
AcDbVertex
100
AcDb2dVertex
 10
28.81271258503402
 20
6.0081845238095255
 30
0.0
 70
0
  0
VERTEX
  5
2B3
330
201
100
AcDbEntity
  8
0
100
AcDbVertex
100
AcDb2dVertex
 10
30.000000000000007
 20
5.986394557823131
 30
0.0
 70
0
  0
VERTEX
  5
2B4
330
201
100
AcDbEntity
  8
0
100
AcDbVertex
100
AcDb2dVertex
 10
31.1389243197279
 20
6.007653061224491
 30
0.0
 70
0
  0
VERTEX
  5
2B5
330
201
100
AcDbEntity
  8
0
100
AcDbVertex
100
AcDb2dVertex
 10
32.25977891156463
 20
6.071428571428573
 30
0.0
 70
0
  0
VERTEX
  5
2B6
330
201
100
AcDbEntity
  8
0
100
AcDbVertex
100
AcDb2dVertex
 10
33.36256377551021
 20
6.1777210884353755
 30
0.0
 70
0
  0
VERTEX
  5
2B7
330
201
100
AcDbEntity
  8
0
100
AcDbVertex
100
AcDb2dVertex
 10
34.44727891156463
 20
6.326530612244899
 30
0.0
 70
0
  0
VERTEX
  5
2B8
330
201
100
AcDbEntity
  8
0
100
AcDbVertex
100
AcDb2dVertex
 10
35.5139243197279
 20
6.517857142857144
 30
0.0
 70
0
  0
VERTEX
  5
2B9
330
201
100
AcDbEntity
  8
0
100
AcDbVertex
100
AcDb2dVertex
 10
36.56250000000001
 20
6.75170068027211
 30
0.0
 70
0
  0
VERTEX
  5
2BA
330
201
100
AcDbEntity
  8
0
100
AcDbVertex
100
AcDb2dVertex
 10
37.59300595238096
 20
7.0280612244897975
 30
0.0
 70
0
  0
VERTEX
  5
2BB
330
201
100
AcDbEntity
  8
0
100
AcDbVertex
100
AcDb2dVertex
 10
38.60544217687075
 20
7.346938775510205
 30
0.0
 70
0
  0
VERTEX
  5
2BC
330
201
100
AcDbEntity
  8
0
100
AcDbVertex
100
AcDb2dVertex
 10
39.5998086734694
 20
7.708333333333335
 30
0.0
 70
0
  0
VERTEX
  5
2BD
330
201
100
AcDbEntity
  8
0
100
AcDbVertex
100
AcDb2dVertex
 10
40.57610544217688
 20
8.112244897959185
 30
0.0
 70
0
  0
VERTEX
  5
2BE
330
201
100
AcDbEntity
  8
0
100
AcDbVertex
100
AcDb2dVertex
 10
41.53433248299321
 20
8.558673469387756
 30
0.0
 70
0
  0
VERTEX
  5
2BF
330
201
100
AcDbEntity
  8
0
100
AcDbVertex
100
AcDb2dVertex
 10
42.47448979591837
 20
9.04761904761905
 30
0.0
 70
0
  0
VERTEX
  5
2C0
330
201
100
AcDbEntity
  8
0
100
AcDbVertex
100
AcDb2dVertex
 10
43.396577380952394
 20
9.579081632653063
 30
0.0
 70
0
  0
VERTEX
  5
2C1
330
201
100
AcDbEntity
  8
0
100
AcDbVertex
100
AcDb2dVertex
 10
44.30059523809525
 20
10.153061224489797
 30
0.0
 70
0
  0
VERTEX
  5
2C2
330
201
100
AcDbEntity
  8
0
100
AcDbVertex
100
AcDb2dVertex
 10
45.18654336734695
 20
10.769557823129254
 30
0.0
 70
0
  0
VERTEX
  5
2C3
330
201
100
AcDbEntity
  8
0
100
AcDbVertex
100
AcDb2dVertex
 10
46.05442176870749
 20
11.42857142857143
 30
0.0
 70
0
  0
VERTEX
  5
2C4
330
201
100
AcDbEntity
  8
0
100
AcDbVertex
100
AcDb2dVertex
 10
51.15646258503402
 20
7.346938775510205
 30
0.0
 70
0
  0
SEQEND
  5
2C5
330
201
100
AcDbEntity
  8
0
  0
ENDBLK
  5
200
330
1FE
100
AcDbEntity
  8
0
100
AcDbBlockEnd
  0
BLOCK
  5
2C9
330
2C8
100
AcDbEntity
  8
0
100
AcDbBlockBegin
  2
Y
 70
0
 10
0.0
 20
0.0
 30
0.0
  3
Y
  1

  0
POLYLINE
  5
2CB
330
2C8
100
AcDbEntity
  8
0
100
AcDb2dPolyline
 66
1
 10
0.0
 20
0.0
 30
0.0
 70
0
  0
VERTEX
  5
2CC
330
2CB
100
AcDbEntity
  8
0
100
AcDbVertex
100
AcDb2dVertex
 10
51.57142857142857
 20
50.0
 30
0.0
 70
0
  0
VERTEX
  5
2CD
330
2CB
100
AcDbEntity
  8
0
100
AcDbVertex
100
AcDb2dVertex
 10
29.57142857142857
 20
23.928571428571427
 30
0.0
 70
0
  0
VERTEX
  5
2CE
330
2CB
100
AcDbEntity
  8
0
100
AcDbVertex
100
AcDb2dVertex
 10
29.57142857142857
 20
0.0
 30
0.0
 70
0
  0
VERTEX
  5
2CF
330
2CB
100
AcDbEntity
  8
0
100
AcDbVertex
100
AcDb2dVertex
 10
22.07142857142857
 20
0.0
 30
0.0
 70
0
  0
VERTEX
  5
2D0
330
2CB
100
AcDbEntity
  8
0
100
AcDbVertex
100
AcDb2dVertex
 10
22.07142857142857
 20
23.928571428571427
 30
0.0
 70
0
  0
VERTEX
  5
2D1
330
2CB
100
AcDbEntity
  8
0
100
AcDbVertex
100
AcDb2dVertex
 10
0.0
 20
50.0
 30
0.0
 70
0
  0
VERTEX
  5
2D2
330
2CB
100
AcDbEntity
  8
0
100
AcDbVertex
100
AcDb2dVertex
 10
9.357142857142858
 20
50.0
 30
0.0
 70
0
  0
VERTEX
  5
2D3
330
2CB
100
AcDbEntity
  8
0
100
AcDbVertex
100
AcDb2dVertex
 10
25.857142857142858
 20
30.5
 30
0.0
 70
0
  0
VERTEX
  5
2D4
330
2CB
100
AcDbEntity
  8
0
100
AcDbVertex
100
AcDb2dVertex
 10
42.357142857142854
 20
50.0
 30
0.0
 70
0
  0
VERTEX
  5
2D5
330
2CB
100
AcDbEntity
  8
0
100
AcDbVertex
100
AcDb2dVertex
 10
51.57142857142857
 20
50.0
 30
0.0
 70
0
  0
SEQEND
  5
2D6
330
2CB
100
AcDbEntity
  8
0
  0
ENDBLK
  5
2CA
330
2C8
100
AcDbEntity
  8
0
100
AcDbBlockEnd
  0
BLOCK
  5
2DC
330
2DB
100
AcDbEntity
  8
0
100
AcDbBlockBegin
  2
L
 70
0
 10
0.0
 20
0.0
 30
0.0
  3
L
  1

  0
POLYLINE
  5
2DE
330
2DB
100
AcDbEntity
  8
0
100
AcDb2dPolyline
 66
1
 10
0.0
 20
0.0
 30
0.0
 70
0
  0
VERTEX
  5
2DF
330
2DE
100
AcDbEntity
  8
0
100
AcDbVertex
100
AcDb2dVertex
 10
34.5
 20
0.0
 30
0.0
 70
0
  0
VERTEX
  5
2E0
330
2DE
100
AcDbEntity
  8
0
100
AcDbVertex
100
AcDb2dVertex
 10
0.0
 20
0.0
 30
0.0
 70
0
  0
VERTEX
  5
2E1
330
2DE
100
AcDbEntity
  8
0
100
AcDbVertex
100
AcDb2dVertex
 10
0.0
 20
50.0
 30
0.0
 70
0
  0
VERTEX
  5
2E2
330
2DE
100
AcDbEntity
  8
0
100
AcDbVertex
100
AcDb2dVertex
 10
7.5
 20
50.0
 30
0.0
 70
0
  0
VERTEX
  5
2E3
330
2DE
100
AcDbEntity
  8
0
100
AcDbVertex
100
AcDb2dVertex
 10
7.5
 20
6.2142857142857135
 30
0.0
 70
0
  0
VERTEX
  5
2E4
330
2DE
100
AcDbEntity
  8
0
100
AcDbVertex
100
AcDb2dVertex
 10
34.5
 20
6.2142857142857135
 30
0.0
 70
0
  0
VERTEX
  5
2E5
330
2DE
100
AcDbEntity
  8
0
100
AcDbVertex
100
AcDb2dVertex
 10
34.5
 20
0.0
 30
0.0
 70
0
  0
SEQEND
  5
2E6
330
2DE
100
AcDbEntity
  8
0
  0
ENDBLK
  5
2DD
330
2DB
100
AcDbEntity
  8
0
100
AcDbBlockEnd
  0
BLOCK
  5
2EA
330
2E9
100
AcDbEntity
  8
0
100
AcDbBlockBegin
  2
I
 70
0
 10
0.0
 20
0.0
 30
0.0
  3
I
  1

  0
POLYLINE
  5
2EC
330
2E9
100
AcDbEntity
  8
0
100
AcDb2dPolyline
 66
1
 10
0.0
 20
0.0
 30
0.0
 70
0
  0
VERTEX
  5
2ED
330
2EC
100
AcDbEntity
  8
0
100
AcDbVertex
100
AcDb2dVertex
 10
7.5
 20
0.0
 30
0.0
 70
0
  0
VERTEX
  5
2EE
330
2EC
100
AcDbEntity
  8
0
100
AcDbVertex
100
AcDb2dVertex
 10
0.0
 20
0.0
 30
0.0
 70
0
  0
VERTEX
  5
2EF
330
2EC
100
AcDbEntity
  8
0
100
AcDbVertex
100
AcDb2dVertex
 10
0.0
 20
50.0
 30
0.0
 70
0
  0
VERTEX
  5
2F0
330
2EC
100
AcDbEntity
  8
0
100
AcDbVertex
100
AcDb2dVertex
 10
7.5
 20
50.0
 30
0.0
 70
0
  0
VERTEX
  5
2F1
330
2EC
100
AcDbEntity
  8
0
100
AcDbVertex
100
AcDb2dVertex
 10
7.5
 20
0.0
 30
0.0
 70
0
  0
SEQEND
  5
2F2
330
2EC
100
AcDbEntity
  8
0
  0
ENDBLK
  5
2EB
330
2E9
100
AcDbEntity
  8
0
100
AcDbBlockEnd
  0
BLOCK
  5
2F6
330
2F5
100
AcDbEntity
  8
0
100
AcDbBlockBegin
  2
N
 70
0
 10
0.0
 20
0.0
 30
0.0
  3
N
  1

  0
POLYLINE
  5
2F8
330
2F5
100
AcDbEntity
  8
0
100
AcDb2dPolyline
 66
1
 10
0.0
 20
0.0
 30
0.0
 70
0
  0
VERTEX
  5
2F9
330
2F8
100
AcDbEntity
  8
0
100
AcDbVertex
100
AcDb2dVertex
 10
48.0
 20
0.0
 30
0.0
 70
0
  0
VERTEX
  5
2FA
330
2F8
100
AcDbEntity
  8
0
100
AcDbVertex
100
AcDb2dVertex
 10
40.5
 20
0.0
 30
0.0
 70
0
  0
VERTEX
  5
2FB
330
2F8
100
AcDbEntity
  8
0
100
AcDbVertex
100
AcDb2dVertex
 10
7.5
 20
38.714285714285715
 30
0.0
 70
0
  0
VERTEX
  5
2FC
330
2F8
100
AcDbEntity
  8
0
100
AcDbVertex
100
AcDb2dVertex
 10
7.5
 20
0.0
 30
0.0
 70
0
  0
VERTEX
  5
2FD
330
2F8
100
AcDbEntity
  8
0
100
AcDbVertex
100
AcDb2dVertex
 10
0.0
 20
0.0
 30
0.0
 70
0
  0
VERTEX
  5
2FE
330
2F8
100
AcDbEntity
  8
0
100
AcDbVertex
100
AcDb2dVertex
 10
0.0
 20
50.0
 30
0.0
 70
0
  0
VERTEX
  5
2FF
330
2F8
100
AcDbEntity
  8
0
100
AcDbVertex
100
AcDb2dVertex
 10
7.5
 20
50.0
 30
0.0
 70
0
  0
VERTEX
  5
300
330
2F8
100
AcDbEntity
  8
0
100
AcDbVertex
100
AcDb2dVertex
 10
40.5
 20
11.214285714285714
 30
0.0
 70
0
  0
VERTEX
  5
301
330
2F8
100
AcDbEntity
  8
0
100
AcDbVertex
100
AcDb2dVertex
 10
40.5
 20
50.0
 30
0.0
 70
0
  0
VERTEX
  5
302
330
2F8
100
AcDbEntity
  8
0
100
AcDbVertex
100
AcDb2dVertex
 10
48.0
 20
50.0
 30
0.0
 70
0
  0
VERTEX
  5
303
330
2F8
100
AcDbEntity
  8
0
100
AcDbVertex
100
AcDb2dVertex
 10
48.0
 20
0.0
 30
0.0
 70
0
  0
SEQEND
  5
304
330
2F8
100
AcDbEntity
  8
0
  0
ENDBLK
  5
2F7
330
2F5
100
AcDbEntity
  8
0
100
AcDbBlockEnd
  0
BLOCK
  5
308
330
307
100
AcDbEntity
  8
0
100
AcDbBlockBegin
  2
G
 70
0
 10
0.0
 20
0.0
 30
0.0
  3
G
  1

  0
POLYLINE
  5
30A
330
307
100
AcDbEntity
  8
0
100
AcDb2dPolyline
 66
1
 10
0.0
 20
0.0
 30
0.0
 70
0
  0
VERTEX
  5
30B
330
30A
100
AcDbEntity
  8
0
100
AcDbVertex
100
AcDb2dVertex
 10
55.03401360544218
 20
11.292517006802722
 30
0.0
 70
0
  0
VERTEX
  5
30C
330
30A
100
AcDbEntity
  8
0
100
AcDbVertex
100
AcDb2dVertex
 10
54.51211734693878
 20
10.63828656462585
 30
0.0
 70
0
  0
VERTEX
  5
30D
330
30A
100
AcDbEntity
  8
0
100
AcDbVertex
100
AcDb2dVertex
 10
53.966836734693885
 20
10.002125850340137
 30
0.0
 70
0
  0
VERTEX
  5
30E
330
30A
100
AcDbEntity
  8
0
100
AcDbVertex
100
AcDb2dVertex
 10
53.39817176870749
 20
9.38403486394558
 30
0.0
 70
0
  0
VERTEX
  5
30F
330
30A
100
AcDbEntity
  8
0
100
AcDbVertex
100
AcDb2dVertex
 10
52.8061224489796
 20
8.784013605442178
 30
0.0
 70
0
  0
VERTEX
  5
310
330
30A
100
AcDbEntity
  8
0
100
AcDbVertex
100
AcDb2dVertex
 10
52.19068877551021
 20
8.202062074829932
 30
0.0
 70
0
  0
VERTEX
  5
311
330
30A
100
AcDbEntity
  8
0
100
AcDbVertex
100
AcDb2dVertex
 10
51.55187074829932
 20
7.638180272108844
 30
0.0
 70
0
  0
VERTEX
  5
312
330
30A
100
AcDbEntity
  8
0
100
AcDbVertex
100
AcDb2dVertex
 10
50.88966836734694
 20
7.092368197278913
 30
0.0
 70
0
  0
VERTEX
  5
313
330
30A
100
AcDbEntity
  8
0
100
AcDbVertex
100
AcDb2dVertex
 10
50.204081632653065
 20
6.564625850340137
 30
0.0
 70
0
  0
VERTEX
  5
314
330
30A
100
AcDbEntity
  8
0
100
AcDbVertex
100
AcDb2dVertex
 10
49.499362244897966
 20
6.055484693877553
 30
0.0
 70
0
  0
VERTEX
  5
315
330
30A
100
AcDbEntity
  8
0
100
AcDbVertex
100
AcDb2dVertex
 10
48.77976190476191
 20
5.565476190476192
 30
0.0
 70
0
  0
VERTEX
  5
316
330
30A
100
AcDbEntity
  8
0
100
AcDbVertex
100
AcDb2dVertex
 10
48.0452806122449
 20
5.094600340136055
 30
0.0
 70
0
  0
VERTEX
  5
317
330
30A
100
AcDbEntity
  8
0
100
AcDbVertex
100
AcDb2dVertex
 10
47.29591836734694
 20
4.642857142857143
 30
0.0
 70
0
  0
VERTEX
  5
318
330
30A
100
AcDbEntity
  8
0
100
AcDbVertex
100
AcDb2dVertex
 10
46.531675170068034
 20
4.210246598639456
 30
0.0
 70
0
  0
VERTEX
  5
319
330
30A
100
AcDbEntity
  8
0
100
AcDbVertex
100
AcDb2dVertex
 10
45.75255102040817
 20
3.7967687074829937
 30
0.0
 70
0
  0
VERTEX
  5
31A
330
30A
100
AcDbEntity
  8
0
100
AcDbVertex
100
AcDb2dVertex
 10
44.958545918367356
 20
3.402423469387755
 30
0.0
 70
0
  0
VERTEX
  5
31B
330
30A
100
AcDbEntity
  8
0
100
AcDbVertex
100
AcDb2dVertex
 10
44.14965986394559
 20
3.0272108843537415
 30
0.0
 70
0
  0
VERTEX
  5
31C
330
30A
100
AcDbEntity
  8
0
100
AcDbVertex
100
AcDb2dVertex
 10
43.328018707483004
 20
2.6721938775510203
 30
0.0
 70
0
  0
VERTEX
  5
31D
330
30A
100
AcDbEntity
  8
0
100
AcDbVertex
100
AcDb2dVertex
 10
42.495748299319736
 20
2.3384353741496597
 30
0.0
 70
0
  0
VERTEX
  5
31E
330
30A
100
AcDbEntity
  8
0
100
AcDbVertex
100
AcDb2dVertex
 10
41.65284863945579
 20
2.02593537414966
 30
0.0
 70
0
  0
VERTEX
  5
31F
330
30A
100
AcDbEntity
  8
0
100
AcDbVertex
100
AcDb2dVertex
 10
40.79931972789116
 20
1.7346938775510203
 30
0.0
 70
0
  0
VERTEX
  5
320
330
30A
100
AcDbEntity
  8
0
100
AcDbVertex
100
AcDb2dVertex
 10
39.93516156462586
 20
1.4647108843537415
 30
0.0
 70
0
  0
VERTEX
  5
321
330
30A
100
AcDbEntity
  8
0
100
AcDbVertex
100
AcDb2dVertex
 10
39.06037414965987
 20
1.2159863945578229
 30
0.0
 70
0
  0
VERTEX
  5
322
330
30A
100
AcDbEntity
  8
0
100
AcDbVertex
100
AcDb2dVertex
 10
38.17495748299321
 20
0.9885204081632653
 30
0.0
 70
0
  0
VERTEX
  5
323
330
30A
100
AcDbEntity
  8
0
100
AcDbVertex
100
AcDb2dVertex
 10
37.27891156462586
 20
0.782312925170068
 30
0.0
 70
0
  0
VERTEX
  5
324
330
30A
100
AcDbEntity
  8
0
100
AcDbVertex
100
AcDb2dVertex
 10
36.3764880952381
 20
0.5989583333333333
 30
0.0
 70
0
  0
VERTEX
  5
325
330
30A
100
AcDbEntity
  8
0
100
AcDbVertex
100
AcDb2dVertex
 10
35.47193877551021
 20
0.44005102040816324
 30
0.0
 70
0
  0
VERTEX
  5
326
330
30A
100
AcDbEntity
  8
0
100
AcDbVertex
100
AcDb2dVertex
 10
34.56526360544218
 20
0.3055909863945578
 30
0.0
 70
0
  0
VERTEX
  5
327
330
30A
100
AcDbEntity
  8
0
100
AcDbVertex
100
AcDb2dVertex
 10
33.65646258503402
 20
0.19557823129251695
 30
0.0
 70
0
  0
VERTEX
  5
328
330
30A
100
AcDbEntity
  8
0
100
AcDbVertex
100
AcDb2dVertex
 10
32.74553571428572
 20
0.11001275510204078
 30
0.0
 70
0
  0
VERTEX
  5
329
330
30A
100
AcDbEntity
  8
0
100
AcDbVertex
100
AcDb2dVertex
 10
31.832482993197285
 20
0.04889455782312924
 30
0.0
 70
0
  0
VERTEX
  5
32A
330
30A
100
AcDbEntity
  8
0
100
AcDbVertex
100
AcDb2dVertex
 10
30.917304421768712
 20
0.01222363945578231
 30
0.0
 70
0
  0
VERTEX
  5
32B
330
30A
100
AcDbEntity
  8
0
100
AcDbVertex
100
AcDb2dVertex
 10
30.000000000000007
 20
0.0
 30
0.0
 70
0
  0
VERTEX
  5
32C
330
30A
100
AcDbEntity
  8
0
100
AcDbVertex
100
AcDb2dVertex
 10
28.473905187074838
 20
0.02869897959183674
 30
0.0
 70
0
  0
VERTEX
  5
32D
330
30A
100
AcDbEntity
  8
0
100
AcDbVertex
100
AcDb2dVertex
 10
26.973852040816332
 20
0.11479591836734696
 30
0.0
 70
0
  0
VERTEX
  5
32E
330
30A
100
AcDbEntity
  8
0
100
AcDbVertex
100
AcDb2dVertex
 10
25.499840561224495
 20
0.25829081632653067
 30
0.0
 70
0
  0
VERTEX
  5
32F
330
30A
100
AcDbEntity
  8
0
100
AcDbVertex
100
AcDb2dVertex
 10
24.051870748299322
 20
0.4591836734693878
 30
0.0
 70
0
  0
VERTEX
  5
330
330
30A
100
AcDbEntity
  8
0
100
AcDbVertex
100
AcDb2dVertex
 10
22.62994260204082
 20
0.7174744897959184
 30
0.0
 70
0
  0
VERTEX
  5
331
330
30A
100
AcDbEntity
  8
0
100
AcDbVertex
100
AcDb2dVertex
 10
21.234056122448983
 20
1.0331632653061227
 30
0.0
 70
0
  0
VERTEX
  5
332
330
30A
100
AcDbEntity
  8
0
100
AcDbVertex
100
AcDb2dVertex
 10
19.86421130952381
 20
1.4062500000000002
 30
0.0
 70
0
  0
VERTEX
  5
333
330
30A
100
AcDbEntity
  8
0
100
AcDbVertex
100
AcDb2dVertex
 10
18.52040816326531
 20
1.8367346938775513
 30
0.0
 70
0
  0
VERTEX
  5
334
330
30A
100
AcDbEntity
  8
0
100
AcDbVertex
100
AcDb2dVertex
 10
17.20264668367347
 20
2.324617346938776
 30
0.0
 70
0
  0
VERTEX
  5
335
330
30A
100
AcDbEntity
  8
0
100
AcDbVertex
100
AcDb2dVertex
 10
15.910926870748302
 20
2.8698979591836737
 30
0.0
 70
0
  0
VERTEX
  5
336
330
30A
100
AcDbEntity
  8
0
100
AcDbVertex
100
AcDb2dVertex
 10
14.645248724489798
 20
3.4725765306122454
 30
0.0
 70
0
  0
VERTEX
  5
337
330
30A
100
AcDbEntity
  8
0
100
AcDbVertex
100
AcDb2dVertex
 10
13.40561224489796
 20
4.132653061224491
 30
0.0
 70
0
  0
VERTEX
  5
338
330
30A
100
AcDbEntity
  8
0
100
AcDbVertex
100
AcDb2dVertex
 10
12.19201743197279
 20
4.8501275510204085
 30
0.0
 70
0
  0
VERTEX
  5
339
330
30A
100
AcDbEntity
  8
0
100
AcDbVertex
100
AcDb2dVertex
 10
11.004464285714288
 20
5.625000000000001
 30
0.0
 70
0
  0
VERTEX
  5
33A
330
30A
100
AcDbEntity
  8
0
100
AcDbVertex
100
AcDb2dVertex
 10
9.842952806122451
 20
6.457270408163266
 30
0.0
 70
0
  0
VERTEX
  5
33B
330
30A
100
AcDbEntity
  8
0
100
AcDbVertex
100
AcDb2dVertex
 10
8.70748299319728
 20
7.346938775510205
 30
0.0
 70
0
  0
VERTEX
  5
33C
330
30A
100
AcDbEntity
  8
0
100
AcDbVertex
100
AcDb2dVertex
 10
7.653061224489797
 20
8.29294217687075
 30
0.0
 70
0
  0
VERTEX
  5
33D
330
30A
100
AcDbEntity
  8
0
100
AcDbVertex
100
AcDb2dVertex
 10
6.666666666666668
 20
9.260204081632654
 30
0.0
 70
0
  0
VERTEX
  5
33E
330
30A
100
AcDbEntity
  8
0
100
AcDbVertex
100
AcDb2dVertex
 10
5.7482993197278915
 20
10.248724489795919
 30
0.0
 70
0
  0
VERTEX
  5
33F
330
30A
100
AcDbEntity
  8
0
100
AcDbVertex
100
AcDb2dVertex
 10
4.8979591836734695
 20
11.258503401360546
 30
0.0
 70
0
  0
VERTEX
  5
340
330
30A
100
AcDbEntity
  8
0
100
AcDbVertex
100
AcDb2dVertex
 10
4.115646258503402
 20
12.289540816326532
 30
0.0
 70
0
  0
VERTEX
  5
341
330
30A
100
AcDbEntity
  8
0
100
AcDbVertex
100
AcDb2dVertex
 10
3.4013605442176873
 20
13.341836734693878
 30
0.0
 70
0
  0
VERTEX
  5
342
330
30A
100
AcDbEntity
  8
0
100
AcDbVertex
100
AcDb2dVertex
 10
2.7551020408163263
 20
14.415391156462587
 30
0.0
 70
0
  0
VERTEX
  5
343
330
30A
100
AcDbEntity
  8
0
100
AcDbVertex
100
AcDb2dVertex
 10
2.1768707482993204
 20
15.510204081632654
 30
0.0
 70
0
  0
VERTEX
  5
344
330
30A
100
AcDbEntity
  8
0
100
AcDbVertex
100
AcDb2dVertex
 10
1.666666666666666
 20
16.62627551020408
 30
0.0
 70
0
  0
VERTEX
  5
345
330
30A
100
AcDbEntity
  8
0
100
AcDbVertex
100
AcDb2dVertex
 10
1.2244897959183678
 20
17.76360544217687
 30
0.0
 70
0
  0
VERTEX
  5
346
330
30A
100
AcDbEntity
  8
0
100
AcDbVertex
100
AcDb2dVertex
 10
0.850340136054422
 20
18.922193877551024
 30
0.0
 70
0
  0
VERTEX
  5
347
330
30A
100
AcDbEntity
  8
0
100
AcDbVertex
100
AcDb2dVertex
 10
0.5442176870748305
 20
20.102040816326532
 30
0.0
 70
0
  0
VERTEX
  5
348
330
30A
100
AcDbEntity
  8
0
100
AcDbVertex
100
AcDb2dVertex
 10
0.3061224489795915
 20
21.303146258503403
 30
0.0
 70
0
  0
VERTEX
  5
349
330
30A
100
AcDbEntity
  8
0
100
AcDbVertex
100
AcDb2dVertex
 10
0.13605442176870675
 20
22.525510204081634
 30
0.0
 70
0
  0
VERTEX
  5
34A
330
30A
100
AcDbEntity
  8
0
100
AcDbVertex
100
AcDb2dVertex
 10
0.03401360544217624
 20
23.769132653061227
 30
0.0
 70
0
  0
VERTEX
  5
34B
330
30A
100
AcDbEntity
  8
0
100
AcDbVertex
100
AcDb2dVertex
 10
0.0
 20
25.034013605442176
 30
0.0
 70
0
  0
VERTEX
  5
34C
330
30A
100
AcDbEntity
  8
0
100
AcDbVertex
100
AcDb2dVertex
 10
0.034013605442176874
 20
26.314572704081634
 30
0.0
 70
0
  0
VERTEX
  5
34D
330
30A
100
AcDbEntity
  8
0
100
AcDbVertex
100
AcDb2dVertex
 10
0.1360544217687075
 20
27.571215986394556
 30
0.0
 70
0
  0
VERTEX
  5
34E
330
30A
100
AcDbEntity
  8
0
100
AcDbVertex
100
AcDb2dVertex
 10
0.30612244897959184
 20
28.803943452380953
 30
0.0
 70
0
  0
VERTEX
  5
34F
330
30A
100
AcDbEntity
  8
0
100
AcDbVertex
100
AcDb2dVertex
 10
0.54421768707483
 20
30.012755102040817
 30
0.0
 70
0
  0
VERTEX
  5
350
330
30A
100
AcDbEntity
  8
0
100
AcDbVertex
100
AcDb2dVertex
 10
0.8503401360544218
 20
31.19765093537415
 30
0.0
 70
0
  0
VERTEX
  5
351
330
30A
100
AcDbEntity
  8
0
100
AcDbVertex
100
AcDb2dVertex
 10
1.2244897959183674
 20
32.35863095238095
 30
0.0
 70
0
  0
VERTEX
  5
352
330
30A
100
AcDbEntity
  8
0
100
AcDbVertex
100
AcDb2dVertex
 10
1.6666666666666667
 20
33.49569515306122
 30
0.0
 70
0
  0
VERTEX
  5
353
330
30A
100
AcDbEntity
  8
0
100
AcDbVertex
100
AcDb2dVertex
 10
2.17687074829932
 20
34.60884353741497
 30
0.0
 70
0
  0
VERTEX
  5
354
330
30A
100
AcDbEntity
  8
0
100
AcDbVertex
100
AcDb2dVertex
 10
2.7551020408163267
 20
35.698076105442176
 30
0.0
 70
0
  0
VERTEX
  5
355
330
30A
100
AcDbEntity
  8
0
100
AcDbVertex
100
AcDb2dVertex
 10
3.4013605442176873
 20
36.76339285714286
 30
0.0
 70
0
  0
VERTEX
  5
356
330
30A
100
AcDbEntity
  8
0
100
AcDbVertex
100
AcDb2dVertex
 10
4.115646258503402
 20
37.804793792517
 30
0.0
 70
0
  0
VERTEX
  5
357
330
30A
100
AcDbEntity
  8
0
100
AcDbVertex
100
AcDb2dVertex
 10
4.8979591836734695
 20
38.822278911564624
 30
0.0
 70
0
  0
VERTEX
  5
358
330
30A
100
AcDbEntity
  8
0
100
AcDbVertex
100
AcDb2dVertex
 10
5.7482993197278915
 20
39.815848214285715
 30
0.0
 70
0
  0
VERTEX
  5
359
330
30A
100
AcDbEntity
  8
0
100
AcDbVertex
100
AcDb2dVertex
 10
6.666666666666667
 20
40.78550170068027
 30
0.0
 70
0
  0
VERTEX
  5
35A
330
30A
100
AcDbEntity
  8
0
100
AcDbVertex
100
AcDb2dVertex
 10
7.653061224489797
 20
41.7312393707483
 30
0.0
 70
0
  0
VERTEX
  5
35B
330
30A
100
AcDbEntity
  8
0
100
AcDbVertex
100
AcDb2dVertex
 10
8.70748299319728
 20
42.6530612244898
 30
0.0
 70
0
  0
VERTEX
  5
35C
330
30A
100
AcDbEntity
  8
0
100
AcDbVertex
100
AcDb2dVertex
 10
9.827008928571429
 20
43.54272959183673
 30
0.0
 70
0
  0
VERTEX
  5
35D
330
30A
100
AcDbEntity
  8
0
100
AcDbVertex
100
AcDb2dVertex
 10
10.974702380952383
 20
44.375
 30
0.0
 70
0
  0
VERTEX
  5
35E
330
30A
100
AcDbEntity
  8
0
100
AcDbVertex
100
AcDb2dVertex
 10
12.150563350340137
 20
45.14987244897959
 30
0.0
 70
0
  0
VERTEX
  5
35F
330
30A
100
AcDbEntity
  8
0
100
AcDbVertex
100
AcDb2dVertex
 10
13.354591836734695
 20
45.86734693877551
 30
0.0
 70
0
  0
VERTEX
  5
360
330
30A
100
AcDbEntity
  8
0
100
AcDbVertex
100
AcDb2dVertex
 10
14.586787840136056
 20
46.527423469387756
 30
0.0
 70
0
  0
VERTEX
  5
361
330
30A
100
AcDbEntity
  8
0
100
AcDbVertex
100
AcDb2dVertex
 10
15.84715136054422
 20
47.130102040816325
 30
0.0
 70
0
  0
VERTEX
  5
362
330
30A
100
AcDbEntity
  8
0
100
AcDbVertex
100
AcDb2dVertex
 10
17.135682397959187
 20
47.67538265306123
 30
0.0
 70
0
  0
VERTEX
  5
363
330
30A
100
AcDbEntity
  8
0
100
AcDbVertex
100
AcDb2dVertex
 10
18.452380952380956
 20
48.16326530612245
 30
0.0
 70
0
  0
VERTEX
  5
364
330
30A
100
AcDbEntity
  8
0
100
AcDbVertex
100
AcDb2dVertex
 10
19.797247023809526
 20
48.59375
 30
0.0
 70
0
  0
VERTEX
  5
365
330
30A
100
AcDbEntity
  8
0
100
AcDbVertex
100
AcDb2dVertex
 10
21.170280612244902
 20
48.96683673469388
 30
0.0
 70
0
  0
VERTEX
  5
366
330
30A
100
AcDbEntity
  8
0
100
AcDbVertex
100
AcDb2dVertex
 10
22.571481717687078
 20
49.28252551020408
 30
0.0
 70
0
  0
VERTEX
  5
367
330
30A
100
AcDbEntity
  8
0
100
AcDbVertex
100
AcDb2dVertex
 10
24.00085034013606
 20
49.54081632653061
 30
0.0
 70
0
  0
VERTEX
  5
368
330
30A
100
AcDbEntity
  8
0
100
AcDbVertex
100
AcDb2dVertex
 10
25.458386479591844
 20
49.74170918367347
 30
0.0
 70
0
  0
VERTEX
  5
369
330
30A
100
AcDbEntity
  8
0
100
AcDbVertex
100
AcDb2dVertex
 10
26.944090136054427
 20
49.88520408163265
 30
0.0
 70
0
  0
VERTEX
  5
36A
330
30A
100
AcDbEntity
  8
0
100
AcDbVertex
100
AcDb2dVertex
 10
28.457961309523817
 20
49.97130102040816
 30
0.0
 70
0
  0
VERTEX
  5
36B
330
30A
100
AcDbEntity
  8
0
100
AcDbVertex
100
AcDb2dVertex
 10
30.000000000000007
 20
50.0
 30
0.0
 70
0
  0
VERTEX
  5
36C
330
30A
100
AcDbEntity
  8
0
100
AcDbVertex
100
AcDb2dVertex
 10
30.897773171768716
 20
49.989769345238095
 30
0.0
 70
0
  0
VERTEX
  5
36D
330
30A
100
AcDbEntity
  8
0
100
AcDbVertex
100
AcDb2dVertex
 10
31.78837159863946
 20
49.95907738095238
 30
0.0
 70
0
  0
VERTEX
  5
36E
330
30A
100
AcDbEntity
  8
0
100
AcDbVertex
100
AcDb2dVertex
 10
32.67179528061225
 20
49.907924107142854
 30
0.0
 70
0
  0
VERTEX
  5
36F
330
30A
100
AcDbEntity
  8
0
100
AcDbVertex
100
AcDb2dVertex
 10
33.54804421768708
 20
49.836309523809526
 30
0.0
 70
0
  0
VERTEX
  5
370
330
30A
100
AcDbEntity
  8
0
100
AcDbVertex
100
AcDb2dVertex
 10
34.41711840986395
 20
49.74423363095238
 30
0.0
 70
0
  0
VERTEX
  5
371
330
30A
100
AcDbEntity
  8
0
100
AcDbVertex
100
AcDb2dVertex
 10
35.27901785714286
 20
49.63169642857143
 30
0.0
 70
0
  0
VERTEX
  5
372
330
30A
100
AcDbEntity
  8
0
100
AcDbVertex
100
AcDb2dVertex
 10
36.13374255952381
 20
49.498697916666664
 30
0.0
 70
0
  0
VERTEX
  5
373
330
30A
100
AcDbEntity
  8
0
100
AcDbVertex
100
AcDb2dVertex
 10
36.98129251700681
 20
49.345238095238095
 30
0.0
 70
0
  0
VERTEX
  5
374
330
30A
100
AcDbEntity
  8
0
100
AcDbVertex
100
AcDb2dVertex
 10
37.82166772959184
 20
49.171316964285715
 30
0.0
 70
0
  0
VERTEX
  5
375
330
30A
100
AcDbEntity
  8
0
100
AcDbVertex
100
AcDb2dVertex
 10
38.654868197278915
 20
48.976934523809526
 30
0.0
 70
0
  0
VERTEX
  5
376
330
30A
100
AcDbEntity
  8
0
100
AcDbVertex
100
AcDb2dVertex
 10
39.48089392006803
 20
48.762090773809526
 30
0.0
 70
0
  0
VERTEX
  5
377
330
30A
100
AcDbEntity
  8
0
100
AcDbVertex
100
AcDb2dVertex
 10
40.29974489795919
 20
48.526785714285715
 30
0.0
 70
0
  0
VERTEX
  5
378
330
30A
100
AcDbEntity
  8
0
100
AcDbVertex
100
AcDb2dVertex
 10
41.11142113095239
 20
48.2710193452381
 30
0.0
 70
0
  0
VERTEX
  5
379
330
30A
100
AcDbEntity
  8
0
100
AcDbVertex
100
AcDb2dVertex
 10
41.91592261904762
 20
47.99479166666667
 30
0.0
 70
0
  0
VERTEX
  5
37A
330
30A
100
AcDbEntity
  8
0
100
AcDbVertex
100
AcDb2dVertex
 10
42.7132493622449
 20
47.69810267857143
 30
0.0
 70
0
  0
VERTEX
  5
37B
330
30A
100
AcDbEntity
  8
0
100
AcDbVertex
100
AcDb2dVertex
 10
43.503401360544224
 20
47.38095238095239
 30
0.0
 70
0
  0
VERTEX
  5
37C
330
30A
100
AcDbEntity
  8
0
100
AcDbVertex
100
AcDb2dVertex
 10
44.282126913265316
 20
47.044669430272116
 30
0.0
 70
0
  0
VERTEX
  5
37D
330
30A
100
AcDbEntity
  8
0
100
AcDbVertex
100
AcDb2dVertex
 10
45.0451743197279
 20
46.6905824829932
 30
0.0
 70
0
  0
VERTEX
  5
37E
330
30A
100
AcDbEntity
  8
0
100
AcDbVertex
100
AcDb2dVertex
 10
45.79254357993198
 20
46.318691539115655
 30
0.0
 70
0
  0
VERTEX
  5
37F
330
30A
100
AcDbEntity
  8
0
100
AcDbVertex
100
AcDb2dVertex
 10
46.52423469387756
 20
45.92899659863946
 30
0.0
 70
0
  0
VERTEX
  5
380
330
30A
100
AcDbEntity
  8
0
100
AcDbVertex
100
AcDb2dVertex
 10
47.24024766156463
 20
45.52149766156463
 30
0.0
 70
0
  0
VERTEX
  5
381
330
30A
100
AcDbEntity
  8
0
100
AcDbVertex
100
AcDb2dVertex
 10
47.9405824829932
 20
45.09619472789116
 30
0.0
 70
0
  0
VERTEX
  5
382
330
30A
100
AcDbEntity
  8
0
100
AcDbVertex
100
AcDb2dVertex
 10
48.62523915816327
 20
44.65308779761905
 30
0.0
 70
0
  0
VERTEX
  5
383
330
30A
100
AcDbEntity
  8
0
100
AcDbVertex
100
AcDb2dVertex
 10
49.294217687074834
 20
44.192176870748305
 30
0.0
 70
0
  0
VERTEX
  5
384
330
30A
100
AcDbEntity
  8
0
100
AcDbVertex
100
AcDb2dVertex
 10
49.9475180697279
 20
43.713461947278915
 30
0.0
 70
0
  0
VERTEX
  5
385
330
30A
100
AcDbEntity
  8
0
100
AcDbVertex
100
AcDb2dVertex
 10
50.585140306122454
 20
43.21694302721089
 30
0.0
 70
0
  0
VERTEX
  5
386
330
30A
100
AcDbEntity
  8
0
100
AcDbVertex
100
AcDb2dVertex
 10
51.20708439625851
 20
42.702620110544224
 30
0.0
 70
0
  0
VERTEX
  5
387
330
30A
100
AcDbEntity
  8
0
100
AcDbVertex
100
AcDb2dVertex
 10
51.81335034013606
 20
42.170493197278915
 30
0.0
 70
0
  0
VERTEX
  5
388
330
30A
100
AcDbEntity
  8
0
100
AcDbVertex
100
AcDb2dVertex
 10
52.40393813775511
 20
41.62056228741497
 30
0.0
 70
0
  0
VERTEX
  5
389
330
30A
100
AcDbEntity
  8
0
100
AcDbVertex
100
AcDb2dVertex
 10
52.978847789115655
 20
41.05282738095239
 30
0.0
 70
0
  0
VERTEX
  5
38A
330
30A
100
AcDbEntity
  8
0
100
AcDbVertex
100
AcDb2dVertex
 10
53.538079294217695
 20
40.46728847789116
 30
0.0
 70
0
  0
VERTEX
  5
38B
330
30A
100
AcDbEntity
  8
0
100
AcDbVertex
100
AcDb2dVertex
 10
54.081632653061234
 20
39.863945578231295
 30
0.0
 70
0
  0
VERTEX
  5
38C
330
30A
100
AcDbEntity
  8
0
100
AcDbVertex
100
AcDb2dVertex
 10
48.23129251700681
 20
36.46258503401361
 30
0.0
 70
0
  0
VERTEX
  5
38D
330
30A
100
AcDbEntity
  8
0
100
AcDbVertex
100
AcDb2dVertex
 10
47.391050170068034
 20
37.354379251700685
 30
0.0
 70
0
  0
VERTEX
  5
38E
330
30A
100
AcDbEntity
  8
0
100
AcDbVertex
100
AcDb2dVertex
 10
46.5029761904762
 20
38.19302721088436
 30
0.0
 70
0
  0
VERTEX
  5
38F
330
30A
100
AcDbEntity
  8
0
100
AcDbVertex
100
AcDb2dVertex
 10
45.567070578231295
 20
38.97852891156463
 30
0.0
 70
0
  0
VERTEX
  5
390
330
30A
100
AcDbEntity
  8
0
100
AcDbVertex
100
AcDb2dVertex
 10
44.58333333333334
 20
39.7108843537415
 30
0.0
 70
0
  0
VERTEX
  5
391
330
30A
100
AcDbEntity
  8
0
100
AcDbVertex
100
AcDb2dVertex
 10
43.55176445578232
 20
40.39009353741497
 30
0.0
 70
0
  0
VERTEX
  5
392
330
30A
100
AcDbEntity
  8
0
100
AcDbVertex
100
AcDb2dVertex
 10
42.47236394557824
 20
41.01615646258504
 30
0.0
 70
0
  0
VERTEX
  5
393
330
30A
100
AcDbEntity
  8
0
100
AcDbVertex
100
AcDb2dVertex
 10
41.34513180272109
 20
41.5890731292517
 30
0.0
 70
0
  0
VERTEX
  5
394
330
30A
100
AcDbEntity
  8
0
100
AcDbVertex
100
AcDb2dVertex
 10
40.17006802721089
 20
42.10884353741497
 30
0.0
 70
0
  0
VERTEX
  5
395
330
30A
100
AcDbEntity
  8
0
100
AcDbVertex
100
AcDb2dVertex
 10
38.96205357142858
 20
42.57121598639456
 30
0.0
 70
0
  0
VERTEX
  5
396
330
30A
100
AcDbEntity
  8
0
100
AcDbVertex
100
AcDb2dVertex
 10
37.735969387755105
 20
42.97193877551021
 30
0.0
 70
0
  0
VERTEX
  5
397
330
30A
100
AcDbEntity
  8
0
100
AcDbVertex
100
AcDb2dVertex
 10
36.49181547619048
 20
43.311011904761905
 30
0.0
 70
0
  0
VERTEX
  5
398
330
30A
100
AcDbEntity
  8
0
100
AcDbVertex
100
AcDb2dVertex
 10
35.2295918367347
 20
43.58843537414966
 30
0.0
 70
0
  0
VERTEX
  5
399
330
30A
100
AcDbEntity
  8
0
100
AcDbVertex
100
AcDb2dVertex
 10
33.94929846938776
 20
43.80420918367347
 30
0.0
 70
0
  0
VERTEX
  5
39A
330
30A
100
AcDbEntity
  8
0
100
AcDbVertex
100
AcDb2dVertex
 10
32.65093537414967
 20
43.958333333333336
 30
0.0
 70
0
  0
VERTEX
  5
39B
330
30A
100
AcDbEntity
  8
0
100
AcDbVertex
100
AcDb2dVertex
 10
31.334502551020414
 20
44.050807823129254
 30
0.0
 70
0
  0
VERTEX
  5
39C
330
30A
100
AcDbEntity
  8
0
100
AcDbVertex
100
AcDb2dVertex
 10
30.000000000000007
 20
44.08163265306123
 30
0.0
 70
0
  0
VERTEX
  5
39D
330
30A
100
AcDbEntity
  8
0
100
AcDbVertex
100
AcDb2dVertex
 10
28.81271258503402
 20
44.059842687074834
 30
0.0
 70
0
  0
VERTEX
  5
39E
330
30A
100
AcDbEntity
  8
0
100
AcDbVertex
100
AcDb2dVertex
 10
27.64880952380953
 20
43.99447278911565
 30
0.0
 70
0
  0
VERTEX
  5
39F
330
30A
100
AcDbEntity
  8
0
100
AcDbVertex
100
AcDb2dVertex
 10
26.508290816326536
 20
43.885522959183675
 30
0.0
 70
0
  0
VERTEX
  5
3A0
330
30A
100
AcDbEntity
  8
0
100
AcDbVertex
100
AcDb2dVertex
 10
25.391156462585037
 20
43.732993197278915
 30
0.0
 70
0
  0
VERTEX
  5
3A1
330
30A
100
AcDbEntity
  8
0
100
AcDbVertex
100
AcDb2dVertex
 10
24.297406462585037
 20
43.53688350340136
 30
0.0
 70
0
  0
VERTEX
  5
3A2
330
30A
100
AcDbEntity
  8
0
100
AcDbVertex
100
AcDb2dVertex
 10
23.227040816326532
 20
43.297193877551024
 30
0.0
 70
0
  0
VERTEX
  5
3A3
330
30A
100
AcDbEntity
  8
0
100
AcDbVertex
100
AcDb2dVertex
 10
22.180059523809526
 20
43.01392431972789
 30
0.0
 70
0
  0
VERTEX
  5
3A4
330
30A
100
AcDbEntity
  8
0
100
AcDbVertex
100
AcDb2dVertex
 10
21.156462585034014
 20
42.68707482993197
 30
0.0
 70
0
  0
VERTEX
  5
3A5
330
30A
100
AcDbEntity
  8
0
100
AcDbVertex
100
AcDb2dVertex
 10
20.15625
 20
42.31664540816327
 30
0.0
 70
0
  0
VERTEX
  5
3A6
330
30A
100
AcDbEntity
  8
0
100
AcDbVertex
100
AcDb2dVertex
 10
19.179421768707485
 20
41.90263605442177
 30
0.0
 70
0
  0
VERTEX
  5
3A7
330
30A
100
AcDbEntity
  8
0
100
AcDbVertex
100
AcDb2dVertex
 10
18.22597789115646
 20
41.445046768707485
 30
0.0
 70
0
  0
VERTEX
  5
3A8
330
30A
100
AcDbEntity
  8
0
100
AcDbVertex
100
AcDb2dVertex
 10
17.29591836734694
 20
40.94387755102041
 30
0.0
 70
0
  0
VERTEX
  5
3A9
330
30A
100
AcDbEntity
  8
0
100
AcDbVertex
100
AcDb2dVertex
 10
16.389243197278912
 20
40.39912840136054
 30
0.0
 70
0
  0
VERTEX
  5
3AA
330
30A
100
AcDbEntity
  8
0
100
AcDbVertex
100
AcDb2dVertex
 10
15.505952380952381
 20
39.81079931972789
 30
0.0
 70
0
  0
VERTEX
  5
3AB
330
30A
100
AcDbEntity
  8
0
100
AcDbVertex
100
AcDb2dVertex
 10
14.646045918367347
 20
39.17889030612245
 30
0.0
 70
0
  0
VERTEX
  5
3AC
330
30A
100
AcDbEntity
  8
0
100
AcDbVertex
100
AcDb2dVertex
 10
13.809523809523812
 20
38.50340136054422
 30
0.0
 70
0
  0
VERTEX
  5
3AD
330
30A
100
AcDbEntity
  8
0
100
AcDbVertex
100
AcDb2dVertex
 10
13.002232142857146
 20
37.7891156462585
 30
0.0
 70
0
  0
VERTEX
  5
3AE
330
30A
100
AcDbEntity
  8
0
100
AcDbVertex
100
AcDb2dVertex
 10
12.247023809523812
 20
37.0578231292517
 30
0.0
 70
0
  0
VERTEX
  5
3AF
330
30A
100
AcDbEntity
  8
0
100
AcDbVertex
100
AcDb2dVertex
 10
11.543898809523812
 20
36.30952380952381
 30
0.0
 70
0
  0
VERTEX
  5
3B0
330
30A
100
AcDbEntity
  8
0
100
AcDbVertex
100
AcDb2dVertex
 10
10.892857142857146
 20
35.544217687074834
 30
0.0
 70
0
  0
VERTEX
  5
3B1
330
30A
100
AcDbEntity
  8
0
100
AcDbVertex
100
AcDb2dVertex
 10
10.29389880952381
 20
34.761904761904766
 30
0.0
 70
0
  0
VERTEX
  5
3B2
330
30A
100
AcDbEntity
  8
0
100
AcDbVertex
100
AcDb2dVertex
 10
9.74702380952381
 20
33.96258503401361
 30
0.0
 70
0
  0
VERTEX
  5
3B3
330
30A
100
AcDbEntity
  8
0
100
AcDbVertex
100
AcDb2dVertex
 10
9.252232142857146
 20
33.14625850340136
 30
0.0
 70
0
  0
VERTEX
  5
3B4
330
30A
100
AcDbEntity
  8
0
100
AcDbVertex
100
AcDb2dVertex
 10
8.80952380952381
 20
32.31292517006803
 30
0.0
 70
0
  0
VERTEX
  5
3B5
330
30A
100
AcDbEntity
  8
0
100
AcDbVertex
100
AcDb2dVertex
 10
8.41889880952381
 20
31.462585034013607
 30
0.0
 70
0
  0
VERTEX
  5
3B6
330
30A
100
AcDbEntity
  8
0
100
AcDbVertex
100
AcDb2dVertex
 10
8.080357142857144
 20
30.595238095238095
 30
0.0
 70
0
  0
VERTEX
  5
3B7
330
30A
100
AcDbEntity
  8
0
100
AcDbVertex
100
AcDb2dVertex
 10
7.793898809523811
 20
29.7108843537415
 30
0.0
 70
0
  0
VERTEX
  5
3B8
330
30A
100
AcDbEntity
  8
0
100
AcDbVertex
100
AcDb2dVertex
 10
7.559523809523811
 20
28.80952380952381
 30
0.0
 70
0
  0
VERTEX
  5
3B9
330
30A
100
AcDbEntity
  8
0
100
AcDbVertex
100
AcDb2dVertex
 10
7.377232142857144
 20
27.891156462585037
 30
0.0
 70
0
  0
VERTEX
  5
3BA
330
30A
100
AcDbEntity
  8
0
100
AcDbVertex
100
AcDb2dVertex
 10
7.247023809523811
 20
26.955782312925173
 30
0.0
 70
0
  0
VERTEX
  5
3BB
330
30A
100
AcDbEntity
  8
0
100
AcDbVertex
100
AcDb2dVertex
 10
7.168898809523811
 20
26.003401360544217
 30
0.0
 70
0
  0
VERTEX
  5
3BC
330
30A
100
AcDbEntity
  8
0
100
AcDbVertex
100
AcDb2dVertex
 10
7.142857142857144
 20
25.034013605442176
 30
0.0
 70
0
  0
VERTEX
  5
3BD
330
30A
100
AcDbEntity
  8
0
100
AcDbVertex
100
AcDb2dVertex
 10
7.168898809523811
 20
24.064625850340136
 30
0.0
 70
0
  0
VERTEX
  5
3BE
330
30A
100
AcDbEntity
  8
0
100
AcDbVertex
100
AcDb2dVertex
 10
7.247023809523811
 20
23.112244897959183
 30
0.0
 70
0
  0
VERTEX
  5
3BF
330
30A
100
AcDbEntity
  8
0
100
AcDbVertex
100
AcDb2dVertex
 10
7.377232142857144
 20
22.17687074829932
 30
0.0
 70
0
  0
VERTEX
  5
3C0
330
30A
100
AcDbEntity
  8
0
100
AcDbVertex
100
AcDb2dVertex
 10
7.559523809523811
 20
21.258503401360546
 30
0.0
 70
0
  0
VERTEX
  5
3C1
330
30A
100
AcDbEntity
  8
0
100
AcDbVertex
100
AcDb2dVertex
 10
7.793898809523811
 20
20.357142857142858
 30
0.0
 70
0
  0
VERTEX
  5
3C2
330
30A
100
AcDbEntity
  8
0
100
AcDbVertex
100
AcDb2dVertex
 10
8.080357142857144
 20
19.472789115646258
 30
0.0
 70
0
  0
VERTEX
  5
3C3
330
30A
100
AcDbEntity
  8
0
100
AcDbVertex
100
AcDb2dVertex
 10
8.41889880952381
 20
18.60544217687075
 30
0.0
 70
0
  0
VERTEX
  5
3C4
330
30A
100
AcDbEntity
  8
0
100
AcDbVertex
100
AcDb2dVertex
 10
8.80952380952381
 20
17.755102040816325
 30
0.0
 70
0
  0
VERTEX
  5
3C5
330
30A
100
AcDbEntity
  8
0
100
AcDbVertex
100
AcDb2dVertex
 10
9.252232142857144
 20
16.921768707482997
 30
0.0
 70
0
  0
VERTEX
  5
3C6
330
30A
100
AcDbEntity
  8
0
100
AcDbVertex
100
AcDb2dVertex
 10
9.74702380952381
 20
16.10544217687075
 30
0.0
 70
0
  0
VERTEX
  5
3C7
330
30A
100
AcDbEntity
  8
0
100
AcDbVertex
100
AcDb2dVertex
 10
10.293898809523812
 20
15.306122448979593
 30
0.0
 70
0
  0
VERTEX
  5
3C8
330
30A
100
AcDbEntity
  8
0
100
AcDbVertex
100
AcDb2dVertex
 10
10.892857142857146
 20
14.523809523809526
 30
0.0
 70
0
  0
VERTEX
  5
3C9
330
30A
100
AcDbEntity
  8
0
100
AcDbVertex
100
AcDb2dVertex
 10
11.543898809523812
 20
13.758503401360546
 30
0.0
 70
0
  0
VERTEX
  5
3CA
330
30A
100
AcDbEntity
  8
0
100
AcDbVertex
100
AcDb2dVertex
 10
12.247023809523812
 20
13.010204081632654
 30
0.0
 70
0
  0
VERTEX
  5
3CB
330
30A
100
AcDbEntity
  8
0
100
AcDbVertex
100
AcDb2dVertex
 10
13.002232142857146
 20
12.27891156462585
 30
0.0
 70
0
  0
VERTEX
  5
3CC
330
30A
100
AcDbEntity
  8
0
100
AcDbVertex
100
AcDb2dVertex
 10
13.809523809523812
 20
11.564625850340137
 30
0.0
 70
0
  0
VERTEX
  5
3CD
330
30A
100
AcDbEntity
  8
0
100
AcDbVertex
100
AcDb2dVertex
 10
14.64604591836735
 20
10.889136904761905
 30
0.0
 70
0
  0
VERTEX
  5
3CE
330
30A
100
AcDbEntity
  8
0
100
AcDbVertex
100
AcDb2dVertex
 10
15.505952380952383
 20
10.257227891156464
 30
0.0
 70
0
  0
VERTEX
  5
3CF
330
30A
100
AcDbEntity
  8
0
100
AcDbVertex
100
AcDb2dVertex
 10
16.389243197278912
 20
9.66889880952381
 30
0.0
 70
0
  0
VERTEX
  5
3D0
330
30A
100
AcDbEntity
  8
0
100
AcDbVertex
100
AcDb2dVertex
 10
17.29591836734694
 20
9.124149659863946
 30
0.0
 70
0
  0
VERTEX
  5
3D1
330
30A
100
AcDbEntity
  8
0
100
AcDbVertex
100
AcDb2dVertex
 10
18.225977891156464
 20
8.622980442176871
 30
0.0
 70
0
  0
VERTEX
  5
3D2
330
30A
100
AcDbEntity
  8
0
100
AcDbVertex
100
AcDb2dVertex
 10
19.179421768707485
 20
8.165391156462587
 30
0.0
 70
0
  0
VERTEX
  5
3D3
330
30A
100
AcDbEntity
  8
0
100
AcDbVertex
100
AcDb2dVertex
 10
20.156250000000004
 20
7.75138180272109
 30
0.0
 70
0
  0
VERTEX
  5
3D4
330
30A
100
AcDbEntity
  8
0
100
AcDbVertex
100
AcDb2dVertex
 10
21.156462585034017
 20
7.380952380952382
 30
0.0
 70
0
  0
VERTEX
  5
3D5
330
30A
100
AcDbEntity
  8
0
100
AcDbVertex
100
AcDb2dVertex
 10
22.180059523809526
 20
7.054102891156464
 30
0.0
 70
0
  0
VERTEX
  5
3D6
330
30A
100
AcDbEntity
  8
0
100
AcDbVertex
100
AcDb2dVertex
 10
23.227040816326536
 20
6.770833333333335
 30
0.0
 70
0
  0
VERTEX
  5
3D7
330
30A
100
AcDbEntity
  8
0
100
AcDbVertex
100
AcDb2dVertex
 10
24.297406462585037
 20
6.531143707482995
 30
0.0
 70
0
  0
VERTEX
  5
3D8
330
30A
100
AcDbEntity
  8
0
100
AcDbVertex
100
AcDb2dVertex
 10
25.391156462585037
 20
6.335034013605443
 30
0.0
 70
0
  0
VERTEX
  5
3D9
330
30A
100
AcDbEntity
  8
0
100
AcDbVertex
100
AcDb2dVertex
 10
26.508290816326536
 20
6.182504251700681
 30
0.0
 70
0
  0
VERTEX
  5
3DA
330
30A
100
AcDbEntity
  8
0
100
AcDbVertex
100
AcDb2dVertex
 10
27.648809523809533
 20
6.0735544217687085
 30
0.0
 70
0
  0
VERTEX
  5
3DB
330
30A
100
AcDbEntity
  8
0
100
AcDbVertex
100
AcDb2dVertex
 10
28.81271258503402
 20
6.0081845238095255
 30
0.0
 70
0
  0
VERTEX
  5
3DC
330
30A
100
AcDbEntity
  8
0
100
AcDbVertex
100
AcDb2dVertex
 10
30.000000000000007
 20
5.986394557823131
 30
0.0
 70
0
  0
VERTEX
  5
3DD
330
30A
100
AcDbEntity
  8
0
100
AcDbVertex
100
AcDb2dVertex
 10
31.369313350340143
 20
6.014562074829933
 30
0.0
 70
0
  0
VERTEX
  5
3DE
330
30A
100
AcDbEntity
  8
0
100
AcDbVertex
100
AcDb2dVertex
 10
32.70514455782314
 20
6.099064625850342
 30
0.0
 70
0
  0
VERTEX
  5
3DF
330
30A
100
AcDbEntity
  8
0
100
AcDbVertex
100
AcDb2dVertex
 10
34.00749362244899
 20
6.239902210884355
 30
0.0
 70
0
  0
VERTEX
  5
3E0
330
30A
100
AcDbEntity
  8
0
100
AcDbVertex
100
AcDb2dVertex
 10
35.276360544217695
 20
6.437074829931974
 30
0.0
 70
0
  0
VERTEX
  5
3E1
330
30A
100
AcDbEntity
  8
0
100
AcDbVertex
100
AcDb2dVertex
 10
36.51174532312926
 20
6.690582482993198
 30
0.0
 70
0
  0
VERTEX
  5
3E2
330
30A
100
AcDbEntity
  8
0
100
AcDbVertex
100
AcDb2dVertex
 10
37.71364795918368
 20
7.000425170068029
 30
0.0
 70
0
  0
VERTEX
  5
3E3
330
30A
100
AcDbEntity
  8
0
100
AcDbVertex
100
AcDb2dVertex
 10
38.88206845238096
 20
7.366602891156464
 30
0.0
 70
0
  0
VERTEX
  5
3E4
330
30A
100
AcDbEntity
  8
0
100
AcDbVertex
100
AcDb2dVertex
 10
40.0170068027211
 20
7.789115646258505
 30
0.0
 70
0
  0
VERTEX
  5
3E5
330
30A
100
AcDbEntity
  8
0
100
AcDbVertex
100
AcDb2dVertex
 10
41.11846301020409
 20
8.267963435374151
 30
0.0
 70
0
  0
VERTEX
  5
3E6
330
30A
100
AcDbEntity
  8
0
100
AcDbVertex
100
AcDb2dVertex
 10
42.18643707482994
 20
8.803146258503403
 30
0.0
 70
0
  0
VERTEX
  5
3E7
330
30A
100
AcDbEntity
  8
0
100
AcDbVertex
100
AcDb2dVertex
 10
43.220928996598644
 20
9.39466411564626
 30
0.0
 70
0
  0
VERTEX
  5
3E8
330
30A
100
AcDbEntity
  8
0
100
AcDbVertex
100
AcDb2dVertex
 10
44.22193877551021
 20
10.042517006802722
 30
0.0
 70
0
  0
VERTEX
  5
3E9
330
30A
100
AcDbEntity
  8
0
100
AcDbVertex
100
AcDb2dVertex
 10
45.18946641156463
 20
10.74670493197279
 30
0.0
 70
0
  0
VERTEX
  5
3EA
330
30A
100
AcDbEntity
  8
0
100
AcDbVertex
100
AcDb2dVertex
 10
46.12351190476191
 20
11.507227891156464
 30
0.0
 70
0
  0
VERTEX
  5
3EB
330
30A
100
AcDbEntity
  8
0
100
AcDbVertex
100
AcDb2dVertex
 10
47.02407525510205
 20
12.324085884353742
 30
0.0
 70
0
  0
VERTEX
  5
3EC
330
30A
100
AcDbEntity
  8
0
100
AcDbVertex
100
AcDb2dVertex
 10
47.89115646258504
 20
13.197278911564627
 30
0.0
 70
0
  0
VERTEX
  5
3ED
330
30A
100
AcDbEntity
  8
0
100
AcDbVertex
100
AcDb2dVertex
 10
47.89115646258504
 20
22.040816326530614
 30
0.0
 70
0
  0
VERTEX
  5
3EE
330
30A
100
AcDbEntity
  8
0
100
AcDbVertex
100
AcDb2dVertex
 10
30.000000000000007
 20
22.040816326530614
 30
0.0
 70
0
  0
VERTEX
  5
3EF
330
30A
100
AcDbEntity
  8
0
100
AcDbVertex
100
AcDb2dVertex
 10
30.000000000000007
 20
28.027210884353742
 30
0.0
 70
0
  0
VERTEX
  5
3F0
330
30A
100
AcDbEntity
  8
0
100
AcDbVertex
100
AcDb2dVertex
 10
55.03401360544218
 20
28.027210884353742
 30
0.0
 70
0
  0
VERTEX
  5
3F1
330
30A
100
AcDbEntity
  8
0
100
AcDbVertex
100
AcDb2dVertex
 10
55.03401360544218
 20
11.292517006802722
 30
0.0
 70
0
  0
SEQEND
  5
3F2
330
30A
100
AcDbEntity
  8
0
  0
ENDBLK
  5
309
330
307
100
AcDbEntity
  8
0
100
AcDbBlockEnd
  0
ENDSEC
  0
SECTION
  2
ENTITIES
  0
LINE
  5
2F
330
17
100
AcDbEntity
  8
0
100
AcDbLine
 10
57.25
 20
-7.0111029251185975e-15
 30
0.0
 11
20.0
 21
-2.4492935982947065e-15
 31
0.0
  0
LINE
  5
30
330
17
100
AcDbEntity
  8
0
100
AcDbLine
 10
-57.25
 20
7.0111029251185975e-15
 30
0.0
 11
-20.0
 21
2.4492935982947065e-15
 31
0.0
  0
LINE
  5
31
330
17
100
AcDbEntity
  8
0
100
AcDbLine
 10
57.25
 20
-20.000000000000007
 30
0.0
 11
19.999999999999996
 21
-20.000000000000004
 31
0.0
  0
LINE
  5
32
330
17
100
AcDbEntity
  8
0
100
AcDbLine
 10
-57.25
 20
-19.999999999999993
 30
0.0
 11
-20.000000000000004
 21
-19.999999999999996
 31
0.0
  0
LINE
  5
33
330
17
100
AcDbEntity
  8
0
100
AcDbLine
 10
57.24999999999999
 20
-40.00000000000001
 30
0.0
 11
19.999999999999996
 21
-40.0
 31
0.0
  0
LINE
  5
34
330
17
100
AcDbEntity
  8
0
100
AcDbLine
 10
-57.25000000000001
 20
-39.99999999999999
 30
0.0
 11
-20.000000000000004
 21
-40.0
 31
0.0
  0
LINE
  5
35
330
17
100
AcDbEntity
  8
0
100
AcDbLine
 10
57.24999999999999
 20
-60.00000000000001
 30
0.0
 11
19.999999999999993
 21
-60.0
 31
0.0
  0
LINE
  5
36
330
17
100
AcDbEntity
  8
0
100
AcDbLine
 10
-57.25000000000001
 20
-59.99999999999999
 30
0.0
 11
-20.000000000000007
 21
-60.0
 31
0.0
  0
LINE
  5
37
330
17
100
AcDbEntity
  8
0
100
AcDbLine
 10
57.24999999999999
 20
-80.0
 30
0.0
 11
19.99999999999999
 21
-80.0
 31
0.0
  0
LINE
  5
38
330
17
100
AcDbEntity
  8
0
100
AcDbLine
 10
-57.25000000000001
 20
-80.0
 30
0.0
 11
-20.00000000000001
 21
-80.0
 31
0.0
  0
LINE
  5
39
330
17
100
AcDbEntity
  8
0
100
AcDbLine
 10
57.249999999999986
 20
-100.0
 30
0.0
 11
19.99999999999999
 21
-100.0
 31
0.0
  0
LINE
  5
3A
330
17
100
AcDbEntity
  8
0
100
AcDbLine
 10
-57.250000000000014
 20
-100.0
 30
0.0
 11
-20.00000000000001
 21
-100.0
 31
0.0
  0
LINE
  5
3B
330
17
100
AcDbEntity
  8
0
100
AcDbLine
 10
184.5
 20
-2.2594733444268666e-14
 30
0.0
 11
147.25
 21
-1.8032924117444776e-14
 31
0.0
  0
LINE
  5
3C
330
17
100
AcDbEntity
  8
0
100
AcDbLine
 10
-184.5
 20
2.2594733444268666e-14
 30
0.0
 11
-147.25
 21
1.8032924117444776e-14
 31
0.0
  0
LINE
  5
3D
330
17
100
AcDbEntity
  8
0
100
AcDbLine
 10
184.5
 20
-20.00000000000002
 30
0.0
 11
147.25
 21
-20.000000000000018
 31
0.0
  0
LINE
  5
3E
330
17
100
AcDbEntity
  8
0
100
AcDbLine
 10
-184.5
 20
-19.99999999999998
 30
0.0
 11
-147.25
 21
-19.999999999999982
 31
0.0
  0
LINE
  5
3F
330
17
100
AcDbEntity
  8
0
100
AcDbLine
 10
184.5
 20
-40.00000000000002
 30
0.0
 11
147.25
 21
-40.00000000000002
 31
0.0
  0
LINE
  5
40
330
17
100
AcDbEntity
  8
0
100
AcDbLine
 10
-184.5
 20
-39.99999999999998
 30
0.0
 11
-147.25
 21
-39.99999999999998
 31
0.0
  0
LINE
  5
41
330
17
100
AcDbEntity
  8
0
100
AcDbLine
 10
184.5
 20
-60.00000000000002
 30
0.0
 11
147.25
 21
-60.00000000000002
 31
0.0
  0
LINE
  5
42
330
17
100
AcDbEntity
  8
0
100
AcDbLine
 10
-184.5
 20
-59.99999999999998
 30
0.0
 11
-147.25
 21
-59.99999999999998
 31
0.0
  0
LINE
  5
43
330
17
100
AcDbEntity
  8
0
100
AcDbLine
 10
184.5
 20
-80.00000000000003
 30
0.0
 11
147.25
 21
-80.00000000000001
 31
0.0
  0
LINE
  5
44
330
17
100
AcDbEntity
  8
0
100
AcDbLine
 10
-184.5
 20
-79.99999999999997
 30
0.0
 11
-147.25
 21
-79.99999999999999
 31
0.0
  0
LINE
  5
45
330
17
100
AcDbEntity
  8
0
100
AcDbLine
 10
184.5
 20
-100.00000000000003
 30
0.0
 11
147.25
 21
-100.00000000000001
 31
0.0
  0
LINE
  5
46
330
17
100
AcDbEntity
  8
0
100
AcDbLine
 10
-184.5
 20
-99.99999999999997
 30
0.0
 11
-147.25
 21
-99.99999999999999
 31
0.0
  0
INSERT
  5
5D
330
17
100
AcDbEntity
  8
0
100
AcDbBlockReference
  2
3_1
 10
0.0
 20
0.0
 30
0.0
 50
180.0
  0
INSERT
  5
5F
330
17
100
AcDbEntity
  8
0
100
AcDbBlockReference
  2
3_1
 10
0.0
 20
0.0
 30
0.0
 42
-1.0
 50
-1.4033418597069752e-14
  0
INSERT
  5
86
330
17
100
AcDbEntity
  8
0
100
AcDbBlockReference
  2
3_2
 10
57.25
 20
-7.0111029251185975e-15
 30
0.0
 50
180.0
  0
INSERT
  5
88
330
17
100
AcDbEntity
  8
0
100
AcDbBlockReference
  2
3_2
 10
-57.25
 20
7.0111029251185975e-15
 30
0.0
 42
-1.0
 50
-1.4033418597069752e-14
  0
INSERT
  5
A9
330
17
100
AcDbEntity
  8
0
100
AcDbBlockReference
  2
3_3
 10
184.5
 20
-2.2594733444268666e-14
 30
0.0
 50
180.0
  0
INSERT
  5
AB
330
17
100
AcDbEntity
  8
0
100
AcDbBlockReference
  2
3_3
 10
-184.5
 20
2.2594733444268666e-14
 30
0.0
 42
-1.0
 50
-1.4033418597069752e-14
  0
INSERT
  5
1FA
330
17
100
AcDbEntity
  8
0
100
AcDbBlockReference
  2
Radfahren
 10
224.5
 20
-2.749332064085808e-14
 30
0.0
 50
180.0
  0
INSERT
  5
1FC
330
17
100
AcDbEntity
  8
0
100
AcDbBlockReference
  2
Radfahren
 10
-224.5
 20
2.749332064085808e-14
 30
0.0
 42
-1.0
 50
-1.4033418597069752e-14
  0
INSERT
  5
2C6
330
17
100
AcDbEntity
  8
0
100
AcDbBlockReference
  2
C
 10
-164.5
 20
0.0
 30
0.0
  0
INSERT
  5
2D7
330
17
100
AcDbEntity
  8
0
100
AcDbBlockReference
  2
Y
 10
-108.5
 20
0.0
 30
0.0
  0
INSERT
  5
2D9
330
17
100
AcDbEntity
  8
0
100
AcDbBlockReference
  2
C
 10
-51.5
 20
0.0
 30
0.0
  0
INSERT
  5
2E7
330
17
100
AcDbEntity
  8
0
100
AcDbBlockReference
  2
L
 10
4.5
 20
0.0
 30
0.0
  0
INSERT
  5
2F3
330
17
100
AcDbEntity
  8
0
100
AcDbBlockReference
  2
I
 10
43.5
 20
0.0
 30
0.0
  0
INSERT
  5
305
330
17
100
AcDbEntity
  8
0
100
AcDbBlockReference
  2
N
 10
56.5
 20
0.0
 30
0.0
  0
INSERT
  5
3F3
330
17
100
AcDbEntity
  8
0
100
AcDbBlockReference
  2
G
 10
109.5
 20
0.0
 30
0.0
  0
ENDSEC
  0
SECTION
  2
OBJECTS
  0
DICTIONARY
  5
A
330
0
100
AcDbDictionary
280
0
281
1
  3
ACAD_COLOR
350
B
  3
ACAD_GROUP
350
C
  3
ACAD_LAYOUT
350
D
  3
ACAD_MATERIAL
350
E
  3
ACAD_MLEADERSTYLE
350
F
  3
ACAD_MLINESTYLE
350
10
  3
ACAD_PLOTSETTINGS
350
11
  3
ACAD_PLOTSTYLENAME
350
12
  3
ACAD_SCALELIST
350
14
  3
ACAD_TABLESTYLE
350
15
  3
ACAD_VISUALSTYLE
350
16
  3
EZDXF_META
350
2D
  0
DICTIONARY
  5
B
330
A
100
AcDbDictionary
280
0
281
1
  0
DICTIONARY
  5
C
330
A
100
AcDbDictionary
280
0
281
1
  0
DICTIONARY
  5
D
330
A
100
AcDbDictionary
280
0
281
1
  3
Model
350
1A
  3
Layout1
350
1E
  0
DICTIONARY
  5
E
330
A
100
AcDbDictionary
280
0
281
1
  3
ByBlock
350
1F
  3
ByLayer
350
20
  3
Global
350
21
  0
DICTIONARY
  5
F
330
A
100
AcDbDictionary
280
0
281
1
  3
Standard
350
2C
  0
DICTIONARY
  5
10
330
A
100
AcDbDictionary
280
0
281
1
  3
Standard
350
22
  0
DICTIONARY
  5
11
330
A
100
AcDbDictionary
280
0
281
1
  0
ACDBDICTIONARYWDFLT
  5
12
330
A
100
AcDbDictionary
280
0
281
1
  3
Normal
350
13
100
AcDbDictionaryWithDefault
340
13
  0
ACDBPLACEHOLDER
  5
13
330
12
  0
DICTIONARY
  5
14
330
A
100
AcDbDictionary
280
0
281
1
  0
DICTIONARY
  5
15
330
A
100
AcDbDictionary
280
0
281
1
  0
DICTIONARY
  5
16
330
A
100
AcDbDictionary
280
0
281
1
  0
LAYOUT
  5
1A
330
D
100
AcDbPlotSettings
  1

  4
A3
  6

 40
7.5
 41
20.0
 42
7.5
 43
20.0
 44
420.0
 45
297.0
 46
0.0
 47
0.0
 48
0.0
 49
0.0
140
0.0
141
0.0
142
1.0
143
1.0
 70
1024
 72
1
 73
0
 74
5
  7

 75
16
 76
0
 77
2
 78
300
147
1.0
148
0.0
149
0.0
100
AcDbLayout
  1
Model
 70
1
 71
0
 10
0.0
 20
0.0
 11
420.0
 21
297.0
 12
0.0
 22
0.0
 32
0.0
 14
1e+20
 24
1e+20
 34
1e+20
 15
-1e+20
 25
-1e+20
 35
-1e+20
146
0.0
 13
0.0
 23
0.0
 33
0.0
 16
1.0
 26
0.0
 36
0.0
 17
0.0
 27
1.0
 37
0.0
 76
1
330
17
  0
LAYOUT
  5
1E
330
D
100
AcDbPlotSettings
  1

  4
A3
  6

 40
7.5
 41
20.0
 42
7.5
 43
20.0
 44
420.0
 45
297.0
 46
0.0
 47
0.0
 48
0.0
 49
0.0
140
0.0
141
0.0
142
1.0
143
1.0
 70
0
 72
1
 73
0
 74
5
  7

 75
16
 76
0
 77
2
 78
300
147
1.0
148
0.0
149
0.0
100
AcDbLayout
  1
Layout1
 70
1
 71
1
 10
0.0
 20
0.0
 11
420.0
 21
297.0
 12
0.0
 22
0.0
 32
0.0
 14
1e+20
 24
1e+20
 34
1e+20
 15
-1e+20
 25
-1e+20
 35
-1e+20
146
0.0
 13
0.0
 23
0.0
 33
0.0
 16
1.0
 26
0.0
 36
0.0
 17
0.0
 27
1.0
 37
0.0
 76
1
330
1B
  0
MATERIAL
  5
1F
102
{ACAD_REACTORS
330
E
102
}
330
E
100
AcDbMaterial
  1
ByBlock
  2

 70
0
 40
1.0
 71
1
 41
1.0
 91
-1023410177
 42
1.0
 72
1
  3

 73
1
 74
1
 75
1
 44
0.5
 73
0
 45
1.0
 46
1.0
 77
1
  4

 78
1
 79
1
170
1
 48
1.0
171
1
  6

172
1
173
1
174
1
140
1.0
141
1.0
175
1
  7

176
1
177
1
178
1
143
1.0
179
1
  8

270
1
271
1
272
1
145
1.0
146
1.0
273
1
  9

274
1
275
1
276
1
 42
1.0
 72
1
  3

 73
1
 74
1
 75
1
 94
63
  0
MATERIAL
  5
20
102
{ACAD_REACTORS
330
E
102
}
330
E
100
AcDbMaterial
  1
ByLayer
  2

 70
0
 40
1.0
 71
1
 41
1.0
 91
-1023410177
 42
1.0
 72
1
  3

 73
1
 74
1
 75
1
 44
0.5
 73
0
 45
1.0
 46
1.0
 77
1
  4

 78
1
 79
1
170
1
 48
1.0
171
1
  6

172
1
173
1
174
1
140
1.0
141
1.0
175
1
  7

176
1
177
1
178
1
143
1.0
179
1
  8

270
1
271
1
272
1
145
1.0
146
1.0
273
1
  9

274
1
275
1
276
1
 42
1.0
 72
1
  3

 73
1
 74
1
 75
1
 94
63
  0
MATERIAL
  5
21
102
{ACAD_REACTORS
330
E
102
}
330
E
100
AcDbMaterial
  1
Global
  2

 70
0
 40
1.0
 71
1
 41
1.0
 91
-1023410177
 42
1.0
 72
1
  3

 73
1
 74
1
 75
1
 44
0.5
 73
0
 45
1.0
 46
1.0
 77
1
  4

 78
1
 79
1
170
1
 48
1.0
171
1
  6

172
1
173
1
174
1
140
1.0
141
1.0
175
1
  7

176
1
177
1
178
1
143
1.0
179
1
  8

270
1
271
1
272
1
145
1.0
146
1.0
273
1
  9

274
1
275
1
276
1
 42
1.0
 72
1
  3

 73
1
 74
1
 75
1
 94
63
  0
MLINESTYLE
  5
22
102
{ACAD_REACTORS
330
10
102
}
330
10
100
AcDbMlineStyle
  2
Standard
 70
0
  3

 62
256
 51
90.0
 52
90.0
 71
2
 49
0.5
 62
256
  6
BYLAYER
 49
-0.5
 62
256
  6
BYLAYER
  0
MLEADERSTYLE
  5
2C
102
{ACAD_REACTORS
330
F
102
}
330
F
100
AcDbMLeaderStyle
179
2
170
2
171
1
172
0
 90
2
 40
0.0
 41
0.0
173
1
 91
-1056964608
 92
-2
290
1
 42
2.0
291
1
 43
8.0
  3
Standard
 44
4.0
300

342
29
174
1
175
1
176
0
178
1
 93
-1056964608
 45
4.0
292
0
297
0
 46
4.0
 94
-1056964608
 47
1.0
 49
1.0
140
1.0
294
1
141
0.0
177
0
142
1.0
295
0
296
0
143
3.75
271
0
272
9
273
9
  0
DICTIONARY
  5
2D
330
A
100
AcDbDictionary
280
1
281
1
  3
CREATED_BY_EZDXF
350
2E
  3
WRITTEN_BY_EZDXF
350
3F7
  0
DICTIONARYVAR
  5
2E
330
2D
100
DictionaryVariables
280
0
  1
1.4.0 @ 2025-03-21T18:32:36.722741+00:00
  0
DICTIONARYVAR
  5
3F7
330
2D
100
DictionaryVariables
280
0
  1
1.4.0 @ 2025-03-21T18:32:36.776779+00:00
  0
ENDSEC
  0
EOF
