  0
SECTION
  2
HEADER
  9
$ACADVER
  1
AC1024
  9
$ACADMAINTVER
 70
6
  9
$DWGCODEPAGE
  3
ANSI_1252
  9
$LASTSAVEDBY
  1
ezdxf
  9
$INSBASE
 10
0.0
 20
0.0
 30
0.0
  9
$EXTMIN
 10
1e+20
 20
1e+20
 30
1e+20
  9
$EXTMAX
 10
-1e+20
 20
-1e+20
 30
-1e+20
  9
$LIMMIN
 10
0.0
 20
0.0
  9
$LIMMAX
 10
420.0
 20
297.0
  9
$ORTHOMODE
 70
0
  9
$REGENMODE
 70
1
  9
$FILLMODE
 70
1
  9
$QTEXTMODE
 70
0
  9
$MIRRTEXT
 70
1
  9
$LTSCALE
 40
1.0
  9
$ATTMODE
 70
1
  9
$TEXTSIZE
 40
2.5
  9
$TRACEWID
 40
1.0
  9
$TEXTSTYLE
  7
Standard
  9
$CLAYER
  8
0
  9
$CELTYPE
  6
ByLayer
  9
$CECOLOR
 62
256
  9
$CELTSCALE
 40
1.0
  9
$DISPSILH
 70
0
  9
$DIMSCALE
 40
1.0
  9
$DIMASZ
 40
2.5
  9
$DIMEXO
 40
0.625
  9
$DIMDLI
 40
3.75
  9
$DIMRND
 40
0.0
  9
$DIMDLE
 40
0.0
  9
$DIMEXE
 40
1.25
  9
$DIMTP
 40
0.0
  9
$DIMTM
 40
0.0
  9
$DIMTXT
 40
2.5
  9
$DIMCEN
 40
2.5
  9
$DIMTSZ
 40
0.0
  9
$DIMTOL
 70
0
  9
$DIMLIM
 70
0
  9
$DIMTIH
 70
0
  9
$DIMTOH
 70
0
  9
$DIMSE1
 70
0
  9
$DIMSE2
 70
0
  9
$DIMTAD
 70
1
  9
$DIMZIN
 70
8
  9
$DIMBLK
  1

  9
$DIMASO
 70
1
  9
$DIMSHO
 70
1
  9
$DIMPOST
  1

  9
$DIMAPOST
  1

  9
$DIMALT
 70
0
  9
$DIMALTD
 70
3
  9
$DIMALTF
 40
0.03937007874
  9
$DIMLFAC
 40
1.0
  9
$DIMTOFL
 70
1
  9
$DIMTVP
 40
0.0
  9
$DIMTIX
 70
0
  9
$DIMSOXD
 70
0
  9
$DIMSAH
 70
0
  9
$DIMBLK1
  1

  9
$DIMBLK2
  1

  9
$DIMSTYLE
  2
ISO-25
  9
$DIMCLRD
 70
0
  9
$DIMCLRE
 70
0
  9
$DIMCLRT
 70
0
  9
$DIMTFAC
 40
1.0
  9
$DIMGAP
 40
0.625
  9
$DIMJUST
 70
0
  9
$DIMSD1
 70
0
  9
$DIMSD2
 70
0
  9
$DIMTOLJ
 70
0
  9
$DIMTZIN
 70
8
  9
$DIMALTZ
 70
0
  9
$DIMALTTZ
 70
0
  9
$DIMUPT
 70
0
  9
$DIMDEC
 70
2
  9
$DIMTDEC
 70
2
  9
$DIMALTU
 70
2
  9
$DIMALTTD
 70
3
  9
$DIMTXSTY
  7
Standard
  9
$DIMAUNIT
 70
0
  9
$DIMADEC
 70
0
  9
$DIMALTRND
 40
0.0
  9
$DIMAZIN
 70
0
  9
$DIMDSEP
 70
44
  9
$DIMATFIT
 70
3
  9
$DIMFRAC
 70
0
  9
$DIMLDRBLK
  1

  9
$DIMLUNIT
 70
2
  9
$DIMLWD
 70
-2
  9
$DIMLWE
 70
-2
  9
$DIMTMOVE
 70
0
  9
$DIMFXL
 40
1.0
  9
$DIMFXLON
 70
0
  9
$DIMJOGANG
 40
0.785398163397
  9
$DIMTFILL
 70
0
  9
$DIMTFILLCLR
 70
0
  9
$DIMARCSYM
 70
0
  9
$DIMLTYPE
  6

  9
$DIMLTEX1
  6

  9
$DIMLTEX2
  6

  9
$DIMTXTDIRECTION
 70
0
  9
$LUNITS
 70
2
  9
$LUPREC
 70
4
  9
$SKETCHINC
 40
1.0
  9
$FILLETRAD
 40
10.0
  9
$AUNITS
 70
0
  9
$AUPREC
 70
2
  9
$MENU
  1
.
  9
$ELEVATION
 40
0.0
  9
$PELEVATION
 40
0.0
  9
$THICKNESS
 40
0.0
  9
$LIMCHECK
 70
0
  9
$CHAMFERA
 40
0.0
  9
$CHAMFERB
 40
0.0
  9
$CHAMFERC
 40
0.0
  9
$CHAMFERD
 40
0.0
  9
$SKPOLY
 70
0
  9
$TDCREATE
 40
2460756.766875
  9
$TDUCREATE
 40
2458532.153996898
  9
$TDUPDATE
 40
2460756.766875
  9
$TDUUPDATE
 40
2458532.1544311
  9
$TDINDWG
 40
0.0
  9
$TDUSRTIMER
 40
0.0
  9
$USRTIMER
 70
1
  9
$ANGBASE
 50
0.0
  9
$ANGDIR
 70
0
  9
$PDMODE
 70
0
  9
$PDSIZE
 40
0.0
  9
$PLINEWID
 40
0.0
  9
$SPLFRAME
 70
0
  9
$SPLINETYPE
 70
6
  9
$SPLINESEGS
 70
8
  9
$HANDSEED
  5
9F
  9
$SURFTAB1
 70
6
  9
$SURFTAB2
 70
6
  9
$SURFTYPE
 70
6
  9
$SURFU
 70
6
  9
$SURFV
 70
6
  9
$UCSBASE
  2

  9
$UCSNAME
  2

  9
$UCSORG
 10
0.0
 20
0.0
 30
0.0
  9
$UCSXDIR
 10
1.0
 20
0.0
 30
0.0
  9
$UCSYDIR
 10
0.0
 20
1.0
 30
0.0
  9
$UCSORTHOREF
  2

  9
$UCSORTHOVIEW
 70
0
  9
$UCSORGTOP
 10
0.0
 20
0.0
 30
0.0
  9
$UCSORGBOTTOM
 10
0.0
 20
0.0
 30
0.0
  9
$UCSORGLEFT
 10
0.0
 20
0.0
 30
0.0
  9
$UCSORGRIGHT
 10
0.0
 20
0.0
 30
0.0
  9
$UCSORGFRONT
 10
0.0
 20
0.0
 30
0.0
  9
$UCSORGBACK
 10
0.0
 20
0.0
 30
0.0
  9
$PUCSBASE
  2

  9
$PUCSNAME
  2

  9
$PUCSORG
 10
0.0
 20
0.0
 30
0.0
  9
$PUCSXDIR
 10
1.0
 20
0.0
 30
0.0
  9
$PUCSYDIR
 10
0.0
 20
1.0
 30
0.0
  9
$PUCSORTHOREF
  2

  9
$PUCSORTHOVIEW
 70
0
  9
$PUCSORGTOP
 10
0.0
 20
0.0
 30
0.0
  9
$PUCSORGBOTTOM
 10
0.0
 20
0.0
 30
0.0
  9
$PUCSORGLEFT
 10
0.0
 20
0.0
 30
0.0
  9
$PUCSORGRIGHT
 10
0.0
 20
0.0
 30
0.0
  9
$PUCSORGFRONT
 10
0.0
 20
0.0
 30
0.0
  9
$PUCSORGBACK
 10
0.0
 20
0.0
 30
0.0
  9
$USERI1
 70
0
  9
$USERI2
 70
0
  9
$USERI3
 70
0
  9
$USERI4
 70
0
  9
$USERI5
 70
0
  9
$USERR1
 40
0.0
  9
$USERR2
 40
0.0
  9
$USERR3
 40
0.0
  9
$USERR4
 40
0.0
  9
$USERR5
 40
0.0
  9
$WORLDVIEW
 70
1
  9
$SHADEDGE
 70
3
  9
$SHADEDIF
 70
70
  9
$TILEMODE
 70
1
  9
$MAXACTVP
 70
64
  9
$PINSBASE
 10
0.0
 20
0.0
 30
0.0
  9
$PLIMCHECK
 70
0
  9
$PEXTMIN
 10
1e+20
 20
1e+20
 30
1e+20
  9
$PEXTMAX
 10
-1e+20
 20
-1e+20
 30
-1e+20
  9
$PLIMMIN
 10
0.0
 20
0.0
  9
$PLIMMAX
 10
420.0
 20
297.0
  9
$UNITMODE
 70
0
  9
$VISRETAIN
 70
1
  9
$PLINEGEN
 70
0
  9
$PSLTSCALE
 70
1
  9
$TREEDEPTH
 70
3020
  9
$CMLSTYLE
  2
Standard
  9
$CMLJUST
 70
0
  9
$CMLSCALE
 40
20.0
  9
$PROXYGRAPHICS
 70
1
  9
$MEASUREMENT
 70
1
  9
$CELWEIGHT
370
-1
  9
$ENDCAPS
280
0
  9
$JOINSTYLE
280
0
  9
$LWDISPLAY
290
0
  9
$INSUNITS
 70
6
  9
$HYPERLINKBASE
  1

  9
$STYLESHEET
  1

  9
$XEDIT
290
1
  9
$CEPSNTYPE
380
0
  9
$PSTYLEMODE
290
1
  9
$FINGERPRINTGUID
  2
{833B98B8-9EA7-48E8-BFF0-808D3CA12763}
  9
$VERSIONGUID
  2
{1270C506-ABBB-4707-B215-0D4E5033DDC5}
  9
$EXTNAMES
290
1
  9
$PSVPSCALE
 40
0.0
  9
$OLESTARTUP
290
0
  9
$SORTENTS
280
127
  9
$INDEXCTL
280
0
  9
$HIDETEXT
280
1
  9
$XCLIPFRAME
280
1
  9
$HALOGAP
280
0
  9
$OBSCOLOR
 70
257
  9
$OBSLTYPE
280
0
  9
$INTERSECTIONDISPLAY
280
0
  9
$INTERSECTIONCOLOR
 70
257
  9
$DIMASSOC
280
2
  9
$PROJECTNAME
  1

  9
$CAMERADISPLAY
290
0
  9
$LENSLENGTH
 40
50.0
  9
$CAMERAHEIGHT
 40
0.0
  9
$STEPSPERSEC
 40
24.0
  9
$STEPSIZE
 40
100.0
  9
$3DDWFPREC
 40
2.0
  9
$PSOLWIDTH
 40
0.005
  9
$PSOLHEIGHT
 40
0.08
  9
$LOFTANG1
 40
1.570796326795
  9
$LOFTANG2
 40
1.570796326795
  9
$LOFTMAG1
 40
0.0
  9
$LOFTMAG2
 40
0.0
  9
$LOFTPARAM
 70
7
  9
$LOFTNORMALS
280
1
  9
$LATITUDE
 40
37.795
  9
$LONGITUDE
 40
-122.394
  9
$NORTHDIRECTION
 40
0.0
  9
$TIMEZONE
 70
-8000
  9
$LIGHTGLYPHDISPLAY
280
1
  9
$TILEMODELIGHTSYNCH
280
1
  9
$CMATERIAL
347
20
  9
$SOLIDHIST
280
0
  9
$SHOWHIST
280
1
  9
$DWFFRAME
280
2
  9
$DGNFRAME
280
2
  9
$REALWORLDSCALE
290
1
  9
$INTERFERECOLOR
 62
256
  9
$CSHADOW
280
0
  9
$SHADOWPLANELOCATION
 40
0.0
  0
ENDSEC
  0
SECTION
  2
CLASSES
  0
CLASS
  1
ACDBDICTIONARYWDFLT
  2
AcDbDictionaryWithDefault
  3
ObjectDBX Classes
 90
0
 91
0
280
0
281
0
  0
CLASS
  1
SUN
  2
AcDbSun
  3
SCENEOE
 90
1153
 91
0
280
0
281
0
  0
CLASS
  1
VISUALSTYLE
  2
AcDbVisualStyle
  3
ObjectDBX Classes
 90
4095
 91
0
280
0
281
0
  0
CLASS
  1
MATERIAL
  2
AcDbMaterial
  3
ObjectDBX Classes
 90
1153
 91
0
280
0
281
0
  0
CLASS
  1
SCALE
  2
AcDbScale
  3
ObjectDBX Classes
 90
1153
 91
0
280
0
281
0
  0
CLASS
  1
TABLESTYLE
  2
AcDbTableStyle
  3
ObjectDBX Classes
 90
4095
 91
0
280
0
281
0
  0
CLASS
  1
MLEADERSTYLE
  2
AcDbMLeaderStyle
  3
ACDB_MLEADERSTYLE_CLASS
 90
4095
 91
0
280
0
281
0
  0
CLASS
  1
DICTIONARYVAR
  2
AcDbDictionaryVar
  3
ObjectDBX Classes
 90
0
 91
0
280
0
281
0
  0
CLASS
  1
CELLSTYLEMAP
  2
AcDbCellStyleMap
  3
ObjectDBX Classes
 90
1152
 91
0
280
0
281
0
  0
CLASS
  1
MENTALRAYRENDERSETTINGS
  2
AcDbMentalRayRenderSettings
  3
SCENEOE
 90
1024
 91
0
280
0
281
0
  0
CLASS
  1
ACDBDETAILVIEWSTYLE
  2
AcDbDetailViewStyle
  3
ObjectDBX Classes
 90
1025
 91
0
280
0
281
0
  0
CLASS
  1
ACDBSECTIONVIEWSTYLE
  2
AcDbSectionViewStyle
  3
ObjectDBX Classes
 90
1025
 91
0
280
0
281
0
  0
CLASS
  1
RASTERVARIABLES
  2
AcDbRasterVariables
  3
ISM
 90
0
 91
0
280
0
281
0
  0
CLASS
  1
LAYOUT
  2
AcDbLayout
  3
ObjectDBX Classes
 90
0
 91
0
280
0
281
0
  0
CLASS
  1
ACDBPLACEHOLDER
  2
AcDbPlaceHolder
  3
ObjectDBX Classes
 90
0
 91
0
280
0
281
0
  0
ENDSEC
  0
SECTION
  2
TABLES
  0
TABLE
  2
VPORT
  5
8
330
0
100
AcDbSymbolTable
 70
1
  0
VPORT
  5
23
330
8
100
AcDbSymbolTableRecord
100
AcDbViewportTableRecord
  2
*Active
 70
0
 10
0.0
 20
0.0
 11
1.0
 21
1.0
 12
0.0
 22
0.0
 13
0.0
 23
0.0
 14
0.5
 24
0.5
 15
0.5
 25
0.5
 16
0.0
 26
0.0
 36
1.0
 17
0.0
 27
0.0
 37
0.0
 40
1000.0
 41
1.34
 42
50.0
 43
0.0
 44
0.0
 50
0.0
 51
0.0
 71
0
 72
1000
 73
1
 74
3
 75
0
 76
0
 77
0
 78
0
281
0
 65
0
146
0.0
  0
ENDTAB
  0
TABLE
  2
LTYPE
  5
2
330
0
100
AcDbSymbolTable
 70
3
  0
LTYPE
  5
24
330
2
100
AcDbSymbolTableRecord
100
AcDbLinetypeTableRecord
  2
ByBlock
 70
0
  3

 72
65
 73
0
 40
0.0
  0
LTYPE
  5
25
330
2
100
AcDbSymbolTableRecord
100
AcDbLinetypeTableRecord
  2
ByLayer
 70
0
  3

 72
65
 73
0
 40
0.0
  0
LTYPE
  5
26
330
2
100
AcDbSymbolTableRecord
100
AcDbLinetypeTableRecord
  2
Continuous
 70
0
  3

 72
65
 73
0
 40
0.0
  0
ENDTAB
  0
TABLE
  2
LAYER
  5
1
330
0
100
AcDbSymbolTable
 70
2
  0
LAYER
  5
27
330
1
100
AcDbSymbolTableRecord
100
AcDbLayerTableRecord
  2
0
 70
0
 62
7
  6
Continuous
370
-3
390
13
347
21
  0
LAYER
  5
28
330
1
100
AcDbSymbolTableRecord
100
AcDbLayerTableRecord
  2
Defpoints
 70
0
 62
7
  6
Continuous
290
0
370
-3
390
13
347
21
  0
ENDTAB
  0
TABLE
  2
STYLE
  5
5
330
0
100
AcDbSymbolTable
 70
1
  0
STYLE
  5
29
330
5
100
AcDbSymbolTableRecord
100
AcDbTextStyleTableRecord
  2
Standard
 70
0
 40
0.0
 41
1.0
 50
0.0
 71
0
 42
2.5
  3
txt
  4

  0
ENDTAB
  0
TABLE
  2
VIEW
  5
7
330
0
100
AcDbSymbolTable
 70
0
  0
ENDTAB
  0
TABLE
  2
UCS
  5
6
330
0
100
AcDbSymbolTable
 70
0
  0
ENDTAB
  0
TABLE
  2
APPID
  5
3
330
0
100
AcDbSymbolTable
 70
3
  0
APPID
  5
2A
330
3
100
AcDbSymbolTableRecord
100
AcDbRegAppTableRecord
  2
ACAD
 70
0
  0
APPID
  5
9C
330
3
100
AcDbSymbolTableRecord
100
AcDbRegAppTableRecord
  2
HATCHBACKGROUNDCOLOR
 70
0
  0
APPID
  5
9D
330
3
100
AcDbSymbolTableRecord
100
AcDbRegAppTableRecord
  2
EZDXF
 70
0
  0
ENDTAB
  0
TABLE
  2
DIMSTYLE
  5
4
330
0
100
AcDbSymbolTable
 70
1
100
AcDbDimStyleTable
  0
DIMSTYLE
105
2B
330
4
100
AcDbSymbolTableRecord
100
AcDbDimStyleTableRecord
  2
Standard
 70
0
 40
1.0
 41
2.5
 42
0.625
 43
3.75
 44
1.25
 45
0.0
 46
0.0
 47
0.0
 48
0.0
 49
2.5
140
2.5
141
2.5
142
0.0
143
0.03937007874
144
1.0
145
0.0
146
1.0
147
0.625
148
0.0
 69
0
 70
0
 71
0
 72
0
 73
0
 74
0
 75
0
 76
0
 77
1
 78
8
 79
3
170
0
171
3
172
1
173
0
174
0
175
0
176
0
177
0
178
0
179
2
271
2
272
2
273
2
274
3
275
0
276
0
277
2
278
44
279
0
280
0
281
0
282
0
283
0
284
8
285
0
286
0
288
0
289
3
290
0
371
-2
372
-2
  0
ENDTAB
  0
TABLE
  2
BLOCK_RECORD
  5
9
330
0
100
AcDbSymbolTable
 70
2
  0
BLOCK_RECORD
  5
17
330
9
100
AcDbSymbolTableRecord
100
AcDbBlockTableRecord
  2
*Model_Space
340
1A
 70
0
280
1
281
0
  0
BLOCK_RECORD
  5
1B
330
9
100
AcDbSymbolTableRecord
100
AcDbBlockTableRecord
  2
*Paper_Space
340
1E
 70
0
280
1
281
0
  0
ENDTAB
  0
ENDSEC
  0
SECTION
  2
BLOCKS
  0
BLOCK
  5
18
330
17
100
AcDbEntity
  8
0
100
AcDbBlockBegin
  2
*Model_Space
 70
0
 10
0.0
 20
0.0
 30
0.0
  3
*Model_Space
  1

  0
ENDBLK
  5
19
330
17
100
AcDbEntity
  8
0
100
AcDbBlockEnd
  0
BLOCK
  5
1C
330
1B
100
AcDbEntity
  8
0
100
AcDbBlockBegin
  2
*Paper_Space
 70
0
 10
0.0
 20
0.0
 30
0.0
  3
*Paper_Space
  1

  0
ENDBLK
  5
1D
330
1B
100
AcDbEntity
  8
0
100
AcDbBlockEnd
  0
ENDSEC
  0
SECTION
  2
ENTITIES
  0
POLYLINE
  5
2F
330
17
100
AcDbEntity
  8
0
100
AcDb2dPolyline
 66
1
 10
0.0
 20
0.0
 30
0.0
 70
0
  0
VERTEX
  5
30
330
2F
100
AcDbEntity
  8
0
100
AcDbVertex
100
AcDb2dVertex
 10
36.76880222841226
 20
16.504178272980504
 30
0.0
 70
0
  0
VERTEX
  5
31
330
2F
100
AcDbEntity
  8
0
100
AcDbVertex
100
AcDb2dVertex
 10
36.74595229805015
 20
15.659002872562676
 30
0.0
 70
0
  0
VERTEX
  5
32
330
2F
100
AcDbEntity
  8
0
100
AcDbVertex
100
AcDb2dVertex
 10
36.677402506963794
 20
14.829604805013929
 30
0.0
 70
0
  0
VERTEX
  5
33
330
2F
100
AcDbEntity
  8
0
100
AcDbVertex
100
AcDb2dVertex
 10
36.56315285515321
 20
14.015984070334262
 30
0.0
 70
0
  0
VERTEX
  5
34
330
2F
100
AcDbEntity
  8
0
100
AcDbVertex
100
AcDb2dVertex
 10
36.40320334261839
 20
13.218140668523677
 30
0.0
 70
0
  0
VERTEX
  5
35
330
2F
100
AcDbEntity
  8
0
100
AcDbVertex
100
AcDb2dVertex
 10
36.19755396935934
 20
12.436074599582174
 30
0.0
 70
0
  0
VERTEX
  5
36
330
2F
100
AcDbEntity
  8
0
100
AcDbVertex
100
AcDb2dVertex
 10
35.94620473537605
 20
11.669785863509752
 30
0.0
 70
0
  0
VERTEX
  5
37
330
2F
100
AcDbEntity
  8
0
100
AcDbVertex
100
AcDb2dVertex
 10
35.64915564066853
 20
10.919274460306408
 30
0.0
 70
0
  0
VERTEX
  5
38
330
2F
100
AcDbEntity
  8
0
100
AcDbVertex
100
AcDb2dVertex
 10
35.30640668523677
 20
10.184540389972145
 30
0.0
 70
0
  0
VERTEX
  5
39
330
2F
100
AcDbEntity
  8
0
100
AcDbVertex
100
AcDb2dVertex
 10
34.91795786908079
 20
9.465583652506965
 30
0.0
 70
0
  0
VERTEX
  5
3A
330
2F
100
AcDbEntity
  8
0
100
AcDbVertex
100
AcDb2dVertex
 10
34.48380919220056
 20
8.762404247910865
 30
0.0
 70
0
  0
VERTEX
  5
3B
330
2F
100
AcDbEntity
  8
0
100
AcDbVertex
100
AcDb2dVertex
 10
34.003960654596106
 20
8.075002176183846
 30
0.0
 70
0
  0
VERTEX
  5
3C
330
2F
100
AcDbEntity
  8
0
100
AcDbVertex
100
AcDb2dVertex
 10
33.47841225626742
 20
7.403377437325906
 30
0.0
 70
0
  0
VERTEX
  5
3D
330
2F
100
AcDbEntity
  8
0
100
AcDbVertex
100
AcDb2dVertex
 10
32.90716399721449
 20
6.747530031337048
 30
0.0
 70
0
  0
VERTEX
  5
3E
330
2F
100
AcDbEntity
  8
0
100
AcDbVertex
100
AcDb2dVertex
 10
32.29021587743733
 20
6.107459958217271
 30
0.0
 70
0
  0
VERTEX
  5
3F
330
2F
100
AcDbEntity
  8
0
100
AcDbVertex
100
AcDb2dVertex
 10
31.62756789693594
 20
5.4831672179665745
 30
0.0
 70
0
  0
VERTEX
  5
40
330
2F
100
AcDbEntity
  8
0
100
AcDbVertex
100
AcDb2dVertex
 10
30.919220055710312
 20
4.874651810584959
 30
0.0
 70
0
  0
VERTEX
  5
41
330
2F
100
AcDbEntity
  8
0
100
AcDbVertex
100
AcDb2dVertex
 10
30.195638927576606
 20
4.284361942896937
 30
0.0
 70
0
  0
VERTEX
  5
42
330
2F
100
AcDbEntity
  8
0
100
AcDbVertex
100
AcDb2dVertex
 10
29.4524721448468
 20
3.732155292479109
 30
0.0
 70
0
  0
VERTEX
  5
43
330
2F
100
AcDbEntity
  8
0
100
AcDbVertex
100
AcDb2dVertex
 10
28.689719707520897
 20
3.218031859331477
 30
0.0
 70
0
  0
VERTEX
  5
44
330
2F
100
AcDbEntity
  8
0
100
AcDbVertex
100
AcDb2dVertex
 10
27.90738161559889
 20
2.7419916434540395
 30
0.0
 70
0
  0
VERTEX
  5
45
330
2F
100
AcDbEntity
  8
0
100
AcDbVertex
100
AcDb2dVertex
 10
27.105457869080784
 20
2.304034644846797
 30
0.0
 70
0
  0
VERTEX
  5
46
330
2F
100
AcDbEntity
  8
0
100
AcDbVertex
100
AcDb2dVertex
 10
26.283948467966578
 20
1.90416086350975
 30
0.0
 70
0
  0
VERTEX
  5
47
330
2F
100
AcDbEntity
  8
0
100
AcDbVertex
100
AcDb2dVertex
 10
25.44285341225627
 20
1.5423702994428972
 30
0.0
 70
0
  0
VERTEX
  5
48
330
2F
100
AcDbEntity
  8
0
100
AcDbVertex
100
AcDb2dVertex
 10
24.582172701949865
 20
1.2186629526462398
 30
0.0
 70
0
  0
VERTEX
  5
49
330
2F
100
AcDbEntity
  8
0
100
AcDbVertex
100
AcDb2dVertex
 10
23.701906337047355
 20
0.9330388231197775
 30
0.0
 70
0
  0
VERTEX
  5
4A
330
2F
100
AcDbEntity
  8
0
100
AcDbVertex
100
AcDb2dVertex
 10
22.802054317548752
 20
0.6854979108635098
 30
0.0
 70
0
  0
VERTEX
  5
4B
330
2F
100
AcDbEntity
  8
0
100
AcDbVertex
100
AcDb2dVertex
 10
21.882616643454043
 20
0.47604021587743706
 30
0.0
 70
0
  0
VERTEX
  5
4C
330
2F
100
AcDbEntity
  8
0
100
AcDbVertex
100
AcDb2dVertex
 10
20.943593314763234
 20
0.3046657381615603
 30
0.0
 70
0
  0
VERTEX
  5
4D
330
2F
100
AcDbEntity
  8
0
100
AcDbVertex
100
AcDb2dVertex
 10
19.984984331476326
 20
0.17137447771587766
 30
0.0
 70
0
  0
VERTEX
  5
4E
330
2F
100
AcDbEntity
  8
0
100
AcDbVertex
100
AcDb2dVertex
 10
19.00678969359332
 20
0.07616643454039007
 30
0.0
 70
0
  0
VERTEX
  5
4F
330
2F
100
AcDbEntity
  8
0
100
AcDbVertex
100
AcDb2dVertex
 10
18.00900940111421
 20
0.019041608635097518
 30
0.0
 70
0
  0
VERTEX
  5
50
330
2F
100
AcDbEntity
  8
0
100
AcDbVertex
100
AcDb2dVertex
 10
16.991643454039
 20
0.0
 30
0.0
 70
0
  0
VERTEX
  5
51
330
2F
100
AcDbEntity
  8
0
100
AcDbVertex
100
AcDb2dVertex
 10
15.67940459610028
 20
0.036995125348189425
 30
0.0
 70
0
  0
VERTEX
  5
52
330
2F
100
AcDbEntity
  8
0
100
AcDbVertex
100
AcDb2dVertex
 10
14.388927576601672
 20
0.1479805013927577
 30
0.0
 70
0
  0
VERTEX
  5
53
330
2F
100
AcDbEntity
  8
0
100
AcDbVertex
100
AcDb2dVertex
 10
13.120212395543176
 20
0.33295612813370484
 30
0.0
 70
0
  0
VERTEX
  5
54
330
2F
100
AcDbEntity
  8
0
100
AcDbVertex
100
AcDb2dVertex
 10
11.87325905292479
 20
0.5919220055710308
 30
0.0
 70
0
  0
VERTEX
  5
55
330
2F
100
AcDbEntity
  8
0
100
AcDbVertex
100
AcDb2dVertex
 10
10.654596100278551
 20
0.9161733983286909
 30
0.0
 70
0
  0
VERTEX
  5
56
330
2F
100
AcDbEntity
  8
0
100
AcDbVertex
100
AcDb2dVertex
 10
9.47075208913649
 20
1.2970055710306407
 30
0.0
 70
0
  0
VERTEX
  5
57
330
2F
100
AcDbEntity
  8
0
100
AcDbVertex
100
AcDb2dVertex
 10
8.321727019498606
 20
1.7344185236768803
 30
0.0
 70
0
  0
VERTEX
  5
58
330
2F
100
AcDbEntity
  8
0
100
AcDbVertex
100
AcDb2dVertex
 10
7.2075208913649025
 20
2.2284122562674096
 30
0.0
 70
0
  0
VERTEX
  5
59
330
2F
100
AcDbEntity
  8
0
100
AcDbVertex
100
AcDb2dVertex
 10
6.132486072423399
 20
2.7789867688022287
 30
0.0
 70
0
  0
VERTEX
  5
5A
330
2F
100
AcDbEntity
  8
0
100
AcDbVertex
100
AcDb2dVertex
 10
5.100974930362117
 20
3.3861420612813373
 30
0.0
 70
0
  0
VERTEX
  5
5B
330
2F
100
AcDbEntity
  8
0
100
AcDbVertex
100
AcDb2dVertex
 10
4.1129874651810585
 20
4.049878133704736
 30
0.0
 70
0
  0
VERTEX
  5
5C
330
2F
100
AcDbEntity
  8
0
100
AcDbVertex
100
AcDb2dVertex
 10
3.168523676880223
 20
4.770194986072424
 30
0.0
 70
0
  0
VERTEX
  5
5D
330
2F
100
AcDbEntity
  8
0
100
AcDbVertex
100
AcDb2dVertex
 10
2.7153333913649025
 20
5.150483112813371
 30
0.0
 70
0
  0
VERTEX
  5
5E
330
2F
100
AcDbEntity
  8
0
100
AcDbVertex
100
AcDb2dVertex
 10
2.278464484679666
 20
5.542740250696379
 30
0.0
 70
0
  0
VERTEX
  5
5F
330
2F
100
AcDbEntity
  8
0
100
AcDbVertex
100
AcDb2dVertex
 10
1.8579169568245126
 20
5.9469663997214495
 30
0.0
 70
0
  0
VERTEX
  5
60
330
2F
100
AcDbEntity
  8
0
100
AcDbVertex
100
AcDb2dVertex
 10
1.4536908077994428
 20
6.36316155988858
 30
0.0
 70
0
  0
VERTEX
  5
61
330
2F
100
AcDbEntity
  8
0
100
AcDbVertex
100
AcDb2dVertex
 10
1.065786037604457
 20
6.791325731197773
 30
0.0
 70
0
  0
VERTEX
  5
62
330
2F
100
AcDbEntity
  8
0
100
AcDbVertex
100
AcDb2dVertex
 10
0.6942026462395545
 20
7.231458913649026
 30
0.0
 70
0
  0
VERTEX
  5
63
330
2F
100
AcDbEntity
  8
0
100
AcDbVertex
100
AcDb2dVertex
 10
0.3389406337047354
 20
7.68356110724234
 30
0.0
 70
0
  0
VERTEX
  5
64
330
2F
100
AcDbEntity
  8
0
100
AcDbVertex
100
AcDb2dVertex
 10
0.0
 20
8.147632311977716
 30
0.0
 70
0
  0
VERTEX
  5
65
330
2F
100
AcDbEntity
  8
0
100
AcDbVertex
100
AcDb2dVertex
 10
6.545961002785516
 20
11.002785515320335
 30
0.0
 70
0
  0
VERTEX
  5
66
330
2F
100
AcDbEntity
  8
0
100
AcDbVertex
100
AcDb2dVertex
 10
7.011120299442898
 20
10.412495647632312
 30
0.0
 70
0
  0
VERTEX
  5
67
330
2F
100
AcDbEntity
  8
0
100
AcDbVertex
100
AcDb2dVertex
 10
7.501305710306408
 20
9.860288997214486
 30
0.0
 70
0
  0
VERTEX
  5
68
330
2F
100
AcDbEntity
  8
0
100
AcDbVertex
100
AcDb2dVertex
 10
8.016517235376046
 20
9.346165564066853
 30
0.0
 70
0
  0
VERTEX
  5
69
330
2F
100
AcDbEntity
  8
0
100
AcDbVertex
100
AcDb2dVertex
 10
8.556754874651812
 20
8.870125348189415
 30
0.0
 70
0
  0
VERTEX
  5
6A
330
2F
100
AcDbEntity
  8
0
100
AcDbVertex
100
AcDb2dVertex
 10
9.122018628133706
 20
8.432168349582174
 30
0.0
 70
0
  0
VERTEX
  5
6B
330
2F
100
AcDbEntity
  8
0
100
AcDbVertex
100
AcDb2dVertex
 10
9.712308495821729
 20
8.032294568245126
 30
0.0
 70
0
  0
VERTEX
  5
6C
330
2F
100
AcDbEntity
  8
0
100
AcDbVertex
100
AcDb2dVertex
 10
10.32762447771588
 20
7.670504004178273
 30
0.0
 70
0
  0
VERTEX
  5
6D
330
2F
100
AcDbEntity
  8
0
100
AcDbVertex
100
AcDb2dVertex
 10
10.967966573816158
 20
7.346796657381615
 30
0.0
 70
0
  0
VERTEX
  5
6E
330
2F
100
AcDbEntity
  8
0
100
AcDbVertex
100
AcDb2dVertex
 10
11.633334784122564
 20
7.061172527855153
 30
0.0
 70
0
  0
VERTEX
  5
6F
330
2F
100
AcDbEntity
  8
0
100
AcDbVertex
100
AcDb2dVertex
 10
12.3237291086351
 20
6.813631615598886
 30
0.0
 70
0
  0
VERTEX
  5
70
330
2F
100
AcDbEntity
  8
0
100
AcDbVertex
100
AcDb2dVertex
 10
13.039149547353762
 20
6.604173920612813
 30
0.0
 70
0
  0
VERTEX
  5
71
330
2F
100
AcDbEntity
  8
0
100
AcDbVertex
100
AcDb2dVertex
 10
13.779596100278553
 20
6.432799442896936
 30
0.0
 70
0
  0
VERTEX
  5
72
330
2F
100
AcDbEntity
  8
0
100
AcDbVertex
100
AcDb2dVertex
 10
14.545068767409472
 20
6.2995081824512535
 30
0.0
 70
0
  0
VERTEX
  5
73
330
2F
100
AcDbEntity
  8
0
100
AcDbVertex
100
AcDb2dVertex
 10
15.335567548746521
 20
6.204300139275766
 30
0.0
 70
0
  0
VERTEX
  5
74
330
2F
100
AcDbEntity
  8
0
100
AcDbVertex
100
AcDb2dVertex
 10
16.151092444289695
 20
6.147175313370473
 30
0.0
 70
0
  0
VERTEX
  5
75
330
2F
100
AcDbEntity
  8
0
100
AcDbVertex
100
AcDb2dVertex
 10
16.991643454039
 20
6.128133704735376
 30
0.0
 70
0
  0
VERTEX
  5
76
330
2F
100
AcDbEntity
  8
0
100
AcDbVertex
100
AcDb2dVertex
 10
17.621648676880227
 20
6.140102715877437
 30
0.0
 70
0
  0
VERTEX
  5
77
330
2F
100
AcDbEntity
  8
0
100
AcDbVertex
100
AcDb2dVertex
 10
18.240772980501397
 20
6.176009749303621
 30
0.0
 70
0
  0
VERTEX
  5
78
330
2F
100
AcDbEntity
  8
0
100
AcDbVertex
100
AcDb2dVertex
 10
18.84901636490251
 20
6.235854805013927
 30
0.0
 70
0
  0
VERTEX
  5
79
330
2F
100
AcDbEntity
  8
0
100
AcDbVertex
100
AcDb2dVertex
 10
19.446378830083567
 20
6.319637883008356
 30
0.0
 70
0
  0
VERTEX
  5
7A
330
2F
100
AcDbEntity
  8
0
100
AcDbVertex
100
AcDb2dVertex
 10
20.03286037604457
 20
6.427358983286908
 30
0.0
 70
0
  0
VERTEX
  5
7B
330
2F
100
AcDbEntity
  8
0
100
AcDbVertex
100
AcDb2dVertex
 10
20.608461002785518
 20
6.559018105849582
 30
0.0
 70
0
  0
VERTEX
  5
7C
330
2F
100
AcDbEntity
  8
0
100
AcDbVertex
100
AcDb2dVertex
 10
21.17318071030641
 20
6.7146152506963785
 30
0.0
 70
0
  0
VERTEX
  5
7D
330
2F
100
AcDbEntity
  8
0
100
AcDbVertex
100
AcDb2dVertex
 10
21.727019498607245
 20
6.894150417827298
 30
0.0
 70
0
  0
VERTEX
  5
7E
330
2F
100
AcDbEntity
  8
0
100
AcDbVertex
100
AcDb2dVertex
 10
22.269977367688025
 20
7.0976236072423395
 30
0.0
 70
0
  0
VERTEX
  5
7F
330
2F
100
AcDbEntity
  8
0
100
AcDbVertex
100
AcDb2dVertex
 10
22.802054317548752
 20
7.3250348189415035
 30
0.0
 70
0
  0
VERTEX
  5
80
330
2F
100
AcDbEntity
  8
0
100
AcDbVertex
100
AcDb2dVertex
 10
23.32325034818942
 20
7.576384052924791
 30
0.0
 70
0
  0
VERTEX
  5
81
330
2F
100
AcDbEntity
  8
0
100
AcDbVertex
100
AcDb2dVertex
 10
23.833565459610032
 20
7.8516713091922
 30
0.0
 70
0
  0
VERTEX
  5
82
330
2F
100
AcDbEntity
  8
0
100
AcDbVertex
100
AcDb2dVertex
 10
24.33299965181059
 20
8.150896587743732
 30
0.0
 70
0
  0
VERTEX
  5
83
330
2F
100
AcDbEntity
  8
0
100
AcDbVertex
100
AcDb2dVertex
 10
24.82155292479109
 20
8.474059888579387
 30
0.0
 70
0
  0
VERTEX
  5
84
330
2F
100
AcDbEntity
  8
0
100
AcDbVertex
100
AcDb2dVertex
 10
25.299225278551535
 20
8.821161211699163
 30
0.0
 70
0
  0
VERTEX
  5
85
330
2F
100
AcDbEntity
  8
0
100
AcDbVertex
100
AcDb2dVertex
 10
25.766016713091926
 20
9.192200557103064
 30
0.0
 70
0
  0
VERTEX
  5
86
330
2F
100
AcDbEntity
  8
0
100
AcDbVertex
100
AcDb2dVertex
 10
26.212950470055713
 20
9.57983330431755
 30
0.0
 70
0
  0
VERTEX
  5
87
330
2F
100
AcDbEntity
  8
0
100
AcDbVertex
100
AcDb2dVertex
 10
26.631049791086355
 20
9.976714832869082
 30
0.0
 70
0
  0
VERTEX
  5
88
330
2F
100
AcDbEntity
  8
0
100
AcDbVertex
100
AcDb2dVertex
 10
27.020314676183848
 20
10.38284514275766
 30
0.0
 70
0
  0
VERTEX
  5
89
330
2F
100
AcDbEntity
  8
0
100
AcDbVertex
100
AcDb2dVertex
 10
27.38074512534819
 20
10.798224233983287
 30
0.0
 70
0
  0
VERTEX
  5
8A
330
2F
100
AcDbEntity
  8
0
100
AcDbVertex
100
AcDb2dVertex
 10
27.71234113857939
 20
11.222852106545961
 30
0.0
 70
0
  0
VERTEX
  5
8B
330
2F
100
AcDbEntity
  8
0
100
AcDbVertex
100
AcDb2dVertex
 10
28.01510271587744
 20
11.656728760445684
 30
0.0
 70
0
  0
VERTEX
  5
8C
330
2F
100
AcDbEntity
  8
0
100
AcDbVertex
100
AcDb2dVertex
 10
28.289029857242344
 20
12.099854195682452
 30
0.0
 70
0
  0
VERTEX
  5
8D
330
2F
100
AcDbEntity
  8
0
100
AcDbVertex
100
AcDb2dVertex
 10
28.5341225626741
 20
12.55222841225627
 30
0.0
 70
0
  0
VERTEX
  5
8E
330
2F
100
AcDbEntity
  8
0
100
AcDbVertex
100
AcDb2dVertex
 10
28.750380832172706
 20
13.013851410167131
 30
0.0
 70
0
  0
VERTEX
  5
8F
330
2F
100
AcDbEntity
  8
0
100
AcDbVertex
100
AcDb2dVertex
 10
28.937804665738167
 20
13.484723189415043
 30
0.0
 70
0
  0
VERTEX
  5
90
330
2F
100
AcDbEntity
  8
0
100
AcDbVertex
100
AcDb2dVertex
 10
29.09639406337048
 20
13.964843750000002
 30
0.0
 70
0
  0
VERTEX
  5
91
330
2F
100
AcDbEntity
  8
0
100
AcDbVertex
100
AcDb2dVertex
 10
29.226149025069642
 20
14.454213091922007
 30
0.0
 70
0
  0
VERTEX
  5
92
330
2F
100
AcDbEntity
  8
0
100
AcDbVertex
100
AcDb2dVertex
 10
29.32706955083566
 20
14.95283121518106
 30
0.0
 70
0
  0
VERTEX
  5
93
330
2F
100
AcDbEntity
  8
0
100
AcDbVertex
100
AcDb2dVertex
 10
29.39915564066853
 20
15.46069811977716
 30
0.0
 70
0
  0
VERTEX
  5
94
330
2F
100
AcDbEntity
  8
0
100
AcDbVertex
100
AcDb2dVertex
 10
29.44240729456825
 20
15.977813805710309
 30
0.0
 70
0
  0
VERTEX
  5
95
330
2F
100
AcDbEntity
  8
0
100
AcDbVertex
100
AcDb2dVertex
 10
29.456824512534823
 20
16.504178272980504
 30
0.0
 70
0
  0
VERTEX
  5
96
330
2F
100
AcDbEntity
  8
0
100
AcDbVertex
100
AcDb2dVertex
 10
29.456824512534823
 20
43.871866295264624
 30
0.0
 70
0
  0
VERTEX
  5
97
330
2F
100
AcDbEntity
  8
0
100
AcDbVertex
100
AcDb2dVertex
 10
14.623955431754874
 20
43.871866295264624
 30
0.0
 70
0
  0
VERTEX
  5
98
330
2F
100
AcDbEntity
  8
0
100
AcDbVertex
100
AcDb2dVertex
 10
14.623955431754874
 20
50.0
 30
0.0
 70
0
  0
VERTEX
  5
99
330
2F
100
AcDbEntity
  8
0
100
AcDbVertex
100
AcDb2dVertex
 10
36.76880222841226
 20
50.0
 30
0.0
 70
0
  0
VERTEX
  5
9A
330
2F
100
AcDbEntity
  8
0
100
AcDbVertex
100
AcDb2dVertex
 10
36.76880222841226
 20
16.504178272980504
 30
0.0
 70
0
  0
SEQEND
  5
9B
330
2F
100
AcDbEntity
  8
0
  0
ENDSEC
  0
SECTION
  2
OBJECTS
  0
DICTIONARY
  5
A
330
0
100
AcDbDictionary
280
0
281
1
  3
ACAD_COLOR
350
B
  3
ACAD_GROUP
350
C
  3
ACAD_LAYOUT
350
D
  3
ACAD_MATERIAL
350
E
  3
ACAD_MLEADERSTYLE
350
F
  3
ACAD_MLINESTYLE
350
10
  3
ACAD_PLOTSETTINGS
350
11
  3
ACAD_PLOTSTYLENAME
350
12
  3
ACAD_SCALELIST
350
14
  3
ACAD_TABLESTYLE
350
15
  3
ACAD_VISUALSTYLE
350
16
  3
EZDXF_META
350
2D
  0
DICTIONARY
  5
B
330
A
100
AcDbDictionary
280
0
281
1
  0
DICTIONARY
  5
C
330
A
100
AcDbDictionary
280
0
281
1
  0
DICTIONARY
  5
D
330
A
100
AcDbDictionary
280
0
281
1
  3
Model
350
1A
  3
Layout1
350
1E
  0
DICTIONARY
  5
E
330
A
100
AcDbDictionary
280
0
281
1
  3
ByBlock
350
1F
  3
ByLayer
350
20
  3
Global
350
21
  0
DICTIONARY
  5
F
330
A
100
AcDbDictionary
280
0
281
1
  3
Standard
350
2C
  0
DICTIONARY
  5
10
330
A
100
AcDbDictionary
280
0
281
1
  3
Standard
350
22
  0
DICTIONARY
  5
11
330
A
100
AcDbDictionary
280
0
281
1
  0
ACDBDICTIONARYWDFLT
  5
12
330
A
100
AcDbDictionary
280
0
281
1
  3
Normal
350
13
100
AcDbDictionaryWithDefault
340
13
  0
ACDBPLACEHOLDER
  5
13
330
12
  0
DICTIONARY
  5
14
330
A
100
AcDbDictionary
280
0
281
1
  0
DICTIONARY
  5
15
330
A
100
AcDbDictionary
280
0
281
1
  0
DICTIONARY
  5
16
330
A
100
AcDbDictionary
280
0
281
1
  0
LAYOUT
  5
1A
330
D
100
AcDbPlotSettings
  1

  4
A3
  6

 40
7.5
 41
20.0
 42
7.5
 43
20.0
 44
420.0
 45
297.0
 46
0.0
 47
0.0
 48
0.0
 49
0.0
140
0.0
141
0.0
142
1.0
143
1.0
 70
1024
 72
1
 73
0
 74
5
  7

 75
16
 76
0
 77
2
 78
300
147
1.0
148
0.0
149
0.0
100
AcDbLayout
  1
Model
 70
1
 71
0
 10
0.0
 20
0.0
 11
420.0
 21
297.0
 12
0.0
 22
0.0
 32
0.0
 14
1e+20
 24
1e+20
 34
1e+20
 15
-1e+20
 25
-1e+20
 35
-1e+20
146
0.0
 13
0.0
 23
0.0
 33
0.0
 16
1.0
 26
0.0
 36
0.0
 17
0.0
 27
1.0
 37
0.0
 76
1
330
17
  0
LAYOUT
  5
1E
330
D
100
AcDbPlotSettings
  1

  4
A3
  6

 40
7.5
 41
20.0
 42
7.5
 43
20.0
 44
420.0
 45
297.0
 46
0.0
 47
0.0
 48
0.0
 49
0.0
140
0.0
141
0.0
142
1.0
143
1.0
 70
0
 72
1
 73
0
 74
5
  7

 75
16
 76
0
 77
2
 78
300
147
1.0
148
0.0
149
0.0
100
AcDbLayout
  1
Layout1
 70
1
 71
1
 10
0.0
 20
0.0
 11
420.0
 21
297.0
 12
0.0
 22
0.0
 32
0.0
 14
1e+20
 24
1e+20
 34
1e+20
 15
-1e+20
 25
-1e+20
 35
-1e+20
146
0.0
 13
0.0
 23
0.0
 33
0.0
 16
1.0
 26
0.0
 36
0.0
 17
0.0
 27
1.0
 37
0.0
 76
1
330
1B
  0
MATERIAL
  5
1F
102
{ACAD_REACTORS
330
E
102
}
330
E
100
AcDbMaterial
  1
ByBlock
  2

 70
0
 40
1.0
 71
1
 41
1.0
 91
-1023410177
 42
1.0
 72
1
  3

 73
1
 74
1
 75
1
 44
0.5
 73
0
 45
1.0
 46
1.0
 77
1
  4

 78
1
 79
1
170
1
 48
1.0
171
1
  6

172
1
173
1
174
1
140
1.0
141
1.0
175
1
  7

176
1
177
1
178
1
143
1.0
179
1
  8

270
1
271
1
272
1
145
1.0
146
1.0
273
1
  9

274
1
275
1
276
1
 42
1.0
 72
1
  3

 73
1
 74
1
 75
1
 94
63
  0
MATERIAL
  5
20
102
{ACAD_REACTORS
330
E
102
}
330
E
100
AcDbMaterial
  1
ByLayer
  2

 70
0
 40
1.0
 71
1
 41
1.0
 91
-1023410177
 42
1.0
 72
1
  3

 73
1
 74
1
 75
1
 44
0.5
 73
0
 45
1.0
 46
1.0
 77
1
  4

 78
1
 79
1
170
1
 48
1.0
171
1
  6

172
1
173
1
174
1
140
1.0
141
1.0
175
1
  7

176
1
177
1
178
1
143
1.0
179
1
  8

270
1
271
1
272
1
145
1.0
146
1.0
273
1
  9

274
1
275
1
276
1
 42
1.0
 72
1
  3

 73
1
 74
1
 75
1
 94
63
  0
MATERIAL
  5
21
102
{ACAD_REACTORS
330
E
102
}
330
E
100
AcDbMaterial
  1
Global
  2

 70
0
 40
1.0
 71
1
 41
1.0
 91
-1023410177
 42
1.0
 72
1
  3

 73
1
 74
1
 75
1
 44
0.5
 73
0
 45
1.0
 46
1.0
 77
1
  4

 78
1
 79
1
170
1
 48
1.0
171
1
  6

172
1
173
1
174
1
140
1.0
141
1.0
175
1
  7

176
1
177
1
178
1
143
1.0
179
1
  8

270
1
271
1
272
1
145
1.0
146
1.0
273
1
  9

274
1
275
1
276
1
 42
1.0
 72
1
  3

 73
1
 74
1
 75
1
 94
63
  0
MLINESTYLE
  5
22
102
{ACAD_REACTORS
330
10
102
}
330
10
100
AcDbMlineStyle
  2
Standard
 70
0
  3

 62
256
 51
90.0
 52
90.0
 71
2
 49
0.5
 62
256
  6
BYLAYER
 49
-0.5
 62
256
  6
BYLAYER
  0
MLEADERSTYLE
  5
2C
102
{ACAD_REACTORS
330
F
102
}
330
F
100
AcDbMLeaderStyle
179
2
170
2
171
1
172
0
 90
2
 40
0.0
 41
0.0
173
1
 91
-1056964608
 92
-2
290
1
 42
2.0
291
1
 43
8.0
  3
Standard
 44
4.0
300

342
29
174
1
175
1
176
0
178
1
 93
-1056964608
 45
4.0
292
0
297
0
 46
4.0
 94
-1056964608
 47
1.0
 49
1.0
140
1.0
294
1
141
0.0
177
0
142
1.0
295
0
296
0
143
3.75
271
0
272
9
273
9
  0
DICTIONARY
  5
2D
330
A
100
AcDbDictionary
280
1
281
1
  3
CREATED_BY_EZDXF
350
2E
  3
WRITTEN_BY_EZDXF
350
9E
  0
DICTIONARYVAR
  5
2E
330
2D
100
DictionaryVariables
280
0
  1
1.4.0 @ 2025-03-21T17:24:18.301274+00:00
  0
DICTIONARYVAR
  5
9E
330
2D
100
DictionaryVariables
280
0
  1
1.4.0 @ 2025-03-21T17:24:18.303029+00:00
  0
ENDSEC
  0
EOF
