  0
SECTION
  2
HEADER
  9
$ACADVER
  1
AC1024
  9
$ACADMAINTVER
 70
6
  9
$DWGCODEPAGE
  3
ANSI_1252
  9
$LASTSAVEDBY
  1
ezdxf
  9
$INSBASE
 10
0.0
 20
0.0
 30
0.0
  9
$EXTMIN
 10
1e+20
 20
1e+20
 30
1e+20
  9
$EXTMAX
 10
-1e+20
 20
-1e+20
 30
-1e+20
  9
$LIMMIN
 10
0.0
 20
0.0
  9
$LIMMAX
 10
420.0
 20
297.0
  9
$ORTHOMODE
 70
0
  9
$REGENMODE
 70
1
  9
$FILLMODE
 70
1
  9
$QTEXTMODE
 70
0
  9
$MIRRTEXT
 70
1
  9
$LTSCALE
 40
1.0
  9
$ATTMODE
 70
1
  9
$TEXTSIZE
 40
2.5
  9
$TRACEWID
 40
1.0
  9
$TEXTSTYLE
  7
Standard
  9
$CLAYER
  8
0
  9
$CELTYPE
  6
ByLayer
  9
$CECOLOR
 62
256
  9
$CELTSCALE
 40
1.0
  9
$DISPSILH
 70
0
  9
$DIMSCALE
 40
1.0
  9
$DIMASZ
 40
2.5
  9
$DIMEXO
 40
0.625
  9
$DIMDLI
 40
3.75
  9
$DIMRND
 40
0.0
  9
$DIMDLE
 40
0.0
  9
$DIMEXE
 40
1.25
  9
$DIMTP
 40
0.0
  9
$DIMTM
 40
0.0
  9
$DIMTXT
 40
2.5
  9
$DIMCEN
 40
2.5
  9
$DIMTSZ
 40
0.0
  9
$DIMTOL
 70
0
  9
$DIMLIM
 70
0
  9
$DIMTIH
 70
0
  9
$DIMTOH
 70
0
  9
$DIMSE1
 70
0
  9
$DIMSE2
 70
0
  9
$DIMTAD
 70
1
  9
$DIMZIN
 70
8
  9
$DIMBLK
  1

  9
$DIMASO
 70
1
  9
$DIMSHO
 70
1
  9
$DIMPOST
  1

  9
$DIMAPOST
  1

  9
$DIMALT
 70
0
  9
$DIMALTD
 70
3
  9
$DIMALTF
 40
0.03937007874
  9
$DIMLFAC
 40
1.0
  9
$DIMTOFL
 70
1
  9
$DIMTVP
 40
0.0
  9
$DIMTIX
 70
0
  9
$DIMSOXD
 70
0
  9
$DIMSAH
 70
0
  9
$DIMBLK1
  1

  9
$DIMBLK2
  1

  9
$DIMSTYLE
  2
ISO-25
  9
$DIMCLRD
 70
0
  9
$DIMCLRE
 70
0
  9
$DIMCLRT
 70
0
  9
$DIMTFAC
 40
1.0
  9
$DIMGAP
 40
0.625
  9
$DIMJUST
 70
0
  9
$DIMSD1
 70
0
  9
$DIMSD2
 70
0
  9
$DIMTOLJ
 70
0
  9
$DIMTZIN
 70
8
  9
$DIMALTZ
 70
0
  9
$DIMALTTZ
 70
0
  9
$DIMUPT
 70
0
  9
$DIMDEC
 70
2
  9
$DIMTDEC
 70
2
  9
$DIMALTU
 70
2
  9
$DIMALTTD
 70
3
  9
$DIMTXSTY
  7
Standard
  9
$DIMAUNIT
 70
0
  9
$DIMADEC
 70
0
  9
$DIMALTRND
 40
0.0
  9
$DIMAZIN
 70
0
  9
$DIMDSEP
 70
44
  9
$DIMATFIT
 70
3
  9
$DIMFRAC
 70
0
  9
$DIMLDRBLK
  1

  9
$DIMLUNIT
 70
2
  9
$DIMLWD
 70
-2
  9
$DIMLWE
 70
-2
  9
$DIMTMOVE
 70
0
  9
$DIMFXL
 40
1.0
  9
$DIMFXLON
 70
0
  9
$DIMJOGANG
 40
0.785398163397
  9
$DIMTFILL
 70
0
  9
$DIMTFILLCLR
 70
0
  9
$DIMARCSYM
 70
0
  9
$DIMLTYPE
  6

  9
$DIMLTEX1
  6

  9
$DIMLTEX2
  6

  9
$DIMTXTDIRECTION
 70
0
  9
$LUNITS
 70
2
  9
$LUPREC
 70
4
  9
$SKETCHINC
 40
1.0
  9
$FILLETRAD
 40
10.0
  9
$AUNITS
 70
0
  9
$AUPREC
 70
2
  9
$MENU
  1
.
  9
$ELEVATION
 40
0.0
  9
$PELEVATION
 40
0.0
  9
$THICKNESS
 40
0.0
  9
$LIMCHECK
 70
0
  9
$CHAMFERA
 40
0.0
  9
$CHAMFERB
 40
0.0
  9
$CHAMFERC
 40
0.0
  9
$CHAMFERD
 40
0.0
  9
$SKPOLY
 70
0
  9
$TDCREATE
 40
2460756.766875
  9
$TDUCREATE
 40
2458532.153996898
  9
$TDUPDATE
 40
2460756.766875
  9
$TDUUPDATE
 40
2458532.1544311
  9
$TDINDWG
 40
0.0
  9
$TDUSRTIMER
 40
0.0
  9
$USRTIMER
 70
1
  9
$ANGBASE
 50
0.0
  9
$ANGDIR
 70
0
  9
$PDMODE
 70
0
  9
$PDSIZE
 40
0.0
  9
$PLINEWID
 40
0.0
  9
$SPLFRAME
 70
0
  9
$SPLINETYPE
 70
6
  9
$SPLINESEGS
 70
8
  9
$HANDSEED
  5
13A
  9
$SURFTAB1
 70
6
  9
$SURFTAB2
 70
6
  9
$SURFTYPE
 70
6
  9
$SURFU
 70
6
  9
$SURFV
 70
6
  9
$UCSBASE
  2

  9
$UCSNAME
  2

  9
$UCSORG
 10
0.0
 20
0.0
 30
0.0
  9
$UCSXDIR
 10
1.0
 20
0.0
 30
0.0
  9
$UCSYDIR
 10
0.0
 20
1.0
 30
0.0
  9
$UCSORTHOREF
  2

  9
$UCSORTHOVIEW
 70
0
  9
$UCSORGTOP
 10
0.0
 20
0.0
 30
0.0
  9
$UCSORGBOTTOM
 10
0.0
 20
0.0
 30
0.0
  9
$UCSORGLEFT
 10
0.0
 20
0.0
 30
0.0
  9
$UCSORGRIGHT
 10
0.0
 20
0.0
 30
0.0
  9
$UCSORGFRONT
 10
0.0
 20
0.0
 30
0.0
  9
$UCSORGBACK
 10
0.0
 20
0.0
 30
0.0
  9
$PUCSBASE
  2

  9
$PUCSNAME
  2

  9
$PUCSORG
 10
0.0
 20
0.0
 30
0.0
  9
$PUCSXDIR
 10
1.0
 20
0.0
 30
0.0
  9
$PUCSYDIR
 10
0.0
 20
1.0
 30
0.0
  9
$PUCSORTHOREF
  2

  9
$PUCSORTHOVIEW
 70
0
  9
$PUCSORGTOP
 10
0.0
 20
0.0
 30
0.0
  9
$PUCSORGBOTTOM
 10
0.0
 20
0.0
 30
0.0
  9
$PUCSORGLEFT
 10
0.0
 20
0.0
 30
0.0
  9
$PUCSORGRIGHT
 10
0.0
 20
0.0
 30
0.0
  9
$PUCSORGFRONT
 10
0.0
 20
0.0
 30
0.0
  9
$PUCSORGBACK
 10
0.0
 20
0.0
 30
0.0
  9
$USERI1
 70
0
  9
$USERI2
 70
0
  9
$USERI3
 70
0
  9
$USERI4
 70
0
  9
$USERI5
 70
0
  9
$USERR1
 40
0.0
  9
$USERR2
 40
0.0
  9
$USERR3
 40
0.0
  9
$USERR4
 40
0.0
  9
$USERR5
 40
0.0
  9
$WORLDVIEW
 70
1
  9
$SHADEDGE
 70
3
  9
$SHADEDIF
 70
70
  9
$TILEMODE
 70
1
  9
$MAXACTVP
 70
64
  9
$PINSBASE
 10
0.0
 20
0.0
 30
0.0
  9
$PLIMCHECK
 70
0
  9
$PEXTMIN
 10
1e+20
 20
1e+20
 30
1e+20
  9
$PEXTMAX
 10
-1e+20
 20
-1e+20
 30
-1e+20
  9
$PLIMMIN
 10
0.0
 20
0.0
  9
$PLIMMAX
 10
420.0
 20
297.0
  9
$UNITMODE
 70
0
  9
$VISRETAIN
 70
1
  9
$PLINEGEN
 70
0
  9
$PSLTSCALE
 70
1
  9
$TREEDEPTH
 70
3020
  9
$CMLSTYLE
  2
Standard
  9
$CMLJUST
 70
0
  9
$CMLSCALE
 40
20.0
  9
$PROXYGRAPHICS
 70
1
  9
$MEASUREMENT
 70
1
  9
$CELWEIGHT
370
-1
  9
$ENDCAPS
280
0
  9
$JOINSTYLE
280
0
  9
$LWDISPLAY
290
0
  9
$INSUNITS
 70
6
  9
$HYPERLINKBASE
  1

  9
$STYLESHEET
  1

  9
$XEDIT
290
1
  9
$CEPSNTYPE
380
0
  9
$PSTYLEMODE
290
1
  9
$FINGERPRINTGUID
  2
{BA821527-1437-4A47-9841-BD77150B523E}
  9
$VERSIONGUID
  2
{08D3B265-0428-4098-8A74-3271B36ED5F7}
  9
$EXTNAMES
290
1
  9
$PSVPSCALE
 40
0.0
  9
$OLESTARTUP
290
0
  9
$SORTENTS
280
127
  9
$INDEXCTL
280
0
  9
$HIDETEXT
280
1
  9
$XCLIPFRAME
280
1
  9
$HALOGAP
280
0
  9
$OBSCOLOR
 70
257
  9
$OBSLTYPE
280
0
  9
$INTERSECTIONDISPLAY
280
0
  9
$INTERSECTIONCOLOR
 70
257
  9
$DIMASSOC
280
2
  9
$PROJECTNAME
  1

  9
$CAMERADISPLAY
290
0
  9
$LENSLENGTH
 40
50.0
  9
$CAMERAHEIGHT
 40
0.0
  9
$STEPSPERSEC
 40
24.0
  9
$STEPSIZE
 40
100.0
  9
$3DDWFPREC
 40
2.0
  9
$PSOLWIDTH
 40
0.005
  9
$PSOLHEIGHT
 40
0.08
  9
$LOFTANG1
 40
1.570796326795
  9
$LOFTANG2
 40
1.570796326795
  9
$LOFTMAG1
 40
0.0
  9
$LOFTMAG2
 40
0.0
  9
$LOFTPARAM
 70
7
  9
$LOFTNORMALS
280
1
  9
$LATITUDE
 40
37.795
  9
$LONGITUDE
 40
-122.394
  9
$NORTHDIRECTION
 40
0.0
  9
$TIMEZONE
 70
-8000
  9
$LIGHTGLYPHDISPLAY
280
1
  9
$TILEMODELIGHTSYNCH
280
1
  9
$CMATERIAL
347
20
  9
$SOLIDHIST
280
0
  9
$SHOWHIST
280
1
  9
$DWFFRAME
280
2
  9
$DGNFRAME
280
2
  9
$REALWORLDSCALE
290
1
  9
$INTERFERECOLOR
 62
256
  9
$CSHADOW
280
0
  9
$SHADOWPLANELOCATION
 40
0.0
  0
ENDSEC
  0
SECTION
  2
CLASSES
  0
CLASS
  1
ACDBDICTIONARYWDFLT
  2
AcDbDictionaryWithDefault
  3
ObjectDBX Classes
 90
0
 91
0
280
0
281
0
  0
CLASS
  1
SUN
  2
AcDbSun
  3
SCENEOE
 90
1153
 91
0
280
0
281
0
  0
CLASS
  1
VISUALSTYLE
  2
AcDbVisualStyle
  3
ObjectDBX Classes
 90
4095
 91
0
280
0
281
0
  0
CLASS
  1
MATERIAL
  2
AcDbMaterial
  3
ObjectDBX Classes
 90
1153
 91
0
280
0
281
0
  0
CLASS
  1
SCALE
  2
AcDbScale
  3
ObjectDBX Classes
 90
1153
 91
0
280
0
281
0
  0
CLASS
  1
TABLESTYLE
  2
AcDbTableStyle
  3
ObjectDBX Classes
 90
4095
 91
0
280
0
281
0
  0
CLASS
  1
MLEADERSTYLE
  2
AcDbMLeaderStyle
  3
ACDB_MLEADERSTYLE_CLASS
 90
4095
 91
0
280
0
281
0
  0
CLASS
  1
DICTIONARYVAR
  2
AcDbDictionaryVar
  3
ObjectDBX Classes
 90
0
 91
0
280
0
281
0
  0
CLASS
  1
CELLSTYLEMAP
  2
AcDbCellStyleMap
  3
ObjectDBX Classes
 90
1152
 91
0
280
0
281
0
  0
CLASS
  1
MENTALRAYRENDERSETTINGS
  2
AcDbMentalRayRenderSettings
  3
SCENEOE
 90
1024
 91
0
280
0
281
0
  0
CLASS
  1
ACDBDETAILVIEWSTYLE
  2
AcDbDetailViewStyle
  3
ObjectDBX Classes
 90
1025
 91
0
280
0
281
0
  0
CLASS
  1
ACDBSECTIONVIEWSTYLE
  2
AcDbSectionViewStyle
  3
ObjectDBX Classes
 90
1025
 91
0
280
0
281
0
  0
CLASS
  1
RASTERVARIABLES
  2
AcDbRasterVariables
  3
ISM
 90
0
 91
0
280
0
281
0
  0
CLASS
  1
LAYOUT
  2
AcDbLayout
  3
ObjectDBX Classes
 90
0
 91
0
280
0
281
0
  0
CLASS
  1
ACDBPLACEHOLDER
  2
AcDbPlaceHolder
  3
ObjectDBX Classes
 90
0
 91
0
280
0
281
0
  0
ENDSEC
  0
SECTION
  2
TABLES
  0
TABLE
  2
VPORT
  5
8
330
0
100
AcDbSymbolTable
 70
1
  0
VPORT
  5
23
330
8
100
AcDbSymbolTableRecord
100
AcDbViewportTableRecord
  2
*Active
 70
0
 10
0.0
 20
0.0
 11
1.0
 21
1.0
 12
0.0
 22
0.0
 13
0.0
 23
0.0
 14
0.5
 24
0.5
 15
0.5
 25
0.5
 16
0.0
 26
0.0
 36
1.0
 17
0.0
 27
0.0
 37
0.0
 40
1000.0
 41
1.34
 42
50.0
 43
0.0
 44
0.0
 50
0.0
 51
0.0
 71
0
 72
1000
 73
1
 74
3
 75
0
 76
0
 77
0
 78
0
281
0
 65
0
146
0.0
  0
ENDTAB
  0
TABLE
  2
LTYPE
  5
2
330
0
100
AcDbSymbolTable
 70
3
  0
LTYPE
  5
24
330
2
100
AcDbSymbolTableRecord
100
AcDbLinetypeTableRecord
  2
ByBlock
 70
0
  3

 72
65
 73
0
 40
0.0
  0
LTYPE
  5
25
330
2
100
AcDbSymbolTableRecord
100
AcDbLinetypeTableRecord
  2
ByLayer
 70
0
  3

 72
65
 73
0
 40
0.0
  0
LTYPE
  5
26
330
2
100
AcDbSymbolTableRecord
100
AcDbLinetypeTableRecord
  2
Continuous
 70
0
  3

 72
65
 73
0
 40
0.0
  0
ENDTAB
  0
TABLE
  2
LAYER
  5
1
330
0
100
AcDbSymbolTable
 70
2
  0
LAYER
  5
27
330
1
100
AcDbSymbolTableRecord
100
AcDbLayerTableRecord
  2
0
 70
0
 62
7
  6
Continuous
370
-3
390
13
347
21
  0
LAYER
  5
28
330
1
100
AcDbSymbolTableRecord
100
AcDbLayerTableRecord
  2
Defpoints
 70
0
 62
7
  6
Continuous
290
0
370
-3
390
13
347
21
  0
ENDTAB
  0
TABLE
  2
STYLE
  5
5
330
0
100
AcDbSymbolTable
 70
1
  0
STYLE
  5
29
330
5
100
AcDbSymbolTableRecord
100
AcDbTextStyleTableRecord
  2
Standard
 70
0
 40
0.0
 41
1.0
 50
0.0
 71
0
 42
2.5
  3
txt
  4

  0
ENDTAB
  0
TABLE
  2
VIEW
  5
7
330
0
100
AcDbSymbolTable
 70
0
  0
ENDTAB
  0
TABLE
  2
UCS
  5
6
330
0
100
AcDbSymbolTable
 70
0
  0
ENDTAB
  0
TABLE
  2
APPID
  5
3
330
0
100
AcDbSymbolTable
 70
3
  0
APPID
  5
2A
330
3
100
AcDbSymbolTableRecord
100
AcDbRegAppTableRecord
  2
ACAD
 70
0
  0
APPID
  5
137
330
3
100
AcDbSymbolTableRecord
100
AcDbRegAppTableRecord
  2
HATCHBACKGROUNDCOLOR
 70
0
  0
APPID
  5
138
330
3
100
AcDbSymbolTableRecord
100
AcDbRegAppTableRecord
  2
EZDXF
 70
0
  0
ENDTAB
  0
TABLE
  2
DIMSTYLE
  5
4
330
0
100
AcDbSymbolTable
 70
1
100
AcDbDimStyleTable
  0
DIMSTYLE
105
2B
330
4
100
AcDbSymbolTableRecord
100
AcDbDimStyleTableRecord
  2
Standard
 70
0
 40
1.0
 41
2.5
 42
0.625
 43
3.75
 44
1.25
 45
0.0
 46
0.0
 47
0.0
 48
0.0
 49
2.5
140
2.5
141
2.5
142
0.0
143
0.03937007874
144
1.0
145
0.0
146
1.0
147
0.625
148
0.0
 69
0
 70
0
 71
0
 72
0
 73
0
 74
0
 75
0
 76
0
 77
1
 78
8
 79
3
170
0
171
3
172
1
173
0
174
0
175
0
176
0
177
0
178
0
179
2
271
2
272
2
273
2
274
3
275
0
276
0
277
2
278
44
279
0
280
0
281
0
282
0
283
0
284
8
285
0
286
0
288
0
289
3
290
0
371
-2
372
-2
  0
ENDTAB
  0
TABLE
  2
BLOCK_RECORD
  5
9
330
0
100
AcDbSymbolTable
 70
2
  0
BLOCK_RECORD
  5
17
330
9
100
AcDbSymbolTableRecord
100
AcDbBlockTableRecord
  2
*Model_Space
340
1A
 70
0
280
1
281
0
  0
BLOCK_RECORD
  5
1B
330
9
100
AcDbSymbolTableRecord
100
AcDbBlockTableRecord
  2
*Paper_Space
340
1E
 70
0
280
1
281
0
  0
ENDTAB
  0
ENDSEC
  0
SECTION
  2
BLOCKS
  0
BLOCK
  5
18
330
17
100
AcDbEntity
  8
0
100
AcDbBlockBegin
  2
*Model_Space
 70
0
 10
0.0
 20
0.0
 30
0.0
  3
*Model_Space
  1

  0
ENDBLK
  5
19
330
17
100
AcDbEntity
  8
0
100
AcDbBlockEnd
  0
BLOCK
  5
1C
330
1B
100
AcDbEntity
  8
0
100
AcDbBlockBegin
  2
*Paper_Space
 70
0
 10
0.0
 20
0.0
 30
0.0
  3
*Paper_Space
  1

  0
ENDBLK
  5
1D
330
1B
100
AcDbEntity
  8
0
100
AcDbBlockEnd
  0
ENDSEC
  0
SECTION
  2
ENTITIES
  0
POLYLINE
  5
2F
330
17
100
AcDbEntity
  8
0
100
AcDb2dPolyline
 66
1
 10
0.0
 20
0.0
 30
0.0
 70
0
  0
VERTEX
  5
30
330
2F
100
AcDbEntity
  8
0
100
AcDbVertex
100
AcDb2dVertex
 10
60.00000000000001
 20
25.034013605442176
 30
0.0
 70
0
  0
VERTEX
  5
31
330
2F
100
AcDbEntity
  8
0
100
AcDbVertex
100
AcDb2dVertex
 10
59.96545493197279
 20
23.753188775510203
 30
0.0
 70
0
  0
VERTEX
  5
32
330
2F
100
AcDbEntity
  8
0
100
AcDbVertex
100
AcDb2dVertex
 10
59.86181972789117
 20
22.49574829931973
 30
0.0
 70
0
  0
VERTEX
  5
33
330
2F
100
AcDbEntity
  8
0
100
AcDbVertex
100
AcDb2dVertex
 10
59.68909438775511
 20
21.26169217687075
 30
0.0
 70
0
  0
VERTEX
  5
34
330
2F
100
AcDbEntity
  8
0
100
AcDbVertex
100
AcDb2dVertex
 10
59.44727891156463
 20
20.051020408163268
 30
0.0
 70
0
  0
VERTEX
  5
35
330
2F
100
AcDbEntity
  8
0
100
AcDbVertex
100
AcDb2dVertex
 10
59.136373299319736
 20
18.86373299319728
 30
0.0
 70
0
  0
VERTEX
  5
36
330
2F
100
AcDbEntity
  8
0
100
AcDbVertex
100
AcDb2dVertex
 10
58.756377551020414
 20
17.69982993197279
 30
0.0
 70
0
  0
VERTEX
  5
37
330
2F
100
AcDbEntity
  8
0
100
AcDbVertex
100
AcDb2dVertex
 10
58.30729166666667
 20
16.559311224489797
 30
0.0
 70
0
  0
VERTEX
  5
38
330
2F
100
AcDbEntity
  8
0
100
AcDbVertex
100
AcDb2dVertex
 10
57.78911564625851
 20
15.4421768707483
 30
0.0
 70
0
  0
VERTEX
  5
39
330
2F
100
AcDbEntity
  8
0
100
AcDbVertex
100
AcDb2dVertex
 10
57.201849489795926
 20
14.3484268707483
 30
0.0
 70
0
  0
VERTEX
  5
3A
330
2F
100
AcDbEntity
  8
0
100
AcDbVertex
100
AcDb2dVertex
 10
56.545493197278915
 20
13.278061224489797
 30
0.0
 70
0
  0
VERTEX
  5
3B
330
2F
100
AcDbEntity
  8
0
100
AcDbVertex
100
AcDb2dVertex
 10
55.82004676870749
 20
12.23107993197279
 30
0.0
 70
0
  0
VERTEX
  5
3C
330
2F
100
AcDbEntity
  8
0
100
AcDbVertex
100
AcDb2dVertex
 10
55.02551020408164
 20
11.20748299319728
 30
0.0
 70
0
  0
VERTEX
  5
3D
330
2F
100
AcDbEntity
  8
0
100
AcDbVertex
100
AcDb2dVertex
 10
54.16188350340137
 20
10.207270408163266
 30
0.0
 70
0
  0
VERTEX
  5
3E
330
2F
100
AcDbEntity
  8
0
100
AcDbVertex
100
AcDb2dVertex
 10
53.22916666666667
 20
9.230442176870747
 30
0.0
 70
0
  0
VERTEX
  5
3F
330
2F
100
AcDbEntity
  8
0
100
AcDbVertex
100
AcDb2dVertex
 10
52.22735969387756
 20
8.276998299319729
 30
0.0
 70
0
  0
VERTEX
  5
40
330
2F
100
AcDbEntity
  8
0
100
AcDbVertex
100
AcDb2dVertex
 10
51.15646258503402
 20
7.346938775510205
 30
0.0
 70
0
  0
VERTEX
  5
41
330
2F
100
AcDbEntity
  8
0
100
AcDbVertex
100
AcDb2dVertex
 10
50.045440051020414
 20
6.457270408163266
 30
0.0
 70
0
  0
VERTEX
  5
42
330
2F
100
AcDbEntity
  8
0
100
AcDbVertex
100
AcDb2dVertex
 10
48.90625000000001
 20
5.625000000000001
 30
0.0
 70
0
  0
VERTEX
  5
43
330
2F
100
AcDbEntity
  8
0
100
AcDbVertex
100
AcDb2dVertex
 10
47.73889243197279
 20
4.8501275510204085
 30
0.0
 70
0
  0
VERTEX
  5
44
330
2F
100
AcDbEntity
  8
0
100
AcDbVertex
100
AcDb2dVertex
 10
46.54336734693878
 20
4.13265306122449
 30
0.0
 70
0
  0
VERTEX
  5
45
330
2F
100
AcDbEntity
  8
0
100
AcDbVertex
100
AcDb2dVertex
 10
45.319674744897966
 20
3.4725765306122454
 30
0.0
 70
0
  0
VERTEX
  5
46
330
2F
100
AcDbEntity
  8
0
100
AcDbVertex
100
AcDb2dVertex
 10
44.067814625850346
 20
2.8698979591836737
 30
0.0
 70
0
  0
VERTEX
  5
47
330
2F
100
AcDbEntity
  8
0
100
AcDbVertex
100
AcDb2dVertex
 10
42.787786989795926
 20
2.3246173469387754
 30
0.0
 70
0
  0
VERTEX
  5
48
330
2F
100
AcDbEntity
  8
0
100
AcDbVertex
100
AcDb2dVertex
 10
41.4795918367347
 20
1.8367346938775508
 30
0.0
 70
0
  0
VERTEX
  5
49
330
2F
100
AcDbEntity
  8
0
100
AcDbVertex
100
AcDb2dVertex
 10
40.14322916666667
 20
1.40625
 30
0.0
 70
0
  0
VERTEX
  5
4A
330
2F
100
AcDbEntity
  8
0
100
AcDbVertex
100
AcDb2dVertex
 10
38.778698979591844
 20
1.033163265306123
 30
0.0
 70
0
  0
VERTEX
  5
4B
330
2F
100
AcDbEntity
  8
0
100
AcDbVertex
100
AcDb2dVertex
 10
37.38600127551021
 20
0.7174744897959187
 30
0.0
 70
0
  0
VERTEX
  5
4C
330
2F
100
AcDbEntity
  8
0
100
AcDbVertex
100
AcDb2dVertex
 10
35.96513605442178
 20
0.45918367346938727
 30
0.0
 70
0
  0
VERTEX
  5
4D
330
2F
100
AcDbEntity
  8
0
100
AcDbVertex
100
AcDb2dVertex
 10
34.516103316326536
 20
0.2582908163265305
 30
0.0
 70
0
  0
VERTEX
  5
4E
330
2F
100
AcDbEntity
  8
0
100
AcDbVertex
100
AcDb2dVertex
 10
33.038903061224495
 20
0.1147959183673466
 30
0.0
 70
0
  0
VERTEX
  5
4F
330
2F
100
AcDbEntity
  8
0
100
AcDbVertex
100
AcDb2dVertex
 10
31.533535289115655
 20
0.028698979591836427
 30
0.0
 70
0
  0
VERTEX
  5
50
330
2F
100
AcDbEntity
  8
0
100
AcDbVertex
100
AcDb2dVertex
 10
30.000000000000007
 20
0.0
 30
0.0
 70
0
  0
VERTEX
  5
51
330
2F
100
AcDbEntity
  8
0
100
AcDbVertex
100
AcDb2dVertex
 10
28.457961309523817
 20
0.02869897959183674
 30
0.0
 70
0
  0
VERTEX
  5
52
330
2F
100
AcDbEntity
  8
0
100
AcDbVertex
100
AcDb2dVertex
 10
26.944090136054427
 20
0.11479591836734696
 30
0.0
 70
0
  0
VERTEX
  5
53
330
2F
100
AcDbEntity
  8
0
100
AcDbVertex
100
AcDb2dVertex
 10
25.458386479591844
 20
0.25829081632653067
 30
0.0
 70
0
  0
VERTEX
  5
54
330
2F
100
AcDbEntity
  8
0
100
AcDbVertex
100
AcDb2dVertex
 10
24.00085034013606
 20
0.4591836734693878
 30
0.0
 70
0
  0
VERTEX
  5
55
330
2F
100
AcDbEntity
  8
0
100
AcDbVertex
100
AcDb2dVertex
 10
22.571481717687078
 20
0.7174744897959184
 30
0.0
 70
0
  0
VERTEX
  5
56
330
2F
100
AcDbEntity
  8
0
100
AcDbVertex
100
AcDb2dVertex
 10
21.170280612244902
 20
1.0331632653061227
 30
0.0
 70
0
  0
VERTEX
  5
57
330
2F
100
AcDbEntity
  8
0
100
AcDbVertex
100
AcDb2dVertex
 10
19.797247023809526
 20
1.4062500000000002
 30
0.0
 70
0
  0
VERTEX
  5
58
330
2F
100
AcDbEntity
  8
0
100
AcDbVertex
100
AcDb2dVertex
 10
18.452380952380956
 20
1.8367346938775513
 30
0.0
 70
0
  0
VERTEX
  5
59
330
2F
100
AcDbEntity
  8
0
100
AcDbVertex
100
AcDb2dVertex
 10
17.135682397959187
 20
2.324617346938776
 30
0.0
 70
0
  0
VERTEX
  5
5A
330
2F
100
AcDbEntity
  8
0
100
AcDbVertex
100
AcDb2dVertex
 10
15.84715136054422
 20
2.8698979591836737
 30
0.0
 70
0
  0
VERTEX
  5
5B
330
2F
100
AcDbEntity
  8
0
100
AcDbVertex
100
AcDb2dVertex
 10
14.586787840136058
 20
3.4725765306122454
 30
0.0
 70
0
  0
VERTEX
  5
5C
330
2F
100
AcDbEntity
  8
0
100
AcDbVertex
100
AcDb2dVertex
 10
13.354591836734699
 20
4.132653061224491
 30
0.0
 70
0
  0
VERTEX
  5
5D
330
2F
100
AcDbEntity
  8
0
100
AcDbVertex
100
AcDb2dVertex
 10
12.15056335034014
 20
4.8501275510204085
 30
0.0
 70
0
  0
VERTEX
  5
5E
330
2F
100
AcDbEntity
  8
0
100
AcDbVertex
100
AcDb2dVertex
 10
10.974702380952383
 20
5.625000000000001
 30
0.0
 70
0
  0
VERTEX
  5
5F
330
2F
100
AcDbEntity
  8
0
100
AcDbVertex
100
AcDb2dVertex
 10
9.82700892857143
 20
6.457270408163266
 30
0.0
 70
0
  0
VERTEX
  5
60
330
2F
100
AcDbEntity
  8
0
100
AcDbVertex
100
AcDb2dVertex
 10
8.70748299319728
 20
7.346938775510205
 30
0.0
 70
0
  0
VERTEX
  5
61
330
2F
100
AcDbEntity
  8
0
100
AcDbVertex
100
AcDb2dVertex
 10
7.653061224489797
 20
8.269026360544219
 30
0.0
 70
0
  0
VERTEX
  5
62
330
2F
100
AcDbEntity
  8
0
100
AcDbVertex
100
AcDb2dVertex
 10
6.666666666666668
 20
9.215561224489797
 30
0.0
 70
0
  0
VERTEX
  5
63
330
2F
100
AcDbEntity
  8
0
100
AcDbVertex
100
AcDb2dVertex
 10
5.7482993197278915
 20
10.186543367346939
 30
0.0
 70
0
  0
VERTEX
  5
64
330
2F
100
AcDbEntity
  8
0
100
AcDbVertex
100
AcDb2dVertex
 10
4.8979591836734695
 20
11.181972789115648
 30
0.0
 70
0
  0
VERTEX
  5
65
330
2F
100
AcDbEntity
  8
0
100
AcDbVertex
100
AcDb2dVertex
 10
4.115646258503402
 20
12.201849489795919
 30
0.0
 70
0
  0
VERTEX
  5
66
330
2F
100
AcDbEntity
  8
0
100
AcDbVertex
100
AcDb2dVertex
 10
3.4013605442176873
 20
13.246173469387756
 30
0.0
 70
0
  0
VERTEX
  5
67
330
2F
100
AcDbEntity
  8
0
100
AcDbVertex
100
AcDb2dVertex
 10
2.7551020408163263
 20
14.314944727891158
 30
0.0
 70
0
  0
VERTEX
  5
68
330
2F
100
AcDbEntity
  8
0
100
AcDbVertex
100
AcDb2dVertex
 10
2.1768707482993204
 20
15.408163265306124
 30
0.0
 70
0
  0
VERTEX
  5
69
330
2F
100
AcDbEntity
  8
0
100
AcDbVertex
100
AcDb2dVertex
 10
1.666666666666666
 20
16.525829081632654
 30
0.0
 70
0
  0
VERTEX
  5
6A
330
2F
100
AcDbEntity
  8
0
100
AcDbVertex
100
AcDb2dVertex
 10
1.2244897959183678
 20
17.66794217687075
 30
0.0
 70
0
  0
VERTEX
  5
6B
330
2F
100
AcDbEntity
  8
0
100
AcDbVertex
100
AcDb2dVertex
 10
0.850340136054422
 20
18.83450255102041
 30
0.0
 70
0
  0
VERTEX
  5
6C
330
2F
100
AcDbEntity
  8
0
100
AcDbVertex
100
AcDb2dVertex
 10
0.5442176870748305
 20
20.025510204081634
 30
0.0
 70
0
  0
VERTEX
  5
6D
330
2F
100
AcDbEntity
  8
0
100
AcDbVertex
100
AcDb2dVertex
 10
0.3061224489795915
 20
21.240965136054424
 30
0.0
 70
0
  0
VERTEX
  5
6E
330
2F
100
AcDbEntity
  8
0
100
AcDbVertex
100
AcDb2dVertex
 10
0.13605442176870675
 20
22.480867346938776
 30
0.0
 70
0
  0
VERTEX
  5
6F
330
2F
100
AcDbEntity
  8
0
100
AcDbVertex
100
AcDb2dVertex
 10
0.03401360544217624
 20
23.7452168367347
 30
0.0
 70
0
  0
VERTEX
  5
70
330
2F
100
AcDbEntity
  8
0
100
AcDbVertex
100
AcDb2dVertex
 10
0.0
 20
25.034013605442176
 30
0.0
 70
0
  0
VERTEX
  5
71
330
2F
100
AcDbEntity
  8
0
100
AcDbVertex
100
AcDb2dVertex
 10
0.034013605442176874
 20
26.32281037414966
 30
0.0
 70
0
  0
VERTEX
  5
72
330
2F
100
AcDbEntity
  8
0
100
AcDbVertex
100
AcDb2dVertex
 10
0.1360544217687075
 20
27.58715986394558
 30
0.0
 70
0
  0
VERTEX
  5
73
330
2F
100
AcDbEntity
  8
0
100
AcDbVertex
100
AcDb2dVertex
 10
0.30612244897959184
 20
28.827062074829932
 30
0.0
 70
0
  0
VERTEX
  5
74
330
2F
100
AcDbEntity
  8
0
100
AcDbVertex
100
AcDb2dVertex
 10
0.54421768707483
 20
30.04251700680272
 30
0.0
 70
0
  0
VERTEX
  5
75
330
2F
100
AcDbEntity
  8
0
100
AcDbVertex
100
AcDb2dVertex
 10
0.8503401360544218
 20
31.233524659863946
 30
0.0
 70
0
  0
VERTEX
  5
76
330
2F
100
AcDbEntity
  8
0
100
AcDbVertex
100
AcDb2dVertex
 10
1.2244897959183674
 20
32.40008503401361
 30
0.0
 70
0
  0
VERTEX
  5
77
330
2F
100
AcDbEntity
  8
0
100
AcDbVertex
100
AcDb2dVertex
 10
1.6666666666666667
 20
33.5421981292517
 30
0.0
 70
0
  0
VERTEX
  5
78
330
2F
100
AcDbEntity
  8
0
100
AcDbVertex
100
AcDb2dVertex
 10
2.17687074829932
 20
34.65986394557823
 30
0.0
 70
0
  0
VERTEX
  5
79
330
2F
100
AcDbEntity
  8
0
100
AcDbVertex
100
AcDb2dVertex
 10
2.7551020408163267
 20
35.75308248299319
 30
0.0
 70
0
  0
VERTEX
  5
7A
330
2F
100
AcDbEntity
  8
0
100
AcDbVertex
100
AcDb2dVertex
 10
3.4013605442176873
 20
36.8218537414966
 30
0.0
 70
0
  0
VERTEX
  5
7B
330
2F
100
AcDbEntity
  8
0
100
AcDbVertex
100
AcDb2dVertex
 10
4.115646258503402
 20
37.866177721088434
 30
0.0
 70
0
  0
VERTEX
  5
7C
330
2F
100
AcDbEntity
  8
0
100
AcDbVertex
100
AcDb2dVertex
 10
4.8979591836734695
 20
38.886054421768705
 30
0.0
 70
0
  0
VERTEX
  5
7D
330
2F
100
AcDbEntity
  8
0
100
AcDbVertex
100
AcDb2dVertex
 10
5.7482993197278915
 20
39.88148384353741
 30
0.0
 70
0
  0
VERTEX
  5
7E
330
2F
100
AcDbEntity
  8
0
100
AcDbVertex
100
AcDb2dVertex
 10
6.666666666666667
 20
40.852465986394556
 30
0.0
 70
0
  0
VERTEX
  5
7F
330
2F
100
AcDbEntity
  8
0
100
AcDbVertex
100
AcDb2dVertex
 10
7.653061224489797
 20
41.799000850340136
 30
0.0
 70
0
  0
VERTEX
  5
80
330
2F
100
AcDbEntity
  8
0
100
AcDbVertex
100
AcDb2dVertex
 10
8.70748299319728
 20
42.72108843537415
 30
0.0
 70
0
  0
VERTEX
  5
81
330
2F
100
AcDbEntity
  8
0
100
AcDbVertex
100
AcDb2dVertex
 10
9.827008928571429
 20
43.60251913265306
 30
0.0
 70
0
  0
VERTEX
  5
82
330
2F
100
AcDbEntity
  8
0
100
AcDbVertex
100
AcDb2dVertex
 10
10.974702380952383
 20
44.427083333333336
 30
0.0
 70
0
  0
VERTEX
  5
83
330
2F
100
AcDbEntity
  8
0
100
AcDbVertex
100
AcDb2dVertex
 10
12.150563350340137
 20
45.19478103741496
 30
0.0
 70
0
  0
VERTEX
  5
84
330
2F
100
AcDbEntity
  8
0
100
AcDbVertex
100
AcDb2dVertex
 10
13.354591836734695
 20
45.90561224489796
 30
0.0
 70
0
  0
VERTEX
  5
85
330
2F
100
AcDbEntity
  8
0
100
AcDbVertex
100
AcDb2dVertex
 10
14.586787840136056
 20
46.55957695578231
 30
0.0
 70
0
  0
VERTEX
  5
86
330
2F
100
AcDbEntity
  8
0
100
AcDbVertex
100
AcDb2dVertex
 10
15.84715136054422
 20
47.15667517006803
 30
0.0
 70
0
  0
VERTEX
  5
87
330
2F
100
AcDbEntity
  8
0
100
AcDbVertex
100
AcDb2dVertex
 10
17.135682397959187
 20
47.696906887755105
 30
0.0
 70
0
  0
VERTEX
  5
88
330
2F
100
AcDbEntity
  8
0
100
AcDbVertex
100
AcDb2dVertex
 10
18.452380952380956
 20
48.18027210884354
 30
0.0
 70
0
  0
VERTEX
  5
89
330
2F
100
AcDbEntity
  8
0
100
AcDbVertex
100
AcDb2dVertex
 10
19.797247023809526
 20
48.606770833333336
 30
0.0
 70
0
  0
VERTEX
  5
8A
330
2F
100
AcDbEntity
  8
0
100
AcDbVertex
100
AcDb2dVertex
 10
21.170280612244902
 20
48.97640306122449
 30
0.0
 70
0
  0
VERTEX
  5
8B
330
2F
100
AcDbEntity
  8
0
100
AcDbVertex
100
AcDb2dVertex
 10
22.571481717687078
 20
49.289168792517
 30
0.0
 70
0
  0
VERTEX
  5
8C
330
2F
100
AcDbEntity
  8
0
100
AcDbVertex
100
AcDb2dVertex
 10
24.00085034013606
 20
49.54506802721089
 30
0.0
 70
0
  0
VERTEX
  5
8D
330
2F
100
AcDbEntity
  8
0
100
AcDbVertex
100
AcDb2dVertex
 10
25.458386479591844
 20
49.74410076530612
 30
0.0
 70
0
  0
VERTEX
  5
8E
330
2F
100
AcDbEntity
  8
0
100
AcDbVertex
100
AcDb2dVertex
 10
26.944090136054427
 20
49.88626700680272
 30
0.0
 70
0
  0
VERTEX
  5
8F
330
2F
100
AcDbEntity
  8
0
100
AcDbVertex
100
AcDb2dVertex
 10
28.457961309523817
 20
49.97156675170068
 30
0.0
 70
0
  0
VERTEX
  5
90
330
2F
100
AcDbEntity
  8
0
100
AcDbVertex
100
AcDb2dVertex
 10
30.000000000000007
 20
50.0
 30
0.0
 70
0
  0
VERTEX
  5
91
330
2F
100
AcDbEntity
  8
0
100
AcDbVertex
100
AcDb2dVertex
 10
31.541507227891163
 20
49.97156675170068
 30
0.0
 70
0
  0
VERTEX
  5
92
330
2F
100
AcDbEntity
  8
0
100
AcDbVertex
100
AcDb2dVertex
 10
33.05378401360545
 20
49.88626700680272
 30
0.0
 70
0
  0
VERTEX
  5
93
330
2F
100
AcDbEntity
  8
0
100
AcDbVertex
100
AcDb2dVertex
 10
34.53683035714286
 20
49.74410076530612
 30
0.0
 70
0
  0
VERTEX
  5
94
330
2F
100
AcDbEntity
  8
0
100
AcDbVertex
100
AcDb2dVertex
 10
35.9906462585034
 20
49.54506802721088
 30
0.0
 70
0
  0
VERTEX
  5
95
330
2F
100
AcDbEntity
  8
0
100
AcDbVertex
100
AcDb2dVertex
 10
37.41523171768708
 20
49.289168792517
 30
0.0
 70
0
  0
VERTEX
  5
96
330
2F
100
AcDbEntity
  8
0
100
AcDbVertex
100
AcDb2dVertex
 10
38.810586734693885
 20
48.97640306122449
 30
0.0
 70
0
  0
VERTEX
  5
97
330
2F
100
AcDbEntity
  8
0
100
AcDbVertex
100
AcDb2dVertex
 10
40.17671130952382
 20
48.606770833333336
 30
0.0
 70
0
  0
VERTEX
  5
98
330
2F
100
AcDbEntity
  8
0
100
AcDbVertex
100
AcDb2dVertex
 10
41.513605442176875
 20
48.18027210884354
 30
0.0
 70
0
  0
VERTEX
  5
99
330
2F
100
AcDbEntity
  8
0
100
AcDbVertex
100
AcDb2dVertex
 10
42.821269132653065
 20
47.696906887755105
 30
0.0
 70
0
  0
VERTEX
  5
9A
330
2F
100
AcDbEntity
  8
0
100
AcDbVertex
100
AcDb2dVertex
 10
44.09970238095239
 20
47.15667517006803
 30
0.0
 70
0
  0
VERTEX
  5
9B
330
2F
100
AcDbEntity
  8
0
100
AcDbVertex
100
AcDb2dVertex
 10
45.348905187074834
 20
46.55957695578231
 30
0.0
 70
0
  0
VERTEX
  5
9C
330
2F
100
AcDbEntity
  8
0
100
AcDbVertex
100
AcDb2dVertex
 10
46.568877551020414
 20
45.90561224489796
 30
0.0
 70
0
  0
VERTEX
  5
9D
330
2F
100
AcDbEntity
  8
0
100
AcDbVertex
100
AcDb2dVertex
 10
47.759619472789126
 20
45.19478103741496
 30
0.0
 70
0
  0
VERTEX
  5
9E
330
2F
100
AcDbEntity
  8
0
100
AcDbVertex
100
AcDb2dVertex
 10
48.92113095238096
 20
44.427083333333336
 30
0.0
 70
0
  0
VERTEX
  5
9F
330
2F
100
AcDbEntity
  8
0
100
AcDbVertex
100
AcDb2dVertex
 10
50.053411989795926
 20
43.60251913265306
 30
0.0
 70
0
  0
VERTEX
  5
A0
330
2F
100
AcDbEntity
  8
0
100
AcDbVertex
100
AcDb2dVertex
 10
51.15646258503402
 20
42.72108843537415
 30
0.0
 70
0
  0
VERTEX
  5
A1
330
2F
100
AcDbEntity
  8
0
100
AcDbVertex
100
AcDb2dVertex
 10
52.22735969387756
 20
41.791028911564624
 30
0.0
 70
0
  0
VERTEX
  5
A2
330
2F
100
AcDbEntity
  8
0
100
AcDbVertex
100
AcDb2dVertex
 10
53.22916666666667
 20
40.83758503401361
 30
0.0
 70
0
  0
VERTEX
  5
A3
330
2F
100
AcDbEntity
  8
0
100
AcDbVertex
100
AcDb2dVertex
 10
54.16188350340137
 20
39.860756802721085
 30
0.0
 70
0
  0
VERTEX
  5
A4
330
2F
100
AcDbEntity
  8
0
100
AcDbVertex
100
AcDb2dVertex
 10
55.02551020408164
 20
38.86054421768708
 30
0.0
 70
0
  0
VERTEX
  5
A5
330
2F
100
AcDbEntity
  8
0
100
AcDbVertex
100
AcDb2dVertex
 10
55.82004676870749
 20
37.836947278911566
 30
0.0
 70
0
  0
VERTEX
  5
A6
330
2F
100
AcDbEntity
  8
0
100
AcDbVertex
100
AcDb2dVertex
 10
56.545493197278915
 20
36.789965986394556
 30
0.0
 70
0
  0
VERTEX
  5
A7
330
2F
100
AcDbEntity
  8
0
100
AcDbVertex
100
AcDb2dVertex
 10
57.201849489795926
 20
35.719600340136054
 30
0.0
 70
0
  0
VERTEX
  5
A8
330
2F
100
AcDbEntity
  8
0
100
AcDbVertex
100
AcDb2dVertex
 10
57.78911564625851
 20
34.625850340136054
 30
0.0
 70
0
  0
VERTEX
  5
A9
330
2F
100
AcDbEntity
  8
0
100
AcDbVertex
100
AcDb2dVertex
 10
58.30729166666667
 20
33.508715986394556
 30
0.0
 70
0
  0
VERTEX
  5
AA
330
2F
100
AcDbEntity
  8
0
100
AcDbVertex
100
AcDb2dVertex
 10
58.756377551020414
 20
32.368197278911566
 30
0.0
 70
0
  0
VERTEX
  5
AB
330
2F
100
AcDbEntity
  8
0
100
AcDbVertex
100
AcDb2dVertex
 10
59.136373299319736
 20
31.204294217687075
 30
0.0
 70
0
  0
VERTEX
  5
AC
330
2F
100
AcDbEntity
  8
0
100
AcDbVertex
100
AcDb2dVertex
 10
59.44727891156463
 20
30.017006802721088
 30
0.0
 70
0
  0
VERTEX
  5
AD
330
2F
100
AcDbEntity
  8
0
100
AcDbVertex
100
AcDb2dVertex
 10
59.689094387755105
 20
28.806335034013607
 30
0.0
 70
0
  0
VERTEX
  5
AE
330
2F
100
AcDbEntity
  8
0
100
AcDbVertex
100
AcDb2dVertex
 10
59.86181972789116
 20
27.572278911564624
 30
0.0
 70
0
  0
VERTEX
  5
AF
330
2F
100
AcDbEntity
  8
0
100
AcDbVertex
100
AcDb2dVertex
 10
59.9654549319728
 20
26.31483843537415
 30
0.0
 70
0
  0
VERTEX
  5
B0
330
2F
100
AcDbEntity
  8
0
100
AcDbVertex
100
AcDb2dVertex
 10
60.00000000000001
 20
25.034013605442176
 30
0.0
 70
0
  0
SEQEND
  5
B1
330
2F
100
AcDbEntity
  8
0
  0
POLYLINE
  5
B2
330
17
100
AcDbEntity
  8
InnerContours
100
AcDb2dPolyline
 66
1
 10
0.0
 20
0.0
 30
0.0
 70
0
  0
VERTEX
  5
B3
330
B2
100
AcDbEntity
  8
InnerContours
100
AcDbVertex
100
AcDb2dVertex
 10
60.00000000000001
 20
25.034013605442176
 30
0.0
 70
0
  0
VERTEX
  5
B4
330
B2
100
AcDbEntity
  8
InnerContours
100
AcDbVertex
100
AcDb2dVertex
 10
52.85714285714286
 20
25.034013605442176
 30
0.0
 70
0
  0
VERTEX
  5
B5
330
B2
100
AcDbEntity
  8
InnerContours
100
AcDbVertex
100
AcDb2dVertex
 10
52.830835459183675
 20
24.056653911564624
 30
0.0
 70
0
  0
VERTEX
  5
B6
330
B2
100
AcDbEntity
  8
InnerContours
100
AcDbVertex
100
AcDb2dVertex
 10
52.75191326530613
 20
23.09736394557823
 30
0.0
 70
0
  0
VERTEX
  5
B7
330
B2
100
AcDbEntity
  8
InnerContours
100
AcDbVertex
100
AcDb2dVertex
 10
52.62037627551021
 20
22.156143707482993
 30
0.0
 70
0
  0
VERTEX
  5
B8
330
B2
100
AcDbEntity
  8
InnerContours
100
AcDbVertex
100
AcDb2dVertex
 10
52.436224489795926
 20
21.232993197278912
 30
0.0
 70
0
  0
VERTEX
  5
B9
330
B2
100
AcDbEntity
  8
InnerContours
100
AcDbVertex
100
AcDb2dVertex
 10
52.19945790816327
 20
20.327912414965986
 30
0.0
 70
0
  0
VERTEX
  5
BA
330
B2
100
AcDbEntity
  8
InnerContours
100
AcDbVertex
100
AcDb2dVertex
 10
51.91007653061225
 20
19.440901360544217
 30
0.0
 70
0
  0
VERTEX
  5
BB
330
B2
100
AcDbEntity
  8
InnerContours
100
AcDbVertex
100
AcDb2dVertex
 10
51.56808035714286
 20
18.571960034013607
 30
0.0
 70
0
  0
VERTEX
  5
BC
330
B2
100
AcDbEntity
  8
InnerContours
100
AcDbVertex
100
AcDb2dVertex
 10
51.173469387755105
 20
17.72108843537415
 30
0.0
 70
0
  0
VERTEX
  5
BD
330
B2
100
AcDbEntity
  8
InnerContours
100
AcDbVertex
100
AcDb2dVertex
 10
50.72624362244898
 20
16.88828656462585
 30
0.0
 70
0
  0
VERTEX
  5
BE
330
B2
100
AcDbEntity
  8
InnerContours
100
AcDbVertex
100
AcDb2dVertex
 10
50.226403061224495
 20
16.073554421768705
 30
0.0
 70
0
  0
VERTEX
  5
BF
330
B2
100
AcDbEntity
  8
InnerContours
100
AcDbVertex
100
AcDb2dVertex
 10
49.67394770408164
 20
15.276892006802722
 30
0.0
 70
0
  0
VERTEX
  5
C0
330
B2
100
AcDbEntity
  8
InnerContours
100
AcDbVertex
100
AcDb2dVertex
 10
49.068877551020414
 20
14.498299319727892
 30
0.0
 70
0
  0
VERTEX
  5
C1
330
B2
100
AcDbEntity
  8
InnerContours
100
AcDbVertex
100
AcDb2dVertex
 10
48.41119260204082
 20
13.737776360544219
 30
0.0
 70
0
  0
VERTEX
  5
C2
330
B2
100
AcDbEntity
  8
InnerContours
100
AcDbVertex
100
AcDb2dVertex
 10
47.70089285714286
 20
12.995323129251702
 30
0.0
 70
0
  0
VERTEX
  5
C3
330
B2
100
AcDbEntity
  8
InnerContours
100
AcDbVertex
100
AcDb2dVertex
 10
46.937978316326536
 20
12.27093962585034
 30
0.0
 70
0
  0
VERTEX
  5
C4
330
B2
100
AcDbEntity
  8
InnerContours
100
AcDbVertex
100
AcDb2dVertex
 10
46.122448979591844
 20
11.564625850340137
 30
0.0
 70
0
  0
VERTEX
  5
C5
330
B2
100
AcDbEntity
  8
InnerContours
100
AcDbVertex
100
AcDb2dVertex
 10
45.26227678571429
 20
10.889136904761905
 30
0.0
 70
0
  0
VERTEX
  5
C6
330
B2
100
AcDbEntity
  8
InnerContours
100
AcDbVertex
100
AcDb2dVertex
 10
44.38244047619048
 20
10.257227891156464
 30
0.0
 70
0
  0
VERTEX
  5
C7
330
B2
100
AcDbEntity
  8
InnerContours
100
AcDbVertex
100
AcDb2dVertex
 10
43.482940051020414
 20
9.66889880952381
 30
0.0
 70
0
  0
VERTEX
  5
C8
330
B2
100
AcDbEntity
  8
InnerContours
100
AcDbVertex
100
AcDb2dVertex
 10
42.56377551020409
 20
9.124149659863946
 30
0.0
 70
0
  0
VERTEX
  5
C9
330
B2
100
AcDbEntity
  8
InnerContours
100
AcDbVertex
100
AcDb2dVertex
 10
41.624946853741505
 20
8.622980442176871
 30
0.0
 70
0
  0
VERTEX
  5
CA
330
B2
100
AcDbEntity
  8
InnerContours
100
AcDbVertex
100
AcDb2dVertex
 10
40.66645408163266
 20
8.165391156462587
 30
0.0
 70
0
  0
VERTEX
  5
CB
330
B2
100
AcDbEntity
  8
InnerContours
100
AcDbVertex
100
AcDb2dVertex
 10
39.68829719387756
 20
7.75138180272109
 30
0.0
 70
0
  0
VERTEX
  5
CC
330
B2
100
AcDbEntity
  8
InnerContours
100
AcDbVertex
100
AcDb2dVertex
 10
38.6904761904762
 20
7.380952380952382
 30
0.0
 70
0
  0
VERTEX
  5
CD
330
B2
100
AcDbEntity
  8
InnerContours
100
AcDbVertex
100
AcDb2dVertex
 10
37.67299107142858
 20
7.054102891156464
 30
0.0
 70
0
  0
VERTEX
  5
CE
330
B2
100
AcDbEntity
  8
InnerContours
100
AcDbVertex
100
AcDb2dVertex
 10
36.6358418367347
 20
6.770833333333335
 30
0.0
 70
0
  0
VERTEX
  5
CF
330
B2
100
AcDbEntity
  8
InnerContours
100
AcDbVertex
100
AcDb2dVertex
 10
35.57902848639456
 20
6.531143707482995
 30
0.0
 70
0
  0
VERTEX
  5
D0
330
B2
100
AcDbEntity
  8
InnerContours
100
AcDbVertex
100
AcDb2dVertex
 10
34.50255102040817
 20
6.335034013605443
 30
0.0
 70
0
  0
VERTEX
  5
D1
330
B2
100
AcDbEntity
  8
InnerContours
100
AcDbVertex
100
AcDb2dVertex
 10
33.40640943877552
 20
6.182504251700681
 30
0.0
 70
0
  0
VERTEX
  5
D2
330
B2
100
AcDbEntity
  8
InnerContours
100
AcDbVertex
100
AcDb2dVertex
 10
32.290603741496604
 20
6.0735544217687085
 30
0.0
 70
0
  0
VERTEX
  5
D3
330
B2
100
AcDbEntity
  8
InnerContours
100
AcDbVertex
100
AcDb2dVertex
 10
31.155133928571438
 20
6.0081845238095255
 30
0.0
 70
0
  0
VERTEX
  5
D4
330
B2
100
AcDbEntity
  8
InnerContours
100
AcDbVertex
100
AcDb2dVertex
 10
30.000000000000007
 20
5.986394557823131
 30
0.0
 70
0
  0
VERTEX
  5
D5
330
B2
100
AcDbEntity
  8
InnerContours
100
AcDbVertex
100
AcDb2dVertex
 10
28.81271258503402
 20
6.0081845238095255
 30
0.0
 70
0
  0
VERTEX
  5
D6
330
B2
100
AcDbEntity
  8
InnerContours
100
AcDbVertex
100
AcDb2dVertex
 10
27.64880952380953
 20
6.0735544217687085
 30
0.0
 70
0
  0
VERTEX
  5
D7
330
B2
100
AcDbEntity
  8
InnerContours
100
AcDbVertex
100
AcDb2dVertex
 10
26.508290816326536
 20
6.182504251700681
 30
0.0
 70
0
  0
VERTEX
  5
D8
330
B2
100
AcDbEntity
  8
InnerContours
100
AcDbVertex
100
AcDb2dVertex
 10
25.391156462585037
 20
6.335034013605443
 30
0.0
 70
0
  0
VERTEX
  5
D9
330
B2
100
AcDbEntity
  8
InnerContours
100
AcDbVertex
100
AcDb2dVertex
 10
24.297406462585037
 20
6.531143707482995
 30
0.0
 70
0
  0
VERTEX
  5
DA
330
B2
100
AcDbEntity
  8
InnerContours
100
AcDbVertex
100
AcDb2dVertex
 10
23.227040816326532
 20
6.770833333333335
 30
0.0
 70
0
  0
VERTEX
  5
DB
330
B2
100
AcDbEntity
  8
InnerContours
100
AcDbVertex
100
AcDb2dVertex
 10
22.180059523809526
 20
7.054102891156464
 30
0.0
 70
0
  0
VERTEX
  5
DC
330
B2
100
AcDbEntity
  8
InnerContours
100
AcDbVertex
100
AcDb2dVertex
 10
21.156462585034014
 20
7.380952380952382
 30
0.0
 70
0
  0
VERTEX
  5
DD
330
B2
100
AcDbEntity
  8
InnerContours
100
AcDbVertex
100
AcDb2dVertex
 10
20.15625
 20
7.75138180272109
 30
0.0
 70
0
  0
VERTEX
  5
DE
330
B2
100
AcDbEntity
  8
InnerContours
100
AcDbVertex
100
AcDb2dVertex
 10
19.179421768707485
 20
8.165391156462587
 30
0.0
 70
0
  0
VERTEX
  5
DF
330
B2
100
AcDbEntity
  8
InnerContours
100
AcDbVertex
100
AcDb2dVertex
 10
18.22597789115646
 20
8.622980442176871
 30
0.0
 70
0
  0
VERTEX
  5
E0
330
B2
100
AcDbEntity
  8
InnerContours
100
AcDbVertex
100
AcDb2dVertex
 10
17.29591836734694
 20
9.124149659863946
 30
0.0
 70
0
  0
VERTEX
  5
E1
330
B2
100
AcDbEntity
  8
InnerContours
100
AcDbVertex
100
AcDb2dVertex
 10
16.389243197278912
 20
9.66889880952381
 30
0.0
 70
0
  0
VERTEX
  5
E2
330
B2
100
AcDbEntity
  8
InnerContours
100
AcDbVertex
100
AcDb2dVertex
 10
15.505952380952381
 20
10.257227891156464
 30
0.0
 70
0
  0
VERTEX
  5
E3
330
B2
100
AcDbEntity
  8
InnerContours
100
AcDbVertex
100
AcDb2dVertex
 10
14.646045918367347
 20
10.889136904761905
 30
0.0
 70
0
  0
VERTEX
  5
E4
330
B2
100
AcDbEntity
  8
InnerContours
100
AcDbVertex
100
AcDb2dVertex
 10
13.809523809523812
 20
11.564625850340137
 30
0.0
 70
0
  0
VERTEX
  5
E5
330
B2
100
AcDbEntity
  8
InnerContours
100
AcDbVertex
100
AcDb2dVertex
 10
13.002232142857146
 20
12.27891156462585
 30
0.0
 70
0
  0
VERTEX
  5
E6
330
B2
100
AcDbEntity
  8
InnerContours
100
AcDbVertex
100
AcDb2dVertex
 10
12.247023809523812
 20
13.010204081632654
 30
0.0
 70
0
  0
VERTEX
  5
E7
330
B2
100
AcDbEntity
  8
InnerContours
100
AcDbVertex
100
AcDb2dVertex
 10
11.543898809523812
 20
13.758503401360546
 30
0.0
 70
0
  0
VERTEX
  5
E8
330
B2
100
AcDbEntity
  8
InnerContours
100
AcDbVertex
100
AcDb2dVertex
 10
10.892857142857146
 20
14.523809523809526
 30
0.0
 70
0
  0
VERTEX
  5
E9
330
B2
100
AcDbEntity
  8
InnerContours
100
AcDbVertex
100
AcDb2dVertex
 10
10.29389880952381
 20
15.306122448979593
 30
0.0
 70
0
  0
VERTEX
  5
EA
330
B2
100
AcDbEntity
  8
InnerContours
100
AcDbVertex
100
AcDb2dVertex
 10
9.74702380952381
 20
16.10544217687075
 30
0.0
 70
0
  0
VERTEX
  5
EB
330
B2
100
AcDbEntity
  8
InnerContours
100
AcDbVertex
100
AcDb2dVertex
 10
9.252232142857146
 20
16.921768707482993
 30
0.0
 70
0
  0
VERTEX
  5
EC
330
B2
100
AcDbEntity
  8
InnerContours
100
AcDbVertex
100
AcDb2dVertex
 10
8.80952380952381
 20
17.755102040816325
 30
0.0
 70
0
  0
VERTEX
  5
ED
330
B2
100
AcDbEntity
  8
InnerContours
100
AcDbVertex
100
AcDb2dVertex
 10
8.41889880952381
 20
18.60544217687075
 30
0.0
 70
0
  0
VERTEX
  5
EE
330
B2
100
AcDbEntity
  8
InnerContours
100
AcDbVertex
100
AcDb2dVertex
 10
8.080357142857144
 20
19.472789115646258
 30
0.0
 70
0
  0
VERTEX
  5
EF
330
B2
100
AcDbEntity
  8
InnerContours
100
AcDbVertex
100
AcDb2dVertex
 10
7.793898809523811
 20
20.357142857142858
 30
0.0
 70
0
  0
VERTEX
  5
F0
330
B2
100
AcDbEntity
  8
InnerContours
100
AcDbVertex
100
AcDb2dVertex
 10
7.559523809523811
 20
21.258503401360542
 30
0.0
 70
0
  0
VERTEX
  5
F1
330
B2
100
AcDbEntity
  8
InnerContours
100
AcDbVertex
100
AcDb2dVertex
 10
7.377232142857144
 20
22.176870748299322
 30
0.0
 70
0
  0
VERTEX
  5
F2
330
B2
100
AcDbEntity
  8
InnerContours
100
AcDbVertex
100
AcDb2dVertex
 10
7.247023809523811
 20
23.112244897959183
 30
0.0
 70
0
  0
VERTEX
  5
F3
330
B2
100
AcDbEntity
  8
InnerContours
100
AcDbVertex
100
AcDb2dVertex
 10
7.168898809523811
 20
24.064625850340136
 30
0.0
 70
0
  0
VERTEX
  5
F4
330
B2
100
AcDbEntity
  8
InnerContours
100
AcDbVertex
100
AcDb2dVertex
 10
7.142857142857144
 20
25.034013605442176
 30
0.0
 70
0
  0
VERTEX
  5
F5
330
B2
100
AcDbEntity
  8
InnerContours
100
AcDbVertex
100
AcDb2dVertex
 10
7.168898809523811
 20
26.003401360544217
 30
0.0
 70
0
  0
VERTEX
  5
F6
330
B2
100
AcDbEntity
  8
InnerContours
100
AcDbVertex
100
AcDb2dVertex
 10
7.247023809523811
 20
26.95578231292517
 30
0.0
 70
0
  0
VERTEX
  5
F7
330
B2
100
AcDbEntity
  8
InnerContours
100
AcDbVertex
100
AcDb2dVertex
 10
7.377232142857144
 20
27.891156462585034
 30
0.0
 70
0
  0
VERTEX
  5
F8
330
B2
100
AcDbEntity
  8
InnerContours
100
AcDbVertex
100
AcDb2dVertex
 10
7.559523809523811
 20
28.80952380952381
 30
0.0
 70
0
  0
VERTEX
  5
F9
330
B2
100
AcDbEntity
  8
InnerContours
100
AcDbVertex
100
AcDb2dVertex
 10
7.793898809523811
 20
29.7108843537415
 30
0.0
 70
0
  0
VERTEX
  5
FA
330
B2
100
AcDbEntity
  8
InnerContours
100
AcDbVertex
100
AcDb2dVertex
 10
8.080357142857144
 20
30.595238095238095
 30
0.0
 70
0
  0
VERTEX
  5
FB
330
B2
100
AcDbEntity
  8
InnerContours
100
AcDbVertex
100
AcDb2dVertex
 10
8.41889880952381
 20
31.462585034013607
 30
0.0
 70
0
  0
VERTEX
  5
FC
330
B2
100
AcDbEntity
  8
InnerContours
100
AcDbVertex
100
AcDb2dVertex
 10
8.80952380952381
 20
32.31292517006803
 30
0.0
 70
0
  0
VERTEX
  5
FD
330
B2
100
AcDbEntity
  8
InnerContours
100
AcDbVertex
100
AcDb2dVertex
 10
9.252232142857144
 20
33.14625850340136
 30
0.0
 70
0
  0
VERTEX
  5
FE
330
B2
100
AcDbEntity
  8
InnerContours
100
AcDbVertex
100
AcDb2dVertex
 10
9.74702380952381
 20
33.96258503401361
 30
0.0
 70
0
  0
VERTEX
  5
FF
330
B2
100
AcDbEntity
  8
InnerContours
100
AcDbVertex
100
AcDb2dVertex
 10
10.293898809523812
 20
34.76190476190476
 30
0.0
 70
0
  0
VERTEX
  5
100
330
B2
100
AcDbEntity
  8
InnerContours
100
AcDbVertex
100
AcDb2dVertex
 10
10.892857142857146
 20
35.544217687074834
 30
0.0
 70
0
  0
VERTEX
  5
101
330
B2
100
AcDbEntity
  8
InnerContours
100
AcDbVertex
100
AcDb2dVertex
 10
11.543898809523812
 20
36.30952380952381
 30
0.0
 70
0
  0
VERTEX
  5
102
330
B2
100
AcDbEntity
  8
InnerContours
100
AcDbVertex
100
AcDb2dVertex
 10
12.247023809523812
 20
37.0578231292517
 30
0.0
 70
0
  0
VERTEX
  5
103
330
B2
100
AcDbEntity
  8
InnerContours
100
AcDbVertex
100
AcDb2dVertex
 10
13.002232142857146
 20
37.7891156462585
 30
0.0
 70
0
  0
VERTEX
  5
104
330
B2
100
AcDbEntity
  8
InnerContours
100
AcDbVertex
100
AcDb2dVertex
 10
13.809523809523812
 20
38.50340136054422
 30
0.0
 70
0
  0
VERTEX
  5
105
330
B2
100
AcDbEntity
  8
InnerContours
100
AcDbVertex
100
AcDb2dVertex
 10
14.64604591836735
 20
39.17889030612245
 30
0.0
 70
0
  0
VERTEX
  5
106
330
B2
100
AcDbEntity
  8
InnerContours
100
AcDbVertex
100
AcDb2dVertex
 10
15.505952380952383
 20
39.81079931972789
 30
0.0
 70
0
  0
VERTEX
  5
107
330
B2
100
AcDbEntity
  8
InnerContours
100
AcDbVertex
100
AcDb2dVertex
 10
16.389243197278912
 20
40.39912840136054
 30
0.0
 70
0
  0
VERTEX
  5
108
330
B2
100
AcDbEntity
  8
InnerContours
100
AcDbVertex
100
AcDb2dVertex
 10
17.29591836734694
 20
40.94387755102041
 30
0.0
 70
0
  0
VERTEX
  5
109
330
B2
100
AcDbEntity
  8
InnerContours
100
AcDbVertex
100
AcDb2dVertex
 10
18.225977891156464
 20
41.445046768707485
 30
0.0
 70
0
  0
VERTEX
  5
10A
330
B2
100
AcDbEntity
  8
InnerContours
100
AcDbVertex
100
AcDb2dVertex
 10
19.179421768707485
 20
41.90263605442177
 30
0.0
 70
0
  0
VERTEX
  5
10B
330
B2
100
AcDbEntity
  8
InnerContours
100
AcDbVertex
100
AcDb2dVertex
 10
20.156250000000004
 20
42.31664540816327
 30
0.0
 70
0
  0
VERTEX
  5
10C
330
B2
100
AcDbEntity
  8
InnerContours
100
AcDbVertex
100
AcDb2dVertex
 10
21.156462585034017
 20
42.68707482993197
 30
0.0
 70
0
  0
VERTEX
  5
10D
330
B2
100
AcDbEntity
  8
InnerContours
100
AcDbVertex
100
AcDb2dVertex
 10
22.180059523809526
 20
43.01392431972789
 30
0.0
 70
0
  0
VERTEX
  5
10E
330
B2
100
AcDbEntity
  8
InnerContours
100
AcDbVertex
100
AcDb2dVertex
 10
23.227040816326536
 20
43.297193877551024
 30
0.0
 70
0
  0
VERTEX
  5
10F
330
B2
100
AcDbEntity
  8
InnerContours
100
AcDbVertex
100
AcDb2dVertex
 10
24.297406462585037
 20
43.53688350340136
 30
0.0
 70
0
  0
VERTEX
  5
110
330
B2
100
AcDbEntity
  8
InnerContours
100
AcDbVertex
100
AcDb2dVertex
 10
25.391156462585037
 20
43.732993197278915
 30
0.0
 70
0
  0
VERTEX
  5
111
330
B2
100
AcDbEntity
  8
InnerContours
100
AcDbVertex
100
AcDb2dVertex
 10
26.508290816326536
 20
43.885522959183675
 30
0.0
 70
0
  0
VERTEX
  5
112
330
B2
100
AcDbEntity
  8
InnerContours
100
AcDbVertex
100
AcDb2dVertex
 10
27.648809523809533
 20
43.99447278911565
 30
0.0
 70
0
  0
VERTEX
  5
113
330
B2
100
AcDbEntity
  8
InnerContours
100
AcDbVertex
100
AcDb2dVertex
 10
28.81271258503402
 20
44.059842687074834
 30
0.0
 70
0
  0
VERTEX
  5
114
330
B2
100
AcDbEntity
  8
InnerContours
100
AcDbVertex
100
AcDb2dVertex
 10
30.000000000000007
 20
44.08163265306123
 30
0.0
 70
0
  0
VERTEX
  5
115
330
B2
100
AcDbEntity
  8
InnerContours
100
AcDbVertex
100
AcDb2dVertex
 10
31.155133928571434
 20
44.059842687074834
 30
0.0
 70
0
  0
VERTEX
  5
116
330
B2
100
AcDbEntity
  8
InnerContours
100
AcDbVertex
100
AcDb2dVertex
 10
32.290603741496604
 20
43.99447278911565
 30
0.0
 70
0
  0
VERTEX
  5
117
330
B2
100
AcDbEntity
  8
InnerContours
100
AcDbVertex
100
AcDb2dVertex
 10
33.40640943877552
 20
43.885522959183675
 30
0.0
 70
0
  0
VERTEX
  5
118
330
B2
100
AcDbEntity
  8
InnerContours
100
AcDbVertex
100
AcDb2dVertex
 10
34.50255102040817
 20
43.732993197278915
 30
0.0
 70
0
  0
VERTEX
  5
119
330
B2
100
AcDbEntity
  8
InnerContours
100
AcDbVertex
100
AcDb2dVertex
 10
35.57902848639456
 20
43.53688350340136
 30
0.0
 70
0
  0
VERTEX
  5
11A
330
B2
100
AcDbEntity
  8
InnerContours
100
AcDbVertex
100
AcDb2dVertex
 10
36.6358418367347
 20
43.297193877551024
 30
0.0
 70
0
  0
VERTEX
  5
11B
330
B2
100
AcDbEntity
  8
InnerContours
100
AcDbVertex
100
AcDb2dVertex
 10
37.67299107142858
 20
43.01392431972789
 30
0.0
 70
0
  0
VERTEX
  5
11C
330
B2
100
AcDbEntity
  8
InnerContours
100
AcDbVertex
100
AcDb2dVertex
 10
38.6904761904762
 20
42.68707482993197
 30
0.0
 70
0
  0
VERTEX
  5
11D
330
B2
100
AcDbEntity
  8
InnerContours
100
AcDbVertex
100
AcDb2dVertex
 10
39.68829719387756
 20
42.31664540816327
 30
0.0
 70
0
  0
VERTEX
  5
11E
330
B2
100
AcDbEntity
  8
InnerContours
100
AcDbVertex
100
AcDb2dVertex
 10
40.66645408163266
 20
41.90263605442177
 30
0.0
 70
0
  0
VERTEX
  5
11F
330
B2
100
AcDbEntity
  8
InnerContours
100
AcDbVertex
100
AcDb2dVertex
 10
41.624946853741505
 20
41.445046768707485
 30
0.0
 70
0
  0
VERTEX
  5
120
330
B2
100
AcDbEntity
  8
InnerContours
100
AcDbVertex
100
AcDb2dVertex
 10
42.56377551020409
 20
40.94387755102041
 30
0.0
 70
0
  0
VERTEX
  5
121
330
B2
100
AcDbEntity
  8
InnerContours
100
AcDbVertex
100
AcDb2dVertex
 10
43.482940051020414
 20
40.39912840136054
 30
0.0
 70
0
  0
VERTEX
  5
122
330
B2
100
AcDbEntity
  8
InnerContours
100
AcDbVertex
100
AcDb2dVertex
 10
44.38244047619048
 20
39.81079931972789
 30
0.0
 70
0
  0
VERTEX
  5
123
330
B2
100
AcDbEntity
  8
InnerContours
100
AcDbVertex
100
AcDb2dVertex
 10
45.26227678571429
 20
39.17889030612245
 30
0.0
 70
0
  0
VERTEX
  5
124
330
B2
100
AcDbEntity
  8
InnerContours
100
AcDbVertex
100
AcDb2dVertex
 10
46.122448979591844
 20
38.50340136054422
 30
0.0
 70
0
  0
VERTEX
  5
125
330
B2
100
AcDbEntity
  8
InnerContours
100
AcDbVertex
100
AcDb2dVertex
 10
46.937978316326536
 20
37.7891156462585
 30
0.0
 70
0
  0
VERTEX
  5
126
330
B2
100
AcDbEntity
  8
InnerContours
100
AcDbVertex
100
AcDb2dVertex
 10
47.70089285714286
 20
37.0578231292517
 30
0.0
 70
0
  0
VERTEX
  5
127
330
B2
100
AcDbEntity
  8
InnerContours
100
AcDbVertex
100
AcDb2dVertex
 10
48.41119260204082
 20
36.30952380952381
 30
0.0
 70
0
  0
VERTEX
  5
128
330
B2
100
AcDbEntity
  8
InnerContours
100
AcDbVertex
100
AcDb2dVertex
 10
49.068877551020414
 20
35.544217687074834
 30
0.0
 70
0
  0
VERTEX
  5
129
330
B2
100
AcDbEntity
  8
InnerContours
100
AcDbVertex
100
AcDb2dVertex
 10
49.67394770408164
 20
34.761904761904766
 30
0.0
 70
0
  0
VERTEX
  5
12A
330
B2
100
AcDbEntity
  8
InnerContours
100
AcDbVertex
100
AcDb2dVertex
 10
50.226403061224495
 20
33.96258503401361
 30
0.0
 70
0
  0
VERTEX
  5
12B
330
B2
100
AcDbEntity
  8
InnerContours
100
AcDbVertex
100
AcDb2dVertex
 10
50.72624362244898
 20
33.14625850340136
 30
0.0
 70
0
  0
VERTEX
  5
12C
330
B2
100
AcDbEntity
  8
InnerContours
100
AcDbVertex
100
AcDb2dVertex
 10
51.173469387755105
 20
32.31292517006803
 30
0.0
 70
0
  0
VERTEX
  5
12D
330
B2
100
AcDbEntity
  8
InnerContours
100
AcDbVertex
100
AcDb2dVertex
 10
51.56808035714286
 20
31.462585034013607
 30
0.0
 70
0
  0
VERTEX
  5
12E
330
B2
100
AcDbEntity
  8
InnerContours
100
AcDbVertex
100
AcDb2dVertex
 10
51.91007653061225
 20
30.595238095238095
 30
0.0
 70
0
  0
VERTEX
  5
12F
330
B2
100
AcDbEntity
  8
InnerContours
100
AcDbVertex
100
AcDb2dVertex
 10
52.19945790816327
 20
29.7108843537415
 30
0.0
 70
0
  0
VERTEX
  5
130
330
B2
100
AcDbEntity
  8
InnerContours
100
AcDbVertex
100
AcDb2dVertex
 10
52.43622448979592
 20
28.80952380952381
 30
0.0
 70
0
  0
VERTEX
  5
131
330
B2
100
AcDbEntity
  8
InnerContours
100
AcDbVertex
100
AcDb2dVertex
 10
52.62037627551021
 20
27.891156462585037
 30
0.0
 70
0
  0
VERTEX
  5
132
330
B2
100
AcDbEntity
  8
InnerContours
100
AcDbVertex
100
AcDb2dVertex
 10
52.75191326530613
 20
26.955782312925173
 30
0.0
 70
0
  0
VERTEX
  5
133
330
B2
100
AcDbEntity
  8
InnerContours
100
AcDbVertex
100
AcDb2dVertex
 10
52.830835459183675
 20
26.003401360544217
 30
0.0
 70
0
  0
VERTEX
  5
134
330
B2
100
AcDbEntity
  8
InnerContours
100
AcDbVertex
100
AcDb2dVertex
 10
52.85714285714286
 20
25.034013605442176
 30
0.0
 70
0
  0
VERTEX
  5
135
330
B2
100
AcDbEntity
  8
InnerContours
100
AcDbVertex
100
AcDb2dVertex
 10
60.00000000000001
 20
25.034013605442176
 30
0.0
 70
0
  0
SEQEND
  5
136
330
B2
100
AcDbEntity
  8
0
  0
ENDSEC
  0
SECTION
  2
OBJECTS
  0
DICTIONARY
  5
A
330
0
100
AcDbDictionary
280
0
281
1
  3
ACAD_COLOR
350
B
  3
ACAD_GROUP
350
C
  3
ACAD_LAYOUT
350
D
  3
ACAD_MATERIAL
350
E
  3
ACAD_MLEADERSTYLE
350
F
  3
ACAD_MLINESTYLE
350
10
  3
ACAD_PLOTSETTINGS
350
11
  3
ACAD_PLOTSTYLENAME
350
12
  3
ACAD_SCALELIST
350
14
  3
ACAD_TABLESTYLE
350
15
  3
ACAD_VISUALSTYLE
350
16
  3
EZDXF_META
350
2D
  0
DICTIONARY
  5
B
330
A
100
AcDbDictionary
280
0
281
1
  0
DICTIONARY
  5
C
330
A
100
AcDbDictionary
280
0
281
1
  0
DICTIONARY
  5
D
330
A
100
AcDbDictionary
280
0
281
1
  3
Model
350
1A
  3
Layout1
350
1E
  0
DICTIONARY
  5
E
330
A
100
AcDbDictionary
280
0
281
1
  3
ByBlock
350
1F
  3
ByLayer
350
20
  3
Global
350
21
  0
DICTIONARY
  5
F
330
A
100
AcDbDictionary
280
0
281
1
  3
Standard
350
2C
  0
DICTIONARY
  5
10
330
A
100
AcDbDictionary
280
0
281
1
  3
Standard
350
22
  0
DICTIONARY
  5
11
330
A
100
AcDbDictionary
280
0
281
1
  0
ACDBDICTIONARYWDFLT
  5
12
330
A
100
AcDbDictionary
280
0
281
1
  3
Normal
350
13
100
AcDbDictionaryWithDefault
340
13
  0
ACDBPLACEHOLDER
  5
13
330
12
  0
DICTIONARY
  5
14
330
A
100
AcDbDictionary
280
0
281
1
  0
DICTIONARY
  5
15
330
A
100
AcDbDictionary
280
0
281
1
  0
DICTIONARY
  5
16
330
A
100
AcDbDictionary
280
0
281
1
  0
LAYOUT
  5
1A
330
D
100
AcDbPlotSettings
  1

  4
A3
  6

 40
7.5
 41
20.0
 42
7.5
 43
20.0
 44
420.0
 45
297.0
 46
0.0
 47
0.0
 48
0.0
 49
0.0
140
0.0
141
0.0
142
1.0
143
1.0
 70
1024
 72
1
 73
0
 74
5
  7

 75
16
 76
0
 77
2
 78
300
147
1.0
148
0.0
149
0.0
100
AcDbLayout
  1
Model
 70
1
 71
0
 10
0.0
 20
0.0
 11
420.0
 21
297.0
 12
0.0
 22
0.0
 32
0.0
 14
1e+20
 24
1e+20
 34
1e+20
 15
-1e+20
 25
-1e+20
 35
-1e+20
146
0.0
 13
0.0
 23
0.0
 33
0.0
 16
1.0
 26
0.0
 36
0.0
 17
0.0
 27
1.0
 37
0.0
 76
1
330
17
  0
LAYOUT
  5
1E
330
D
100
AcDbPlotSettings
  1

  4
A3
  6

 40
7.5
 41
20.0
 42
7.5
 43
20.0
 44
420.0
 45
297.0
 46
0.0
 47
0.0
 48
0.0
 49
0.0
140
0.0
141
0.0
142
1.0
143
1.0
 70
0
 72
1
 73
0
 74
5
  7

 75
16
 76
0
 77
2
 78
300
147
1.0
148
0.0
149
0.0
100
AcDbLayout
  1
Layout1
 70
1
 71
1
 10
0.0
 20
0.0
 11
420.0
 21
297.0
 12
0.0
 22
0.0
 32
0.0
 14
1e+20
 24
1e+20
 34
1e+20
 15
-1e+20
 25
-1e+20
 35
-1e+20
146
0.0
 13
0.0
 23
0.0
 33
0.0
 16
1.0
 26
0.0
 36
0.0
 17
0.0
 27
1.0
 37
0.0
 76
1
330
1B
  0
MATERIAL
  5
1F
102
{ACAD_REACTORS
330
E
102
}
330
E
100
AcDbMaterial
  1
ByBlock
  2

 70
0
 40
1.0
 71
1
 41
1.0
 91
-1023410177
 42
1.0
 72
1
  3

 73
1
 74
1
 75
1
 44
0.5
 73
0
 45
1.0
 46
1.0
 77
1
  4

 78
1
 79
1
170
1
 48
1.0
171
1
  6

172
1
173
1
174
1
140
1.0
141
1.0
175
1
  7

176
1
177
1
178
1
143
1.0
179
1
  8

270
1
271
1
272
1
145
1.0
146
1.0
273
1
  9

274
1
275
1
276
1
 42
1.0
 72
1
  3

 73
1
 74
1
 75
1
 94
63
  0
MATERIAL
  5
20
102
{ACAD_REACTORS
330
E
102
}
330
E
100
AcDbMaterial
  1
ByLayer
  2

 70
0
 40
1.0
 71
1
 41
1.0
 91
-1023410177
 42
1.0
 72
1
  3

 73
1
 74
1
 75
1
 44
0.5
 73
0
 45
1.0
 46
1.0
 77
1
  4

 78
1
 79
1
170
1
 48
1.0
171
1
  6

172
1
173
1
174
1
140
1.0
141
1.0
175
1
  7

176
1
177
1
178
1
143
1.0
179
1
  8

270
1
271
1
272
1
145
1.0
146
1.0
273
1
  9

274
1
275
1
276
1
 42
1.0
 72
1
  3

 73
1
 74
1
 75
1
 94
63
  0
MATERIAL
  5
21
102
{ACAD_REACTORS
330
E
102
}
330
E
100
AcDbMaterial
  1
Global
  2

 70
0
 40
1.0
 71
1
 41
1.0
 91
-1023410177
 42
1.0
 72
1
  3

 73
1
 74
1
 75
1
 44
0.5
 73
0
 45
1.0
 46
1.0
 77
1
  4

 78
1
 79
1
170
1
 48
1.0
171
1
  6

172
1
173
1
174
1
140
1.0
141
1.0
175
1
  7

176
1
177
1
178
1
143
1.0
179
1
  8

270
1
271
1
272
1
145
1.0
146
1.0
273
1
  9

274
1
275
1
276
1
 42
1.0
 72
1
  3

 73
1
 74
1
 75
1
 94
63
  0
MLINESTYLE
  5
22
102
{ACAD_REACTORS
330
10
102
}
330
10
100
AcDbMlineStyle
  2
Standard
 70
0
  3

 62
256
 51
90.0
 52
90.0
 71
2
 49
0.5
 62
256
  6
BYLAYER
 49
-0.5
 62
256
  6
BYLAYER
  0
MLEADERSTYLE
  5
2C
102
{ACAD_REACTORS
330
F
102
}
330
F
100
AcDbMLeaderStyle
179
2
170
2
171
1
172
0
 90
2
 40
0.0
 41
0.0
173
1
 91
-1056964608
 92
-2
290
1
 42
2.0
291
1
 43
8.0
  3
Standard
 44
4.0
300

342
29
174
1
175
1
176
0
178
1
 93
-1056964608
 45
4.0
292
0
297
0
 46
4.0
 94
-1056964608
 47
1.0
 49
1.0
140
1.0
294
1
141
0.0
177
0
142
1.0
295
0
296
0
143
3.75
271
0
272
9
273
9
  0
DICTIONARY
  5
2D
330
A
100
AcDbDictionary
280
1
281
1
  3
CREATED_BY_EZDXF
350
2E
  3
WRITTEN_BY_EZDXF
350
139
  0
DICTIONARYVAR
  5
2E
330
2D
100
DictionaryVariables
280
0
  1
1.4.0 @ 2025-03-21T17:24:18.324430+00:00
  0
DICTIONARYVAR
  5
139
330
2D
100
DictionaryVariables
280
0
  1
1.4.0 @ 2025-03-21T17:24:18.327730+00:00
  0
ENDSEC
  0
EOF
