  0
SECTION
  2
HEADER
  9
$ACADVER
  1
AC1024
  9
$ACADMAINTVER
 70
6
  9
$DWGCODEPAGE
  3
ANSI_1252
  9
$LASTSAVEDBY
  1
ezdxf
  9
$INSBASE
 10
0.0
 20
0.0
 30
0.0
  9
$EXTMIN
 10
1e+20
 20
1e+20
 30
1e+20
  9
$EXTMAX
 10
-1e+20
 20
-1e+20
 30
-1e+20
  9
$LIMMIN
 10
0.0
 20
0.0
  9
$LIMMAX
 10
420.0
 20
297.0
  9
$ORTHOMODE
 70
0
  9
$REGENMODE
 70
1
  9
$FILLMODE
 70
1
  9
$QTEXTMODE
 70
0
  9
$MIRRTEXT
 70
1
  9
$LTSCALE
 40
1.0
  9
$ATTMODE
 70
1
  9
$TEXTSIZE
 40
2.5
  9
$TRACEWID
 40
1.0
  9
$TEXTSTYLE
  7
Standard
  9
$CLAYER
  8
0
  9
$CELTYPE
  6
ByLayer
  9
$CECOLOR
 62
256
  9
$CELTSCALE
 40
1.0
  9
$DISPSILH
 70
0
  9
$DIMSCALE
 40
1.0
  9
$DIMASZ
 40
2.5
  9
$DIMEXO
 40
0.625
  9
$DIMDLI
 40
3.75
  9
$DIMRND
 40
0.0
  9
$DIMDLE
 40
0.0
  9
$DIMEXE
 40
1.25
  9
$DIMTP
 40
0.0
  9
$DIMTM
 40
0.0
  9
$DIMTXT
 40
2.5
  9
$DIMCEN
 40
2.5
  9
$DIMTSZ
 40
0.0
  9
$DIMTOL
 70
0
  9
$DIMLIM
 70
0
  9
$DIMTIH
 70
0
  9
$DIMTOH
 70
0
  9
$DIMSE1
 70
0
  9
$DIMSE2
 70
0
  9
$DIMTAD
 70
1
  9
$DIMZIN
 70
8
  9
$DIMBLK
  1

  9
$DIMASO
 70
1
  9
$DIMSHO
 70
1
  9
$DIMPOST
  1

  9
$DIMAPOST
  1

  9
$DIMALT
 70
0
  9
$DIMALTD
 70
3
  9
$DIMALTF
 40
0.03937007874
  9
$DIMLFAC
 40
1.0
  9
$DIMTOFL
 70
1
  9
$DIMTVP
 40
0.0
  9
$DIMTIX
 70
0
  9
$DIMSOXD
 70
0
  9
$DIMSAH
 70
0
  9
$DIMBLK1
  1

  9
$DIMBLK2
  1

  9
$DIMSTYLE
  2
ISO-25
  9
$DIMCLRD
 70
0
  9
$DIMCLRE
 70
0
  9
$DIMCLRT
 70
0
  9
$DIMTFAC
 40
1.0
  9
$DIMGAP
 40
0.625
  9
$DIMJUST
 70
0
  9
$DIMSD1
 70
0
  9
$DIMSD2
 70
0
  9
$DIMTOLJ
 70
0
  9
$DIMTZIN
 70
8
  9
$DIMALTZ
 70
0
  9
$DIMALTTZ
 70
0
  9
$DIMUPT
 70
0
  9
$DIMDEC
 70
2
  9
$DIMTDEC
 70
2
  9
$DIMALTU
 70
2
  9
$DIMALTTD
 70
3
  9
$DIMTXSTY
  7
Standard
  9
$DIMAUNIT
 70
0
  9
$DIMADEC
 70
0
  9
$DIMALTRND
 40
0.0
  9
$DIMAZIN
 70
0
  9
$DIMDSEP
 70
44
  9
$DIMATFIT
 70
3
  9
$DIMFRAC
 70
0
  9
$DIMLDRBLK
  1

  9
$DIMLUNIT
 70
2
  9
$DIMLWD
 70
-2
  9
$DIMLWE
 70
-2
  9
$DIMTMOVE
 70
0
  9
$DIMFXL
 40
1.0
  9
$DIMFXLON
 70
0
  9
$DIMJOGANG
 40
0.785398163397
  9
$DIMTFILL
 70
0
  9
$DIMTFILLCLR
 70
0
  9
$DIMARCSYM
 70
0
  9
$DIMLTYPE
  6

  9
$DIMLTEX1
  6

  9
$DIMLTEX2
  6

  9
$DIMTXTDIRECTION
 70
0
  9
$LUNITS
 70
2
  9
$LUPREC
 70
4
  9
$SKETCHINC
 40
1.0
  9
$FILLETRAD
 40
10.0
  9
$AUNITS
 70
0
  9
$AUPREC
 70
2
  9
$MENU
  1
.
  9
$ELEVATION
 40
0.0
  9
$PELEVATION
 40
0.0
  9
$THICKNESS
 40
0.0
  9
$LIMCHECK
 70
0
  9
$CHAMFERA
 40
0.0
  9
$CHAMFERB
 40
0.0
  9
$CHAMFERC
 40
0.0
  9
$CHAMFERD
 40
0.0
  9
$SKPOLY
 70
0
  9
$TDCREATE
 40
2460756.766875
  9
$TDUCREATE
 40
2458532.153996898
  9
$TDUPDATE
 40
2460756.766875
  9
$TDUUPDATE
 40
2458532.1544311
  9
$TDINDWG
 40
0.0
  9
$TDUSRTIMER
 40
0.0
  9
$USRTIMER
 70
1
  9
$ANGBASE
 50
0.0
  9
$ANGDIR
 70
0
  9
$PDMODE
 70
0
  9
$PDSIZE
 40
0.0
  9
$PLINEWID
 40
0.0
  9
$SPLFRAME
 70
0
  9
$SPLINETYPE
 70
6
  9
$SPLINESEGS
 70
8
  9
$HANDSEED
  5
B2
  9
$SURFTAB1
 70
6
  9
$SURFTAB2
 70
6
  9
$SURFTYPE
 70
6
  9
$SURFU
 70
6
  9
$SURFV
 70
6
  9
$UCSBASE
  2

  9
$UCSNAME
  2

  9
$UCSORG
 10
0.0
 20
0.0
 30
0.0
  9
$UCSXDIR
 10
1.0
 20
0.0
 30
0.0
  9
$UCSYDIR
 10
0.0
 20
1.0
 30
0.0
  9
$UCSORTHOREF
  2

  9
$UCSORTHOVIEW
 70
0
  9
$UCSORGTOP
 10
0.0
 20
0.0
 30
0.0
  9
$UCSORGBOTTOM
 10
0.0
 20
0.0
 30
0.0
  9
$UCSORGLEFT
 10
0.0
 20
0.0
 30
0.0
  9
$UCSORGRIGHT
 10
0.0
 20
0.0
 30
0.0
  9
$UCSORGFRONT
 10
0.0
 20
0.0
 30
0.0
  9
$UCSORGBACK
 10
0.0
 20
0.0
 30
0.0
  9
$PUCSBASE
  2

  9
$PUCSNAME
  2

  9
$PUCSORG
 10
0.0
 20
0.0
 30
0.0
  9
$PUCSXDIR
 10
1.0
 20
0.0
 30
0.0
  9
$PUCSYDIR
 10
0.0
 20
1.0
 30
0.0
  9
$PUCSORTHOREF
  2

  9
$PUCSORTHOVIEW
 70
0
  9
$PUCSORGTOP
 10
0.0
 20
0.0
 30
0.0
  9
$PUCSORGBOTTOM
 10
0.0
 20
0.0
 30
0.0
  9
$PUCSORGLEFT
 10
0.0
 20
0.0
 30
0.0
  9
$PUCSORGRIGHT
 10
0.0
 20
0.0
 30
0.0
  9
$PUCSORGFRONT
 10
0.0
 20
0.0
 30
0.0
  9
$PUCSORGBACK
 10
0.0
 20
0.0
 30
0.0
  9
$USERI1
 70
0
  9
$USERI2
 70
0
  9
$USERI3
 70
0
  9
$USERI4
 70
0
  9
$USERI5
 70
0
  9
$USERR1
 40
0.0
  9
$USERR2
 40
0.0
  9
$USERR3
 40
0.0
  9
$USERR4
 40
0.0
  9
$USERR5
 40
0.0
  9
$WORLDVIEW
 70
1
  9
$SHADEDGE
 70
3
  9
$SHADEDIF
 70
70
  9
$TILEMODE
 70
1
  9
$MAXACTVP
 70
64
  9
$PINSBASE
 10
0.0
 20
0.0
 30
0.0
  9
$PLIMCHECK
 70
0
  9
$PEXTMIN
 10
1e+20
 20
1e+20
 30
1e+20
  9
$PEXTMAX
 10
-1e+20
 20
-1e+20
 30
-1e+20
  9
$PLIMMIN
 10
0.0
 20
0.0
  9
$PLIMMAX
 10
420.0
 20
297.0
  9
$UNITMODE
 70
0
  9
$VISRETAIN
 70
1
  9
$PLINEGEN
 70
0
  9
$PSLTSCALE
 70
1
  9
$TREEDEPTH
 70
3020
  9
$CMLSTYLE
  2
Standard
  9
$CMLJUST
 70
0
  9
$CMLSCALE
 40
20.0
  9
$PROXYGRAPHICS
 70
1
  9
$MEASUREMENT
 70
1
  9
$CELWEIGHT
370
-1
  9
$ENDCAPS
280
0
  9
$JOINSTYLE
280
0
  9
$LWDISPLAY
290
0
  9
$INSUNITS
 70
6
  9
$HYPERLINKBASE
  1

  9
$STYLESHEET
  1

  9
$XEDIT
290
1
  9
$CEPSNTYPE
380
0
  9
$PSTYLEMODE
290
1
  9
$FINGERPRINTGUID
  2
{1F9D5C7E-F6D9-4072-B44C-5E2C9FA85FED}
  9
$VERSIONGUID
  2
{4A71AAD1-6C74-4319-941E-3E8ACCC6A7B8}
  9
$EXTNAMES
290
1
  9
$PSVPSCALE
 40
0.0
  9
$OLESTARTUP
290
0
  9
$SORTENTS
280
127
  9
$INDEXCTL
280
0
  9
$HIDETEXT
280
1
  9
$XCLIPFRAME
280
1
  9
$HALOGAP
280
0
  9
$OBSCOLOR
 70
257
  9
$OBSLTYPE
280
0
  9
$INTERSECTIONDISPLAY
280
0
  9
$INTERSECTIONCOLOR
 70
257
  9
$DIMASSOC
280
2
  9
$PROJECTNAME
  1

  9
$CAMERADISPLAY
290
0
  9
$LENSLENGTH
 40
50.0
  9
$CAMERAHEIGHT
 40
0.0
  9
$STEPSPERSEC
 40
24.0
  9
$STEPSIZE
 40
100.0
  9
$3DDWFPREC
 40
2.0
  9
$PSOLWIDTH
 40
0.005
  9
$PSOLHEIGHT
 40
0.08
  9
$LOFTANG1
 40
1.570796326795
  9
$LOFTANG2
 40
1.570796326795
  9
$LOFTMAG1
 40
0.0
  9
$LOFTMAG2
 40
0.0
  9
$LOFTPARAM
 70
7
  9
$LOFTNORMALS
280
1
  9
$LATITUDE
 40
37.795
  9
$LONGITUDE
 40
-122.394
  9
$NORTHDIRECTION
 40
0.0
  9
$TIMEZONE
 70
-8000
  9
$LIGHTGLYPHDISPLAY
280
1
  9
$TILEMODELIGHTSYNCH
280
1
  9
$CMATERIAL
347
20
  9
$SOLIDHIST
280
0
  9
$SHOWHIST
280
1
  9
$DWFFRAME
280
2
  9
$DGNFRAME
280
2
  9
$REALWORLDSCALE
290
1
  9
$INTERFERECOLOR
 62
256
  9
$CSHADOW
280
0
  9
$SHADOWPLANELOCATION
 40
0.0
  0
ENDSEC
  0
SECTION
  2
CLASSES
  0
CLASS
  1
ACDBDICTIONARYWDFLT
  2
AcDbDictionaryWithDefault
  3
ObjectDBX Classes
 90
0
 91
0
280
0
281
0
  0
CLASS
  1
SUN
  2
AcDbSun
  3
SCENEOE
 90
1153
 91
0
280
0
281
0
  0
CLASS
  1
VISUALSTYLE
  2
AcDbVisualStyle
  3
ObjectDBX Classes
 90
4095
 91
0
280
0
281
0
  0
CLASS
  1
MATERIAL
  2
AcDbMaterial
  3
ObjectDBX Classes
 90
1153
 91
0
280
0
281
0
  0
CLASS
  1
SCALE
  2
AcDbScale
  3
ObjectDBX Classes
 90
1153
 91
0
280
0
281
0
  0
CLASS
  1
TABLESTYLE
  2
AcDbTableStyle
  3
ObjectDBX Classes
 90
4095
 91
0
280
0
281
0
  0
CLASS
  1
MLEADERSTYLE
  2
AcDbMLeaderStyle
  3
ACDB_MLEADERSTYLE_CLASS
 90
4095
 91
0
280
0
281
0
  0
CLASS
  1
DICTIONARYVAR
  2
AcDbDictionaryVar
  3
ObjectDBX Classes
 90
0
 91
0
280
0
281
0
  0
CLASS
  1
CELLSTYLEMAP
  2
AcDbCellStyleMap
  3
ObjectDBX Classes
 90
1152
 91
0
280
0
281
0
  0
CLASS
  1
MENTALRAYRENDERSETTINGS
  2
AcDbMentalRayRenderSettings
  3
SCENEOE
 90
1024
 91
0
280
0
281
0
  0
CLASS
  1
ACDBDETAILVIEWSTYLE
  2
AcDbDetailViewStyle
  3
ObjectDBX Classes
 90
1025
 91
0
280
0
281
0
  0
CLASS
  1
ACDBSECTIONVIEWSTYLE
  2
AcDbSectionViewStyle
  3
ObjectDBX Classes
 90
1025
 91
0
280
0
281
0
  0
CLASS
  1
RASTERVARIABLES
  2
AcDbRasterVariables
  3
ISM
 90
0
 91
0
280
0
281
0
  0
CLASS
  1
LAYOUT
  2
AcDbLayout
  3
ObjectDBX Classes
 90
0
 91
0
280
0
281
0
  0
CLASS
  1
ACDBPLACEHOLDER
  2
AcDbPlaceHolder
  3
ObjectDBX Classes
 90
0
 91
0
280
0
281
0
  0
ENDSEC
  0
SECTION
  2
TABLES
  0
TABLE
  2
VPORT
  5
8
330
0
100
AcDbSymbolTable
 70
1
  0
VPORT
  5
23
330
8
100
AcDbSymbolTableRecord
100
AcDbViewportTableRecord
  2
*Active
 70
0
 10
0.0
 20
0.0
 11
1.0
 21
1.0
 12
0.0
 22
0.0
 13
0.0
 23
0.0
 14
0.5
 24
0.5
 15
0.5
 25
0.5
 16
0.0
 26
0.0
 36
1.0
 17
0.0
 27
0.0
 37
0.0
 40
1000.0
 41
1.34
 42
50.0
 43
0.0
 44
0.0
 50
0.0
 51
0.0
 71
0
 72
1000
 73
1
 74
3
 75
0
 76
0
 77
0
 78
0
281
0
 65
0
146
0.0
  0
ENDTAB
  0
TABLE
  2
LTYPE
  5
2
330
0
100
AcDbSymbolTable
 70
3
  0
LTYPE
  5
24
330
2
100
AcDbSymbolTableRecord
100
AcDbLinetypeTableRecord
  2
ByBlock
 70
0
  3

 72
65
 73
0
 40
0.0
  0
LTYPE
  5
25
330
2
100
AcDbSymbolTableRecord
100
AcDbLinetypeTableRecord
  2
ByLayer
 70
0
  3

 72
65
 73
0
 40
0.0
  0
LTYPE
  5
26
330
2
100
AcDbSymbolTableRecord
100
AcDbLinetypeTableRecord
  2
Continuous
 70
0
  3

 72
65
 73
0
 40
0.0
  0
ENDTAB
  0
TABLE
  2
LAYER
  5
1
330
0
100
AcDbSymbolTable
 70
2
  0
LAYER
  5
27
330
1
100
AcDbSymbolTableRecord
100
AcDbLayerTableRecord
  2
0
 70
0
 62
7
  6
Continuous
370
-3
390
13
347
21
  0
LAYER
  5
28
330
1
100
AcDbSymbolTableRecord
100
AcDbLayerTableRecord
  2
Defpoints
 70
0
 62
7
  6
Continuous
290
0
370
-3
390
13
347
21
  0
ENDTAB
  0
TABLE
  2
STYLE
  5
5
330
0
100
AcDbSymbolTable
 70
1
  0
STYLE
  5
29
330
5
100
AcDbSymbolTableRecord
100
AcDbTextStyleTableRecord
  2
Standard
 70
0
 40
0.0
 41
1.0
 50
0.0
 71
0
 42
2.5
  3
txt
  4

  0
ENDTAB
  0
TABLE
  2
VIEW
  5
7
330
0
100
AcDbSymbolTable
 70
0
  0
ENDTAB
  0
TABLE
  2
UCS
  5
6
330
0
100
AcDbSymbolTable
 70
0
  0
ENDTAB
  0
TABLE
  2
APPID
  5
3
330
0
100
AcDbSymbolTable
 70
3
  0
APPID
  5
2A
330
3
100
AcDbSymbolTableRecord
100
AcDbRegAppTableRecord
  2
ACAD
 70
0
  0
APPID
  5
AF
330
3
100
AcDbSymbolTableRecord
100
AcDbRegAppTableRecord
  2
HATCHBACKGROUNDCOLOR
 70
0
  0
APPID
  5
B0
330
3
100
AcDbSymbolTableRecord
100
AcDbRegAppTableRecord
  2
EZDXF
 70
0
  0
ENDTAB
  0
TABLE
  2
DIMSTYLE
  5
4
330
0
100
AcDbSymbolTable
 70
1
100
AcDbDimStyleTable
  0
DIMSTYLE
105
2B
330
4
100
AcDbSymbolTableRecord
100
AcDbDimStyleTableRecord
  2
Standard
 70
0
 40
1.0
 41
2.5
 42
0.625
 43
3.75
 44
1.25
 45
0.0
 46
0.0
 47
0.0
 48
0.0
 49
2.5
140
2.5
141
2.5
142
0.0
143
0.03937007874
144
1.0
145
0.0
146
1.0
147
0.625
148
0.0
 69
0
 70
0
 71
0
 72
0
 73
0
 74
0
 75
0
 76
0
 77
1
 78
8
 79
3
170
0
171
3
172
1
173
0
174
0
175
0
176
0
177
0
178
0
179
2
271
2
272
2
273
2
274
3
275
0
276
0
277
2
278
44
279
0
280
0
281
0
282
0
283
0
284
8
285
0
286
0
288
0
289
3
290
0
371
-2
372
-2
  0
ENDTAB
  0
TABLE
  2
BLOCK_RECORD
  5
9
330
0
100
AcDbSymbolTable
 70
2
  0
BLOCK_RECORD
  5
17
330
9
100
AcDbSymbolTableRecord
100
AcDbBlockTableRecord
  2
*Model_Space
340
1A
 70
0
280
1
281
0
  0
BLOCK_RECORD
  5
1B
330
9
100
AcDbSymbolTableRecord
100
AcDbBlockTableRecord
  2
*Paper_Space
340
1E
 70
0
280
1
281
0
  0
ENDTAB
  0
ENDSEC
  0
SECTION
  2
BLOCKS
  0
BLOCK
  5
18
330
17
100
AcDbEntity
  8
0
100
AcDbBlockBegin
  2
*Model_Space
 70
0
 10
0.0
 20
0.0
 30
0.0
  3
*Model_Space
  1

  0
ENDBLK
  5
19
330
17
100
AcDbEntity
  8
0
100
AcDbBlockEnd
  0
BLOCK
  5
1C
330
1B
100
AcDbEntity
  8
0
100
AcDbBlockBegin
  2
*Paper_Space
 70
0
 10
0.0
 20
0.0
 30
0.0
  3
*Paper_Space
  1

  0
ENDBLK
  5
1D
330
1B
100
AcDbEntity
  8
0
100
AcDbBlockEnd
  0
ENDSEC
  0
SECTION
  2
ENTITIES
  0
POLYLINE
  5
2F
330
17
100
AcDbEntity
  8
0
100
AcDb2dPolyline
 66
1
 10
0.0
 20
0.0
 30
0.0
 70
0
  0
VERTEX
  5
30
330
2F
100
AcDbEntity
  8
0
100
AcDbVertex
100
AcDb2dVertex
 10
44.214285714285715
 20
35.92857142857142
 30
0.0
 70
0
  0
VERTEX
  5
31
330
2F
100
AcDbEntity
  8
0
100
AcDbVertex
100
AcDb2dVertex
 10
44.19224330357143
 20
35.177455357142854
 30
0.0
 70
0
  0
VERTEX
  5
32
330
2F
100
AcDbEntity
  8
0
100
AcDbVertex
100
AcDb2dVertex
 10
44.12611607142857
 20
34.44196428571428
 30
0.0
 70
0
  0
VERTEX
  5
33
330
2F
100
AcDbEntity
  8
0
100
AcDbVertex
100
AcDb2dVertex
 10
44.015904017857146
 20
33.72209821428571
 30
0.0
 70
0
  0
VERTEX
  5
34
330
2F
100
AcDbEntity
  8
0
100
AcDbVertex
100
AcDb2dVertex
 10
43.861607142857146
 20
33.01785714285714
 30
0.0
 70
0
  0
VERTEX
  5
35
330
2F
100
AcDbEntity
  8
0
100
AcDbVertex
100
AcDb2dVertex
 10
43.66322544642857
 20
32.32924107142857
 30
0.0
 70
0
  0
VERTEX
  5
36
330
2F
100
AcDbEntity
  8
0
100
AcDbVertex
100
AcDb2dVertex
 10
43.42075892857143
 20
31.656249999999996
 30
0.0
 70
0
  0
VERTEX
  5
37
330
2F
100
AcDbEntity
  8
0
100
AcDbVertex
100
AcDb2dVertex
 10
43.134207589285715
 20
30.998883928571423
 30
0.0
 70
0
  0
VERTEX
  5
38
330
2F
100
AcDbEntity
  8
0
100
AcDbVertex
100
AcDb2dVertex
 10
42.80357142857143
 20
30.357142857142854
 30
0.0
 70
0
  0
VERTEX
  5
39
330
2F
100
AcDbEntity
  8
0
100
AcDbVertex
100
AcDb2dVertex
 10
42.42885044642857
 20
29.731026785714285
 30
0.0
 70
0
  0
VERTEX
  5
3A
330
2F
100
AcDbEntity
  8
0
100
AcDbVertex
100
AcDb2dVertex
 10
42.010044642857146
 20
29.12053571428571
 30
0.0
 70
0
  0
VERTEX
  5
3B
330
2F
100
AcDbEntity
  8
0
100
AcDbVertex
100
AcDb2dVertex
 10
41.54715401785714
 20
28.52566964285714
 30
0.0
 70
0
  0
VERTEX
  5
3C
330
2F
100
AcDbEntity
  8
0
100
AcDbVertex
100
AcDb2dVertex
 10
41.04017857142857
 20
27.94642857142857
 30
0.0
 70
0
  0
VERTEX
  5
3D
330
2F
100
AcDbEntity
  8
0
100
AcDbVertex
100
AcDb2dVertex
 10
40.48911830357143
 20
27.3828125
 30
0.0
 70
0
  0
VERTEX
  5
3E
330
2F
100
AcDbEntity
  8
0
100
AcDbVertex
100
AcDb2dVertex
 10
39.893973214285715
 20
26.834821428571427
 30
0.0
 70
0
  0
VERTEX
  5
3F
330
2F
100
AcDbEntity
  8
0
100
AcDbVertex
100
AcDb2dVertex
 10
39.25474330357143
 20
26.302455357142854
 30
0.0
 70
0
  0
VERTEX
  5
40
330
2F
100
AcDbEntity
  8
0
100
AcDbVertex
100
AcDb2dVertex
 10
38.57142857142857
 20
25.785714285714285
 30
0.0
 70
0
  0
VERTEX
  5
41
330
2F
100
AcDbEntity
  8
0
100
AcDbVertex
100
AcDb2dVertex
 10
37.85072544642857
 20
25.30998883928571
 30
0.0
 70
0
  0
VERTEX
  5
42
330
2F
100
AcDbEntity
  8
0
100
AcDbVertex
100
AcDb2dVertex
 10
37.1171875
 20
24.864955357142858
 30
0.0
 70
0
  0
VERTEX
  5
43
330
2F
100
AcDbEntity
  8
0
100
AcDbVertex
100
AcDb2dVertex
 10
36.370814732142854
 20
24.450613839285715
 30
0.0
 70
0
  0
VERTEX
  5
44
330
2F
100
AcDbEntity
  8
0
100
AcDbVertex
100
AcDb2dVertex
 10
35.61160714285714
 20
24.066964285714285
 30
0.0
 70
0
  0
VERTEX
  5
45
330
2F
100
AcDbEntity
  8
0
100
AcDbVertex
100
AcDb2dVertex
 10
34.839564732142854
 20
23.71400669642857
 30
0.0
 70
0
  0
VERTEX
  5
46
330
2F
100
AcDbEntity
  8
0
100
AcDbVertex
100
AcDb2dVertex
 10
34.0546875
 20
23.391741071428573
 30
0.0
 70
0
  0
VERTEX
  5
47
330
2F
100
AcDbEntity
  8
0
100
AcDbVertex
100
AcDb2dVertex
 10
33.25697544642857
 20
23.100167410714285
 30
0.0
 70
0
  0
VERTEX
  5
48
330
2F
100
AcDbEntity
  8
0
100
AcDbVertex
100
AcDb2dVertex
 10
32.44642857142857
 20
22.839285714285715
 30
0.0
 70
0
  0
VERTEX
  5
49
330
2F
100
AcDbEntity
  8
0
100
AcDbVertex
100
AcDb2dVertex
 10
31.623046875
 20
22.609095982142858
 30
0.0
 70
0
  0
VERTEX
  5
4A
330
2F
100
AcDbEntity
  8
0
100
AcDbVertex
100
AcDb2dVertex
 10
30.786830357142854
 20
22.409598214285715
 30
0.0
 70
0
  0
VERTEX
  5
4B
330
2F
100
AcDbEntity
  8
0
100
AcDbVertex
100
AcDb2dVertex
 10
29.93777901785714
 20
22.240792410714285
 30
0.0
 70
0
  0
VERTEX
  5
4C
330
2F
100
AcDbEntity
  8
0
100
AcDbVertex
100
AcDb2dVertex
 10
29.075892857142854
 20
22.102678571428573
 30
0.0
 70
0
  0
VERTEX
  5
4D
330
2F
100
AcDbEntity
  8
0
100
AcDbVertex
100
AcDb2dVertex
 10
28.201171875
 20
21.995256696428573
 30
0.0
 70
0
  0
VERTEX
  5
4E
330
2F
100
AcDbEntity
  8
0
100
AcDbVertex
100
AcDb2dVertex
 10
27.31361607142857
 20
21.918526785714285
 30
0.0
 70
0
  0
VERTEX
  5
4F
330
2F
100
AcDbEntity
  8
0
100
AcDbVertex
100
AcDb2dVertex
 10
26.41322544642857
 20
21.872488839285715
 30
0.0
 70
0
  0
VERTEX
  5
50
330
2F
100
AcDbEntity
  8
0
100
AcDbVertex
100
AcDb2dVertex
 10
25.5
 20
21.857142857142858
 30
0.0
 70
0
  0
VERTEX
  5
51
330
2F
100
AcDbEntity
  8
0
100
AcDbVertex
100
AcDb2dVertex
 10
7.5
 20
21.857142857142858
 30
0.0
 70
0
  0
VERTEX
  5
52
330
2F
100
AcDbEntity
  8
0
100
AcDbVertex
100
AcDb2dVertex
 10
7.5
 20
0.0
 30
0.0
 70
0
  0
VERTEX
  5
53
330
2F
100
AcDbEntity
  8
0
100
AcDbVertex
100
AcDb2dVertex
 10
0.0
 20
0.0
 30
0.0
 70
0
  0
VERTEX
  5
54
330
2F
100
AcDbEntity
  8
0
100
AcDbVertex
100
AcDb2dVertex
 10
0.0
 20
50.0
 30
0.0
 70
0
  0
VERTEX
  5
55
330
2F
100
AcDbEntity
  8
0
100
AcDbVertex
100
AcDb2dVertex
 10
25.5
 20
50.0
 30
0.0
 70
0
  0
VERTEX
  5
56
330
2F
100
AcDbEntity
  8
0
100
AcDbVertex
100
AcDb2dVertex
 10
26.421037946428573
 20
49.984933035714285
 30
0.0
 70
0
  0
VERTEX
  5
57
330
2F
100
AcDbEntity
  8
0
100
AcDbVertex
100
AcDb2dVertex
 10
27.32700892857143
 20
49.939732142857146
 30
0.0
 70
0
  0
VERTEX
  5
58
330
2F
100
AcDbEntity
  8
0
100
AcDbVertex
100
AcDb2dVertex
 10
28.217912946428573
 20
49.86439732142857
 30
0.0
 70
0
  0
VERTEX
  5
59
330
2F
100
AcDbEntity
  8
0
100
AcDbVertex
100
AcDb2dVertex
 10
29.09375
 20
49.75892857142857
 30
0.0
 70
0
  0
VERTEX
  5
5A
330
2F
100
AcDbEntity
  8
0
100
AcDbVertex
100
AcDb2dVertex
 10
29.954520089285715
 20
49.623325892857146
 30
0.0
 70
0
  0
VERTEX
  5
5B
330
2F
100
AcDbEntity
  8
0
100
AcDbVertex
100
AcDb2dVertex
 10
30.800223214285715
 20
49.457589285714285
 30
0.0
 70
0
  0
VERTEX
  5
5C
330
2F
100
AcDbEntity
  8
0
100
AcDbVertex
100
AcDb2dVertex
 10
31.630859375
 20
49.26171875
 30
0.0
 70
0
  0
VERTEX
  5
5D
330
2F
100
AcDbEntity
  8
0
100
AcDbVertex
100
AcDb2dVertex
 10
32.44642857142857
 20
49.035714285714285
 30
0.0
 70
0
  0
VERTEX
  5
5E
330
2F
100
AcDbEntity
  8
0
100
AcDbVertex
100
AcDb2dVertex
 10
33.24693080357143
 20
48.77957589285714
 30
0.0
 70
0
  0
VERTEX
  5
5F
330
2F
100
AcDbEntity
  8
0
100
AcDbVertex
100
AcDb2dVertex
 10
34.03236607142857
 20
48.49330357142857
 30
0.0
 70
0
  0
VERTEX
  5
60
330
2F
100
AcDbEntity
  8
0
100
AcDbVertex
100
AcDb2dVertex
 10
34.802734375
 20
48.17689732142857
 30
0.0
 70
0
  0
VERTEX
  5
61
330
2F
100
AcDbEntity
  8
0
100
AcDbVertex
100
AcDb2dVertex
 10
35.558035714285715
 20
47.83035714285714
 30
0.0
 70
0
  0
VERTEX
  5
62
330
2F
100
AcDbEntity
  8
0
100
AcDbVertex
100
AcDb2dVertex
 10
36.298270089285715
 20
47.453683035714285
 30
0.0
 70
0
  0
VERTEX
  5
63
330
2F
100
AcDbEntity
  8
0
100
AcDbVertex
100
AcDb2dVertex
 10
37.0234375
 20
47.046875
 30
0.0
 70
0
  0
VERTEX
  5
64
330
2F
100
AcDbEntity
  8
0
100
AcDbVertex
100
AcDb2dVertex
 10
37.73353794642857
 20
46.609933035714285
 30
0.0
 70
0
  0
VERTEX
  5
65
330
2F
100
AcDbEntity
  8
0
100
AcDbVertex
100
AcDb2dVertex
 10
38.42857142857143
 20
46.14285714285714
 30
0.0
 70
0
  0
VERTEX
  5
66
330
2F
100
AcDbEntity
  8
0
100
AcDbVertex
100
AcDb2dVertex
 10
39.129185267857146
 20
45.609095982142854
 30
0.0
 70
0
  0
VERTEX
  5
67
330
2F
100
AcDbEntity
  8
0
100
AcDbVertex
100
AcDb2dVertex
 10
39.784598214285715
 20
45.06138392857142
 30
0.0
 70
0
  0
VERTEX
  5
68
330
2F
100
AcDbEntity
  8
0
100
AcDbVertex
100
AcDb2dVertex
 10
40.394810267857146
 20
44.499720982142854
 30
0.0
 70
0
  0
VERTEX
  5
69
330
2F
100
AcDbEntity
  8
0
100
AcDbVertex
100
AcDb2dVertex
 10
40.95982142857143
 20
43.92410714285714
 30
0.0
 70
0
  0
VERTEX
  5
6A
330
2F
100
AcDbEntity
  8
0
100
AcDbVertex
100
AcDb2dVertex
 10
41.47963169642857
 20
43.33454241071428
 30
0.0
 70
0
  0
VERTEX
  5
6B
330
2F
100
AcDbEntity
  8
0
100
AcDbVertex
100
AcDb2dVertex
 10
41.95424107142857
 20
42.73102678571428
 30
0.0
 70
0
  0
VERTEX
  5
6C
330
2F
100
AcDbEntity
  8
0
100
AcDbVertex
100
AcDb2dVertex
 10
42.38364955357143
 20
42.11356026785714
 30
0.0
 70
0
  0
VERTEX
  5
6D
330
2F
100
AcDbEntity
  8
0
100
AcDbVertex
100
AcDb2dVertex
 10
42.767857142857146
 20
41.482142857142854
 30
0.0
 70
0
  0
VERTEX
  5
6E
330
2F
100
AcDbEntity
  8
0
100
AcDbVertex
100
AcDb2dVertex
 10
43.106863839285715
 20
40.83677455357142
 30
0.0
 70
0
  0
VERTEX
  5
6F
330
2F
100
AcDbEntity
  8
0
100
AcDbVertex
100
AcDb2dVertex
 10
43.400669642857146
 20
40.177455357142854
 30
0.0
 70
0
  0
VERTEX
  5
70
330
2F
100
AcDbEntity
  8
0
100
AcDbVertex
100
AcDb2dVertex
 10
43.64927455357143
 20
39.50418526785714
 30
0.0
 70
0
  0
VERTEX
  5
71
330
2F
100
AcDbEntity
  8
0
100
AcDbVertex
100
AcDb2dVertex
 10
43.85267857142857
 20
38.81696428571428
 30
0.0
 70
0
  0
VERTEX
  5
72
330
2F
100
AcDbEntity
  8
0
100
AcDbVertex
100
AcDb2dVertex
 10
44.01088169642857
 20
38.11579241071428
 30
0.0
 70
0
  0
VERTEX
  5
73
330
2F
100
AcDbEntity
  8
0
100
AcDbVertex
100
AcDb2dVertex
 10
44.12388392857143
 20
37.40066964285714
 30
0.0
 70
0
  0
VERTEX
  5
74
330
2F
100
AcDbEntity
  8
0
100
AcDbVertex
100
AcDb2dVertex
 10
44.191685267857146
 20
36.671595982142854
 30
0.0
 70
0
  0
VERTEX
  5
75
330
2F
100
AcDbEntity
  8
0
100
AcDbVertex
100
AcDb2dVertex
 10
44.214285714285715
 20
35.92857142857142
 30
0.0
 70
0
  0
SEQEND
  5
76
330
2F
100
AcDbEntity
  8
0
  0
POLYLINE
  5
77
330
17
100
AcDbEntity
  8
InnerContours
100
AcDb2dPolyline
 66
1
 10
0.0
 20
0.0
 30
0.0
 70
0
  0
VERTEX
  5
78
330
77
100
AcDbEntity
  8
InnerContours
100
AcDbVertex
100
AcDb2dVertex
 10
44.214285714285715
 20
35.92857142857142
 30
0.0
 70
0
  0
VERTEX
  5
79
330
77
100
AcDbEntity
  8
InnerContours
100
AcDbVertex
100
AcDb2dVertex
 10
36.714285714285715
 20
35.92857142857142
 30
0.0
 70
0
  0
VERTEX
  5
7A
330
77
100
AcDbEntity
  8
InnerContours
100
AcDbVertex
100
AcDb2dVertex
 10
36.70033482142857
 20
35.504464285714285
 30
0.0
 70
0
  0
VERTEX
  5
7B
330
77
100
AcDbEntity
  8
InnerContours
100
AcDbVertex
100
AcDb2dVertex
 10
36.658482142857146
 20
35.08928571428571
 30
0.0
 70
0
  0
VERTEX
  5
7C
330
77
100
AcDbEntity
  8
InnerContours
100
AcDbVertex
100
AcDb2dVertex
 10
36.58872767857143
 20
34.68303571428571
 30
0.0
 70
0
  0
VERTEX
  5
7D
330
77
100
AcDbEntity
  8
InnerContours
100
AcDbVertex
100
AcDb2dVertex
 10
36.49107142857143
 20
34.285714285714285
 30
0.0
 70
0
  0
VERTEX
  5
7E
330
77
100
AcDbEntity
  8
InnerContours
100
AcDbVertex
100
AcDb2dVertex
 10
36.365513392857146
 20
33.89732142857142
 30
0.0
 70
0
  0
VERTEX
  5
7F
330
77
100
AcDbEntity
  8
InnerContours
100
AcDbVertex
100
AcDb2dVertex
 10
36.21205357142857
 20
33.51785714285714
 30
0.0
 70
0
  0
VERTEX
  5
80
330
77
100
AcDbEntity
  8
InnerContours
100
AcDbVertex
100
AcDb2dVertex
 10
36.030691964285715
 20
33.14732142857142
 30
0.0
 70
0
  0
VERTEX
  5
81
330
77
100
AcDbEntity
  8
InnerContours
100
AcDbVertex
100
AcDb2dVertex
 10
35.82142857142857
 20
32.785714285714285
 30
0.0
 70
0
  0
VERTEX
  5
82
330
77
100
AcDbEntity
  8
InnerContours
100
AcDbVertex
100
AcDb2dVertex
 10
35.584263392857146
 20
32.433035714285715
 30
0.0
 70
0
  0
VERTEX
  5
83
330
77
100
AcDbEntity
  8
InnerContours
100
AcDbVertex
100
AcDb2dVertex
 10
35.31919642857143
 20
32.089285714285715
 30
0.0
 70
0
  0
VERTEX
  5
84
330
77
100
AcDbEntity
  8
InnerContours
100
AcDbVertex
100
AcDb2dVertex
 10
35.02622767857143
 20
31.754464285714285
 30
0.0
 70
0
  0
VERTEX
  5
85
330
77
100
AcDbEntity
  8
InnerContours
100
AcDbVertex
100
AcDb2dVertex
 10
34.705357142857146
 20
31.428571428571427
 30
0.0
 70
0
  0
VERTEX
  5
86
330
77
100
AcDbEntity
  8
InnerContours
100
AcDbVertex
100
AcDb2dVertex
 10
34.35658482142858
 20
31.11160714285714
 30
0.0
 70
0
  0
VERTEX
  5
87
330
77
100
AcDbEntity
  8
InnerContours
100
AcDbVertex
100
AcDb2dVertex
 10
33.979910714285715
 20
30.803571428571427
 30
0.0
 70
0
  0
VERTEX
  5
88
330
77
100
AcDbEntity
  8
InnerContours
100
AcDbVertex
100
AcDb2dVertex
 10
33.57533482142858
 20
30.504464285714285
 30
0.0
 70
0
  0
VERTEX
  5
89
330
77
100
AcDbEntity
  8
InnerContours
100
AcDbVertex
100
AcDb2dVertex
 10
33.142857142857146
 20
30.21428571428571
 30
0.0
 70
0
  0
VERTEX
  5
8A
330
77
100
AcDbEntity
  8
InnerContours
100
AcDbVertex
100
AcDb2dVertex
 10
32.3046875
 20
29.728794642857142
 30
0.0
 70
0
  0
VERTEX
  5
8B
330
77
100
AcDbEntity
  8
InnerContours
100
AcDbVertex
100
AcDb2dVertex
 10
31.433035714285715
 20
29.30803571428571
 30
0.0
 70
0
  0
VERTEX
  5
8C
330
77
100
AcDbEntity
  8
InnerContours
100
AcDbVertex
100
AcDb2dVertex
 10
30.527901785714285
 20
28.952008928571427
 30
0.0
 70
0
  0
VERTEX
  5
8D
330
77
100
AcDbEntity
  8
InnerContours
100
AcDbVertex
100
AcDb2dVertex
 10
29.589285714285715
 20
28.660714285714285
 30
0.0
 70
0
  0
VERTEX
  5
8E
330
77
100
AcDbEntity
  8
InnerContours
100
AcDbVertex
100
AcDb2dVertex
 10
28.6171875
 20
28.434151785714285
 30
0.0
 70
0
  0
VERTEX
  5
8F
330
77
100
AcDbEntity
  8
InnerContours
100
AcDbVertex
100
AcDb2dVertex
 10
27.611607142857142
 20
28.272321428571427
 30
0.0
 70
0
  0
VERTEX
  5
90
330
77
100
AcDbEntity
  8
InnerContours
100
AcDbVertex
100
AcDb2dVertex
 10
26.572544642857142
 20
28.175223214285715
 30
0.0
 70
0
  0
VERTEX
  5
91
330
77
100
AcDbEntity
  8
InnerContours
100
AcDbVertex
100
AcDb2dVertex
 10
25.5
 20
28.142857142857142
 30
0.0
 70
0
  0
VERTEX
  5
92
330
77
100
AcDbEntity
  8
InnerContours
100
AcDbVertex
100
AcDb2dVertex
 10
7.5
 20
28.142857142857142
 30
0.0
 70
0
  0
VERTEX
  5
93
330
77
100
AcDbEntity
  8
InnerContours
100
AcDbVertex
100
AcDb2dVertex
 10
7.5
 20
43.714285714285715
 30
0.0
 70
0
  0
VERTEX
  5
94
330
77
100
AcDbEntity
  8
InnerContours
100
AcDbVertex
100
AcDb2dVertex
 10
25.5
 20
43.714285714285715
 30
0.0
 70
0
  0
VERTEX
  5
95
330
77
100
AcDbEntity
  8
InnerContours
100
AcDbVertex
100
AcDb2dVertex
 10
26.572544642857142
 20
43.683035714285715
 30
0.0
 70
0
  0
VERTEX
  5
96
330
77
100
AcDbEntity
  8
InnerContours
100
AcDbVertex
100
AcDb2dVertex
 10
27.611607142857142
 20
43.589285714285715
 30
0.0
 70
0
  0
VERTEX
  5
97
330
77
100
AcDbEntity
  8
InnerContours
100
AcDbVertex
100
AcDb2dVertex
 10
28.6171875
 20
43.433035714285715
 30
0.0
 70
0
  0
VERTEX
  5
98
330
77
100
AcDbEntity
  8
InnerContours
100
AcDbVertex
100
AcDb2dVertex
 10
29.589285714285715
 20
43.214285714285715
 30
0.0
 70
0
  0
VERTEX
  5
99
330
77
100
AcDbEntity
  8
InnerContours
100
AcDbVertex
100
AcDb2dVertex
 10
30.527901785714285
 20
42.933035714285715
 30
0.0
 70
0
  0
VERTEX
  5
9A
330
77
100
AcDbEntity
  8
InnerContours
100
AcDbVertex
100
AcDb2dVertex
 10
31.433035714285715
 20
42.589285714285715
 30
0.0
 70
0
  0
VERTEX
  5
9B
330
77
100
AcDbEntity
  8
InnerContours
100
AcDbVertex
100
AcDb2dVertex
 10
32.3046875
 20
42.183035714285715
 30
0.0
 70
0
  0
VERTEX
  5
9C
330
77
100
AcDbEntity
  8
InnerContours
100
AcDbVertex
100
AcDb2dVertex
 10
33.142857142857146
 20
41.714285714285715
 30
0.0
 70
0
  0
VERTEX
  5
9D
330
77
100
AcDbEntity
  8
InnerContours
100
AcDbVertex
100
AcDb2dVertex
 10
33.57533482142858
 20
41.423828125
 30
0.0
 70
0
  0
VERTEX
  5
9E
330
77
100
AcDbEntity
  8
InnerContours
100
AcDbVertex
100
AcDb2dVertex
 10
33.979910714285715
 20
41.12388392857143
 30
0.0
 70
0
  0
VERTEX
  5
9F
330
77
100
AcDbEntity
  8
InnerContours
100
AcDbVertex
100
AcDb2dVertex
 10
34.35658482142858
 20
40.814453125
 30
0.0
 70
0
  0
VERTEX
  5
A0
330
77
100
AcDbEntity
  8
InnerContours
100
AcDbVertex
100
AcDb2dVertex
 10
34.705357142857146
 20
40.495535714285715
 30
0.0
 70
0
  0
VERTEX
  5
A1
330
77
100
AcDbEntity
  8
InnerContours
100
AcDbVertex
100
AcDb2dVertex
 10
35.02622767857143
 20
40.16713169642857
 30
0.0
 70
0
  0
VERTEX
  5
A2
330
77
100
AcDbEntity
  8
InnerContours
100
AcDbVertex
100
AcDb2dVertex
 10
35.31919642857143
 20
39.82924107142857
 30
0.0
 70
0
  0
VERTEX
  5
A3
330
77
100
AcDbEntity
  8
InnerContours
100
AcDbVertex
100
AcDb2dVertex
 10
35.584263392857146
 20
39.48186383928571
 30
0.0
 70
0
  0
VERTEX
  5
A4
330
77
100
AcDbEntity
  8
InnerContours
100
AcDbVertex
100
AcDb2dVertex
 10
35.82142857142857
 20
39.125
 30
0.0
 70
0
  0
VERTEX
  5
A5
330
77
100
AcDbEntity
  8
InnerContours
100
AcDbVertex
100
AcDb2dVertex
 10
36.030691964285715
 20
38.75864955357142
 30
0.0
 70
0
  0
VERTEX
  5
A6
330
77
100
AcDbEntity
  8
InnerContours
100
AcDbVertex
100
AcDb2dVertex
 10
36.21205357142857
 20
38.38281249999999
 30
0.0
 70
0
  0
VERTEX
  5
A7
330
77
100
AcDbEntity
  8
InnerContours
100
AcDbVertex
100
AcDb2dVertex
 10
36.365513392857146
 20
37.99748883928571
 30
0.0
 70
0
  0
VERTEX
  5
A8
330
77
100
AcDbEntity
  8
InnerContours
100
AcDbVertex
100
AcDb2dVertex
 10
36.49107142857143
 20
37.60267857142857
 30
0.0
 70
0
  0
VERTEX
  5
A9
330
77
100
AcDbEntity
  8
InnerContours
100
AcDbVertex
100
AcDb2dVertex
 10
36.58872767857143
 20
37.19838169642857
 30
0.0
 70
0
  0
VERTEX
  5
AA
330
77
100
AcDbEntity
  8
InnerContours
100
AcDbVertex
100
AcDb2dVertex
 10
36.658482142857146
 20
36.78459821428571
 30
0.0
 70
0
  0
VERTEX
  5
AB
330
77
100
AcDbEntity
  8
InnerContours
100
AcDbVertex
100
AcDb2dVertex
 10
36.70033482142857
 20
36.36132812499999
 30
0.0
 70
0
  0
VERTEX
  5
AC
330
77
100
AcDbEntity
  8
InnerContours
100
AcDbVertex
100
AcDb2dVertex
 10
36.714285714285715
 20
35.92857142857142
 30
0.0
 70
0
  0
VERTEX
  5
AD
330
77
100
AcDbEntity
  8
InnerContours
100
AcDbVertex
100
AcDb2dVertex
 10
44.214285714285715
 20
35.92857142857142
 30
0.0
 70
0
  0
SEQEND
  5
AE
330
77
100
AcDbEntity
  8
0
  0
ENDSEC
  0
SECTION
  2
OBJECTS
  0
DICTIONARY
  5
A
330
0
100
AcDbDictionary
280
0
281
1
  3
ACAD_COLOR
350
B
  3
ACAD_GROUP
350
C
  3
ACAD_LAYOUT
350
D
  3
ACAD_MATERIAL
350
E
  3
ACAD_MLEADERSTYLE
350
F
  3
ACAD_MLINESTYLE
350
10
  3
ACAD_PLOTSETTINGS
350
11
  3
ACAD_PLOTSTYLENAME
350
12
  3
ACAD_SCALELIST
350
14
  3
ACAD_TABLESTYLE
350
15
  3
ACAD_VISUALSTYLE
350
16
  3
EZDXF_META
350
2D
  0
DICTIONARY
  5
B
330
A
100
AcDbDictionary
280
0
281
1
  0
DICTIONARY
  5
C
330
A
100
AcDbDictionary
280
0
281
1
  0
DICTIONARY
  5
D
330
A
100
AcDbDictionary
280
0
281
1
  3
Model
350
1A
  3
Layout1
350
1E
  0
DICTIONARY
  5
E
330
A
100
AcDbDictionary
280
0
281
1
  3
ByBlock
350
1F
  3
ByLayer
350
20
  3
Global
350
21
  0
DICTIONARY
  5
F
330
A
100
AcDbDictionary
280
0
281
1
  3
Standard
350
2C
  0
DICTIONARY
  5
10
330
A
100
AcDbDictionary
280
0
281
1
  3
Standard
350
22
  0
DICTIONARY
  5
11
330
A
100
AcDbDictionary
280
0
281
1
  0
ACDBDICTIONARYWDFLT
  5
12
330
A
100
AcDbDictionary
280
0
281
1
  3
Normal
350
13
100
AcDbDictionaryWithDefault
340
13
  0
ACDBPLACEHOLDER
  5
13
330
12
  0
DICTIONARY
  5
14
330
A
100
AcDbDictionary
280
0
281
1
  0
DICTIONARY
  5
15
330
A
100
AcDbDictionary
280
0
281
1
  0
DICTIONARY
  5
16
330
A
100
AcDbDictionary
280
0
281
1
  0
LAYOUT
  5
1A
330
D
100
AcDbPlotSettings
  1

  4
A3
  6

 40
7.5
 41
20.0
 42
7.5
 43
20.0
 44
420.0
 45
297.0
 46
0.0
 47
0.0
 48
0.0
 49
0.0
140
0.0
141
0.0
142
1.0
143
1.0
 70
1024
 72
1
 73
0
 74
5
  7

 75
16
 76
0
 77
2
 78
300
147
1.0
148
0.0
149
0.0
100
AcDbLayout
  1
Model
 70
1
 71
0
 10
0.0
 20
0.0
 11
420.0
 21
297.0
 12
0.0
 22
0.0
 32
0.0
 14
1e+20
 24
1e+20
 34
1e+20
 15
-1e+20
 25
-1e+20
 35
-1e+20
146
0.0
 13
0.0
 23
0.0
 33
0.0
 16
1.0
 26
0.0
 36
0.0
 17
0.0
 27
1.0
 37
0.0
 76
1
330
17
  0
LAYOUT
  5
1E
330
D
100
AcDbPlotSettings
  1

  4
A3
  6

 40
7.5
 41
20.0
 42
7.5
 43
20.0
 44
420.0
 45
297.0
 46
0.0
 47
0.0
 48
0.0
 49
0.0
140
0.0
141
0.0
142
1.0
143
1.0
 70
0
 72
1
 73
0
 74
5
  7

 75
16
 76
0
 77
2
 78
300
147
1.0
148
0.0
149
0.0
100
AcDbLayout
  1
Layout1
 70
1
 71
1
 10
0.0
 20
0.0
 11
420.0
 21
297.0
 12
0.0
 22
0.0
 32
0.0
 14
1e+20
 24
1e+20
 34
1e+20
 15
-1e+20
 25
-1e+20
 35
-1e+20
146
0.0
 13
0.0
 23
0.0
 33
0.0
 16
1.0
 26
0.0
 36
0.0
 17
0.0
 27
1.0
 37
0.0
 76
1
330
1B
  0
MATERIAL
  5
1F
102
{ACAD_REACTORS
330
E
102
}
330
E
100
AcDbMaterial
  1
ByBlock
  2

 70
0
 40
1.0
 71
1
 41
1.0
 91
-1023410177
 42
1.0
 72
1
  3

 73
1
 74
1
 75
1
 44
0.5
 73
0
 45
1.0
 46
1.0
 77
1
  4

 78
1
 79
1
170
1
 48
1.0
171
1
  6

172
1
173
1
174
1
140
1.0
141
1.0
175
1
  7

176
1
177
1
178
1
143
1.0
179
1
  8

270
1
271
1
272
1
145
1.0
146
1.0
273
1
  9

274
1
275
1
276
1
 42
1.0
 72
1
  3

 73
1
 74
1
 75
1
 94
63
  0
MATERIAL
  5
20
102
{ACAD_REACTORS
330
E
102
}
330
E
100
AcDbMaterial
  1
ByLayer
  2

 70
0
 40
1.0
 71
1
 41
1.0
 91
-1023410177
 42
1.0
 72
1
  3

 73
1
 74
1
 75
1
 44
0.5
 73
0
 45
1.0
 46
1.0
 77
1
  4

 78
1
 79
1
170
1
 48
1.0
171
1
  6

172
1
173
1
174
1
140
1.0
141
1.0
175
1
  7

176
1
177
1
178
1
143
1.0
179
1
  8

270
1
271
1
272
1
145
1.0
146
1.0
273
1
  9

274
1
275
1
276
1
 42
1.0
 72
1
  3

 73
1
 74
1
 75
1
 94
63
  0
MATERIAL
  5
21
102
{ACAD_REACTORS
330
E
102
}
330
E
100
AcDbMaterial
  1
Global
  2

 70
0
 40
1.0
 71
1
 41
1.0
 91
-1023410177
 42
1.0
 72
1
  3

 73
1
 74
1
 75
1
 44
0.5
 73
0
 45
1.0
 46
1.0
 77
1
  4

 78
1
 79
1
170
1
 48
1.0
171
1
  6

172
1
173
1
174
1
140
1.0
141
1.0
175
1
  7

176
1
177
1
178
1
143
1.0
179
1
  8

270
1
271
1
272
1
145
1.0
146
1.0
273
1
  9

274
1
275
1
276
1
 42
1.0
 72
1
  3

 73
1
 74
1
 75
1
 94
63
  0
MLINESTYLE
  5
22
102
{ACAD_REACTORS
330
10
102
}
330
10
100
AcDbMlineStyle
  2
Standard
 70
0
  3

 62
256
 51
90.0
 52
90.0
 71
2
 49
0.5
 62
256
  6
BYLAYER
 49
-0.5
 62
256
  6
BYLAYER
  0
MLEADERSTYLE
  5
2C
102
{ACAD_REACTORS
330
F
102
}
330
F
100
AcDbMLeaderStyle
179
2
170
2
171
1
172
0
 90
2
 40
0.0
 41
0.0
173
1
 91
-1056964608
 92
-2
290
1
 42
2.0
291
1
 43
8.0
  3
Standard
 44
4.0
300

342
29
174
1
175
1
176
0
178
1
 93
-1056964608
 45
4.0
292
0
297
0
 46
4.0
 94
-1056964608
 47
1.0
 49
1.0
140
1.0
294
1
141
0.0
177
0
142
1.0
295
0
296
0
143
3.75
271
0
272
9
273
9
  0
DICTIONARY
  5
2D
330
A
100
AcDbDictionary
280
1
281
1
  3
CREATED_BY_EZDXF
350
2E
  3
WRITTEN_BY_EZDXF
350
B1
  0
DICTIONARYVAR
  5
2E
330
2D
100
DictionaryVariables
280
0
  1
1.4.0 @ 2025-03-21T17:24:18.335690+00:00
  0
DICTIONARYVAR
  5
B1
330
2D
100
DictionaryVariables
280
0
  1
1.4.0 @ 2025-03-21T17:24:18.337815+00:00
  0
ENDSEC
  0
EOF
