0
SECTION
2
HEADER
9
$INSUNITS
70
4
9
$ACADVER
1
AC1014
9
$HANDSEED
5
FFFF
0
ENDSEC
0
SECTION
2
TABLES
0
TABLE
2
VPORT
5
8
100
AcDbSymbolTable
0
ENDTAB
0
TABLE
2
LTYPE
5
5
100
AcDbSymbolTable
0
LTYPE
5
14
100
AcDbSymbolTableRecord
100
AcDbLinetypeTableRecord
2
BYBLOCK
70
0
0
LTYPE
5
15
100
AcDbSymbolTableRecord
100
AcDbLinetypeTableRecord
2
BYLAYER
70
0
0
LTYPE
5
16
100
AcDbSymbolTableRecord
100
AcDbLinetypeTableRecord
2
DASHED
70
0
3
Dashed __ __ __ __ __ __ __ __ __ __ __ __ __ _
72
65
73
2
40
0.75
49
0.5
74
0
49
-0.25
74
0
0
ENDTAB
0
TABLE
2
LAYER
5
2
100
AcDbSymbolTable
70
3
0
LAYER
5
50
100
AcDbSymbolTableRecord
100
AcDbLayerTableRecord
2
1
70
0
62
7
6
DASHED
0
LAYER
5
51
100
AcDbSymbolTableRecord
100
AcDbLayerTableRecord
2
0
70
0
62
7
6
CONTINUOUS
0
ENDTAB
0
TABLE
2
STYLE
5
3
100
AcDbSymbolTable
70
1
0
STYLE
5
11
100
AcDbSymbolTableRecord
100
AcDbTextStyleTableRecord
2
STANDARD
70
0
0
ENDTAB
0
TABLE
2
VIEW
5
6
100
AcDbSymbolTable
70
0
0
ENDTAB
0
TABLE
2
UCS
5
7
100
AcDbSymbolTable
70
0
0
ENDTAB
0
TABLE
2
APPID
5
9
100
AcDbSymbolTable
70
2
0
APPID
5
12
100
AcDbSymbolTableRecord
100
AcDbRegAppTableRecord
2
ACAD
70
0
0
ENDTAB
0
TABLE
2
DIMSTYLE
5
A
100
AcDbSymbolTable
70
1
0
ENDTAB
0
TABLE
2
BLOCK_RECORD
5
1
100
AcDbSymbolTable
70
1
0
BLOCK_RECORD
5
1F
100
AcDbSymbolTableRecord
100
AcDbBlockTableRecord
2
*MODEL_SPACE
0
BLOCK_RECORD
5
1B
100
AcDbSymbolTableRecord
100
AcDbBlockTableRecord
2
*PAPER_SPACE
0
ENDTAB
0
ENDSEC
0
SECTION
2
BLOCKS
0
BLOCK
5
20
100
AcDbEntity
100
AcDbBlockBegin
2
*MODEL_SPACE
0
ENDBLK
5
21
100
AcDbEntity
100
AcDbBlockEnd
0
BLOCK
5
1C
100
AcDbEntity
100
AcDbBlockBegin
2
*PAPER_SPACE
0
ENDBLK
5
1D
100
AcDbEntity
100
AcDbBlockEnd
0
ENDSEC
0
SECTION
2
ENTITIES
0
POINT
5
100
100
AcDbEntity
8
0
100
AcDbPoint
10
0
20
0
30
0
0
POINT
5
101
100
AcDbEntity
8
0
100
AcDbPoint
10
-10
20
0
30
0
0
LINE
5
102
100
AcDbEntity
8
0
100
AcDbLine
10
-40.264037784831359
20
140
30
0
11
-90
21
140
31
0
0
ARC
5
103
100
AcDbEntity
8
0
100
AcDbCircle
10
-46.313744772573962
20
81.600000000000037
30
0
40
1.6000000000000145
210
0
220
0
230
1
100
AcDbArc
50
153.37355672477204
51
269.99999999999972
0
ARC
5
104
100
AcDbEntity
8
0
100
AcDbCircle
10
-48.096608577408219
20
121.60000000000004
30
0
40
1.6000000000000192
210
0
220
0
230
1
100
AcDbArc
50
270
51
334.99999999999983
0
LINE
5
105
100
AcDbEntity
8
0
100
AcDbLine
10
-83.064371853696173
20
80.000000000000028
30
0
11
-90
21
80.000000000000057
31
0
0
LINE
5
106
100
AcDbEntity
8
0
100
AcDbLine
10
-10
20
120.00000000000003
30
0
11
0
21
120.00000000000003
31
0
0
ARC
5
107
100
AcDbEntity
8
0
100
AcDbCircle
10
-55.798166472980313
20
58.400000000000027
30
0
40
1.5999999999999659
210
0
220
-0
230
1
100
AcDbArc
50
90
51
154.99999999999815
0
LINE
5
108
100
AcDbEntity
8
0
100
AcDbLine
10
-74.111264817120173
20
100.00000000000006
30
0
11
-57.42276174050815
21
100.00000000000006
31
0
0
LINE
5
109
100
AcDbEntity
8
0
100
AcDbLine
10
-10
20
100.00000000000001
30
0
11
0
21
100.00000000000001
31
0
0
LINE
5
110
100
AcDbEntity
8
0
100
AcDbLine
10
-10
20
120.00000000000003
30
0
11
-28.565799236728413
21
120.00000000000003
31
0
0
LINE
5
111
100
AcDbEntity
8
0
100
AcDbLine
10
-83.064371853696173
20
80.000000000000028
30
0
11
-65.870092362884961
21
80.000000000000071
31
0
0
LINE
5
112
100
AcDbEntity
8
0
100
AcDbLine
10
-74.111264817120173
20
100.00000000000006
30
0
11
-90
21
100.00000000000006
31
0
0
ARC
5
113
100
AcDbEntity
8
0
100
AcDbCircle
10
-57.42276174050815
20
98.400000000000034
30
0
40
1.5999999999999839
210
0
220
0
230
1
100
AcDbArc
50
-24.999999999999918
51
90
0
ARC
5
114
100
AcDbEntity
8
0
100
AcDbCircle
10
-65.870092362885003
20
81.600000000000136
30
0
40
1.6000000000000725
210
-0
220
0
230
1
100
AcDbArc
50
270.00000000000153
51
333.30808432102634
0
ARC
5
115
100
AcDbEntity
8
0
100
AcDbCircle
10
-37.891952399828313
20
98.400000000000162
30
0
40
1.5999999999998593
210
0
220
-0
230
1
100
AcDbArc
50
90
51
155.00000000000313
0
ARC
5
116
100
AcDbEntity
8
0
100
AcDbCircle
10
-75.328975813660151
20
58.400000000000027
30
0
40
1.5999999999999839
210
0
220
0
230
1
100
AcDbArc
50
-24.999999999999918
51
90
0
LINE
5
117
100
AcDbEntity
8
0
100
AcDbLine
10
-10
20
80.000000000000057
30
0
11
-46.313744772573969
21
80.000000000000014
31
0
0
ARC
5
118
100
AcDbEntity
8
0
100
AcDbCircle
10
-40.262637768459101
20
138.4000006125143
30
0
40
1.6000000000001255
210
0
220
0
230
1
100
AcDbArc
50
-24.916687688059959
51
90.05013439975977
0
LINE
5
119
100
AcDbEntity
8
0
100
AcDbLine
10
-45.512310802016415
20
123.35612193094121
30
0
11
-38.81156361327065
21
137.72592064979139
31
0
0
LINE
5
120
100
AcDbEntity
8
0
100
AcDbLine
10
-10
20
20.000000000000028
30
0
11
0
21
20.000000000000028
31
0
0
LINE
5
121
100
AcDbEntity
8
0
100
AcDbLine
10
-10
20
0
30
0
11
0
21
0
31
0
0
LINE
5
122
100
AcDbEntity
8
0
100
AcDbLine
10
-90
20
40.000000000000043
30
0
11
-82.789898344140127
21
40.000000000000057
31
0
0
ARC
5
123
100
AcDbEntity
8
0
100
AcDbCircle
10
-28.565799236728399
20
121.60000000000005
30
0
40
1.6000000000000278
210
0
220
0
230
1
100
AcDbArc
50
155.0000000000002
51
269.99999999999949
0
LINE
5
124
100
AcDbEntity
8
0
100
AcDbLine
10
-10
20
40.000000000000057
30
0
11
0
21
40.000000000000057
31
0
0
LINE
5
125
100
AcDbEntity
8
0
100
AcDbLine
10
-10
20
0
30
0
11
-90
21
0
31
0
0
LINE
5
126
100
AcDbEntity
8
0
100
AcDbLine
10
0
20
0
30
0
11
-90
21
0
31
0
0
ARC
5
127
100
AcDbEntity
8
0
100
AcDbCircle
10
-20.731821617755894
20
138.40002196889665
30
0
40
1.5999999999999219
210
0
220
0
230
1
100
AcDbArc
50
90.300249475916189
51
155.06905731738371
0
LINE
5
128
100
AcDbEntity
8
0
100
AcDbLine
10
-10
20
60
30
0
11
0
21
60
31
0
0
LINE
5
129
100
AcDbEntity
8
0
100
AcDbLine
10
-10
20
20.000000000000028
30
0
11
-90
21
20.000000000000028
31
0
0
LINE
5
130
100
AcDbEntity
8
0
100
AcDbLine
10
-10
20
40.000000000000057
30
0
11
-64.499828625616914
21
40.000000000000043
31
0
0
LINE
5
131
100
AcDbEntity
8
0
100
AcDbLine
10
-48.096608577408226
20
120.00000000000001
30
0
11
-90
21
120.00000000000001
31
0
0
LINE
5
132
100
AcDbEntity
8
0
100
AcDbLine
10
-10
20
60
30
0
11
-55.798166472980313
21
59.999999999999993
31
0
0
LINE
5
133
100
AcDbEntity
8
0
100
AcDbLine
10
-10
20
0
30
0
11
0
21
0
31
0
0
LINE
5
134
100
AcDbEntity
8
0
100
AcDbLine
10
-27.808409542505252
20
127.01014997382816
30
0
11
-22.18272801923932
21
139.07446293305452
31
0
0
LINE
5
135
100
AcDbEntity
8
0
100
AcDbLine
10
-10
20
100.00000000000001
30
0
11
-37.891952399828313
21
100.00000000000001
31
0
0
LINE
5
136
100
AcDbEntity
8
0
100
AcDbLine
10
-10
20
80.000000000000057
30
0
11
0
21
80.000000000000057
31
0
0
LINE
5
137
100
AcDbEntity
8
0
100
AcDbLine
10
-10
20
140
30
0
11
-20.740206126472415
21
140
31
0
0
LINE
5
138
100
AcDbEntity
8
0
100
AcDbLine
10
-81.339805884881571
20
40.923810781214911
30
0
11
-73.878883354401523
21
57.723810781214915
31
0
0
ARC
5
139
100
AcDbEntity
8
0
100
AcDbCircle
10
-64.499828625616914
20
41.600000000000051
30
0
40
1.6000000000000032
210
0
220
0
230
1
100
AcDbArc
50
152.61362534931581
51
270
0
ARC
5
140
100
AcDbEntity
8
0
100
AcDbCircle
10
-48.096608577408205
20
121.59999999999998
30
0
40
1.5999999999999659
210
0
220
0
230
1
100
AcDbArc
50
269.9999999999992
51
335.00000000000068
0
LINE
5
141
100
AcDbEntity
8
0
100
AcDbLine
10
-57.248258932238798
20
59.076189218785132
30
0
11
-65.920508303788111
21
42.33598182860139
31
0
0
LINE
5
142
100
AcDbEntity
8
0
100
AcDbLine
10
-90
20
60.000000000000028
30
0
11
-75.328975813660151
21
60.000000000000028
31
0
0
LINE
5
143
100
AcDbEntity
8
0
100
AcDbLine
10
-46.646516118149592
20
120.9238107812149
30
0
11
-38.81156361327065
21
137.72592064979139
31
0
0
LINE
5
144
100
AcDbEntity
8
0
100
AcDbLine
10
-64.440596718955931
20
80.881291294064269
30
0
11
-55.972669281249523
21
97.723810781214922
31
0
0
LINE
5
145
100
AcDbEntity
8
0
100
AcDbLine
10
-30.015891695987065
20
122.27618921878518
30
0
11
-22.18272801923932
21
139.07446293305452
31
0
0
LINE
5
146
100
AcDbEntity
8
0
100
AcDbLine
10
-10
20
140
30
0
11
0
21
140
31
0
0
ARC
5
147
100
AcDbEntity
8
0
100
AcDbCircle
10
-82.789898344140127
20
41.599999999999994
30
0
40
1.5999999999999392
210
-0
220
0
230
1
100
AcDbArc
50
270
51
334.99999999999983
0
LINE
5
148
100
AcDbEntity
8
0
100
AcDbLine
10
-39.342044859086869
20
99.076189218785146
30
0
11
-47.74406075793528
21
82.317074739493719
31
0
0
ENDSEC
0
SECTION
2
OBJECTS
0
DICTIONARY
5
C
100
AcDbDictionary
3
ACAD_GROUP
350
D
3
ACAD_MLINESTYLE
350
17
0
DICTIONARY
5
D
100
AcDbDictionary
0
DICTIONARY
5
1A
330
C
100
AcDbDictionary
0
DICTIONARY
5
17
100
AcDbDictionary
0
ENDSEC
0
EOF
