0
SECTION
2
HEADER
9
$INSUNITS
70
4
9
$ACADVER
1
AC1014
9
$HANDSEED
5
FFFF
0
ENDSEC
0
SECTION
2
TABLES
0
TABLE
2
VPORT
5
8
100
AcDbSymbolTable
0
ENDTAB
0
TABLE
2
LTYPE
5
5
100
AcDbSymbolTable
0
LTYPE
5
14
100
AcDbSymbolTableRecord
100
AcDbLinetypeTableRecord
2
BYBLOCK
70
0
0
LTYPE
5
15
100
AcDbSymbolTableRecord
100
AcDbLinetypeTableRecord
2
BYLAYER
70
0
0
LTYPE
5
16
100
AcDbSymbolTableRecord
100
AcDbLinetypeTableRecord
2
DASHED
70
0
3
Dashed __ __ __ __ __ __ __ __ __ __ __ __ __ _
72
65
73
2
40
0.75
49
0.5
74
0
49
-0.25
74
0
0
ENDTAB
0
TABLE
2
LAYER
5
2
100
AcDbSymbolTable
70
3
0
LAYER
5
50
100
AcDbSymbolTableRecord
100
AcDbLayerTableRecord
2
1
70
0
62
7
6
DASHED
0
LAYER
5
51
100
AcDbSymbolTableRecord
100
AcDbLayerTableRecord
2
0
70
0
62
7
6
CONTINUOUS
0
ENDTAB
0
TABLE
2
STYLE
5
3
100
AcDbSymbolTable
70
1
0
STYLE
5
11
100
AcDbSymbolTableRecord
100
AcDbTextStyleTableRecord
2
STANDARD
70
0
0
ENDTAB
0
TABLE
2
VIEW
5
6
100
AcDbSymbolTable
70
0
0
ENDTAB
0
TABLE
2
UCS
5
7
100
AcDbSymbolTable
70
0
0
ENDTAB
0
TABLE
2
APPID
5
9
100
AcDbSymbolTable
70
2
0
APPID
5
12
100
AcDbSymbolTableRecord
100
AcDbRegAppTableRecord
2
ACAD
70
0
0
ENDTAB
0
TABLE
2
DIMSTYLE
5
A
100
AcDbSymbolTable
70
1
0
ENDTAB
0
TABLE
2
BLOCK_RECORD
5
1
100
AcDbSymbolTable
70
1
0
BLOCK_RECORD
5
1F
100
AcDbSymbolTableRecord
100
AcDbBlockTableRecord
2
*MODEL_SPACE
0
BLOCK_RECORD
5
1B
100
AcDbSymbolTableRecord
100
AcDbBlockTableRecord
2
*PAPER_SPACE
0
ENDTAB
0
ENDSEC
0
SECTION
2
BLOCKS
0
BLOCK
5
20
100
AcDbEntity
100
AcDbBlockBegin
2
*MODEL_SPACE
0
ENDBLK
5
21
100
AcDbEntity
100
AcDbBlockEnd
0
BLOCK
5
1C
100
AcDbEntity
100
AcDbBlockBegin
2
*PAPER_SPACE
0
ENDBLK
5
1D
100
AcDbEntity
100
AcDbBlockEnd
0
ENDSEC
0
SECTION
2
ENTITIES
0
POINT
5
100
100
AcDbEntity
8
0
100
AcDbPoint
10
0
20
0
30
0
0
POINT
5
101
100
AcDbEntity
8
0
100
AcDbPoint
10
-20
20
0
30
0
0
LINE
5
102
100
AcDbEntity
8
0
100
AcDbLine
10
-20
20
0
30
0
11
0
21
0
31
0
0
LINE
5
103
100
AcDbEntity
8
0
100
AcDbLine
10
-20
20
20.000000000000028
30
0
11
1.3322676295501878e-14
21
20.000000000000018
31
0
0
ARC
5
104
100
AcDbEntity
8
0
100
AcDbCircle
10
-49.662635800083343
20
63.200000000000038
30
0
40
3.2000000000000113
210
0
220
0
230
1
100
AcDbArc
50
151.05235670830791
51
269.9999999999996
0
LINE
5
105
100
AcDbEntity
8
0
100
AcDbLine
10
-32.475657016205993
20
108.31628242141612
30
0
11
-27.832538253076756
21
118.27348274169501
31
0
0
LINE
5
106
100
AcDbEntity
8
0
100
AcDbLine
10
-20
20
60.000000000000028
30
0
11
3.5527136788005009e-14
21
60.000000000000014
31
0
0
LINE
5
107
100
AcDbEntity
8
0
100
AcDbLine
10
-20
20
40
30
0
11
2.2204460492503131e-14
21
39.999999999999993
31
0
0
LINE
5
108
100
AcDbEntity
8
0
100
AcDbLine
10
3.4103530515008172e-06
20
139.99999999999997
30
0
11
-12.678757837563129
21
139.99787397584279
31
0
0
ARC
5
109
100
AcDbEntity
8
0
100
AcDbCircle
10
-67.887510677849264
20
23.200000000000021
30
0
40
3.1999999999999931
210
0
220
0
230
1
100
AcDbArc
50
150.01787485720746
51
270.00000000000023
0
LINE
5
110
100
AcDbEntity
8
0
100
AcDbLine
10
-62.955346010781525
20
38.152378437570263
30
0
11
-70.659290995267625
21
24.799135351360899
31
0
0
LINE
5
111
100
AcDbEntity
8
0
100
AcDbLine
10
-98.023813971240301
20
-1.3877787807814457e-14
30
0
11
-85.524381793615305
21
-8.4807326505313763e-15
31
0
0
LINE
5
112
100
AcDbEntity
8
0
100
AcDbLine
10
-20
20
20.000000000000028
30
0
11
-67.887510677849249
21
20.000000000000028
31
0
0
ARC
5
113
100
AcDbEntity
8
0
100
AcDbCircle
10
-60.0551610922642
20
36.800000000000097
30
0
40
3.1999999999999051
210
0
220
-0
230
1
100
AcDbArc
50
90
51
155.00000000000153
0
LINE
5
114
100
AcDbEntity
8
0
100
AcDbLine
10
-45.049131937629454
20
78.152378437570306
30
0
11
-52.462835350365879
21
64.74883261800548
31
0
0
LINE
5
115
100
AcDbEntity
8
0
100
AcDbLine
10
-20
20
100.00000000000003
30
0
11
5.773159728050814e-14
21
100.00000000000001
31
0
0
ARC
5
116
100
AcDbEntity
8
0
100
AcDbCircle
10
-42.148947019112484
20
76.800000000000082
30
0
40
3.1999999999999229
210
0
220
-0
230
1
100
AcDbArc
50
90
51
154.99999999999793
0
ARC
5
117
100
AcDbEntity
8
0
100
AcDbCircle
10
-31.33060934991606
20
103.20000000000005
30
0
40
3.2000000000000122
210
0
220
0
230
1
100
AcDbArc
50
155.00000000000094
51
269.99999999999989
0
LINE
5
118
100
AcDbEntity
8
0
100
AcDbLine
10
-19.915336617682449
20
120.10501627065096
30
0
11
-24.948343330390337
21
120.12357854183941
31
0
0
LINE
5
119
100
AcDbEntity
8
0
100
AcDbLine
10
-20
20
80.000000000000028
30
0
11
4.4408920985006262e-14
21
80.000000000000014
31
0
0
LINE
5
120
100
AcDbEntity
8
0
100
AcDbLine
10
-39.776253473181164
20
138.12579315911097
30
0
11
-100.93342600858976
21
4.531975146956988
31
0
0
LINE
5
121
100
AcDbEntity
8
0
100
AcDbLine
10
-20
20
100.00000000000003
30
0
11
-31.330609349916067
21
100.00000000000003
31
0
0
LINE
5
122
100
AcDbEntity
8
0
100
AcDbLine
10
-20
20
80.000000000000028
30
0
11
-42.148947019112484
21
80
31
0
0
LINE
5
123
100
AcDbEntity
8
0
100
AcDbLine
10
-34.230794268433371
20
104.55237843757024
30
0
11
-27.832538253076756
21
118.27348274169501
31
0
0
ARC
5
124
100
AcDbEntity
8
0
100
AcDbCircle
10
-24.931179446399383
20
116.92362457325076
30
0
40
3.1999999999999802
210
0
220
0
230
1
100
AcDbArc
50
90.307319633809527
51
155.04978012126188
0
LINE
5
125
100
AcDbEntity
8
0
100
AcDbLine
10
-19.915336617682449
20
120.10501627065096
30
0
11
0.096981186951387022
21
120.0002351186108
31
0
0
LINE
5
126
100
AcDbEntity
8
0
100
AcDbLine
10
-20
20
0
30
0
11
-98.023813971240301
21
-1.3877787807814457e-14
31
0
0
LINE
5
127
100
AcDbEntity
8
0
100
AcDbLine
10
-20
20
60.000000000000028
30
0
11
-49.662635800083365
21
60.000000000000028
31
0
0
ARC
5
128
100
AcDbEntity
8
0
100
AcDbCircle
10
-98.023813971240301
20
3.1999999999999895
30
0
40
3.2000000000000033
210
0
220
0
230
1
100
AcDbArc
50
155.40242977276961
51
270
0
LINE
5
129
100
AcDbEntity
8
0
100
AcDbLine
10
-20
20
40
30
0
11
-60.0551610922642
21
40
31
0
0
CIRCLE
5
130
100
AcDbEntity
8
0
100
AcDbCircle
10
-80.06025668368946
20
9.7579295377731015
30
0
40
4.25
210
0
220
0
230
1
0
ARC
5
131
100
AcDbEntity
8
0
100
AcDbCircle
10
-18.568267880312394
20
176.80000000000001
30
0
40
3.1999999999998607
210
0
220
-0
230
1
100
AcDbArc
50
89.999999999999176
51
155.00000000000182
0
LINE
5
132
100
AcDbEntity
8
0
100
AcDbLine
10
-12.678757837563129
20
139.99787397584279
30
0
11
-36.867178024310192
21
139.99381796716537
31
0
0
ARC
5
133
100
AcDbEntity
8
0
100
AcDbCircle
10
-36.866641435831681
20
136.79381801215396
30
0
40
3.2000000000000099
210
0
220
-0
230
1
100
AcDbArc
50
90.009607579780649
51
155.40242977276966
0
ENDSEC
0
SECTION
2
OBJECTS
0
DICTIONARY
5
C
100
AcDbDictionary
3
ACAD_GROUP
350
D
3
ACAD_MLINESTYLE
350
17
0
DICTIONARY
5
D
100
AcDbDictionary
0
DICTIONARY
5
1A
330
C
100
AcDbDictionary
0
DICTIONARY
5
17
100
AcDbDictionary
0
ENDSEC
0
EOF
