0
SECTION
2
HEADER
9
$INSUNITS
70
4
9
$ACADVER
1
AC1014
9
$HANDSEED
5
FFFF
0
ENDSEC
0
SECTION
2
TABLES
0
TABLE
2
VPORT
5
8
100
AcDbSymbolTable
0
ENDTAB
0
TABLE
2
LTYPE
5
5
100
AcDbSymbolTable
0
LTYPE
5
14
100
AcDbSymbolTableRecord
100
AcDbLinetypeTableRecord
2
BYBLOCK
70
0
0
LTYPE
5
15
100
AcDbSymbolTableRecord
100
AcDbLinetypeTableRecord
2
BYLAYER
70
0
0
LTYPE
5
16
100
AcDbSymbolTableRecord
100
AcDbLinetypeTableRecord
2
DASHED
70
0
3
Dashed __ __ __ __ __ __ __ __ __ __ __ __ __ _
72
65
73
2
40
0.75
49
0.5
74
0
49
-0.25
74
0
0
ENDTAB
0
TABLE
2
LAYER
5
2
100
AcDbSymbolTable
70
3
0
LAYER
5
50
100
AcDbSymbolTableRecord
100
AcDbLayerTableRecord
2
1
70
0
62
7
6
DASHED
0
LAYER
5
51
100
AcDbSymbolTableRecord
100
AcDbLayerTableRecord
2
0
70
0
62
7
6
CONTINUOUS
0
ENDTAB
0
TABLE
2
STYLE
5
3
100
AcDbSymbolTable
70
1
0
STYLE
5
11
100
AcDbSymbolTableRecord
100
AcDbTextStyleTableRecord
2
STANDARD
70
0
0
ENDTAB
0
TABLE
2
VIEW
5
6
100
AcDbSymbolTable
70
0
0
ENDTAB
0
TABLE
2
UCS
5
7
100
AcDbSymbolTable
70
0
0
ENDTAB
0
TABLE
2
APPID
5
9
100
AcDbSymbolTable
70
2
0
APPID
5
12
100
AcDbSymbolTableRecord
100
AcDbRegAppTableRecord
2
ACAD
70
0
0
ENDTAB
0
TABLE
2
DIMSTYLE
5
A
100
AcDbSymbolTable
70
1
0
ENDTAB
0
TABLE
2
BLOCK_RECORD
5
1
100
AcDbSymbolTable
70
1
0
BLOCK_RECORD
5
1F
100
AcDbSymbolTableRecord
100
AcDbBlockTableRecord
2
*MODEL_SPACE
0
BLOCK_RECORD
5
1B
100
AcDbSymbolTableRecord
100
AcDbBlockTableRecord
2
*PAPER_SPACE
0
ENDTAB
0
ENDSEC
0
SECTION
2
BLOCKS
0
BLOCK
5
20
100
AcDbEntity
100
AcDbBlockBegin
2
*MODEL_SPACE
0
ENDBLK
5
21
100
AcDbEntity
100
AcDbBlockEnd
0
BLOCK
5
1C
100
AcDbEntity
100
AcDbBlockBegin
2
*PAPER_SPACE
0
ENDBLK
5
1D
100
AcDbEntity
100
AcDbBlockEnd
0
ENDSEC
0
SECTION
2
ENTITIES
0
LWPOLYLINE
5
100
100
AcDbEntity
8
0
100
AcDbPolyline
90
181
70
1
43
0.0
10
0.91871511970747832
20
-57.944318995825824
10
2.765908135458055
20
-58.083244457969045
10
3.8661339915697468
20
-58.165991298293193
10
5.1890467896485859
20
-57.890931866366699
10
6.9839643112710448
20
-57.262710733798826
10
9.1122236583379745
20
-55.865239234821154
10
12.317433518378351
20
-52.775416929742285
10
13.74788411514082
20
-51.396462554463405
10
15.457012100610186
20
-50.274203817016492
10
17.054194367609945
20
-49.715190023566613
10
19.099657582223699
20
-49.300969441458484
10
19.887561998562937
20
-48.783610517476639
10
20.616619304783619
20
-48.0578608493405
10
21.093165773620051
20
-48.783610517476639
10
21.340416984854613
20
-49.490042549575662
10
21.340416984854613
20
-50.477922502065354
10
21.998724993168643
20
-51.480483322066362
10
23.377971703405578
20
-52.494640546002756
10
25.022372570000506
20
-52.913497370512879
10
26.604720573705372
20
-52.913497370512879
10
28.711721072365997
20
-51.529984994886142
10
29.784929796837503
20
-49.531616342986986
10
30.358918778573454
20
-47.545924730494882
10
30.358918778573454
20
-46.233506680363234
10
30.358918778573454
20
-45.532895321924691
42
0.084368030478157788
10
30.204776281811903
20
-44.625885195791035
10
29.891767827843516
20
-43.731575327309606
10
29.669812795869852
20
-43.216469549353675
42
0.1714990383465517
10
29.120231565688677
20
-42.622431813147337
10
29.035573494295797
20
-42.57786620393734
10
28.128586898947034
20
-42.100411313908879
10
27.344235567201558
20
-41.687513945013933
10
26.608692584677875
20
-40.948618690917101
10
26.528211191550142
20
-40.751063309425234
10
26.444407611522855
20
-40.545353050453556
10
26.388980343417181
20
-40.272680395327392
10
26.352424168736768
20
-40.092843474763725
10
26.225265899943508
20
-39.965105676208175
10
25.949867668536442
20
-39.965105676208175
10
25.542885189378524
20
-40.028974575485918
10
25.339219333177354
20
-40.060936428199966
10
25.243823352831249
20
-39.965105676208175
10
25.207303145160651
20
-39.712186981048518
10
25.207303145160651
20
-39.385226539349702
10
25.331329270672995
20
-38.796762004683089
10
25.592162199552426
20
-38.122413456848989
10
26.123497961015616
20
-37.036775912623575
10
26.427968893149512
20
-36.249607161253273
10
26.476824791186999
20
-35.892400065170257
10
26.798975724578362
20
-35.66377682211823
10
28.127247629771936
20
-35.524605108566696
10
30.265740487570127
20
-35.524605108566696
10
32.729067703514865
20
-36.133669530091488
10
36.394282044601987
20
-37.709116167102394
10
38.680020391298555
20
-38.274271252824008
10
40.018896200787566
20
-38.274271252824008
10
41.388434962302
20
-37.549216204614815
10
42.746716926501648
20
-35.936256372127723
10
42.86735304237083
20
-35.628120231964729
10
42.807034984436228
20
-35.215558841952955
10
42.618506489665307
20
-34.8946777608327
10
42.073608714117228
20
-34.681348836957987
10
41.511794189475026
20
-34.788013298895343
10
41.288638987750645
20
-35.358009953887198
10
37.300875802378179
20
-34.331166756515813
10
34.690108725194868
20
-33.887336353394353
10
33.428670521083177
20
-33.236271473852817
10
30.259934726205451
20
-31.600794934561073
10
27.888493744232328
20
-30.742169751432872
10
24.903749060024722
20
-30.374187530092232
10
24.1677846173436
20
-30.742169751432872
10
20.29034232210595
20
-37.390836182692652
10
19.472604052459808
20
-39.946268275336031
10
16.224365925811171
20
-37.901922601221358
10
14.066445492023121
20
-36.879749764163996
10
11.233110124809791
20
-35.983762028450151
10
8.4205094090266286
20
-35.505619906767215
10
4.3444460640111515
20
-34.812689138114649
10
5.3506874492973466
20
-32.958996103822983
10
6.3949867250168779
20
-32.119934836048344
10
9.9674291656416969
20
-29.249590909766091
10
10.917327155634311
20
-28.134493269339828
10
14.510419552563398
20
-21.258057820044943
10
15.0642138352665
20
-19.583363429854813
10
15.209275511783673
20
-18.730059450342779
10
15.209275511783673
20
-16.03361887508504
10
14.919152158749611
20
-15.436306089426704
10
12.383704042758588
20
-13.878879591926662
10
8.140815637862886
20
-12.263566747423255
10
1.1126937702462669
20
-10.587988024017911
10
-2.1583816759578056
20
-10.041329198766636
10
-3.8985277821601727
20
-9.1916724211801757
10
-5.2294585514220771
20
-7.6571901742793491
10
-5.4232471573420327
20
-6.0448487973784415
10
-5.7119098244224986
20
-3.6431453541288183
10
-5.4232471573420327
20
-2.5591301380462061
10
-4.1973700906825684
20
-1.4300143099950313
10
-3.7290905310398159
20
-0.1999999999999913
10
-3.6529483990601284
20
0
10
-6.7796006834432525
20
0
10
-6.9967399770753502
20
-0.1999999999999913
10
-7.9013932256710362
20
-1.0332469296215008
10
-8.6412627137170972
20
-2.0198379600373206
10
-9.3854747127366522
20
-3.5440270755078851
10
-10.014152854327065
20
-5.1284287465488232
10
-10.964617424228607
20
-7.0750350280826657
10
-11.681646300474711
20
-8.2919844355761327
10
-12.395818487971049
20
-9.082334989738591
10
-12.665433681092857
20
-9.6345224622106187
10
-12.795754912968746
20
-10.120265235566311
10
-12.900500167134865
20
-10.510679364730912
10
-14.812119622714945
20
-9.1440564737153665
10
-17.423590687943857
20
-8.0158378564110535
10
-21.175375246256962
20
-6.5874934814186625
10
-24.327255167073432
20
-5.2258051772593594
10
-26.564994687894696
20
-4.0640850855988697
10
-27.865220900766587
20
-3.1525416753765212
10
-28.990648748745897
20
-2.1276087883998196
10
-29.785773061288054
20
-1.2933800014703811
10
-30.092091443988735
20
-0.60253428729446945
10
-30.017652413443088
20
-0.1999999999999913
10
-30.017652413443088
20
0
10
-34.898354399300956
20
0
10
-35.009469764425418
20
-0.1999999999999913
10
-36.266514363906808
20
-2.4625936531339798
10
-36.528056292914286
20
-3.7611885746054474
10
-36.397285328410547
20
-4.9734468089601824
10
-35.44340418849167
20
-5.9783450821753403
10
-34.294949019103029
20
-6.2973604070055034
10
-33.194346148438783
20
-6.1378527445903464
10
-32.488610878358557
20
-6.0355722706657433
10
-28.479937678098395
20
-8.0851222873538866
10
-24.690035619115775
20
-10.422228557059853
10
-22.716292904808384
20
-12.346213120859616
10
-21.362879845796314
20
-13.952336536797198
10
-20.370988137811992
20
-15.129435049080499
10
-18.941618551004886
20
-16.010879627611509
10
-17.821838162360457
20
-16.234216074188868
10
-16.480108006739442
20
-16.234216074188868
10
-15.382347304657316
20
-16.453160768060538
10
-14.609476489285456
20
-16.973817698058141
10
-14.006095143629089
20
-17.939227851108285
10
-13.209631767362744
20
-20.328617979907268
10
-12.496435016796923
20
-24.560734738340905
10
-12.286573044431535
20
-25.806057812935826
10
-10.890233874659891
20
-28.474024793729487
10
-10.100075772139302
20
-29.599729487731402
42
-0.15420910020937403
10
-8.7583669041868717
20
-33.846568455418499
10
-8.7583669041868717
20
-38.793932774305922
10
-8.1048019651982628
20
-40.042690751432062
10
-7.4146343510543034
20
-41.025943242815174
10
-5.798399354545225
20
-42.168764589814138
10
-0.40791224840422302
20
-45.19734215121499
10
4.9156526765061059
20
-47.944512548484219
10
7.6835706983818852
20
-49.637686626876913
10
7.6835706983818852
20
-49.961164786296735
10
7.2811954269085888
20
-50.481885725850532
10
6.5847617180486395
20
-51.025055366393168
10
5.6906110136847587
20
-51.722430451059047
10
4.012372615330122
20
-52.7444943982103
10
-3.6209088740624296
20
-52.7444943982103
10
-5.3473400212199351
20
-52.553930895002559
10
-7.2038447479578949
20
-51.974512222326474
10
-11.391977513027847
20
-49.873232668560128
10
-14.979406837854192
20
-50.219228390243899
10
-16.082004151354639
20
-50.713281144326402
10
-16.938704126484438
20
-51.440178092921549
10
-18.055010154684012
20
-52.569464423774548
10
-18.470379839595488
20
-53.400203793597484
10
-18.361282991853507
20
-53.652125507496322
10
-17.735487024565941
20
-53.907827085527828
10
-15.898473056076412
20
-54.12988371908142
10
-14.868937755055036
20
-54.12988371908142
10
-13.42220514250819
20
-54.12988371908142
10
-12.082605569646674
20
-54.291813337779047
10
-11.416271347076759
20
-54.702427948627168
10
-10.966078601299287
20
-54.97984986821745
10
-9.9400025051886587
20
-55.103881044670437
10
-9.3842605997662787
20
-55.050281571558614
10
-6.6278820713195685
20
-55.489161277909709
10
-2.5162777138885062
20
-56.826802192833235
0
LWPOLYLINE
5
101
100
AcDbEntity
8
0
100
AcDbPolyline
90
28
70
1
43
0.0
10
-8.1052687494373643
20
-14.563094908164004
10
-9.0452221316938974
20
-13.094417748388082
10
-7.6487600110487719
20
-13.089147258731288
10
-6.2128644358739038
20
-13.198202618871115
10
-5.0132554743348834
20
-13.44357717918593
10
-3.6682393659430801
20
-13.888886566423789
10
-1.9220901710146521
20
-14.664637325865041
10
-0.52380981524301262
20
-15.442925448417103
10
1.2538935322221434
20
-16.544081654273967
10
3.9297889430620003
20
-18.033495137665859
10
5.655079372877907
20
-18.81606832385485
10
6.9717266506674491
20
-19.270465657771027
10
5.655079372877907
20
-20.123877569162008
10
4.8474532301304762
20
-20.501177661101856
10
4.071649631627885
20
-20.863611160402428
10
1.1547666524741018
20
-22.226296390562638
10
-0.067967121615559734
20
-23.010761131168373
10
-0.88033410318992367
20
-23.715843926247548
10
-1.4232864856670702
20
-24.358714629110722
10
-1.9536288455131512
20
-24.986654714900766
10
-2.1083120338016315
20
-25.04742311029981
10
-2.2114341593270481
20
-24.925886319501732
10
-2.3329709501251727
20
-24.657032206524171
10
-2.4870733883516394
20
-24.055543122565556
10
-2.6325989906794334
20
-23.207994011321581
10
-3.111390424846725
20
-22.228273747458815
10
-4.0242646143624938
20
-20.360317727355891
10
-6.0350214250172485
20
-17.218510210707837
0
ENDSEC
0
SECTION
2
OBJECTS
0
DICTIONARY
5
C
100
AcDbDictionary
3
ACAD_GROUP
350
D
3
ACAD_MLINESTYLE
350
17
0
DICTIONARY
5
D
100
AcDbDictionary
0
DICTIONARY
5
1A
330
C
100
AcDbDictionary
0
DICTIONARY
5
17
100
AcDbDictionary
0
ENDSEC
0
EOF
