0
SECTION
2
HEADER
9
$INSUNITS
70
4
9
$ACADVER
1
AC1014
9
$HANDSEED
5
FFFF
0
ENDSEC
0
SECTION
2
TABLES
0
TABLE
2
VPORT
5
8
100
AcDbSymbolTable
0
ENDTAB
0
TABLE
2
LTYPE
5
5
100
AcDbSymbolTable
0
LTYPE
5
14
100
AcDbSymbolTableRecord
100
AcDbLinetypeTableRecord
2
BYBLOCK
70
0
0
LTYPE
5
15
100
AcDbSymbolTableRecord
100
AcDbLinetypeTableRecord
2
BYLAYER
70
0
0
LTYPE
5
16
100
AcDbSymbolTableRecord
100
AcDbLinetypeTableRecord
2
DASHED
70
0
3
Dashed __ __ __ __ __ __ __ __ __ __ __ __ __ _
72
65
73
2
40
0.75
49
0.5
74
0
49
-0.25
74
0
0
ENDTAB
0
TABLE
2
LAYER
5
2
100
AcDbSymbolTable
70
3
0
LAYER
5
50
100
AcDbSymbolTableRecord
100
AcDbLayerTableRecord
2
1
70
0
62
7
6
DASHED
0
LAYER
5
51
100
AcDbSymbolTableRecord
100
AcDbLayerTableRecord
2
0
70
0
62
7
6
CONTINUOUS
0
ENDTAB
0
TABLE
2
STYLE
5
3
100
AcDbSymbolTable
70
1
0
STYLE
5
11
100
AcDbSymbolTableRecord
100
AcDbTextStyleTableRecord
2
STANDARD
70
0
0
ENDTAB
0
TABLE
2
VIEW
5
6
100
AcDbSymbolTable
70
0
0
ENDTAB
0
TABLE
2
UCS
5
7
100
AcDbSymbolTable
70
0
0
ENDTAB
0
TABLE
2
APPID
5
9
100
AcDbSymbolTable
70
2
0
APPID
5
12
100
AcDbSymbolTableRecord
100
AcDbRegAppTableRecord
2
ACAD
70
0
0
ENDTAB
0
TABLE
2
DIMSTYLE
5
A
100
AcDbSymbolTable
70
1
0
ENDTAB
0
TABLE
2
BLOCK_RECORD
5
1
100
AcDbSymbolTable
70
1
0
BLOCK_RECORD
5
1F
100
AcDbSymbolTableRecord
100
AcDbBlockTableRecord
2
*MODEL_SPACE
0
BLOCK_RECORD
5
1B
100
AcDbSymbolTableRecord
100
AcDbBlockTableRecord
2
*PAPER_SPACE
0
ENDTAB
0
ENDSEC
0
SECTION
2
BLOCKS
0
BLOCK
5
20
100
AcDbEntity
100
AcDbBlockBegin
2
*MODEL_SPACE
0
ENDBLK
5
21
100
AcDbEntity
100
AcDbBlockEnd
0
BLOCK
5
1C
100
AcDbEntity
100
AcDbBlockBegin
2
*PAPER_SPACE
0
ENDBLK
5
1D
100
AcDbEntity
100
AcDbBlockEnd
0
ENDSEC
0
SECTION
2
ENTITIES
0
POINT
5
100
100
AcDbEntity
8
0
100
AcDbPoint
10
0
20
0
30
0
0
LINE
5
101
100
AcDbEntity
8
0
100
AcDbLine
10
-6.0098205108194946
20
-35.578244914038805
30
0
11
-5.2722348419858633
21
-36.646559574431286
31
0
0
LINE
5
102
100
AcDbEntity
8
0
100
AcDbLine
10
-4.4720712035113053
20
-37.516493227048649
30
0
11
-4.4495431344405034
21
-37.734264561398923
31
0
0
LINE
5
103
100
AcDbEntity
8
0
100
AcDbLine
10
-0.58233714751416699
20
-34.454233754318061
30
0
11
0.28422550274981973
21
-35.320796404582126
31
0
0
LINE
5
104
100
AcDbEntity
8
0
100
AcDbLine
10
-20.912348388869617
20
-38.453780151825597
30
0
11
-23.080820727636038
21
-41.164370575283435
31
0
0
LINE
5
105
100
AcDbEntity
8
0
100
AcDbLine
10
2.426492779989573
20
-38.997404856293237
30
0
11
2.5367299212662431
21
-39.751342285631402
31
0
0
LINE
5
106
100
AcDbEntity
8
0
100
AcDbLine
10
2.0061813598800882
20
-37.861844777536909
30
0
11
2.426492779989573
21
-38.997404856293237
31
0
0
LINE
5
107
100
AcDbEntity
8
0
100
AcDbLine
10
-15.061690555384146
20
-31.140457859968794
30
0
11
-16.313576372712717
21
-32.705315131629767
31
0
0
LINE
5
108
100
AcDbEntity
8
0
100
AcDbLine
10
-6.9468213095755971
20
-33.872786648093019
30
0
11
-6.9318025968616581
21
-34.017967537659878
31
0
0
LINE
5
109
100
AcDbEntity
8
0
100
AcDbLine
10
-13.024842513132597
20
-29.277961962905913
30
0
11
-12.418732109240267
21
-28.753523193455045
31
0
0
LINE
5
110
100
AcDbEntity
8
0
100
AcDbLine
10
-6.5103562436112128
20
-34.853271959728012
30
0
11
-6.0098205108194946
21
-35.578244914038805
31
0
0
LINE
5
111
100
AcDbEntity
8
0
100
AcDbLine
10
-2.8721798093800999
20
-31.528227297094396
30
0
11
-5.1688774503382007
21
-29.176346385792403
31
0
0
LINE
5
112
100
AcDbEntity
8
0
100
AcDbLine
10
2.3162556387126187
20
-40.39527762090237
30
0
11
1.5264970146395029
21
-41.570513668630021
31
0
0
LINE
5
113
100
AcDbEntity
8
0
100
AcDbLine
10
1.5264970146395029
20
-41.570513668630021
30
0
11
0.49815510924453577
21
-42.368467854136249
31
0
0
LINE
5
114
100
AcDbEntity
8
0
100
AcDbLine
10
1.51286427648607
20
-36.77282404627055
30
0
11
2.0061813598800882
21
-37.861844777536909
31
0
0
LINE
5
115
100
AcDbEntity
8
0
100
AcDbLine
10
-23.080820727636038
20
-41.164370575283435
30
0
11
-23.590162685935994
21
-42.646070949855883
31
0
0
LINE
5
116
100
AcDbEntity
8
0
100
AcDbLine
10
-6.9318025968616581
20
-34.017967537659878
30
0
11
-6.5103562436112128
21
-34.853271959728012
31
0
0
LINE
5
117
100
AcDbEntity
8
0
100
AcDbLine
10
-16.313576372712717
20
-32.705315131629767
30
0
11
-17.214323485180998
21
-33.831249022215083
31
0
0
LINE
5
118
100
AcDbEntity
8
0
100
AcDbLine
10
-14.026661725696243
20
-57.532156172144077
30
0
11
-11.280683822242281
21
-58.365519640711405
31
0
0
LINE
5
119
100
AcDbEntity
8
0
100
AcDbLine
10
-23.080820727636038
20
-48.713805020721253
30
0
11
-23.335491706785874
21
-49.552959732649427
31
0
0
LINE
5
120
100
AcDbEntity
8
0
100
AcDbLine
10
-5.279364329070475
20
-46.057659521081334
30
0
11
-4.7694582622111881
21
-46.567565587940571
31
0
0
LINE
5
121
100
AcDbEntity
8
0
100
AcDbLine
10
-23.335491706785874
20
-49.552959732649427
30
0
11
-22.776055232167067
21
-52.298501815778565
31
0
0
LINE
5
122
100
AcDbEntity
8
0
100
AcDbLine
10
-19.058530694601998
20
-54.568053830265548
30
0
11
-18.174600083880463
21
-54.836313629005041
31
0
0
LINE
5
123
100
AcDbEntity
8
0
100
AcDbLine
10
-0.81421279695618409
20
-58.365519640711405
30
0
11
2.1277775559142498
21
-58.60180933845448
31
0
0
LINE
5
124
100
AcDbEntity
8
0
100
AcDbLine
10
-3.7562031498265469
20
-58.838099036197413
30
0
11
-0.81421279695618409
21
-58.365519640711405
31
0
0
LINE
5
125
100
AcDbEntity
8
0
100
AcDbLine
10
-7.5313235141289425
20
-58.838099036197413
30
0
11
-3.7562031498265469
21
-58.838099036197413
31
0
0
ARC
5
126
100
AcDbEntity
8
0
100
AcDbCircle
10
15.574645103356062
20
-29.454473665112889
30
0
40
0.42239999999997119
210
0
220
0
230
1
100
AcDbArc
50
260.28963371918815
51
313.35491429360007
0
LINE
5
127
100
AcDbEntity
8
0
100
AcDbLine
10
22.572910448239583
20
-32.882235031834625
30
0
11
22.541517564822016
21
-32.596339027591036
31
0
0
LINE
5
128
100
AcDbEntity
8
0
100
AcDbLine
10
22.181008535406121
20
-32.517432884695246
30
0
11
21.803322984077695
21
-32.596339027591036
31
0
0
LINE
5
129
100
AcDbEntity
8
0
100
AcDbLine
10
16.456401368975548
20
-29.202877467379928
30
0
11
16.09436594022462
21
-29.544698111262054
31
0
0
LINE
5
130
100
AcDbEntity
8
0
100
AcDbLine
10
16.09436594022462
20
-29.544698111262054
30
0
11
15.864629276269611
21
-29.761607088008454
31
0
0
LINE
5
131
100
AcDbEntity
8
0
100
AcDbLine
10
6.2646247339116456
20
-38.124615241335015
30
0
11
7.2174341029441536
21
-36.938671664986089
31
0
0
LINE
5
132
100
AcDbEntity
8
0
100
AcDbLine
10
4.4016796920551826
20
-40.828769320808419
30
0
11
6.2646247339116456
21
-38.124615241335015
31
0
0
LINE
5
133
100
AcDbEntity
8
0
100
AcDbLine
10
14.208043115049378
20
-29.725546148528309
30
0
11
14.208043115049378
21
-29.095160744242538
31
0
0
LINE
5
134
100
AcDbEntity
8
0
100
AcDbLine
10
14.208043115049378
20
-29.095160744242538
30
0
11
14.431234776383448
21
-28.214793635647858
31
0
0
LINE
5
135
100
AcDbEntity
8
0
100
AcDbLine
10
9.8639434706325346
20
-41.463874902178659
30
0
11
10.621771598456249
21
-40.55869130505571
31
0
0
LINE
5
136
100
AcDbEntity
8
0
100
AcDbLine
10
7.2174341029441536
20
-36.938671664986089
30
0
11
8.9286029139594802
21
-35.094774184195131
31
0
0
LINE
5
137
100
AcDbEntity
8
0
100
AcDbLine
10
14.654426437717234
20
-29.725546148528309
30
0
11
14.208043115049378
21
-29.725546148528309
31
0
0
LINE
5
138
100
AcDbEntity
8
0
100
AcDbLine
10
14.431234776383448
20
-28.214793635647858
30
0
11
14.728217180271699
21
-27.819070156910669
31
0
0
LINE
5
139
100
AcDbEntity
8
0
100
AcDbLine
10
-16.937498413909182
20
-27.633153565112515
30
0
11
-15.061690555384146
21
-31.140457859968794
31
0
0
LINE
5
140
100
AcDbEntity
8
0
100
AcDbLine
10
-14.523485619670069
20
-26.379742621201657
30
0
11
-13.024842513132597
21
-29.277961962905913
31
0
0
LINE
5
141
100
AcDbEntity
8
0
100
AcDbLine
10
21.477678584825313
20
-39.632763008363604
30
0
11
21.971408281703617
21
-39.36699526112146
31
0
0
LINE
5
142
100
AcDbEntity
8
0
100
AcDbLine
10
22.154016952503639
20
-38.993998994445093
30
0
11
21.971408281703617
21
-38.568156318499504
31
0
0
ARC
5
143
100
AcDbEntity
8
0
100
AcDbCircle
10
18.127934393967777
20
-13.279805743971615
30
0
40
14.931452936752587
210
0
220
0
230
1
100
AcDbArc
50
-103.16101071499411
51
61.162377380180679
0
LINE
5
144
100
AcDbEntity
8
0
100
AcDbLine
10
21.724543433264358
20
-36.519101560125748
30
0
11
21.724543433264358
21
-35.854035498575264
31
0
0
LINE
5
145
100
AcDbEntity
8
0
100
AcDbLine
10
20.707281389940491
20
-40.047456976055955
30
0
11
21.477678584825313
21
-39.632763008363604
31
0
0
LINE
5
146
100
AcDbEntity
8
0
100
AcDbLine
10
19.731112622945517
20
-35.845218772534317
30
0
11
19.616495595250854
21
-35.629682254908609
31
0
0
LINE
5
147
100
AcDbEntity
8
0
100
AcDbLine
10
-12.418732109240267
20
-28.753523193455045
30
0
11
-12.138988845905274
21
-27.828852292053799
31
0
0
LINE
5
148
100
AcDbEntity
8
0
100
AcDbLine
10
18.366074598613906
20
-40.55869130505571
30
0
11
18.740063742381423
21
-41.480465192969767
31
0
0
LINE
5
149
100
AcDbEntity
8
0
100
AcDbLine
10
-5.1688774503382007
20
-29.176346385792403
30
0
11
-4.8921061874806071
21
-27.490999782746602
31
0
0
LINE
5
150
100
AcDbEntity
8
0
100
AcDbLine
10
-7.2109415094246287
20
-45.361348431454751
30
0
11
-6.9223324406037534
21
-45.605933547864012
31
0
0
LINE
5
151
100
AcDbEntity
8
0
100
AcDbLine
10
2.5367299212662431
20
-39.751342285631402
30
0
11
2.3162556387126187
21
-40.39527762090237
31
0
0
LINE
5
152
100
AcDbEntity
8
0
100
AcDbLine
10
-4.4495431344405034
20
-37.734264561398923
30
0
11
-6.0949265495310101
21
-37.904476638821997
31
0
0
LINE
5
153
100
AcDbEntity
8
0
100
AcDbLine
10
1.8507399392637325
20
-34.148935634783562
30
0
11
-0.85690695305096654
21
-34.033226719162009
31
0
0
LINE
5
154
100
AcDbEntity
8
0
100
AcDbLine
10
-18.834952651676602
20
-36.212551491739852
30
0
11
-20.912348388869617
21
-38.453780151825597
31
0
0
LINE
5
155
100
AcDbEntity
8
0
100
AcDbLine
10
0.28422550274981973
20
-35.320796404582126
30
0
11
1.0940101490761123
21
-36.13058105090839
31
0
0
LINE
5
156
100
AcDbEntity
8
0
100
AcDbLine
10
-21.13088570922379
20
-53.939124893541049
30
0
11
-20.022898835647496
21
-54.275382436957258
31
0
0
LINE
5
157
100
AcDbEntity
8
0
100
AcDbLine
10
-0.068871458635584304
20
-48.06505239051419
30
0
11
1.9413840319124631
21
-44.855878672871057
31
0
0
LINE
5
158
100
AcDbEntity
8
0
100
AcDbLine
10
-22.776055232167067
20
-52.298501815778565
30
0
11
-21.623528309776248
21
-53.789615188512457
31
0
0
LINE
5
159
100
AcDbEntity
8
0
100
AcDbLine
10
-23.590162685935994
20
-44.216796436285641
30
0
11
-23.080820727636038
21
-46.303924822363378
31
0
0
LINE
5
160
100
AcDbEntity
8
0
100
AcDbLine
10
-5.8410218769257227
20
-45.825975782590909
30
0
11
-5.279364329070475
21
-46.057659521081334
31
0
0
LINE
5
161
100
AcDbEntity
8
0
100
AcDbLine
10
-0.5815437167947124
20
-48.577724648672998
30
0
11
-0.068871458635584304
21
-48.06505239051419
31
0
0
LINE
5
162
100
AcDbEntity
8
0
100
AcDbLine
10
-4.7694582622111881
20
-46.567565587940571
30
0
11
-3.6575772657474914
21
-47.02621649898181
31
0
0
LINE
5
163
100
AcDbEntity
8
0
100
AcDbLine
10
-18.174600083880463
20
-54.836313629005041
30
0
11
-16.179781075985673
21
-56.132793345665888
31
0
0
ARC
5
164
100
AcDbEntity
8
0
100
AcDbCircle
10
-22.634268636249431
20
-13.710086537589405
30
0
40
15.043436655865676
210
0
220
0
230
1
100
AcDbArc
50
116.09423722088691
51
309.7008065054082
0
LINE
5
165
100
AcDbEntity
8
0
100
AcDbLine
10
-6.3111392859295989
20
-45.632052351376949
30
0
11
-5.8410218769257227
21
-45.825975782590909
31
0
0
LINE
5
166
100
AcDbEntity
8
0
100
AcDbLine
10
-11.280683822242281
20
-58.365519640711405
30
0
11
-7.5313235141289425
21
-58.838099036197413
31
0
0
LINE
5
167
100
AcDbEntity
8
0
100
AcDbLine
10
-1.4989572313945843
20
-47.916647263152427
30
0
11
-1.0942159749534852
21
-48.321388519593611
31
0
0
LINE
5
168
100
AcDbEntity
8
0
100
AcDbLine
10
-3.6575772657474914
20
-47.02621649898181
30
0
11
-1.4989572313945843
21
-47.916647263152427
31
0
0
LINE
5
169
100
AcDbEntity
8
0
100
AcDbLine
10
-23.080820727636038
20
-46.303924822363378
30
0
11
-22.471289736698523
21
-47.573415283998408
31
0
0
LINE
5
170
100
AcDbEntity
8
0
100
AcDbLine
10
-6.9223324406037534
20
-45.605933547864012
30
0
11
-6.3111392859295989
21
-45.632052351376949
31
0
0
LINE
5
171
100
AcDbEntity
8
0
100
AcDbLine
10
-16.179781075985673
20
-56.132793345665888
30
0
11
-14.026661725696243
21
-57.532156172144077
31
0
0
LINE
5
172
100
AcDbEntity
8
0
100
AcDbLine
10
1.0940101490761123
20
-36.13058105090839
30
0
11
1.51286427648607
21
-36.77282404627055
31
0
0
LINE
5
173
100
AcDbEntity
8
0
100
AcDbLine
10
-0.85690695305096654
20
-34.033226719162009
30
0
11
-0.58233714751416699
21
-34.454233754318061
31
0
0
LINE
5
174
100
AcDbEntity
8
0
100
AcDbLine
10
-17.214323485180998
20
-33.831249022215083
30
0
11
-18.834952651676602
21
-36.212551491739852
31
0
0
LINE
5
175
100
AcDbEntity
8
0
100
AcDbLine
10
-5.2722348419858633
20
-36.646559574431286
30
0
11
-4.4720712035113053
21
-37.516493227048649
31
0
0
LINE
5
176
100
AcDbEntity
8
0
100
AcDbLine
10
22.062712617103557
20
-33.798301833760107
30
0
11
22.299304453708402
21
-33.509395823956851
31
0
0
LINE
5
177
100
AcDbEntity
8
0
100
AcDbLine
10
20.924083106095779
20
-33.949015762947838
30
0
11
20.687364677408411
21
-34.715532579649995
31
0
0
LINE
5
178
100
AcDbEntity
8
0
100
AcDbLine
10
19.731112622945517
20
-31.588897834406261
30
0
11
19.572070697105488
21
-30.9426917186174
31
0
0
LINE
5
179
100
AcDbEntity
8
0
100
AcDbLine
10
21.456079648835882
20
-33.020363321307713
30
0
11
20.924083106095779
21
-33.949015762947838
31
0
0
LINE
5
180
100
AcDbEntity
8
0
100
AcDbLine
10
22.541517564822016
20
-33.21362558751057
30
0
11
22.572910448239583
21
-32.882235031834625
31
0
0
ARC
5
181
100
AcDbEntity
8
0
100
AcDbCircle
10
16.746385541889524
20
-29.510010890275545
30
0
40
0.4224000000000957
210
0
220
-0
230
1
100
AcDbArc
50
62.336761672193212
51
133.35491429363714
0
LINE
5
182
100
AcDbEntity
8
0
100
AcDbLine
10
22.541517564822016
20
-32.596339027591036
30
0
11
22.181008535406121
21
-32.517432884695246
31
0
0
LINE
5
183
100
AcDbEntity
8
0
100
AcDbLine
10
18.213093482318214
20
-29.801934338466566
30
0
11
16.942494824879759
21
-29.13589471964784
31
0
0
LINE
5
184
100
AcDbEntity
8
0
100
AcDbLine
10
0.49815510924453577
20
-42.368467854136249
30
0
11
-1.4073067058318145
21
-43.003621792495011
31
0
0
LINE
5
185
100
AcDbEntity
8
0
100
AcDbLine
10
-6.0949265495310101
20
-37.904476638821997
30
0
11
-10.378597164680627
21
-37.904476638821997
31
0
0
LINE
5
186
100
AcDbEntity
8
0
100
AcDbLine
10
-8.4211582743147062
20
-33.872786648093019
30
0
11
-6.9468213095755971
21
-33.872786648093019
31
0
0
LINE
5
187
100
AcDbEntity
8
0
100
AcDbLine
10
-10.378597164680627
20
-37.904476638821997
30
0
11
-8.4211582743147062
21
-33.872786648093019
31
0
0
LINE
5
188
100
AcDbEntity
8
0
100
AcDbLine
10
19.413028771265104
20
-32.618883639847013
30
0
11
19.731112622945517
21
-31.588897834406261
31
0
0
LINE
5
189
100
AcDbEntity
8
0
100
AcDbLine
10
11.275703421757939
20
-28.295809017362817
30
0
11
11.665000068365643
21
-26.740071963679583
31
0
0
LINE
5
190
100
AcDbEntity
8
0
100
AcDbLine
10
19.413028771265104
20
-33.836292701668171
30
0
11
19.413028771265104
21
-32.618883639847013
31
0
0
LINE
5
191
100
AcDbEntity
8
0
100
AcDbLine
10
11.275703421757939
20
-28.295809017362817
30
0
11
11.05704026194303
21
-28.127906948219255
31
0
0
LINE
5
192
100
AcDbEntity
8
0
100
AcDbLine
10
22.299304453708402
20
-33.509395823956851
30
0
11
22.541517564822016
21
-33.21362558751057
31
0
0
LINE
5
193
100
AcDbEntity
8
0
100
AcDbLine
10
19.572070697105488
20
-30.9426917186174
30
0
11
19.068661517431238
21
-30.409511638764265
31
0
0
LINE
5
194
100
AcDbEntity
8
0
100
AcDbLine
10
3.785129285889326
20
-23.752888574363901
30
0
11
10.577092709978828
21
-31.250883001758073
31
0
0
LINE
5
195
100
AcDbEntity
8
0
100
AcDbLine
10
21.848412208589494
20
-34.546447987730375
30
0
11
22.062712617103557
21
-33.798301833760107
31
0
0
LINE
5
196
100
AcDbEntity
8
0
100
AcDbLine
10
19.068661517431238
20
-30.409511638764265
30
0
11
18.213093482318214
21
-29.801934338466566
31
0
0
LINE
5
197
100
AcDbEntity
8
0
100
AcDbLine
10
21.803322984077695
20
-32.596339027591036
30
0
11
21.456079648835882
21
-33.020363321307713
31
0
0
LINE
5
198
100
AcDbEntity
8
0
100
AcDbLine
10
-0.67480497831105879
20
-3.2932714945871808
30
0
11
0.57704490446148782
21
-3.4134490833333562
31
0
0
LINE
5
199
100
AcDbEntity
8
0
100
AcDbLine
10
-24.934803352873658
20
-12.440945455315763
30
0
11
-24.353665139577529
21
-12.440945455315763
31
0
0
LINE
5
200
100
AcDbEntity
8
0
100
AcDbLine
10
-8.5079495673664951
20
-5.9308993269559949
30
0
11
-6.189680239047064
21
-5.2547984441326676
31
0
0
LINE
5
201
100
AcDbEntity
8
0
100
AcDbLine
10
-22.190395100923084
20
-8.4553561512230289
30
0
11
-21.877387487084548
21
-8.2255759953993977
31
0
0
LINE
5
202
100
AcDbEntity
8
0
100
AcDbLine
10
-4.1303526938474988
20
-3.1387921591569654
30
0
11
-2.5275428048142601
21
-2.6423095555455021
31
0
0
LINE
5
203
100
AcDbEntity
8
0
100
AcDbLine
10
-23.84856614306841
20
-10.830601435490927
30
0
11
-23.654171008733869
21
-10.800007963535808
31
0
0
LINE
5
204
100
AcDbEntity
8
0
100
AcDbLine
10
-1.0253229454872326
20
-7.1089099372781348
30
0
11
-1.5074383786611634
21
-7.5444210068898485
31
0
0
LINE
5
205
100
AcDbEntity
8
0
100
AcDbLine
10
-1.0763737352139202
20
-3.0597186395209395
30
0
11
-0.67480497831105879
21
-3.2932714945871808
31
0
0
LINE
5
206
100
AcDbEntity
8
0
100
AcDbLine
10
-24.353665139577529
20
-12.440945455315763
30
0
11
-23.960333787895038
21
-12.391336095644107
31
0
0
LINE
5
207
100
AcDbEntity
8
0
100
AcDbLine
10
-21.876120982288754
20
-10.34679059923905
30
0
11
-22.157936392297088
21
-10.05542212448438
31
0
0
LINE
5
208
100
AcDbEntity
8
0
100
AcDbLine
10
-22.546825736334526
20
-9.0431953057671386
30
0
11
-22.472644741147363
21
-8.8099774940689333
31
0
0
LINE
5
209
100
AcDbEntity
8
0
100
AcDbLine
10
-23.442322064742385
20
-10.830601435490927
30
0
11
-23.187279118684572
21
-10.867432627898935
31
0
0
LINE
5
210
100
AcDbEntity
8
0
100
AcDbLine
10
-4.8459394190079053
20
-4.5624638645540259
30
0
11
-4.420044030481094
21
-4.1716047506331719
31
0
0
LINE
5
211
100
AcDbEntity
8
0
100
AcDbLine
10
2.0592351656645036
20
-3.9242038355045903
30
0
11
2.2094571515971495
21
-4.5050621811111355
31
0
0
LINE
5
212
100
AcDbEntity
8
0
100
AcDbLine
10
-6.189680239047064
20
-5.2547984441326676
30
0
11
-4.8459394190079053
21
-4.5624638645540259
31
0
0
LINE
5
213
100
AcDbEntity
8
0
100
AcDbLine
10
-25.215336386240566
20
-12.549624711651667
30
0
11
-24.934803352873658
21
-12.440945455315763
31
0
0
LINE
5
214
100
AcDbEntity
8
0
100
AcDbLine
10
-2.1870396367005185
20
-13.177878168959726
30
0
11
-2.1061760554434983
21
-13.816928167669719
31
0
0
LINE
5
215
100
AcDbEntity
8
0
100
AcDbLine
10
-0.36637600334891829
20
-6.5136610241728263
30
0
11
-1.0253229454872326
21
-7.1089099372781348
31
0
0
LINE
5
216
100
AcDbEntity
8
0
100
AcDbLine
10
-1.7625090718256331
20
-12.031358644768023
30
0
11
-2.1870396367005185
21
-13.177878168959726
31
0
0
LINE
5
217
100
AcDbEntity
8
0
100
AcDbLine
10
-23.654171008733869
20
-11.597586340897927
30
0
11
-23.958852536847886
21
-11.436281071050288
31
0
0
LINE
5
218
100
AcDbEntity
8
0
100
AcDbLine
10
0.57704490446148782
20
-3.4134490833333562
30
0
11
1.4281504021601421
21
-3.4951552111124116
31
0
0
LINE
5
219
100
AcDbEntity
8
0
100
AcDbLine
10
-8.9685687699090977
20
-5.9308993269559949
30
0
11
-8.5079495673664951
21
-5.9308993269559949
31
0
0
LINE
5
220
100
AcDbEntity
8
0
100
AcDbLine
10
-4.3255794641874701
20
-3.5544362508485836
30
0
11
-4.1303526938474988
21
-3.1387921591569654
31
0
0
LINE
5
221
100
AcDbEntity
8
0
100
AcDbLine
10
1.7436927839123939
20
-5.1359945220285006
30
0
11
0.7773408857051578
21
-5.7669268629458301
31
0
0
LINE
5
222
100
AcDbEntity
8
0
100
AcDbLine
10
-23.187279118684572
20
-10.867432627898935
30
0
11
-22.926958104354611
21
-10.867432627898935
31
0
0
LINE
5
223
100
AcDbEntity
8
0
100
AcDbLine
10
-1.6562552864047575
20
-10.924548379969025
30
0
11
-1.7625090718256331
21
-12.031358644768023
31
0
0
LINE
5
224
100
AcDbEntity
8
0
100
AcDbLine
10
-23.548246536738233
20
-12.012178846725291
30
0
11
-23.548246536738233
21
-11.781849676821231
31
0
0
LINE
5
225
100
AcDbEntity
8
0
100
AcDbLine
10
-24.235465265283551
20
-11.011612257578761
30
0
11
-23.99752230512135
21
-10.867432627898935
31
0
0
LINE
5
226
100
AcDbEntity
8
0
100
AcDbLine
10
-1.5074383786611634
20
-7.5444210068898485
30
0
11
-2.0969064451405472
21
-8.260611829428953
31
0
0
ARC
5
227
100
AcDbEntity
8
0
100
AcDbCircle
10
11.187267944904065
20
-53.300430654925243
30
0
40
0.087629611584384162
210
0
220
0
230
1
100
AcDbArc
50
229.65018484995559
51
288.19026418865246
0
LINE
5
228
100
AcDbEntity
8
0
100
AcDbLine
10
-23.712196281625282
20
-12.23775158703447
30
0
11
-23.548246536738233
21
-12.012178846725291
31
0
0
LINE
5
229
100
AcDbEntity
8
0
100
AcDbLine
10
-23.960333787895038
20
-12.391336095644107
30
0
11
-23.712196281625282
21
-12.23775158703447
31
0
0
LINE
5
230
100
AcDbEntity
8
0
100
AcDbLine
10
-24.437785714546294
20
-11.227933690347015
30
0
11
-24.432313472088225
21
-11.190040351934552
31
0
0
LINE
5
231
100
AcDbEntity
8
0
100
AcDbLine
10
1.4281504021601421
20
-3.4951552111124116
30
0
11
2.0592351656645036
21
-3.9242038355045903
31
0
0
LINE
5
232
100
AcDbEntity
8
0
100
AcDbLine
10
2.2094571515971495
20
-4.5050621811111355
30
0
11
1.7436927839123939
21
-5.1359945220285006
31
0
0
LINE
5
233
100
AcDbEntity
8
0
100
AcDbLine
10
-22.157936392297088
20
-10.05542212448438
30
0
11
-22.389598212389146
21
-9.7835578235862872
31
0
0
LINE
5
234
100
AcDbEntity
8
0
100
AcDbLine
10
-2.0969064451405472
20
-8.260611829428953
30
0
11
-2.4519994337756401
21
-8.5813792570012346
31
0
0
LINE
5
235
100
AcDbEntity
8
0
100
AcDbLine
10
-22.566727954555716
20
-9.2780414807742648
30
0
11
-22.546825736334526
21
-9.0431953057671386
31
0
0
LINE
5
236
100
AcDbEntity
8
0
100
AcDbLine
10
-22.389598212389146
20
-9.7835578235862872
30
0
11
-22.509735238741087
21
-9.5487116485790899
31
0
0
LINE
5
237
100
AcDbEntity
8
0
100
AcDbLine
10
8.9286029139594802
20
-35.094774184195131
30
0
11
9.5456080233856255
21
-34.477769074768815
31
0
0
LINE
5
238
100
AcDbEntity
8
0
100
AcDbLine
10
10.577092709978828
20
-31.250883001758073
30
0
11
10.442438381158681
21
-31.528227297094396
31
0
0
LINE
5
239
100
AcDbEntity
8
0
100
AcDbLine
10
14.021234618844574
20
-41.011283103617117
30
0
11
14.613951296556706
21
-40.30331596079445
31
0
0
LINE
5
240
100
AcDbEntity
8
0
100
AcDbLine
10
10.621771598456249
20
-40.55869130505571
30
0
11
11.773903594825939
21
-40.55869130505571
31
0
0
LINE
5
241
100
AcDbEntity
8
0
100
AcDbLine
10
-1.4073067058318145
20
-43.003621792495011
30
0
11
-4.3350331915728191
21
-44.402712325503984
31
0
0
LINE
5
242
100
AcDbEntity
8
0
100
AcDbLine
10
11.773903594825939
20
-40.55869130505571
30
0
11
14.021234618844574
21
-41.011283103617117
31
0
0
LINE
5
243
100
AcDbEntity
8
0
100
AcDbLine
10
-1.0942159749534852
20
-48.321388519593611
30
0
11
-0.5815437167947124
21
-48.577724648672998
31
0
0
LINE
5
244
100
AcDbEntity
8
0
100
AcDbLine
10
-22.471289736698523
20
-47.573415283998408
30
0
11
-23.080820727636038
21
-48.713805020721253
31
0
0
LINE
5
245
100
AcDbEntity
8
0
100
AcDbLine
10
-23.590162685935994
20
-42.646070949855883
30
0
11
-23.590162685935994
21
-44.216796436285641
31
0
0
LINE
5
246
100
AcDbEntity
8
0
100
AcDbLine
10
-21.623528309776248
20
-53.789615188512457
30
0
11
-21.13088570922379
21
-53.939124893541049
31
0
0
LINE
5
247
100
AcDbEntity
8
0
100
AcDbLine
10
-4.3350331915728191
20
-44.402712325503984
30
0
11
-7.2109415094246287
21
-45.361348431454751
31
0
0
LINE
5
248
100
AcDbEntity
8
0
100
AcDbLine
10
-20.022898835647496
20
-54.275382436957258
30
0
11
-19.058530694601998
21
-54.568053830265548
31
0
0
LINE
5
249
100
AcDbEntity
8
0
100
AcDbLine
10
1.9413840319124631
20
-44.855878672871057
30
0
11
2.9666879646730848
21
-43.367600838484847
31
0
0
LINE
5
250
100
AcDbEntity
8
0
100
AcDbLine
10
20.333613338336463
20
-35.333040436130631
30
0
11
19.993739312391412
21
-35.926324073686715
31
0
0
LINE
5
251
100
AcDbEntity
8
0
100
AcDbLine
10
18.740063742381423
20
-41.480465192969767
30
0
11
19.864295281292925
21
-41.695930088702411
31
0
0
LINE
5
252
100
AcDbEntity
8
0
100
AcDbLine
10
21.724543433264358
20
-37.992468498222912
30
0
11
21.471522600598547
21
-37.402424947822823
31
0
0
LINE
5
253
100
AcDbEntity
8
0
100
AcDbLine
10
-24.198614307960398
20
-14.522754513747337
30
0
11
-24.405659197748619
21
-13.803501169739171
31
0
0
LINE
5
254
100
AcDbEntity
8
0
100
AcDbLine
10
11.05704026194303
20
-28.127906948219255
30
0
11
-2.1061760554434983
21
-13.816928167669719
31
0
0
ARC
5
255
100
AcDbEntity
8
0
100
AcDbCircle
10
20.40490873684746
20
-42.266200431003085
30
0
40
0.73168247897200533
210
0
220
-0
230
1
100
AcDbArc
50
67.91624564283579
51
112.08375435715182
0
LINE
5
256
100
AcDbEntity
8
0
100
AcDbLine
10
20.939112847599901
20
-41.123212374173399
30
0
11
20.809553028064585
21
-40.522022714014824
31
0
0
LINE
5
257
100
AcDbEntity
8
0
100
AcDbLine
10
21.471522600598547
20
-37.402424947822823
30
0
11
21.724543433264358
21
-36.519101560125748
31
0
0
LINE
5
258
100
AcDbEntity
8
0
100
AcDbLine
10
-11.92551745798859
20
-26.30484785107814
30
0
11
-13.024842513132739
21
-25.284364744173246
31
0
0
LINE
5
259
100
AcDbEntity
8
0
100
AcDbLine
10
-22.628203240842026
20
-15.798390857113262
30
0
11
-23.138771155483795
21
-15.613233991673944
31
0
0
LINE
5
260
100
AcDbEntity
8
0
100
AcDbLine
10
20.809553028064585
20
-40.522022714014824
30
0
11
20.707281389940491
21
-40.047456976055955
31
0
0
LINE
5
261
100
AcDbEntity
8
0
100
AcDbLine
10
20.679993208529268
20
-41.588197640836142
30
0
11
20.939112847599901
21
-41.123212374173399
31
0
0
ARC
5
262
100
AcDbEntity
8
0
100
AcDbCircle
10
22.634268636249786
20
-13.710086537589156
30
0
40
10.74539862516251
210
0
220
0
230
-1
100
AcDbArc
50
193.96015159983756
51
234.7888854815221
0
LINE
5
263
100
AcDbEntity
8
0
100
AcDbLine
10
-16.400649989276062
20
-13.033970291732079
30
0
11
-19.813397001936508
21
-13.932773299500386
31
0
0
LINE
5
264
100
AcDbEntity
8
0
100
AcDbLine
10
15.735864955688399
20
-39.848124580064997
30
0
11
16.751325640615278
21
-39.848124580064997
31
0
0
LINE
5
265
100
AcDbEntity
8
0
100
AcDbLine
10
19.864295281292925
20
-41.695930088702411
30
0
11
20.129824265165794
21
-41.588197640836071
31
0
0
LINE
5
266
100
AcDbEntity
8
0
100
AcDbLine
10
-18.618550196180408
20
-23.676911359152403
30
0
11
-22.628203240842026
21
-15.798390857113262
31
0
0
LINE
5
267
100
AcDbEntity
8
0
100
AcDbLine
10
17.800080118490413
20
-39.848124580064997
30
0
11
18.366074598613906
21
-40.55869130505571
31
0
0
LINE
5
268
100
AcDbEntity
8
0
100
AcDbLine
10
20.687364677408411
20
-34.715532579649995
30
0
11
20.333613338336463
21
-35.333040436130631
31
0
0
LINE
5
269
100
AcDbEntity
8
0
100
AcDbLine
10
21.724543433264358
20
-35.854035498575264
30
0
11
21.848412208589494
21
-34.546447987730375
31
0
0
LINE
5
270
100
AcDbEntity
8
0
100
AcDbLine
10
2.9666879646730848
20
-43.367600838484847
30
0
11
4.4016796920551826
21
-40.828769320808419
31
0
0
LINE
5
271
100
AcDbEntity
8
0
100
AcDbLine
10
19.413028771265104
20
-35.247064317798646
30
0
11
19.413028771265104
21
-33.836292701668171
31
0
0
LINE
5
272
100
AcDbEntity
8
0
100
AcDbLine
10
10.442438381158681
20
-31.528227297094396
30
0
11
-2.8721798093800999
21
-31.528227297094396
31
0
0
LINE
5
273
100
AcDbEntity
8
0
100
AcDbLine
10
16.751325640615278
20
-39.848124580064997
30
0
11
17.800080118490413
21
-39.848124580064997
31
0
0
LINE
5
274
100
AcDbEntity
8
0
100
AcDbLine
10
-20.588339508465836
20
-14.361054998517758
30
0
11
-11.891177730010796
21
-13.932773299500386
31
0
0
LINE
5
275
100
AcDbEntity
8
0
100
AcDbLine
10
-19.857921618221894
20
-16.302381829970457
30
0
11
-16.438570441099003
21
-22.489432497753302
31
0
0
LINE
5
276
100
AcDbEntity
8
0
100
AcDbLine
10
19.993739312391412
20
-35.926324073686715
30
0
11
19.731112622945517
21
-35.845218772534317
31
0
0
LINE
5
277
100
AcDbEntity
8
0
100
AcDbLine
10
19.616495595250854
20
-35.629682254908609
30
0
11
19.413028771265104
21
-35.247064317798646
31
0
0
LINE
5
278
100
AcDbEntity
8
0
100
AcDbLine
10
21.971408281703617
20
-38.568156318499504
30
0
11
21.724543433264358
21
-37.992468498222912
31
0
0
LINE
5
279
100
AcDbEntity
8
0
100
AcDbLine
10
21.971408281703617
20
-39.36699526112146
30
0
11
22.154016952503639
21
-38.993998994445093
31
0
0
ARC
5
280
100
AcDbEntity
8
0
100
AcDbCircle
10
-12.212891800951837
20
-26.614424573404541
30
0
40
0.42240000000005418
210
0
220
0
230
1
100
AcDbArc
50
-16.832286949302549
51
47.130018052426706
0
LINE
5
281
100
AcDbEntity
8
0
100
AcDbLine
10
-12.206248846723966
20
-16.302381829970457
30
0
11
-19.857921618221894
21
-16.302381829970457
31
0
0
LINE
5
282
100
AcDbEntity
8
0
100
AcDbLine
10
2.2322123642813096
20
-25.040992534181928
30
0
11
3.7384463984189864
21
-24.845291648957954
31
0
0
LINE
5
283
100
AcDbEntity
8
0
100
AcDbLine
10
-23.6302214091819
20
-15.256040371522793
30
0
11
-24.198614307960398
21
-14.522754513747337
31
0
0
LINE
5
284
100
AcDbEntity
8
0
100
AcDbLine
10
8.3278426610322498
20
-50.674806941117431
30
0
11
8.3278426610322498
21
-49.87279516468729
31
0
0
LINE
5
285
100
AcDbEntity
8
0
100
AcDbLine
10
-24.405659197748619
20
-13.310298272215654
30
0
11
-24.439630069009084
21
-13.040957792934474
31
0
0
LINE
5
286
100
AcDbEntity
8
0
100
AcDbLine
10
16.862648401353368
20
-12.657512258780507
30
0
11
16.729661488112484
21
-13.502977052674257
31
0
0
LINE
5
287
100
AcDbEntity
8
0
100
AcDbLine
10
-24.817867005076337
20
-12.873255589597225
30
0
11
-25.07506986955697
21
-12.80592860147134
31
0
0
LINE
5
288
100
AcDbEntity
8
0
100
AcDbLine
10
-12.138988845905274
20
-27.828852292053799
30
0
11
-11.808588907093025
21
-26.736739454009623
31
0
0
ARC
5
289
100
AcDbEntity
8
0
100
AcDbCircle
10
10.593127619347129
20
-52.795674272150961
30
0
40
0.08762961158450383
210
0
220
0
230
1
100
AcDbArc
50
212.60807469020622
51
229.65018484994354
0
LINE
5
290
100
AcDbEntity
8
0
100
AcDbLine
10
-19.813397001936508
20
-13.932773299500386
30
0
11
-20.588339508465836
21
-14.361054998517758
31
0
0
LINE
5
291
100
AcDbEntity
8
0
100
AcDbLine
10
-24.439630069009084
20
-13.040957792934474
30
0
11
-24.579337997159669
21
-12.935694395308296
31
0
0
LINE
5
292
100
AcDbEntity
8
0
100
AcDbLine
10
8.5145487506618878
20
-43.451119844937487
30
0
11
9.8639434706325346
21
-41.463874902178659
31
0
0
LINE
5
293
100
AcDbEntity
8
0
100
AcDbLine
10
9.5456080233856255
20
-34.477769074768815
30
0
11
1.8507399392637325
21
-34.148935634783562
31
0
0
ARC
5
294
100
AcDbEntity
8
0
100
AcDbCircle
10
18.127934393967777
20
-13.279805743971579
30
0
40
11.005691469057183
210
0
220
0
230
1
100
AcDbArc
50
-109.00647911650697
51
239.03133709886549
0
LINE
5
295
100
AcDbEntity
8
0
100
AcDbLine
10
-24.405659197748619
20
-13.803501169739171
30
0
11
-24.405659197748619
21
-13.310298272215654
31
0
0
LINE
5
296
100
AcDbEntity
8
0
100
AcDbLine
10
14.987980731398025
20
-22.037907897132673
30
0
11
15.556156907162517
21
-20.503481601676942
31
0
0
ARC
5
297
100
AcDbEntity
8
0
100
AcDbCircle
10
22.634268636249431
20
-13.710086537589405
30
0
40
10.745398625162057
210
0
220
-0
230
-1
100
AcDbArc
50
-111.944924545928
51
143.64246465381467
0
LINE
5
298
100
AcDbEntity
8
0
100
AcDbLine
10
18.520743360625858
20
-14.596400225871292
30
0
11
18.965976982595549
21
-14.186875023742601
31
0
0
LINE
5
299
100
AcDbEntity
8
0
100
AcDbLine
10
2.1277775559142498
20
-58.60180933845448
30
0
11
5.0697679087841152
21
-58.838099036197413
31
0
0
LINE
5
300
100
AcDbEntity
8
0
100
AcDbLine
10
14.613951296556706
20
-40.30331596079445
30
0
11
15.735864955688399
21
-39.848124580064997
31
0
0
LINE
5
301
100
AcDbEntity
8
0
100
AcDbLine
10
15.157753408790668
20
-16.534514062794997
30
0
11
13.340273313526936
21
-20.039654246518189
31
0
0
LINE
5
302
100
AcDbEntity
8
0
100
AcDbLine
10
-23.138771155483795
20
-15.613233991673944
30
0
11
-23.6302214091819
21
-15.256040371522793
31
0
0
LINE
5
303
100
AcDbEntity
8
0
100
AcDbLine
10
19.297667509376879
20
-13.717466650338451
30
0
11
19.383825632701743
21
-13.081494015403653
31
0
0
LINE
5
304
100
AcDbEntity
8
0
100
AcDbLine
10
13.906153092537963
20
-56.294448970043199
30
0
11
13.906153092537963
21
-54.490201789035162
31
0
0
LINE
5
305
100
AcDbEntity
8
0
100
AcDbLine
10
10.222972948837068
20
-51.103373259867666
30
0
11
9.9416867936042053
21
-50.960957130819978
31
0
0
LINE
5
306
100
AcDbEntity
8
0
100
AcDbLine
10
16.327572016053225
20
-14.278435320217419
30
0
11
15.157753408790668
21
-16.534514062794997
31
0
0
LINE
5
307
100
AcDbEntity
8
0
100
AcDbLine
10
19.297667509376879
20
-12.514484996988461
30
0
11
18.634286455814504
21
-11.793260643300968
31
0
0
ARC
5
308
100
AcDbEntity
8
0
100
AcDbCircle
10
10.358649274958935
20
-52.429144519252667
30
0
40
0.087629611584461031
210
0
220
0
230
1
100
AcDbArc
50
180
51
212.60807469009745
0
LINE
5
309
100
AcDbEntity
8
0
100
AcDbLine
10
16.4602474448359
20
-18.061879236685051
30
0
11
18.016829636222482
21
-15.059899296154121
31
0
0
LINE
5
310
100
AcDbEntity
8
0
100
AcDbLine
10
3.7614817841917159
20
-24.306252022102782
30
0
11
3.785129285889326
21
-23.752888574363901
31
0
0
ARC
5
311
100
AcDbEntity
8
0
100
AcDbCircle
10
4.1588409898739798
20
-60.293989598256566
30
0
40
0.21120000000064712
210
0
220
-0
230
1
100
AcDbArc
50
22.619864948076607
51
49.650184849868999
0
LINE
5
312
100
AcDbEntity
8
0
100
AcDbLine
10
15.503399860148335
20
-29.870821927172727
30
0
11
14.654426437717234
21
-29.725546148528309
31
0
0
LINE
5
313
100
AcDbEntity
8
0
100
AcDbLine
10
-24.579337997159669
20
-12.935694395308296
30
0
11
-24.817867005076337
21
-12.873255589597225
31
0
0
LINE
5
314
100
AcDbEntity
8
0
100
AcDbLine
10
6.6972308948091097
20
-62.869474683210463
30
0
11
5.5765368792265235
21
-64.188624930718689
31
0
0
LINE
5
315
100
AcDbEntity
8
0
100
AcDbLine
10
12.820618786989613
20
-59.853476237630609
30
0
11
13.452749397123398
21
-59.109405831952479
31
0
0
LINE
5
316
100
AcDbEntity
8
0
100
AcDbLine
10
3.7384463984189864
20
-24.845291648957954
30
0
11
3.7614817841917159
21
-24.306252022102782
31
0
0
LINE
5
317
100
AcDbEntity
8
0
100
AcDbLine
10
5.3441315901201136
20
-62.291549160079633
30
0
11
6.5241556338004614
21
-62.386324292275013
31
0
0
LINE
5
318
100
AcDbEntity
8
0
100
AcDbLine
10
4.8526970373284684
20
-49.535681752298764
30
0
11
5.5418199497733411
21
-47.19024667753952
31
0
0
LINE
5
319
100
AcDbEntity
8
0
100
AcDbLine
10
8.3072419206352066
20
-49.816349799476704
30
0
11
7.925369388924679
21
-49.362876168070173
31
0
0
LINE
5
320
100
AcDbEntity
8
0
100
AcDbLine
10
6.5173313036480351
20
-48.916699816946945
30
0
11
6.0327945402574557
21
-48.916699816946945
31
0
0
LINE
5
321
100
AcDbEntity
8
0
100
AcDbLine
10
7.1099448824005407
20
-63.59722717916511
30
0
11
9.6075312925140821
21
-62.633969530715284
31
0
0
LINE
5
322
100
AcDbEntity
8
0
100
AcDbLine
10
11.586406716956432
20
-61.30624669506566
30
0
11
12.820618786989613
21
-59.853476237630609
31
0
0
LINE
5
323
100
AcDbEntity
8
0
100
AcDbLine
10
18.965976982595549
20
-14.186875023742601
30
0
11
19.297667509376879
21
-13.717466650338451
31
0
0
LINE
5
324
100
AcDbEntity
8
0
100
AcDbLine
10
6.7177693685612638
20
-62.613754724961346
30
0
11
6.6972308948091097
21
-62.869474683210463
31
0
0
LINE
5
325
100
AcDbEntity
8
0
100
AcDbLine
10
-25.07506986955697
20
-12.80592860147134
30
0
11
-25.267894767811754
21
-12.660644048147262
31
0
0
LINE
5
326
100
AcDbEntity
8
0
100
AcDbLine
10
16.729661488112484
20
-13.502977052674257
30
0
11
16.327572016053225
21
-14.278435320217419
31
0
0
ARC
5
327
100
AcDbEntity
8
0
100
AcDbCircle
10
10.183390051789658
20
-51.181553456131176
30
0
40
0.087629611584816303
210
0
220
-0
230
1
100
AcDbArc
50
0
51
63.146752580499559
0
LINE
5
328
100
AcDbEntity
8
0
100
AcDbLine
10
15.556156907162517
20
-20.503481601676942
30
0
11
16.4602474448359
21
-18.061879236685051
31
0
0
ARC
5
329
100
AcDbEntity
8
0
100
AcDbCircle
10
5.3610399390827723
20
-62.081027076356044
30
0
40
0.21119999999974801
210
0
220
0
230
1
100
AcDbArc
50
202.61986494804427
51
265.40807337321746
0
LINE
5
330
100
AcDbEntity
8
0
100
AcDbLine
10
9.9021038965747721
20
-50.951507715503304
30
0
11
9.4957710945182328
21
-50.951507715464722
31
0
0
LINE
5
331
100
AcDbEntity
8
0
100
AcDbLine
10
6.2382219905075686
20
-45.794597781216638
30
0
11
7.4489053704501629
21
-44.348503744062889
31
0
0
LINE
5
332
100
AcDbEntity
8
0
100
AcDbLine
10
-24.432313472088225
20
-11.190040351934552
30
0
11
-24.407635374669283
21
-11.147026950354121
31
0
0
LINE
5
333
100
AcDbEntity
8
0
100
AcDbLine
10
13.340273313526936
20
-20.039654246518189
30
0
11
12.46474473048174
21
-22.716623403938549
31
0
0
LINE
5
334
100
AcDbEntity
8
0
100
AcDbLine
10
-12.679624598562569
20
-12.053977107136721
30
0
11
-16.400649989276062
21
-13.033970291732079
31
0
0
LINE
5
335
100
AcDbEntity
8
0
100
AcDbLine
10
18.016829636222482
20
-15.059899296154121
30
0
11
18.520743360625858
21
-14.596400225871292
31
0
0
ARC
5
336
100
AcDbEntity
8
0
100
AcDbCircle
10
8.2402130494477177
20
-49.87279516468729
30
0
40
0.087629611584532086
210
0
220
0
230
1
100
AcDbArc
50
0
51
40.100907546246461
0
LINE
5
337
100
AcDbEntity
8
0
100
AcDbLine
10
7.4489053704501629
20
-44.348503744062889
30
0
11
8.5145487506618878
21
-43.451119844937487
31
0
0
LINE
5
338
100
AcDbEntity
8
0
100
AcDbLine
10
-3.3250361480759949
20
-18.798945896247435
30
0
11
-3.4985358651126575
21
-19.247153498592361
31
0
0
ARC
5
339
100
AcDbEntity
8
0
100
AcDbCircle
10
9.149671653969591
20
-50.863878103880189
30
0
40
0.087629611584176814
210
0
220
0
230
1
100
AcDbArc
50
180
51
270
0
ARC
5
340
100
AcDbEntity
8
0
100
AcDbCircle
10
18.127934393967777
20
-13.279805743971615
30
0
40
14.931452936752605
210
0
220
0
230
1
100
AcDbArc
50
118.83762261982004
51
244.35205280472653
0
ARC
5
341
100
AcDbEntity
8
0
100
AcDbCircle
10
7.5089239236107375
20
-49.004329428531619
30
0
40
0.087629611584599823
210
0
220
-0
230
1
100
AcDbArc
50
40.079986851978958
51
90
0
LINE
5
342
100
AcDbEntity
8
0
100
AcDbLine
10
18.634286455814504
20
-11.793260643300968
30
0
11
17.778751839771303
21
-11.650555586800579
31
0
0
LINE
5
343
100
AcDbEntity
8
0
100
AcDbLine
10
5.5765368792265235
20
-64.188624930718689
30
0
11
7.1099448824005407
21
-63.59722717916511
31
0
0
LINE
5
344
100
AcDbEntity
8
0
100
AcDbLine
10
-23.654171008733869
20
-10.800007963535808
30
0
11
-23.442322064742385
21
-10.830601435490927
31
0
0
ARC
5
345
100
AcDbEntity
8
0
100
AcDbCircle
10
-22.634268636249431
20
-13.710086537589405
30
0
40
15.043436655865648
210
0
220
-0
230
1
100
AcDbArc
50
29.759044669717508
51
63.905762779113822
0
LINE
5
346
100
AcDbEntity
8
0
100
AcDbLine
10
5.0240861199699793
20
-49.739206287935438
30
0
11
4.8526970373284684
21
-49.535681752298764
31
0
0
LINE
5
347
100
AcDbEntity
8
0
100
AcDbLine
10
3.598772732349218
20
-59.541052483343499
30
0
11
4.2955829849265825
21
-60.133032874913496
31
0
0
LINE
5
348
100
AcDbEntity
8
0
100
AcDbLine
10
-5.4456487131953679
20
-25.712853232752458
30
0
11
-5.8619886832902779
21
-21.584078570776221
31
0
0
LINE
5
349
100
AcDbEntity
8
0
100
AcDbLine
10
-0.49120743647677045
20
-22.601481361302071
30
0
11
0.6484758531151158
21
-23.440528372170903
31
0
0
LINE
5
350
100
AcDbEntity
8
0
100
AcDbLine
10
13.452749397123398
20
-59.109405831952479
30
0
11
13.900343892713067
21
-57.942146315152804
31
0
0
LINE
5
351
100
AcDbEntity
8
0
100
AcDbLine
10
12.580717504129595
20
-52.815055505279823
30
0
11
12.195882368600479
21
-53.061244265476397
31
0
0
LINE
5
352
100
AcDbEntity
8
0
100
AcDbLine
10
-4.8921061874806071
20
-27.490999782746602
30
0
11
-5.4456487131953679
21
-25.712853232752458
31
0
0
LINE
5
353
100
AcDbEntity
8
0
100
AcDbLine
10
-22.509735238741087
20
-9.5487116485790899
30
0
11
-22.566727954555716
21
-9.2780414807742648
31
0
0
ARC
5
354
100
AcDbEntity
8
0
100
AcDbCircle
10
9.9021038965747721
20
-51.039137327049218
30
0
40
0.087629611545899655
210
0
220
-0
230
1
100
AcDbArc
50
63.146752580864707
51
90
0
LINE
5
355
100
AcDbEntity
8
0
100
AcDbLine
10
-1.6562552864047575
20
-10.21349764655421
30
0
11
-1.6562552864047575
21
-10.924548379969025
31
0
0
LINE
5
356
100
AcDbEntity
8
0
100
AcDbLine
10
10.519310497374619
20
-52.842896950284953
30
0
11
10.284832152986283
21
-52.476367197386551
31
0
0
ARC
5
357
100
AcDbEntity
8
0
100
AcDbCircle
10
22.634268636237351
20
-13.710086537589209
30
0
40
10.745398625150269
210
0
220
0
230
-1
100
AcDbArc
50
173.76987395121003
51
181.18747805682631
0
LINE
5
358
100
AcDbEntity
8
0
100
AcDbLine
10
-5.308716246195857
20
-15.383893132574919
30
0
11
-4.1477139730250911
21
-14.906768910723919
31
0
0
LINE
5
359
100
AcDbEntity
8
0
100
AcDbLine
10
0.63149450504845106
20
-23.837900468107364
30
0
11
1.0379787370385429
21
-24.461176290491466
31
0
0
ARC
5
360
100
AcDbEntity
8
0
100
AcDbCircle
10
-5.0975162461950418
20
-16.181220804055553
30
0
40
0.21120000000081518
210
0
220
0
230
1
100
AcDbArc
50
180
51
227.66988976178854
0
LINE
5
361
100
AcDbEntity
8
0
100
AcDbLine
10
4.7573441544970052
20
-61.181277193350738
30
0
11
5.166086092929163
21
-62.16225784558673
31
0
0
LINE
5
362
100
AcDbEntity
8
0
100
AcDbLine
10
11.130531922585547
20
-53.367213681196162
30
0
11
10.536391597028611
21
-52.862457298421852
31
0
0
LINE
5
363
100
AcDbEntity
8
0
100
AcDbLine
10
14.543655016666008
20
-23.685486214634096
30
0
11
14.987980731398025
21
-22.037907897132673
31
0
0
LINE
5
364
100
AcDbEntity
8
0
100
AcDbLine
10
17.236783654157577
20
-11.935965699801475
30
0
11
16.862648401353368
21
-12.657512258780507
31
0
0
LINE
5
365
100
AcDbEntity
8
0
100
AcDbLine
10
19.383825632701743
20
-13.081494015403653
30
0
11
19.297667509376879
21
-12.514484996988461
31
0
0
LINE
5
366
100
AcDbEntity
8
0
100
AcDbLine
10
5.0697679087841152
20
-58.838099036197413
30
0
11
3.598772732349218
21
-59.541052483343499
31
0
0
LINE
5
367
100
AcDbEntity
8
0
100
AcDbLine
10
4.3537948360283707
20
-60.212758829025425
30
0
11
4.7573441544970052
21
-61.181277193350738
31
0
0
ARC
5
368
100
AcDbEntity
8
0
100
AcDbCircle
10
13.818523480953786
20
-57.910771659043114
30
0
40
0.087629611584553374
210
0
220
0
230
1
100
AcDbArc
50
-20.979699327050305
51
0
0
LINE
5
369
100
AcDbEntity
8
0
100
AcDbLine
10
17.778751839771303
20
-11.650555586800579
30
0
11
17.236783654157577
21
-11.935965699801475
31
0
0
LINE
5
370
100
AcDbEntity
8
0
100
AcDbLine
10
12.195882368600479
20
-53.061244265476397
30
0
11
11.214623586832815
21
-53.38368098634276
31
0
0
LINE
5
371
100
AcDbEntity
8
0
100
AcDbLine
10
13.906153092538247
20
-57.910771659043114
30
0
11
13.906153092537963
21
-56.294448970043199
31
0
0
LINE
5
372
100
AcDbEntity
8
0
100
AcDbLine
10
9.6075312925140821
20
-62.633969530715284
30
0
11
11.586406716956432
21
-61.30624669506566
31
0
0
LINE
5
373
100
AcDbEntity
8
0
100
AcDbLine
10
-24.378159975750009
20
-11.27127059644183
30
0
11
-24.437785714546294
21
-11.227933690347015
31
0
0
LINE
5
374
100
AcDbEntity
8
0
100
AcDbLine
10
-21.394306372085126
20
-8.0518839091075165
30
0
11
-20.801439968912518
21
-7.9564876024176954
31
0
0
LINE
5
375
100
AcDbEntity
8
0
100
AcDbLine
10
13.906153092537963
20
-54.490201789035162
30
0
11
13.13667141831445
21
-53.287370335029721
31
0
0
ARC
5
376
100
AcDbEntity
8
0
100
AcDbCircle
10
6.5072472848378737
20
-62.596846375998688
30
0
40
0.21119999999971853
210
0
220
0
230
1
100
AcDbArc
50
-4.5919266267868242
51
85.408073373238537
0
LINE
5
377
100
AcDbEntity
8
0
100
AcDbLine
10
-3.4985358651126575
20
-19.247153498592361
30
0
11
-0.49120743647677045
21
-22.601481361302071
31
0
0
LINE
5
378
100
AcDbEntity
8
0
100
AcDbLine
10
-20.271288983402513
20
-11.538121793196495
30
0
11
-12.360239502177777
21
-10.562402156034508
31
0
0
LINE
5
379
100
AcDbEntity
8
0
100
AcDbLine
10
0.7773408857051578
20
-5.7669268629458301
30
0
11
-0.36637600334891829
21
-6.5136610241728263
31
0
0
LINE
5
380
100
AcDbEntity
8
0
100
AcDbLine
10
-5.3759636354759266
20
-18.624520360604947
30
0
11
-4.6165723552281435
21
-17.952264940694626
31
0
0
LINE
5
381
100
AcDbEntity
8
0
100
AcDbLine
10
9.0620420423854142
20
-50.674806941117431
30
0
11
8.3278426610322498
21
-50.674806941117431
31
0
0
ARC
5
382
100
AcDbEntity
8
0
100
AcDbCircle
10
6.0327945402574557
20
-49.004329428531442
30
0
40
0.087629611584496558
210
0
220
-0
230
1
100
AcDbArc
50
90
51
130.10090754612023
0
LINE
5
383
100
AcDbEntity
8
0
100
AcDbLine
10
-4.284757078367889
20
-17.207240294949312
30
0
11
-5.2397385613789993
21
-16.337356171810654
31
0
0
LINE
5
384
100
AcDbEntity
8
0
100
AcDbLine
10
-22.691090189892051
20
-10.830601435490927
30
0
11
-22.389598212389146
21
-10.676371332977851
31
0
0
LINE
5
385
100
AcDbEntity
8
0
100
AcDbLine
10
-5.8619886832902779
20
-21.584078570776221
30
0
11
-5.3759636354759266
21
-18.624520360604947
31
0
0
LINE
5
386
100
AcDbEntity
8
0
100
AcDbLine
10
-22.472644741147363
20
-8.8099774940689333
30
0
11
-22.190395100923084
21
-8.4553561512230289
31
0
0
LINE
5
387
100
AcDbEntity
8
0
100
AcDbLine
10
5.5418199497733411
20
-47.19024667753952
30
0
11
6.2382219905075686
21
-45.794597781216638
31
0
0
LINE
5
388
100
AcDbEntity
8
0
100
AcDbLine
10
-20.801439968912518
20
-7.9564876024176954
30
0
11
-13.980640361548353
21
-7.339975918696485
31
0
0
LINE
5
389
100
AcDbEntity
8
0
100
AcDbLine
10
-22.926958104354611
20
-10.867432627898935
30
0
11
-22.691090189892051
21
-10.830601435490927
31
0
0
LINE
5
390
100
AcDbEntity
8
0
100
AcDbLine
10
-23.548246536738233
20
-11.781849676821231
30
0
11
-23.654171008733869
21
-11.597586340897927
31
0
0
LINE
5
391
100
AcDbEntity
8
0
100
AcDbLine
10
1.0379787370385429
20
-24.461176290491466
30
0
11
2.2322123642813096
21
-25.040992534181928
31
0
0
LINE
5
392
100
AcDbEntity
8
0
100
AcDbLine
10
-1.9948716507946074
20
-17.338656611188505
30
0
11
-3.3250361480759949
21
-18.798945896247435
31
0
0
LINE
5
393
100
AcDbEntity
8
0
100
AcDbLine
10
-23.99752230512135
20
-10.867432627898935
30
0
11
-23.84856614306841
21
-10.830601435490927
31
0
0
LINE
5
394
100
AcDbEntity
8
0
100
AcDbLine
10
-13.174592415423731
20
-8.6132132400882142
30
0
11
-20.784000374276275
21
-9.8202454038961893
31
0
0
LINE
5
395
100
AcDbEntity
8
0
100
AcDbLine
10
10.271019663374474
20
-52.429144519252667
30
0
11
10.271019663374474
21
-51.181553456131084
31
0
0
LINE
5
396
100
AcDbEntity
8
0
100
AcDbLine
10
9.0620420423854142
20
-50.863878103880189
30
0
11
9.0620420423854142
21
-50.674806941117431
31
0
0
LINE
5
397
100
AcDbEntity
8
0
100
AcDbLine
10
-20.573954487379709
20
-10.699594667028109
30
0
11
-20.454307586343816
21
-11.414817253221518
31
0
0
LINE
5
398
100
AcDbEntity
8
0
100
AcDbLine
10
-24.407635374669283
20
-11.147026950354121
30
0
11
-24.235465265283551
21
-11.011612257578761
31
0
0
LINE
5
399
100
AcDbEntity
8
0
100
AcDbLine
10
7.6439983780314691
20
-49.028748092633798
30
0
11
7.5759734005079338
21
-48.947908541669747
31
0
0
ARC
5
400
100
AcDbEntity
8
0
100
AcDbCircle
10
4.4269793935507806
20
-17.363375662704282
30
0
40
0.21119999999990913
210
0
220
0
230
-1
100
AcDbArc
50
132.33011023802172
51
217.80723574825143
0
LINE
5
401
100
AcDbEntity
8
0
100
AcDbLine
10
0.6484758531151158
20
-23.440528372170903
30
0
11
0.63149450504845106
21
-23.837900468107364
31
0
0
LINE
5
402
100
AcDbEntity
8
0
100
AcDbLine
10
9.4957710945182328
20
-50.951507715464722
30
0
11
9.149671653969591
21
-50.951507715464651
31
0
0
ARC
5
403
100
AcDbEntity
8
0
100
AcDbCircle
10
22.634268636253267
20
-13.710086537591216
30
0
40
10.745398625166352
210
0
220
0
230
-1
100
AcDbArc
50
151.68421396138552
51
162.96635360230255
0
LINE
5
404
100
AcDbEntity
8
0
100
AcDbLine
10
13.13667141831445
20
-53.287370335029721
30
0
11
12.580717504129595
21
-52.815055505279823
31
0
0
LINE
5
405
100
AcDbEntity
8
0
100
AcDbLine
10
-2.4519994337756401
20
-8.5813792570012346
30
0
11
-1.6562552864047575
21
-10.21349764655421
31
0
0
LINE
5
406
100
AcDbEntity
8
0
100
AcDbLine
10
-4.1477139730250911
20
-14.906768910723919
30
0
11
-1.9948716507946074
21
-17.338656611188505
31
0
0
LINE
5
407
100
AcDbEntity
8
0
100
AcDbLine
10
-4.420044030481094
20
-4.1716047506331719
30
0
11
-4.3255794641874701
21
-3.5544362508485836
31
0
0
LINE
5
408
100
AcDbEntity
8
0
100
AcDbLine
10
7.5089239236107375
20
-48.916699816947144
30
0
11
6.5173313036480351
21
-48.916699816946945
31
0
0
LINE
5
409
100
AcDbEntity
8
0
100
AcDbLine
10
-23.958852536847886
20
-11.436281071050288
30
0
11
-24.177250504335319
21
-11.350334701095676
31
0
0
LINE
5
410
100
AcDbEntity
8
0
100
AcDbLine
10
-25.267894767811754
20
-12.660644048147262
30
0
11
-25.215336386240566
21
-12.549624711651667
31
0
0
LINE
5
411
100
AcDbEntity
8
0
100
AcDbLine
10
-20.454307586343816
20
-11.414817253221518
30
0
11
-20.271288983402513
21
-11.538121793196495
31
0
0
LINE
5
412
100
AcDbEntity
8
0
100
AcDbLine
10
5.976349175046991
20
-48.937300557343796
30
0
11
5.0240861199699793
21
-49.739206287935438
31
0
0
LINE
5
413
100
AcDbEntity
8
0
100
AcDbLine
10
-22.389598212389146
20
-10.676371332977851
30
0
11
-21.876120982288754
21
-10.34679059923905
31
0
0
LINE
5
414
100
AcDbEntity
8
0
100
AcDbLine
10
-4.6165723552281435
20
-17.952264940694626
30
0
11
-4.2601150036925617
21
-17.492842706376624
31
0
0
LINE
5
415
100
AcDbEntity
8
0
100
AcDbLine
10
-5.308716246195857
20
-16.181220804055471
30
0
11
-5.308716246195857
21
-15.383893132574919
31
0
0
LINE
5
416
100
AcDbEntity
8
0
100
AcDbLine
10
-20.612813734388169
20
-10.38452729093374
30
0
11
-20.573954487379709
21
-10.699594667028109
31
0
0
LINE
5
417
100
AcDbEntity
8
0
100
AcDbLine
10
-2.5275428048142601
20
-2.6423095555455021
30
0
11
-1.0763737352139202
21
-3.0597186395209395
31
0
0
LINE
5
418
100
AcDbEntity
8
0
100
AcDbLine
10
-21.877387487084548
20
-8.2255759953993977
30
0
11
-21.394306372085126
21
-8.0518839091075165
31
0
0
LINE
5
419
100
AcDbEntity
8
0
100
AcDbLine
10
-24.177250504335319
20
-11.350334701095676
30
0
11
-24.378159975750009
21
-11.27127059644183
31
0
0
LINE
5
420
100
AcDbEntity
8
0
100
AcDbLine
10
-9.5747533166072429
20
-6.2432233384224887
30
0
11
-8.9685687699090977
21
-5.9308993269559949
31
0
0
LINE
5
421
100
AcDbEntity
8
0
100
AcDbLine
10
7.925369388924679
20
-49.362876168070173
30
0
11
7.6439983780314691
21
-49.028748092633798
31
0
0
LINE
5
422
100
AcDbEntity
8
0
100
AcDbLine
10
-11.952331898825364
20
-12.543973699434424
30
0
11
-12.679624598562569
21
-12.053977107136721
31
0
0
LINE
5
423
100
AcDbEntity
8
0
100
AcDbLine
10
-20.784000374276275
20
-9.8202454038961893
30
0
11
-20.612813734388169
21
-10.38452729093374
31
0
0
LINE
5
424
100
AcDbEntity
8
0
100
AcDbLine
10
0
20
0
30
0
11
-28.84275211863033
21
0
31
0
0
LINE
5
425
100
AcDbEntity
8
0
100
AcDbLine
10
0
20
0
30
0
11
24.966573495210692
21
0
31
0
0
LINE
5
426
100
AcDbEntity
8
0
100
AcDbLine
10
25.329806963127908
20
-0.19999999999996576
30
0
11
24.966573495210692
21
0
31
0
0
LINE
5
427
100
AcDbEntity
8
0
100
AcDbLine
10
10.926061824807434
20
-0.19999999999996576
30
0
11
11.289295292724635
21
0
31
0
0
LINE
5
428
100
AcDbEntity
8
0
100
AcDbLine
10
-16.017430405955082
20
-0.19999999999996576
30
0
11
-16.425785153868759
21
0
31
0
0
LINE
5
429
100
AcDbEntity
8
0
100
AcDbLine
10
-29.251106866543992
20
-0.19999999999996576
30
0
11
-28.84275211863033
21
0
31
0
0
ENDSEC
0
SECTION
2
OBJECTS
0
DICTIONARY
5
C
100
AcDbDictionary
3
ACAD_GROUP
350
D
3
ACAD_MLINESTYLE
350
17
0
DICTIONARY
5
D
100
AcDbDictionary
0
DICTIONARY
5
1A
330
C
100
AcDbDictionary
0
DICTIONARY
5
17
100
AcDbDictionary
0
ENDSEC
0
EOF
