0
SECTION
2
HEADER
9
$INSUNITS
70
4
9
$ACADVER
1
AC1014
9
$HANDSEED
5
FFFF
0
ENDSEC
0
SECTION
2
TABLES
0
TABLE
2
VPORT
5
8
100
AcDbSymbolTable
0
ENDTAB
0
TABLE
2
LTYPE
5
5
100
AcDbSymbolTable
0
LTYPE
5
14
100
AcDbSymbolTableRecord
100
AcDbLinetypeTableRecord
2
BYBLOCK
70
0
0
LTYPE
5
15
100
AcDbSymbolTableRecord
100
AcDbLinetypeTableRecord
2
BYLAYER
70
0
0
LTYPE
5
16
100
AcDbSymbolTableRecord
100
AcDbLinetypeTableRecord
2
DASHED
70
0
3
Dashed __ __ __ __ __ __ __ __ __ __ __ __ __ _
72
65
73
2
40
0.75
49
0.5
74
0
49
-0.25
74
0
0
ENDTAB
0
TABLE
2
LAYER
5
2
100
AcDbSymbolTable
70
3
0
LAYER
5
50
100
AcDbSymbolTableRecord
100
AcDbLayerTableRecord
2
1
70
0
62
7
6
DASHED
0
LAYER
5
51
100
AcDbSymbolTableRecord
100
AcDbLayerTableRecord
2
0
70
0
62
7
6
CONTINUOUS
0
ENDTAB
0
TABLE
2
STYLE
5
3
100
AcDbSymbolTable
70
1
0
STYLE
5
11
100
AcDbSymbolTableRecord
100
AcDbTextStyleTableRecord
2
STANDARD
70
0
0
ENDTAB
0
TABLE
2
VIEW
5
6
100
AcDbSymbolTable
70
0
0
ENDTAB
0
TABLE
2
UCS
5
7
100
AcDbSymbolTable
70
0
0
ENDTAB
0
TABLE
2
APPID
5
9
100
AcDbSymbolTable
70
2
0
APPID
5
12
100
AcDbSymbolTableRecord
100
AcDbRegAppTableRecord
2
ACAD
70
0
0
ENDTAB
0
TABLE
2
DIMSTYLE
5
A
100
AcDbSymbolTable
70
1
0
ENDTAB
0
TABLE
2
BLOCK_RECORD
5
1
100
AcDbSymbolTable
70
1
0
BLOCK_RECORD
5
1F
100
AcDbSymbolTableRecord
100
AcDbBlockTableRecord
2
*MODEL_SPACE
0
BLOCK_RECORD
5
1B
100
AcDbSymbolTableRecord
100
AcDbBlockTableRecord
2
*PAPER_SPACE
0
ENDTAB
0
ENDSEC
0
SECTION
2
BLOCKS
0
BLOCK
5
20
100
AcDbEntity
100
AcDbBlockBegin
2
*MODEL_SPACE
0
ENDBLK
5
21
100
AcDbEntity
100
AcDbBlockEnd
0
BLOCK
5
1C
100
AcDbEntity
100
AcDbBlockBegin
2
*PAPER_SPACE
0
ENDBLK
5
1D
100
AcDbEntity
100
AcDbBlockEnd
0
ENDSEC
0
SECTION
2
ENTITIES
0
POINT
5
100
100
AcDbEntity
8
0
100
AcDbPoint
10
0
20
0
30
0
0
LINE
5
101
100
AcDbEntity
8
0
100
AcDbLine
10
0
20
0
30
0
11
-13.857959425376144
21
0
31
0
0
LINE
5
102
100
AcDbEntity
8
0
100
AcDbLine
10
-13.857959425376144
20
0
30
0
11
-16.421249983602557
21
-1.0641412715740706
31
0
0
LINE
5
103
100
AcDbEntity
8
0
100
AcDbLine
10
-16.421249983602557
20
-1.0641412715740706
30
0
11
-18.647986115470658
21
-1.0641412715740706
31
0
0
LINE
5
104
100
AcDbEntity
8
0
100
AcDbLine
10
-18.647986115470658
20
-1.0641412715740706
30
0
11
-19.710282251774704
21
-0.77813846564605771
31
0
0
LINE
5
105
100
AcDbEntity
8
0
100
AcDbLine
10
-19.710282251774704
20
-0.77813846564605771
30
0
11
-20.719804741753478
21
-1.4910127166847398
31
0
0
LINE
5
106
100
AcDbEntity
8
0
100
AcDbLine
10
-20.719804741753478
20
-1.4910127166847398
30
0
11
-22.073539780175352
21
-1.8663055986234778
31
0
0
LINE
5
107
100
AcDbEntity
8
0
100
AcDbLine
10
-31.190657332384262
20
-18.500060665863444
30
0
11
-27.360312867822458
21
-20.506431575872011
31
0
0
LINE
5
108
100
AcDbEntity
8
0
100
AcDbLine
10
-27.360312867822458
20
-20.506431575872011
30
0
11
-23.863857695024965
21
-20.506431575872011
31
0
0
LINE
5
109
100
AcDbEntity
8
0
100
AcDbLine
10
-21.125603246474412
20
-19.637728082838866
30
0
11
-17.500297617048449
21
-17.080075182754527
31
0
0
LINE
5
110
100
AcDbEntity
8
0
100
AcDbLine
10
-17.500297617048449
20
-17.080075182754527
30
0
11
-15.842957201576633
21
-16.76656976939616
31
0
0
LINE
5
111
100
AcDbEntity
8
0
100
AcDbLine
10
-15.842957201576633
20
-16.76656976939616
30
0
11
-14.798583373017207
21
-16.02976409714994
31
0
0
LINE
5
112
100
AcDbEntity
8
0
100
AcDbLine
10
-14.798583373017207
20
-16.02976409714994
30
0
11
-13.817314571409209
21
-15.337479017562764
31
0
0
LINE
5
113
100
AcDbEntity
8
0
100
AcDbLine
10
-13.817314571409209
20
-15.337479017562764
30
0
11
-11.853636094124509
21
-16.39816693327305
31
0
0
LINE
5
114
100
AcDbEntity
8
0
100
AcDbLine
10
-11.853636094124509
20
-16.39816693327305
30
0
11
-12.104536792706408
21
-19.526477453797003
31
0
0
LINE
5
115
100
AcDbEntity
8
0
100
AcDbLine
10
-12.104536792706408
20
-19.526477453797003
30
0
11
-11.301654557244344
21
-22.738006395645254
31
0
0
LINE
5
116
100
AcDbEntity
8
0
100
AcDbLine
10
-11.301654557244344
20
-22.738006395645254
30
0
11
-7.1367029607848931
21
-27.580389878275824
31
0
0
LINE
5
117
100
AcDbEntity
8
0
100
AcDbLine
10
-7.1367029607848931
20
-27.580389878275824
30
0
11
-4.3015250668094884
21
-33.351105945659398
31
0
0
LINE
5
118
100
AcDbEntity
8
0
100
AcDbLine
10
-4.3015250668094884
20
-33.351105945659398
30
0
11
-1.7925180809905417
21
-37.064436284671437
31
0
0
LINE
5
119
100
AcDbEntity
8
0
100
AcDbLine
10
-1.7925180809905417
20
-37.064436284671437
30
0
11
1.1922621372452458
21
-40.534692803463656
31
0
0
LINE
5
120
100
AcDbEntity
8
0
100
AcDbLine
10
1.1922621372452458
20
-40.534692803463656
30
0
11
3.2254958906473519
21
-40.534692803463656
31
0
0
LINE
5
121
100
AcDbEntity
8
0
100
AcDbLine
10
3.2254958906473519
20
-40.534692803463656
30
0
11
7.6897844158493776
21
-38.341368441081791
31
0
0
LINE
5
122
100
AcDbEntity
8
0
100
AcDbLine
10
7.6897844158493776
20
-38.341368441081791
30
0
11
12.659362157326584
21
-34.153988181121463
31
0
0
LINE
5
123
100
AcDbEntity
8
0
100
AcDbLine
10
12.659362157326584
20
-34.153988181121463
30
0
11
19.659491647761445
21
-26.80259771267195
31
0
0
LINE
5
124
100
AcDbEntity
8
0
100
AcDbLine
10
19.659491647761445
20
-26.80259771267195
30
0
11
21.259612883900488
21
-25.122183654647788
31
0
0
LINE
5
125
100
AcDbEntity
8
0
100
AcDbLine
10
21.259612883900488
20
-25.122183654647788
30
0
11
31.075473433237647
21
-22.411835487488794
31
0
0
LINE
5
126
100
AcDbEntity
8
0
100
AcDbLine
10
31.075473433237647
20
-22.411835487488794
30
0
11
32.856868393169101
21
-21.573827154225267
31
0
0
LINE
5
127
100
AcDbEntity
8
0
100
AcDbLine
10
32.856868393169101
20
-21.573827154225267
30
0
11
32.856868393169101
21
-20.610368471670792
31
0
0
LINE
5
128
100
AcDbEntity
8
0
100
AcDbLine
10
32.856868393169101
20
-20.610368471670792
30
0
11
31.966170913203374
21
-20.108567074507
31
0
0
LINE
5
129
100
AcDbEntity
8
0
100
AcDbLine
10
31.966170913203374
20
-20.108567074507
30
0
11
34.342145939051214
21
-18.621150497816092
31
0
0
LINE
5
130
100
AcDbEntity
8
0
100
AcDbLine
10
34.484789361065879
20
-18.000946616696385
30
0
11
34.45136699859286
21
-17.947558278966962
31
0
0
LINE
5
131
100
AcDbEntity
8
0
100
AcDbLine
10
33.089908320040287
20
-17.434767572162855
30
0
11
29.926348233732568
21
-18.382370268263571
31
0
0
LINE
5
132
100
AcDbEntity
8
0
100
AcDbLine
10
29.926348233732568
20
-18.382370268263571
30
0
11
31.090527475152562
21
-17.172329296264799
31
0
0
LINE
5
133
100
AcDbEntity
8
0
100
AcDbLine
10
31.090527475152562
20
-17.172329296264799
30
0
11
33.553175914849199
21
-15.63065311199612
31
0
0
LINE
5
134
100
AcDbEntity
8
0
100
AcDbLine
10
33.553175914849199
20
-15.63065311199612
30
0
11
33.786040211303586
21
-15.132068782651318
31
0
0
LINE
5
135
100
AcDbEntity
8
0
100
AcDbLine
10
23.463146238262965
20
-16.595957294360485
30
0
11
21.65666120847332
21
-16.595957294360485
31
0
0
LINE
5
136
100
AcDbEntity
8
0
100
AcDbLine
10
21.65666120847332
20
-16.595957294360485
30
0
11
21.65666120847332
21
-16.074083841310141
31
0
0
LINE
5
137
100
AcDbEntity
8
0
100
AcDbLine
10
21.65666120847332
20
-16.074083841310141
30
0
11
24.085379970746061
21
-13.10341957010051
31
0
0
LINE
5
138
100
AcDbEntity
8
0
100
AcDbLine
10
24.085379970746061
20
-13.10341957010051
30
0
11
23.586841621441678
21
-12.695830784520577
31
0
0
LINE
5
139
100
AcDbEntity
8
0
100
AcDbLine
10
23.586841621441678
20
-12.695830784520577
30
0
11
21.91759793499849
21
-13.10341957010051
31
0
0
LINE
5
140
100
AcDbEntity
8
0
100
AcDbLine
10
21.91759793499849
20
-13.10341957010051
30
0
11
18.746213104923342
21
-16.274804400175658
31
0
0
LINE
5
141
100
AcDbEntity
8
0
100
AcDbLine
10
18.746213104923342
20
-16.274804400175658
30
0
11
16.999944242793358
21
-20.871305198195969
31
0
0
LINE
5
142
100
AcDbEntity
8
0
100
AcDbLine
10
16.999944242793358
20
-20.871305198195969
30
0
11
11.670813404913915
21
-26.200436036075409
31
0
0
LINE
5
143
100
AcDbEntity
8
0
100
AcDbLine
10
11.670813404913915
20
-26.200436036075409
30
0
11
5.0369989344086186
21
-28.578974658631772
31
0
0
LINE
5
144
100
AcDbEntity
8
0
100
AcDbLine
10
5.0369989344086186
20
-28.578974658631772
30
0
11
3.1285628489141559
21
-23.25629004887718
31
0
0
LINE
5
145
100
AcDbEntity
8
0
100
AcDbLine
10
3.1285628489141559
20
-23.25629004887718
30
0
11
0.44049813638830759
21
-20.51000819223804
31
0
0
LINE
5
146
100
AcDbEntity
8
0
100
AcDbLine
10
0.44049813638830759
20
-20.51000819223804
30
0
11
-0.5831767138258237
21
-16.796677853226001
31
0
0
LINE
5
147
100
AcDbEntity
8
0
100
AcDbLine
10
-0.5831767138258237
20
-16.796677853226001
30
0
11
5.3380797727068918
21
-10.734916975487426
31
0
0
LINE
5
148
100
AcDbEntity
8
0
100
AcDbLine
10
5.3380797727068918
20
-10.734916975487426
30
0
11
10.890773169050743
21
-7.914666669474844
31
0
0
LINE
5
149
100
AcDbEntity
8
0
100
AcDbLine
10
10.890773169050743
20
-7.914666669474844
30
0
11
15.063797746387767
21
-4.5057170147488268
31
0
0
LINE
5
150
100
AcDbEntity
8
0
100
AcDbLine
10
15.063797746387767
20
-4.5057170147488268
30
0
11
16.827047567797777
21
-1.9490047737043126
31
0
0
LINE
5
151
100
AcDbEntity
8
0
100
AcDbLine
10
16.827047567797777
20
-1.9490047737043126
30
0
11
17.765457273655407
21
0
31
0
0
LINE
5
152
100
AcDbEntity
8
0
100
AcDbLine
10
0
20
0
30
0
11
17.765457273655407
21
0
31
0
0
LINE
5
153
100
AcDbEntity
8
0
100
AcDbLine
10
-22.073539780175352
20
-1.8663055986234778
30
0
11
-24.064699338172019
21
-2.7700544139039303
31
0
0
LINE
5
154
100
AcDbEntity
8
0
100
AcDbLine
10
-24.064699338172019
20
-2.7700544139039303
30
0
11
-27.006462314567056
21
-3.0238554757077263
31
0
0
LINE
5
155
100
AcDbEntity
8
0
100
AcDbLine
10
-27.006462314567056
20
-3.0238554757077263
30
0
11
-29.692483112050816
21
-4.4782374684916153
31
0
0
LINE
5
156
100
AcDbEntity
8
0
100
AcDbLine
10
-29.692483112050816
20
-4.4782374684916153
30
0
11
-31.631659102429332
21
-6.6532591874296827
31
0
0
LINE
5
157
100
AcDbEntity
8
0
100
AcDbLine
10
-31.631659102429332
20
-6.6532591874296827
30
0
11
-32.758477583324954
21
-9.051024094451769
31
0
0
LINE
5
158
100
AcDbEntity
8
0
100
AcDbLine
10
-32.758477583324954
20
-9.051024094451769
30
0
11
-33.334989364248301
21
-10.950892463403699
31
0
0
LINE
5
159
100
AcDbEntity
8
0
100
AcDbLine
10
-33.334989364248301
20
-10.950892463403699
30
0
11
-33.334989364248301
21
-14.803039363209674
31
0
0
LINE
5
160
100
AcDbEntity
8
0
100
AcDbLine
10
-33.334989364248301
20
-14.803039363209674
30
0
11
-32.732272502373895
21
-16.401549301224399
31
0
0
LINE
5
161
100
AcDbEntity
8
0
100
AcDbLine
10
-32.732272502373895
20
-16.401549301224399
30
0
11
-31.190657332384262
21
-18.500060665863444
31
0
0
LINE
5
162
100
AcDbEntity
8
0
100
AcDbLine
10
33.654646068101989
20
-14.211569309866023
30
0
11
33.657942369212364
21
-14.215323752958668
31
0
0
LINE
5
163
100
AcDbEntity
8
0
100
AcDbLine
10
32.868900638273772
20
-13.858081392279535
30
0
11
31.317331115605324
21
-13.858081392279535
31
0
0
LINE
5
164
100
AcDbEntity
8
0
100
AcDbLine
10
31.317331115605324
20
-13.858081392279535
30
0
11
29.692544140470272
21
-14.083299388832911
31
0
0
LINE
5
165
100
AcDbEntity
8
0
100
AcDbLine
10
29.692544140470272
20
-14.083299388832911
30
0
11
23.463146238262965
21
-16.595957294360485
31
0
0
ARC
5
166
100
AcDbEntity
8
0
100
AcDbCircle
10
33.434237261080369
20
-18.584305557773686
30
0
40
1.199999999999998
210
0
220
-0
230
1
100
AcDbArc
50
32.047540003583968
51
106.67489357218757
0
ARC
5
167
100
AcDbEntity
8
0
100
AcDbCircle
10
34.103365709498689
20
-18.239726846248907
30
0
40
0.4500000000000009
210
0
220
0
230
1
100
AcDbArc
50
-57.952459996415755
51
32.047540003583613
0
ARC
5
168
100
AcDbEntity
8
0
100
AcDbCircle
10
32.868900638273779
20
-14.908081392279513
30
0
40
1.0499999999999781
210
0
220
-0
230
1
100
AcDbArc
50
41.282271546280775
51
90.000000000000398
0
ARC
5
169
100
AcDbEntity
8
0
100
AcDbCircle
10
33.015898000199321
20
-14.772373113125772
30
0
40
0.84999999999999465
210
-0
220
0
230
1
100
AcDbArc
50
-25.034972247548154
51
41.28227154628145
0
ARC
5
170
100
AcDbEntity
8
0
100
AcDbCircle
10
-23.863857695024961
20
-15.756431575872012
30
0
40
4.7499999999999982
210
0
220
0
230
1
100
AcDbArc
50
269.99999999999994
51
305.2029663258304
0
ENDSEC
0
SECTION
2
OBJECTS
0
DICTIONARY
5
C
100
AcDbDictionary
3
ACAD_GROUP
350
D
3
ACAD_MLINESTYLE
350
17
0
DICTIONARY
5
D
100
AcDbDictionary
0
DICTIONARY
5
1A
330
C
100
AcDbDictionary
0
DICTIONARY
5
17
100
AcDbDictionary
0
ENDSEC
0
EOF
